<svg width="320" height="60" viewBox="0 0 320 60" fill="none" xmlns="http://www.w3.org/2000/svg">
<path fill-rule="evenodd" clip-rule="evenodd" d="M35.5556 43.3787L31.167 38.9342C29.5 40.4894 27.815 41.7216 26.1105 42.6292C24.4075 43.5361 22.3703 43.9896 20.0002 43.9896C18.1481 43.9896 16.4353 43.6291 14.8613 42.9065C13.2872 42.184 11.9261 41.1939 10.7778 39.934C9.62944 38.6749 8.74123 37.2028 8.11086 35.518C7.48124 33.8331 7.16718 32.0268 7.16718 30.1021C7.16718 28.1758 7.48124 26.3793 8.11086 24.7124C8.74123 23.0462 9.62944 21.593 10.7778 20.3518C11.9261 19.1114 13.2872 18.1303 14.8613 17.4077C16.4353 16.686 18.1481 16.3247 20.0002 16.3247C22.2218 16.3247 24.2037 16.7692 25.9441 17.6581C27.6853 18.5462 29.3336 19.7132 30.8881 21.1575L35.2775 16.1029C34.3518 15.2139 33.3706 14.3992 32.3333 13.658C31.2966 12.9175 30.1671 12.2781 28.9445 11.7415C27.722 11.2041 26.3796 10.7881 24.9165 10.4921C23.4534 10.1953 21.8328 10.0469 20.0557 10.0469C17.0927 10.0469 14.3891 10.5753 11.9448 11.6306C9.49977 12.6859 7.38904 14.1302 5.61112 15.9634C3.83319 17.7967 2.45402 19.9351 1.47211 22.3799C0.490204 24.8241 0 27.4353 0 30.213C0 33.0274 0.499948 35.6566 1.49985 38.1015C2.49974 40.5449 3.87966 42.6652 5.63885 44.4618C7.39804 46.2576 9.48103 47.6741 11.8886 48.7114C14.2961 49.7487 16.9263 50.2667 19.7776 50.2667C21.593 50.2667 23.2502 50.1093 24.7501 49.7945C26.2499 49.4797 27.6298 49.0172 28.8891 48.4064C30.1483 47.7948 31.3244 47.0723 32.4172 46.2396C33.5093 45.4061 34.5557 44.452 35.5556 43.3787Z" fill="#161931"/>
<path fill-rule="evenodd" clip-rule="evenodd" d="M123.709 21.0574C123.709 19.7638 124.262 18.6645 125.367 17.7597C126.472 16.8534 128.02 16.401 130.008 16.401C131.777 16.401 133.526 16.7434 135.257 17.4269C136.989 18.1104 138.739 19.099 140.506 20.3919L144.153 15.2374C142.165 13.6484 140.037 12.4384 137.772 11.6077C135.506 10.7761 132.955 10.3604 130.119 10.3604C128.204 10.3604 126.435 10.6281 124.824 11.1642C123.203 11.6996 121.822 12.4661 120.671 13.4637C119.52 14.462 118.617 15.6532 117.954 17.0388C117.3 18.4245 116.969 19.9671 116.969 21.6669C116.969 23.4773 117.254 25.011 117.825 26.2672C118.396 27.5235 119.234 28.5951 120.321 29.482C121.407 30.3688 122.761 31.1077 124.363 31.6992C125.975 32.2907 127.808 32.8253 129.879 33.3061C131.685 33.7496 133.148 34.1743 134.281 34.5804C135.405 34.9872 136.289 35.4216 136.943 35.883C137.587 36.3451 138.03 36.8529 138.269 37.407C138.508 37.9619 138.628 38.5892 138.628 39.2914C138.628 40.8072 138.011 42.0081 136.777 42.8942C135.543 43.7819 133.876 44.2246 131.777 44.2246C129.346 44.2246 127.172 43.7901 125.257 42.9219C123.341 42.0537 121.444 40.8072 119.565 39.1807L115.477 44.0586C117.798 46.1643 120.321 47.7257 123.046 48.7419C125.773 49.7582 128.627 50.2659 131.61 50.2659C133.637 50.2659 135.497 50.0072 137.192 49.4905C138.877 48.9722 140.332 48.2147 141.529 47.2172C142.735 46.2197 143.674 45.0008 144.356 43.5598C145.028 42.1188 145.369 40.4744 145.369 38.6266C145.369 37.001 145.102 35.5876 144.567 34.3867C144.033 33.1858 143.241 32.1336 142.21 31.2273C141.179 30.3225 139.871 29.5553 138.306 28.9271C136.741 28.2997 134.935 27.7269 132.909 27.2095C131.058 26.766 129.539 26.3405 128.333 25.9345C127.135 25.5284 126.196 25.085 125.505 24.6042C124.824 24.1241 124.355 23.6066 124.096 23.0525C123.839 22.4977 123.709 21.8329 123.709 21.0574Z" fill="#161931"/>
<path fill-rule="evenodd" clip-rule="evenodd" d="M199.345 21.6067V49.3235H206.096V10.6748H198.847L187.06 28.9503L175.273 10.6748H168.024V49.3235H174.775V21.717L186.893 39.8271H187.115L199.345 21.6067Z" fill="#161931"/>
<path fill-rule="evenodd" clip-rule="evenodd" d="M262.817 30.2129C262.817 32.1017 262.494 33.8885 261.847 35.5741C261.201 37.259 260.304 38.7213 259.157 39.9617C258.012 41.2021 256.635 42.184 255.027 42.9065C253.418 43.629 251.654 43.9895 249.732 43.9895C247.809 43.9895 246.034 43.6193 244.408 42.8788C242.781 42.1375 241.385 41.1377 240.221 39.8792C239.057 38.6193 238.151 37.1473 237.504 35.4624C236.857 33.7776 236.534 31.99 236.534 30.102C236.534 28.2125 236.857 26.4257 237.504 24.7408C238.151 23.0552 239.047 21.5929 240.193 20.3517C241.34 19.1113 242.717 18.1302 244.325 17.4077C245.932 16.6859 247.698 16.3246 249.62 16.3246C251.543 16.3246 253.317 16.6949 254.944 17.4362C256.57 18.1767 257.966 19.1765 259.13 20.4357C260.295 21.6941 261.201 23.1669 261.847 24.8517C262.494 26.5366 262.817 28.3242 262.817 30.2129ZM269.97 30.1021C269.97 27.3611 269.471 24.7686 268.473 22.3237C267.476 19.8803 266.089 17.7503 264.315 15.9357C262.541 14.1204 260.415 12.6859 257.937 11.6306C255.461 10.5753 252.726 10.0469 249.732 10.0469C246.737 10.0469 244.002 10.5843 241.524 11.6583C239.047 12.7323 236.903 14.1856 235.092 16.0189C233.28 17.8522 231.876 19.9913 230.878 22.4354C229.88 24.8795 229.38 27.472 229.38 30.213C229.38 32.9532 229.88 35.5449 230.878 37.9898C231.876 40.4347 233.262 42.564 235.036 44.3786C236.81 46.1931 238.937 47.6284 241.414 48.6837C243.89 49.739 246.625 50.2667 249.62 50.2667C252.614 50.2667 255.35 49.7293 257.827 48.656C260.304 47.5819 262.448 46.1287 264.26 44.2946C266.071 42.4621 267.476 40.323 268.473 37.8789C269.471 35.4348 269.97 32.8422 269.97 30.1021Z" fill="#161931"/>
<path fill-rule="evenodd" clip-rule="evenodd" d="M298.34 21.0574C298.34 19.7638 298.893 18.6645 299.997 17.7597C301.103 16.8534 302.65 16.401 304.639 16.401C306.407 16.401 308.157 16.7434 309.888 17.4269C311.619 18.1104 313.37 19.099 315.138 20.3919L318.784 15.2374C316.795 13.6484 314.668 12.4384 312.402 11.6077C310.137 10.7761 307.586 10.3604 304.75 10.3604C302.835 10.3604 301.066 10.6281 299.455 11.1642C297.834 11.6996 296.453 12.4661 295.302 13.4637C294.151 14.462 293.249 15.6532 292.584 17.0388C291.931 18.4245 291.6 19.9671 291.6 21.6669C291.6 23.4773 291.885 25.011 292.456 26.2672C293.027 27.5235 293.865 28.5951 294.951 29.482C296.038 30.3688 297.392 31.1077 298.995 31.6992C300.606 32.2907 302.439 32.8253 304.51 33.3061C306.315 33.7496 307.779 34.1743 308.912 34.5804C310.035 34.9872 310.92 35.4216 311.574 35.883C312.218 36.3451 312.661 36.8529 312.9 37.407C313.139 37.9619 313.259 38.5892 313.259 39.2914C313.259 40.8072 312.641 42.0081 311.408 42.8942C310.174 43.7819 308.507 44.2246 306.407 44.2246C303.976 44.2246 301.802 43.7901 299.888 42.9219C297.973 42.0537 296.076 40.8072 294.196 39.1807L290.108 44.0586C292.428 46.1643 294.951 47.7257 297.678 48.7419C300.403 49.7582 303.257 50.2659 306.241 50.2659C308.268 50.2659 310.128 50.0072 311.823 49.4905C313.508 48.9722 314.963 48.2147 316.16 47.2172C317.366 46.2197 318.305 45.0008 318.987 43.5598C319.658 42.1188 320 40.4744 320 38.6266C320 37.001 319.732 35.5876 319.198 34.3867C318.664 33.1858 317.872 32.1336 316.841 31.2273C315.81 30.3225 314.502 29.5553 312.937 28.9271C311.371 28.2997 309.566 27.7269 307.54 27.2095C305.689 26.766 304.17 26.3405 302.964 25.9345C301.766 25.5284 300.827 25.085 300.136 24.6042C299.455 24.1241 298.985 23.6066 298.727 23.0525C298.47 22.4977 298.34 21.8329 298.34 21.0574Z" fill="#161931"/>
<path fill-rule="evenodd" clip-rule="evenodd" d="M81.8667 18.4119L63.3686 36.8853C63.13 36.4231 62.9147 35.9415 62.7218 35.442C62.0758 33.7635 61.7528 31.9827 61.7528 30.1018C61.7528 28.2194 62.0758 26.4394 62.7218 24.7609C63.3686 23.0816 64.2643 21.6248 65.4098 20.3884C66.5553 19.1526 67.9318 18.1752 69.5386 17.4554C71.1461 16.7364 72.91 16.3765 74.8308 16.3765C76.7524 16.3765 78.526 16.7454 80.1507 17.4838C80.7549 17.7578 81.3268 18.067 81.8667 18.4119ZM80.2345 42.8578C78.6269 43.5776 76.8631 43.9367 74.9422 43.9367C73.0206 43.9367 71.2471 43.5678 69.6216 42.8301C69.0182 42.5554 68.4462 42.2462 67.9071 41.9005L86.4045 23.4286C86.643 23.8901 86.8584 24.3709 87.0513 24.8712C87.6973 26.5497 88.0203 28.3305 88.0203 30.2122C88.0203 32.0938 87.6973 33.8738 87.0513 35.5531C86.4045 37.2316 85.5088 38.6884 84.3633 39.9241C83.2178 41.1598 81.842 42.138 80.2345 42.8578ZM83.0331 48.5856C85.5087 47.5156 87.6517 46.0678 89.4618 44.2407C91.272 42.4151 92.6755 40.2841 93.6729 37.8492C94.6711 35.4143 95.1698 32.8316 95.1698 30.1017C95.1698 27.3712 94.6711 24.7884 93.6729 22.3528C93.0815 20.9087 92.3532 19.5752 91.4889 18.3514L103.52 6.33671L98.7393 1.5625L86.6714 13.6138C85.588 12.8761 84.4119 12.2384 83.1438 11.7C80.6681 10.6487 77.9345 10.1223 74.9422 10.1223C71.9492 10.1223 69.2156 10.6577 66.7399 11.7277C64.2643 12.7977 62.1214 14.2454 60.3112 16.0718C58.501 17.8982 57.0968 20.0292 56.0994 22.464C55.102 24.8989 54.6032 27.4817 54.6032 30.2123C54.6032 32.9421 55.102 35.5241 56.0994 37.9597C56.6916 39.4045 57.4198 40.7381 58.2842 41.9626L46.2537 53.9758L51.0345 58.75L63.1016 46.6995C64.185 47.4372 65.3612 48.0749 66.6293 48.6132C69.1049 49.6645 71.8385 50.1902 74.8308 50.1902C77.8239 50.1902 80.5575 49.6548 83.0331 48.5856Z" fill="#161931"/>
</svg>
