<svg width="128" height="28" viewBox="0 0 128 28" fill="none" xmlns="http://www.w3.org/2000/svg">
	<path d="M119.52 0.662973L113.04 7.14258L119.52 13.6222L125.999 7.14258L119.52 0.662973Z" fill="#0055FF" />
	<path d="M30.8002 7.12695H27.1093L26.7275 7.44513L23.0366 20.2997H22.973L18.773 7.44513L18.3912 7.12695H14.573L14.1912 7.44513L10.0548 20.236L9.99116 20.1724H9.92752L6.23661 7.44513L5.85479 7.12695H2.10025L1.8457 7.44513L7.70025 25.5815L8.1457 25.8997H11.773L12.2184 25.5815L16.3548 12.5997H16.4821L20.6821 25.5815L21.0639 25.8997H24.7548L25.2002 25.5815L30.9912 7.44513L30.8002 7.12695Z" fill="black" />
	<path d="M72.0362 7.12695H68.3453L67.9635 7.44513L62.809 20.8088L62.7453 20.8724L57.7181 7.44513L57.2726 7.12695H53.5817L53.3271 7.44513L60.6453 25.5815L61.0908 25.8997H64.4635L64.8453 25.5815L72.2908 7.44513L72.0362 7.12695Z" fill="black" />
	<path d="M90.937 17.5006L91.3188 17.1825V16.6097C91.3188 13.6825 90.4916 11.137 88.837 9.41882C87.1825 7.63701 84.9552 6.74609 82.2825 6.74609C79.6734 6.74609 77.4461 7.70064 75.7915 9.60973C74.0734 11.5188 73.2461 13.8097 73.2461 16.4188C73.2461 19.2188 74.137 21.5097 75.8552 23.3552C77.5734 25.2006 79.8643 26.0915 82.6643 26.0915C84.637 26.0915 86.3552 25.6461 87.7552 24.6279C89.1552 23.6734 90.6188 22.0825 91.0643 19.9825L90.8097 19.6006H87.3734L86.9279 19.9825C86.1006 21.7006 84.7643 22.5279 82.6006 22.5279C81.2006 22.5279 79.9279 22.0188 78.9097 21.0643C77.8915 20.1097 77.3188 19.0279 77.1915 17.437L90.937 17.5006ZM77.3825 14.1916C77.9552 11.9643 79.8643 10.3097 82.2825 10.3097C85.5279 10.3097 86.8643 12.6006 87.2461 14.1916H77.3825Z" fill="black" />
	<path d="M47.3455 7.12873L46.9637 7.51055V9.356L46.9 9.41964C46.4546 8.78328 45.7546 8.27419 44.9909 7.82873C44.8 7.7651 44.6091 7.63782 44.4182 7.57419C43.4 7.0651 42.2546 6.81055 40.9819 6.81055C38.6273 6.81055 36.5273 7.76509 34.8091 9.61055C33.0909 11.456 32.2637 13.8105 32.2637 16.5469C32.2637 19.2833 33.0909 21.6378 34.8091 23.4833C36.5273 25.3287 38.6273 26.2833 40.9819 26.2833C42.2546 26.2833 43.4 26.0287 44.4182 25.5196C44.6091 25.456 44.8 25.3287 44.9909 25.2015C45.7546 24.756 46.3273 24.2469 46.8364 23.6742C46.8364 23.6742 46.9 23.6742 46.9637 23.6742V25.5833L47.3455 25.9651H50.4637L50.8455 25.5833V7.44691L50.4637 7.06509L47.3455 7.12873ZM45.4364 21.0015C44.4182 22.1469 43.1455 22.656 41.6182 22.656C40.1546 22.656 39.0728 22.0833 37.9909 20.9378C36.9091 19.7924 36.4 18.3287 36.4 16.4196C36.4 14.5742 36.9728 13.0469 37.9909 11.9015C39.0728 10.756 40.1546 10.1833 41.6182 10.1833C43.1455 10.1833 44.3546 10.756 45.4364 11.8378C46.1364 12.6015 46.5819 13.4287 46.8364 14.5106V18.1378C46.5819 19.4106 46.1364 20.3015 45.4364 21.0015Z" fill="black" />
	<path d="M104.173 15.0188C104.173 15.0188 102.136 14.5734 100.418 14.1916C98.8909 13.8097 98.0636 13.3643 98.0636 12.2825C98.0636 11.137 99.2091 10.1188 101.564 10.1188C103.918 10.1188 105.255 11.137 105.255 12.0915L105.636 12.4734H109.073L109.327 12.1552C109.327 9.67337 107.227 6.74609 101.627 6.74609C95.8363 6.74609 94.0545 10.1825 94.0545 12.3461C94.0545 14.1915 94.6909 16.3552 99.1454 17.3734C99.1454 17.3734 101.245 17.8188 102.964 18.2006C104.873 18.6461 105.7 19.2825 105.7 20.4279C105.7 21.4461 104.682 22.7188 102.009 22.7188C99.5272 22.7188 98 21.5097 97.9363 20.1097L97.4909 19.7279H93.9909L93.7363 20.1097C94.0545 23.2279 96.4091 26.2188 101.945 26.2188C108.245 26.2188 109.518 22.337 109.518 20.3643C109.645 17.6915 108.118 15.9097 104.173 15.0188Z" fill="black" />
</svg>
