<svg width="122" height="17" viewBox="0 0 122 17" fill="none" xmlns="http://www.w3.org/2000/svg">
<g clip-path="url(#clip0)">
<path d="M22.2111 12.4811C22.0649 12.3301 21.9836 12.2462 22.1298 11.9777L22.7147 10.9375C22.8447 10.7027 23.1208 10.7027 23.267 10.8201C23.3483 10.8704 24.6642 11.8603 25.7201 11.8603C26.5649 11.8603 27.1985 11.2899 27.1985 10.5684C27.1985 9.7128 26.4999 9.12559 25.1353 8.55515C23.6082 7.91761 22.0811 6.91096 22.0811 4.93123C22.0811 3.43804 23.1533 1.70996 25.7364 1.70996C27.3935 1.70996 28.6606 2.58239 28.9855 2.83405C29.148 2.93471 29.1967 3.21993 29.083 3.3877L28.4657 4.34402C28.3357 4.54535 28.092 4.67957 27.8971 4.54535C27.7671 4.46146 26.5324 3.62259 25.6389 3.62259C24.7129 3.62259 24.2093 4.26013 24.2093 4.79701C24.2093 5.58555 24.8104 6.12243 26.1263 6.67608C27.7021 7.3304 29.5216 8.30349 29.5216 10.4678C29.5216 12.1959 28.0758 13.7897 25.7851 13.7897C23.7382 13.7897 22.536 12.7998 22.2111 12.4811ZM30.7888 7.76661C30.7888 4.41113 33.3719 1.70996 36.621 1.70996C39.8702 1.70996 42.4695 4.41113 42.4695 7.76661C42.4695 10.0483 41.1861 12.0616 39.3016 13.1354L41.3323 16.4405C41.4785 16.6754 41.3323 16.9439 41.0723 16.9439H39.3503C39.2853 16.9439 39.1391 16.8768 39.0904 16.7761L37.3521 13.7394C37.0921 13.7729 36.816 13.7897 36.621 13.7897C33.3719 13.7897 30.7888 11.1221 30.7888 7.76661ZM32.9007 7.76661C32.9007 9.88057 34.5741 11.6086 36.621 11.6086C38.668 11.6086 40.3575 9.88057 40.3575 7.76661C40.3575 5.65266 38.668 3.89103 36.621 3.89103C34.5741 3.89103 32.9007 5.65266 32.9007 7.76661ZM44.4514 9.17592V2.19651C44.4514 2.02873 44.5977 1.87774 44.7601 1.87774H46.3035C46.4822 1.87774 46.6121 2.02873 46.6121 2.19651V9.05848C46.6121 10.4846 47.5544 11.6086 48.9677 11.6086C50.3811 11.6086 51.3396 10.4846 51.3396 9.07525V2.19651C51.3396 2.02873 51.4696 1.87774 51.6483 1.87774H53.1916C53.3541 1.87774 53.5003 2.02873 53.5003 2.19651V9.17592C53.5003 11.7261 51.5346 13.7897 48.9677 13.7897C46.4172 13.7897 44.4514 11.7261 44.4514 9.17592ZM55.0924 13.6219C54.8487 13.6219 54.7187 13.4038 54.8162 13.1857L59.8686 1.89451C59.9174 1.79385 59.9986 1.70996 60.1448 1.70996H60.3072C60.4697 1.70996 60.5347 1.79385 60.5834 1.89451L65.5871 13.1857C65.6846 13.4038 65.5546 13.6219 65.3109 13.6219H63.8975C63.6539 13.6219 63.5401 13.5213 63.4264 13.2864L62.6304 11.4744H57.7729L56.9769 13.2864C56.9119 13.4542 56.7657 13.6219 56.5058 13.6219H55.0924ZM58.569 9.61213H61.8343L60.2098 5.9211H60.161L58.569 9.61213ZM67.0655 13.3032V2.19651C67.0655 2.02873 67.1954 1.87774 67.3741 1.87774H72.0204C73.9699 1.87774 75.562 3.48837 75.562 5.48488C75.562 7.02841 74.571 8.28671 73.1576 8.87392L75.3833 13.1354C75.497 13.3535 75.3833 13.6219 75.1071 13.6219H73.4013C73.2551 13.6219 73.1738 13.538 73.1414 13.4709L70.9807 9.02492H69.1774V13.3032C69.1774 13.4709 69.0312 13.6219 68.8687 13.6219H67.3741C67.1954 13.6219 67.0655 13.4709 67.0655 13.3032ZM69.1936 7.22974H71.8417C72.7027 7.22974 73.45 6.45797 73.45 5.51844C73.45 4.62923 72.7027 3.89103 71.8417 3.89103H69.1936V7.22974ZM77.8851 13.3032V2.19651C77.8851 2.02873 78.0151 1.87774 78.1938 1.87774H84.8058C84.9845 1.87774 85.1144 2.02873 85.1144 2.19651V3.57226C85.1144 3.74003 84.9845 3.89103 84.8058 3.89103H79.997V6.64253H84.0097C84.1722 6.64253 84.3184 6.79352 84.3184 6.9613V8.35382C84.3184 8.53838 84.1722 8.67259 84.0097 8.67259H79.997V11.6086H84.8058C84.9845 11.6086 85.1144 11.7596 85.1144 11.9274V13.3032C85.1144 13.4709 84.9845 13.6219 84.8058 13.6219H78.1938C78.0151 13.6219 77.8851 13.4709 77.8851 13.3032Z" fill="#3964DF"/>
<path d="M87.4336 13.1128V2.20895C87.4336 2.04424 87.5623 1.896 87.7393 1.896H89.2194C89.3803 1.896 89.5251 2.04424 89.5251 2.20895V11.4492H93.6276C93.8045 11.4492 93.9333 11.5975 93.9333 11.7622V13.1128C93.9333 13.2775 93.8045 13.4258 93.6276 13.4258H87.7393C87.5623 13.4258 87.4336 13.2775 87.4336 13.1128Z" fill="#819CEA"/>
<path d="M95.5586 13.1128V2.20895C95.5586 2.04424 95.7034 1.896 95.8643 1.896H97.3605C97.5214 1.896 97.6662 2.04424 97.6662 2.20895V13.1128C97.6662 13.2775 97.5214 13.4258 97.3605 13.4258H95.8643C95.7034 13.4258 95.5586 13.2775 95.5586 13.1128Z" fill="#819CEA"/>
<path d="M100.594 13.113V2.02793C100.594 1.86321 100.739 1.73145 100.899 1.73145H101.302L107.994 9.01168H108.01V2.20911C108.01 2.0444 108.139 1.89616 108.316 1.89616H109.796C109.957 1.89616 110.102 2.0444 110.102 2.20911V13.2942C110.102 13.4589 109.957 13.5906 109.796 13.5906H109.41L102.685 6.03041H102.669V13.113C102.669 13.2777 102.54 13.4259 102.363 13.4259H100.899C100.739 13.4259 100.594 13.2777 100.594 13.113Z" fill="#819CEA"/>
<path d="M113.03 13.0305V2.2913C113.03 2.07718 113.191 1.896 113.416 1.896H114.832C115.041 1.896 115.218 2.07718 115.218 2.2913V6.7385L119.273 2.06071C119.337 1.97835 119.433 1.896 119.578 1.896H121.187C121.493 1.896 121.654 2.24189 121.444 2.48896L117.245 7.33146L121.75 12.8493C121.911 13.0634 121.782 13.4258 121.461 13.4258H119.707C119.546 13.4258 119.449 13.3599 119.417 13.3105L115.218 8.00678V13.0305C115.218 13.2446 115.041 13.4258 114.832 13.4258H113.416C113.191 13.4258 113.03 13.2446 113.03 13.0305Z" fill="#819CEA"/>
<path d="M0 0H12.8013C14.7652 0 16.3573 1.54107 16.3573 3.44209V12.4246C16.3573 14.3256 14.7652 15.8667 12.8013 15.8667H3.55592C1.59204 15.8667 0 14.3256 0 12.4246V0ZM2.30769 1.99789V12.4817C2.30769 13.2421 2.94451 13.8585 3.73006 13.8585H12.6417C13.4273 13.8585 14.0641 13.2421 14.0641 12.4817V3.37472C14.0641 2.61432 13.4273 1.99789 12.6417 1.99789H2.30769ZM4.79373 1.99789H7.08624V7.08677V10.0058C7.08624 10.7662 6.44942 11.3826 5.66387 11.3826H2.30769V9.44741H4.79373V1.99789ZM4.79373 1.99789H7.08624H4.79373ZM2.30769 11.3826V9.44741V11.3826ZM11.578 13.8585H9.28555V8.76962V5.85058C9.28555 5.09018 9.92236 4.47375 10.7079 4.47375H14.0641V6.40898H11.578V13.8585ZM14.0641 4.47375V6.40898V4.47375ZM11.578 13.8585H9.28555H11.578Z" fill="#3964DF"/>
</g>
<defs>
<clipPath id="clip0">
<rect width="121.833" height="17" fill="white"/>
</clipPath>
</defs>
</svg>
