<svg width="101" height="36" viewBox="0 0 101 36" fill="none" xmlns="http://www.w3.org/2000/svg">
<path d="M93.9075 7.51948L88.8164 12.6106L93.9075 17.7017L98.9986 12.6106L93.9075 7.51948Z" fill="white"/>
<path d="M24.2002 12.5999H21.3002L21.0002 12.8499L18.1002 22.9499H18.0502L14.7502 12.8499L14.4502 12.5999H11.4502L11.1502 12.8499L7.90019 22.8999L7.85019 22.8499H7.80019L4.90019 12.8499L4.60019 12.5999H1.65019L1.4502 12.8499L6.05019 27.0999L6.40019 27.3499H9.25019L9.60019 27.0999L12.8502 16.8999H12.9502L16.2502 27.0999L16.5502 27.3499H19.4502L19.8002 27.0999L24.3502 12.8499L24.2002 12.5999Z" fill="white"/>
<path d="M56.6004 12.5999H53.7004L53.4004 12.8499L49.3504 23.3499L49.3004 23.3999L45.3504 12.8499L45.0004 12.5999H42.1004L41.9004 12.8499L47.6504 27.0999L48.0004 27.3499H50.6504L50.9504 27.0999L56.8004 12.8499L56.6004 12.5999Z" fill="white"/>
<path d="M71.4498 20.7498L71.7498 20.4998V20.0498C71.7498 17.7498 71.0998 15.7498 69.7998 14.3998C68.4998 12.9998 66.7498 12.2998 64.6498 12.2998C62.5998 12.2998 60.8498 13.0498 59.5498 14.5498C58.1998 16.0498 57.5498 17.8498 57.5498 19.8998C57.5498 22.0998 58.2498 23.8998 59.5998 25.3498C60.9498 26.7998 62.7498 27.4998 64.9498 27.4998C66.4998 27.4998 67.8498 27.1498 68.9498 26.3498C70.0498 25.5998 71.1998 24.3498 71.5498 22.6998L71.3498 22.3998H68.6498L68.2998 22.6998C67.6498 24.0498 66.5998 24.6998 64.8998 24.6998C63.7998 24.6998 62.7998 24.2998 61.9998 23.5498C61.1998 22.7998 60.7498 21.9498 60.6498 20.6998L71.4498 20.7498ZM60.7998 18.1498C61.2498 16.3998 62.7498 15.0998 64.6498 15.0998C67.1998 15.0998 68.2498 16.8998 68.5498 18.1498H60.7998Z" fill="white"/>
<path d="M37.2006 12.5999L36.9006 12.8999V14.3499L36.8506 14.3999C36.5006 13.8999 35.9506 13.4999 35.3506 13.1499C35.2006 13.0999 35.0506 12.9999 34.9006 12.9499C34.1006 12.5499 33.2006 12.3499 32.2006 12.3499C30.3506 12.3499 28.7006 13.0999 27.3506 14.5499C26.0006 15.9999 25.3506 17.8499 25.3506 19.9999C25.3506 22.1499 26.0006 23.9999 27.3506 25.4499C28.7006 26.8999 30.3506 27.6499 32.2006 27.6499C33.2006 27.6499 34.1006 27.4499 34.9006 27.0499C35.0506 26.9999 35.2006 26.8999 35.3506 26.7999C35.9506 26.4499 36.4006 26.0499 36.8006 25.5999C36.8006 25.5999 36.8506 25.5999 36.9006 25.5999V27.0999L37.2006 27.3999H39.6506L39.9506 27.0999V12.8499L39.6506 12.5499L37.2006 12.5999ZM35.7006 23.4999C34.9006 24.3999 33.9006 24.7999 32.7006 24.7999C31.5506 24.7999 30.7006 24.3499 29.8506 23.4499C29.0006 22.5499 28.6006 21.3999 28.6006 19.8999C28.6006 18.4499 29.0506 17.2499 29.8506 16.3499C30.7006 15.4499 31.5506 14.9999 32.7006 14.9999C33.9006 14.9999 34.8506 15.4499 35.7006 16.2999C36.2506 16.8999 36.6006 17.5499 36.8006 18.3999V21.2499C36.6006 22.2499 36.2506 22.9499 35.7006 23.4999Z" fill="white"/>
<path d="M81.8504 18.7998C81.8504 18.7998 80.2504 18.4498 78.9004 18.1498C77.7004 17.8498 77.0504 17.4998 77.0504 16.6498C77.0504 15.7498 77.9504 14.9498 79.8004 14.9498C81.6504 14.9498 82.7004 15.7498 82.7004 16.4998L83.0004 16.7998H85.7004L85.9004 16.5498C85.9004 14.5998 84.2504 12.2998 79.8504 12.2998C75.3004 12.2998 73.9004 14.9998 73.9004 16.6998C73.9004 18.1498 74.4004 19.8498 77.9004 20.6498C77.9004 20.6498 79.5504 20.9998 80.9004 21.2998C82.4004 21.6498 83.0504 22.1498 83.0504 23.0498C83.0504 23.8498 82.2504 24.8498 80.1504 24.8498C78.2004 24.8498 77.0004 23.8998 76.9504 22.7998L76.6004 22.4998H73.8504L73.6504 22.7998C73.9004 25.2498 75.7504 27.5998 80.1004 27.5998C85.0504 27.5998 86.0504 24.5498 86.0504 22.9998C86.1504 20.8998 84.9504 19.4998 81.8504 18.7998Z" fill="white"/>
</svg>
