<svg width="108" height="36" viewBox="0 0 108 36" fill="none" xmlns="http://www.w3.org/2000/svg">
<path d="M5.45186 30.6093L20.1385 21.2969H0L11.015 14.3125H31.1535L5.45186 30.6093Z" fill="white"/>
<path fill-rule="evenodd" clip-rule="evenodd" d="M31.1534 14.3125L25.7015 5L11.0146 14.3125H31.1534Z" fill="white" fill-opacity="0.8"/>
<path d="M0 5L5.4519 14.3125H11.0148L25.7016 5H0Z" fill="white"/>
<path fill-rule="evenodd" clip-rule="evenodd" d="M0 21.2969L5.4519 30.6094L20.1387 21.2969H0Z" fill="white" fill-opacity="0.8"/>
<path d="M5.45215 30.6094H31.154L25.7021 21.2969H20.1389L5.45215 30.6094Z" fill="white"/>
<path fill-rule="evenodd" clip-rule="evenodd" d="M44.1353 10.4323H55.0391V13.1484L48.9058 21.2968H55.0391V25.177H43.3564V22.4608L49.49 14.3124H44.1353V10.4323Z" fill="white"/>
<path d="M72.5619 10.4323H68.668V25.177H72.5619V10.4323Z" fill="white"/>
<path d="M78.7932 5H74.8994V25.177H78.7932V5Z" fill="white"/>
<path fill-rule="evenodd" clip-rule="evenodd" d="M63.4114 25.5651C67.3903 25.5651 70.6157 22.0906 70.6157 17.8047C70.6157 13.5188 67.3903 10.0443 63.4114 10.0443C59.4324 10.0443 56.207 13.5188 56.207 17.8047C56.207 22.0906 59.4324 25.5651 63.4114 25.5651ZM64.3852 22.0729C66.751 22.0729 68.6689 20.162 68.6689 17.8047C68.6689 15.4474 66.751 13.5365 64.3852 13.5365C62.0194 13.5365 60.1016 15.4474 60.1016 17.8047C60.1016 20.162 62.0194 22.0729 64.3852 22.0729Z" fill="white"/>
<path fill-rule="evenodd" clip-rule="evenodd" d="M84.0498 25.5651C80.0712 25.5651 76.8457 22.0906 76.8457 17.8047C76.8457 13.5188 80.0712 10.0443 84.0498 10.0443C88.0291 10.0443 91.2546 13.5188 91.2546 17.8047C91.2546 22.0906 88.0291 25.5651 84.0498 25.5651ZM83.0771 22.0729C80.7112 22.0729 78.7933 20.162 78.7933 17.8047C78.7933 15.4474 80.7112 13.5365 83.0771 13.5365C85.4429 13.5365 87.3601 15.4474 87.3601 17.8047C87.3601 20.162 85.4429 22.0729 83.0771 22.0729Z" fill="white"/>
<path fill-rule="evenodd" clip-rule="evenodd" d="M100.212 25.5651C104.513 25.5651 108 22.0906 108 17.8047C108 13.5188 104.513 10.0443 100.212 10.0443C95.911 10.0443 92.4238 13.5188 92.4238 17.8047C92.4238 22.0906 95.911 25.5651 100.212 25.5651ZM100.212 21.6849C102.363 21.6849 104.107 19.9478 104.107 17.8047C104.107 15.6619 102.363 13.9245 100.212 13.9245C98.0616 13.9245 96.3183 15.6619 96.3183 17.8047C96.3183 19.9478 98.0616 21.6849 100.212 21.6849Z" fill="white"/>
</svg>
