<svg width="105" height="36" viewBox="0 0 105 36" fill="none" xmlns="http://www.w3.org/2000/svg">
<path d="M30.8107 28.8042V21.7637C30.8107 20.1016 30.1653 19.1557 28.7593 19.1557C27.3071 19.1557 26.6154 20.0099 26.6154 21.6021V28.8042H22.7891V11.723H26.6154V17.2175C27.1684 16.1782 28.4131 15.5547 29.935 15.5547C32.8621 15.5547 34.637 17.4011 34.637 20.748V28.8042H30.8107Z" fill="white"/>
<path d="M45.5149 17.8591C45.5149 16.5869 44.4849 15.5546 43.2136 15.5546C41.9423 15.5546 40.9131 16.5869 40.9131 17.8591C40.9131 19.1321 41.9423 20.1636 43.2136 20.1636C44.4849 20.1636 45.5149 19.1321 45.5149 17.8591Z" fill="white"/>
<path d="M40.2857 15.9939H36.6904V28.8042H40.2857V15.9939Z" fill="white"/>
<path d="M76.7595 28.8042V21.9026C76.7595 19.8946 76.114 19.1557 74.8005 19.1557C73.3483 19.1557 72.6801 20.0326 72.6801 21.7182V28.8042H68.8538V21.741C68.8538 20.0789 68.2538 19.1557 66.9402 19.1557C65.4418 19.1557 64.7736 20.1252 64.7736 21.9026V28.8042H60.9473V15.9939H64.5206V17.3548H64.566C65.2342 16.1547 66.4561 15.5547 68.0924 15.5547C69.7522 15.5547 70.9741 16.3861 71.7809 17.8395C72.7028 16.3861 74.0853 15.5547 75.8375 15.5547C78.6958 15.5547 80.5858 17.3093 80.5858 20.8868V28.8042H76.7595Z" fill="white"/>
<path d="M82.6406 15.9939H86.467V28.8042H82.6406V15.9939Z" fill="white"/>
<path d="M98.201 22.3876C98.201 20.5866 96.7487 19.1332 94.9503 19.1332C93.1989 19.1332 91.8156 20.5866 91.8156 22.4338C91.8156 24.2104 93.2216 25.6654 94.9973 25.6654C96.795 25.6654 98.201 24.234 98.201 22.3876ZM98.201 28.8045V27.4193H98.1547C97.601 28.5503 96.0798 29.2429 94.3973 29.2429C90.6172 29.2429 87.9893 26.2647 87.9893 22.3876C87.9893 18.6014 90.7323 15.5549 94.3973 15.5549C95.9647 15.5549 97.4169 16.1785 98.1547 17.3551H98.201V15.9942H102.027V28.8045H98.201Z" fill="white"/>
<path d="M86.8547 12.812C86.8547 11.5397 85.8247 10.5075 84.5534 10.5075C83.2829 10.5075 82.2529 11.5397 82.2529 12.812C82.2529 14.0842 83.2829 15.1165 84.5534 15.1165C85.8247 15.1165 86.8547 14.0842 86.8547 12.812Z" fill="white"/>
<path d="M52.6239 25.6305C50.8419 25.6305 49.3968 24.1834 49.3968 22.3989C49.3968 20.6137 50.8419 19.1673 52.6239 19.1673C54.4059 19.1673 55.8511 20.6137 55.8511 22.3989C55.8511 24.1834 54.4059 25.6305 52.6239 25.6305ZM52.6239 15.589C48.8681 15.589 45.8242 18.6379 45.8242 22.3989C45.8242 26.1592 48.8681 29.208 52.6239 29.208C56.379 29.208 59.4236 26.1592 59.4236 22.3989C59.4236 18.6379 56.379 15.589 52.6239 15.589Z" fill="white"/>
<path d="M19.5047 14.8411C20.5003 14.0277 21.1363 12.7899 21.1363 11.4024C21.1363 8.95282 19.153 6.96759 16.7068 6.96759C14.2606 6.96759 12.2773 8.95282 12.2773 11.4024V11.4063C12.3596 11.404 12.4418 11.4024 12.5249 11.4024C15.3682 11.4024 17.8927 12.7499 19.5047 14.8411Z" fill="white"/>
<path fill-rule="evenodd" clip-rule="evenodd" d="M12.5249 24.7207C14.2333 24.7207 15.7152 23.7567 16.4625 22.3432H21.0909C20.1486 26.2094 16.6755 29.0825 12.5249 29.0825C7.64973 29.0825 3.69727 25.1246 3.69727 20.2419C3.69727 15.3857 7.60945 11.4434 12.4503 11.4032C12.3923 11.4038 12.3347 11.4051 12.2771 11.4067C12.2794 13.8539 14.2611 15.8376 16.7066 15.8376C17.7669 15.8376 18.7411 15.4644 19.5039 14.8411C20.2526 15.8126 20.8044 16.9446 21.0995 18.1767H16.4625C15.7152 16.7633 14.2333 15.7985 12.5249 15.7985C10.0646 15.7985 8.07035 17.7963 8.07035 20.26C8.07035 22.7229 10.0646 24.7207 12.5249 24.7207Z" fill="white"/>
</svg>
