<svg width="126" height="36" viewBox="0 0 126 36" fill="none" xmlns="http://www.w3.org/2000/svg">
<g clip-path="url(#clip0)">
<path d="M46.0975 13.6004C45.7679 13.4858 45.0656 13.4141 44.3777 13.4141C42.2854 13.4141 40.0497 15.1052 40.0497 17.1976V27.1865H35.2773V9.37269H39.8634V11.1784C40.9239 9.85995 42.8729 9.0144 45.037 9.0144C45.5816 9.0144 46.1261 9.07173 46.6564 9.15772L46.0975 13.6004Z" fill="#23292F"/>
<path d="M51.5012 0C53.2209 0 54.6254 1.31848 54.6254 3.05257C54.6254 4.78666 53.2209 6.10514 51.5012 6.10514C49.7814 6.10514 48.377 4.78666 48.377 3.05257C48.377 1.31848 49.7671 0 51.5012 0ZM53.8945 27.1865H49.1222V9.37268H53.8945V27.1865Z" fill="#23292F"/>
<path d="M67.9957 9.00006C66.1039 8.9714 64.2552 9.61631 62.7791 10.8058V9.37268H58.1787V36.0002H62.9654V25.9397C64.3268 27.0145 66.0179 27.5878 67.7377 27.5591C70.389 27.5591 72.9113 26.3839 74.5021 24.5495C75.8922 22.9301 76.7377 20.7231 76.7377 18.3011C76.7377 13.0415 72.8396 9.00006 67.9957 9.00006ZM67.4081 23.2167C64.4415 23.2167 62.4924 21.1673 62.4924 18.3154C62.4924 15.4635 64.4415 13.4141 67.4081 13.4141C69.9447 13.4141 71.9941 15.6068 71.9941 18.3154C71.9941 21.024 69.9447 23.2167 67.4081 23.2167Z" fill="#23292F"/>
<path d="M105.731 27.1865H100.944V1.10352H105.717L105.731 27.1865Z" fill="#23292F"/>
<path d="M125.192 24.3632C123.473 26.4269 120.635 27.559 117.883 27.559C112.552 27.559 108.554 23.8902 108.554 18.301C108.554 13.3424 111.936 9 117.224 9C122.154 9 125.637 13.1561 125.637 18.1147C125.637 18.5733 125.608 19.0319 125.522 19.4762H113.183C113.441 21.9698 115.461 23.7039 117.998 23.7039C120.019 23.7039 121.638 22.5717 122.484 21.6402L125.192 24.3632ZM120.75 15.9793C120.606 14.4029 119.173 12.8551 117.224 12.8551C115.246 12.8551 113.627 14.3599 113.398 15.9793H120.75Z" fill="#23292F"/>
<path d="M89.3785 9.00006C87.4867 8.9714 85.638 9.61631 84.1619 10.8058V9.37268H79.5615V36.0002H84.3338V25.9397C85.6953 27.0145 87.3864 27.5878 89.1062 27.5591C91.7575 27.5591 94.2798 26.3839 95.8705 24.5495C97.2607 22.9301 98.1062 20.7231 98.1062 18.3011C98.1206 13.0415 94.2224 9.00006 89.3785 9.00006ZM88.7909 23.2167C85.8243 23.2167 83.8752 21.1673 83.8752 18.3154C83.8752 15.4635 85.8243 13.4141 88.7909 13.4141C91.3275 13.4141 93.3769 15.6068 93.3769 18.3154C93.3769 21.024 91.3275 23.2167 88.7909 23.2167Z" fill="#23292F"/>
<path d="M25.4187 20.6943C24.3439 20.0781 23.1257 19.8918 21.9219 19.8488C20.9187 19.8201 19.4139 19.1609 19.4139 17.3265C19.4139 15.965 20.5174 14.8615 21.9362 14.8042C23.14 14.7612 24.3582 14.5749 25.433 13.9586C28.4856 12.1959 29.5175 8.29777 27.769 5.25953C25.992 2.22129 22.0938 1.17511 19.0413 2.93786C17.0636 4.07003 15.8597 6.17673 15.8597 8.45541C15.8597 9.6879 16.304 10.8201 16.8629 11.8806C17.3358 12.7691 17.5651 14.4172 15.96 15.3488C14.7562 16.0367 13.2514 15.6067 12.5062 14.4029C11.8756 13.3854 11.1161 12.4395 10.0412 11.8233C6.98864 10.0605 3.09053 11.1067 1.34211 14.1449C-0.406311 17.1832 0.625543 21.0813 3.67811 22.844C5.65583 23.9762 8.07782 23.9762 10.0412 22.844C11.1161 22.2278 11.8756 21.2819 12.5062 20.2644C13.0221 19.4332 14.3263 18.3727 15.96 19.3185C17.1639 20.0064 17.5365 21.5256 16.8629 22.7867C16.304 23.8329 15.8597 24.9794 15.8597 26.2119C15.8597 29.7231 18.7117 32.575 22.2228 32.575C25.734 32.575 28.5859 29.7231 28.5859 26.2119C28.6003 23.9332 27.3821 21.8265 25.4187 20.6943Z" fill="url(#paint0_linear)"/>
</g>
<defs>
<linearGradient id="paint0_linear" x1="8.41157" y1="6.76189" x2="29.5504" y2="27.9007" gradientUnits="userSpaceOnUse">
<stop stop-color="#1DB4FF"/>
<stop offset="1" stop-color="#0F72E5"/>
</linearGradient>
<clipPath id="clip0">
<rect width="125.155" height="36.0002" fill="white" transform="translate(0.481445)"/>
</clipPath>
</defs>
</svg>
