<svg width="96" height="36" viewBox="0 0 96 36" fill="none" xmlns="http://www.w3.org/2000/svg">
<path d="M67.8761 13.3532C67.7655 13.3532 67.5995 13.2979 67.157 13.2979C66.7697 13.2979 66.4378 13.3532 66.1059 13.4085C64.7782 13.6851 63.8931 14.4042 63.174 15.1787V13.6298H58.9697V27.2383H63.174V21.5957C63.174 20.9319 63.2293 20.3234 63.2846 19.7702C63.3399 19.217 63.5059 18.7191 63.7825 18.3319C64.0591 17.9447 64.391 17.6127 64.8336 17.3915C65.2761 17.1702 65.9399 17.0596 66.7144 17.0596C67.0463 17.0596 67.3229 17.0596 67.5995 17.1149C67.8761 17.1702 68.208 17.2255 68.4846 17.3362V13.5191C68.3187 13.4638 68.0974 13.4085 67.8761 13.3532Z" fill="white"/>
<path d="M79.1066 13.3532C78.9959 13.3532 78.83 13.2979 78.3874 13.2979C78.0002 13.2979 77.6683 13.3532 77.3364 13.4085C76.0087 13.6851 75.1236 14.4042 74.4045 15.1787V13.6298H70.2002V27.2383H74.4045V21.5957C74.4045 20.9319 74.4598 20.3234 74.5151 19.7702C74.5704 19.217 74.7364 18.7191 75.013 18.3319C75.2896 17.9447 75.6215 17.6127 76.064 17.3915C76.5066 17.1702 77.1704 17.0596 77.9449 17.0596C78.2768 17.0596 78.5534 17.0596 78.83 17.1149C79.1066 17.1702 79.4385 17.2255 79.7151 17.3362V13.5191C79.5491 13.4638 79.3279 13.4085 79.1066 13.3532Z" fill="white"/>
<path d="M34.8506 13.1319H29.208V9.25952H44.8633V13.1319H39.2208V27.2936H34.8506V13.1319Z" fill="white"/>
<path d="M56.6464 24.915C55.9825 25.8001 55.1528 26.4086 54.1017 26.9065C53.0506 27.349 51.9996 27.6256 50.8932 27.6256C49.8421 27.6256 48.8464 27.4597 47.9613 27.1277C47.0208 26.7958 46.2464 26.298 45.5272 25.6894C44.8634 25.0809 44.3102 24.3065 43.923 23.4214C43.5357 22.5363 43.3145 21.5405 43.3145 20.4894C43.3145 19.3831 43.5357 18.4426 43.923 17.5575C44.3102 16.6724 44.8634 15.9533 45.5272 15.2894C46.191 14.6809 47.0208 14.1831 47.9613 13.8511C48.9017 13.5192 49.8421 13.3533 50.8932 13.3533C51.8889 13.3533 52.7187 13.5192 53.5485 13.8511C54.323 14.1831 54.9868 14.6809 55.54 15.2894C56.0932 15.898 56.5357 16.6724 56.8123 17.5575C57.0889 18.4426 57.2549 19.4384 57.2549 20.4894V21.8171H47.5187C47.6847 22.6469 48.0719 23.2554 48.6251 23.7533C49.1783 24.2511 49.8974 24.4724 50.6719 24.4724C51.3357 24.4724 51.9442 24.3065 52.4421 24.0299C52.94 23.698 53.3272 23.3107 53.7145 22.8128L56.6464 24.915ZM53.1059 18.9405C53.1059 18.2214 52.8847 17.6128 52.3868 17.115C51.8889 16.6171 51.2804 16.3405 50.5059 16.3405C50.0634 16.3405 49.6208 16.3958 49.2889 16.5618C48.957 16.7277 48.6251 16.8937 48.4038 17.115C48.1272 17.3363 47.9613 17.6128 47.7953 17.9448C47.6293 18.2767 47.574 18.5533 47.574 18.8852H53.1059V18.9405Z" fill="white"/>
<path d="M80.2129 23.366C80.2129 20.2682 82.5916 18.8852 85.9108 18.8852C87.3491 18.8852 88.4001 19.1065 89.3959 19.4384V19.2171C89.3959 17.6128 88.3448 16.6724 86.3533 16.6724C84.8044 16.6724 83.7533 16.949 82.4257 17.4469L81.4299 14.4597C82.9788 13.7958 84.5278 13.3533 86.9618 13.3533C89.1746 13.3533 90.7235 13.9065 91.7746 14.9022C92.8257 15.9533 93.3235 17.4469 93.3235 19.3277V27.349H89.4512V25.8554C88.4554 26.9065 87.1278 27.6256 85.1363 27.6256C82.3703 27.6256 80.2129 26.132 80.2129 23.366ZM89.4512 22.4809V22.2597C89.4512 21.9831 89.2852 21.7065 88.9533 21.5958C88.3448 21.3745 87.6257 21.2639 86.8512 21.2639C85.1363 21.2639 84.0852 21.9277 84.0852 23.2001V23.2554C84.0852 24.3065 84.9703 24.915 86.298 24.915C88.1788 24.915 89.4512 23.9192 89.4512 22.4809Z" fill="white"/>
<path d="M12.1697 24.9704C12.8336 27.4044 15.157 29.2299 16.374 29.1746C16.4293 29.1746 20.8548 28.3448 23.3442 24.2512C25.2251 21.098 24.6166 18.0001 22.0166 17.9448C21.0761 18.0001 10.9527 20.3235 12.1697 24.9704Z" fill="white" fill-opacity="0.8"/>
<path d="M21.7404 9.37031C19.8042 7.65541 17.2042 6.65967 14.3829 6.65967C12.7234 6.65967 11.1744 6.99158 9.79144 7.65541C9.51485 7.76605 9.29357 7.87669 9.0723 7.98733C8.90634 8.09797 8.74038 8.15329 8.57442 8.26392H8.62974C8.18719 8.59584 7.74464 8.98307 7.41272 9.42563C4.14889 13.7405 15.1021 16.8384 20.9106 16.8937C23.6212 18.7746 24.3957 11.4171 21.7404 9.37031Z" fill="white" fill-opacity="0.8"/>
<path d="M10.4554 9.4808C8.96183 11.7489 3.98311 13.2978 3.15332 13.0765C3.20864 13.0212 3.20864 12.9659 3.26396 12.8553C3.54055 12.3021 3.87247 11.8042 4.2597 11.3063C4.64694 10.8085 5.03417 10.3659 5.47672 9.92336C5.91928 9.4808 6.36183 9.09357 6.8597 8.70633C7.19162 8.48506 7.46821 8.26378 7.80013 8.09782C8.51928 7.71059 9.23843 7.65527 9.4597 7.65527C11.6171 7.65527 10.4554 9.42548 10.4554 9.4808Z" fill="white"/>
<path d="M9.23796 25.4127C9.3486 26.1319 9.23796 28.8978 9.072 29.1744C8.96137 29.1744 8.68477 29.1744 7.9103 28.7872C7.52307 28.5659 7.13583 28.2893 6.7486 28.068C6.25073 27.6808 5.80817 27.2936 5.36562 26.851C4.92307 26.4085 4.53583 25.9659 4.1486 25.468C3.76137 24.9702 3.48477 24.4723 3.15286 23.9191C2.87626 23.3659 2.59966 22.8127 2.43371 22.2042C2.26775 21.5957 2.10179 20.9872 1.99115 20.3787C1.88051 19.7702 1.8252 19.1063 1.8252 18.4425C1.8252 17.7787 1.88051 17.1148 1.99115 16.5063C2.10179 15.8978 2.26775 15.234 2.43371 14.6808C2.48903 14.5702 2.48902 14.4595 2.54434 14.3489C3.42945 15.5106 4.4252 16.5616 5.25498 17.668C6.08477 18.7744 7.19115 20.5446 7.41243 20.9319C8.90605 23.1999 9.12732 24.6936 9.23796 25.4127Z" fill="white"/>
<path d="M25.8337 18.3317C25.8337 19.8807 25.5571 21.3743 25.0039 22.7019C23.621 24.1956 14.1061 20.4892 13.9954 20.4339C12.6678 19.8807 8.74011 18.1105 8.4082 15.3998C7.91032 11.4722 15.821 8.76152 19.3061 8.65088C19.7486 8.65088 21.021 8.65088 21.7401 9.25939C24.2295 11.5275 25.8337 14.736 25.8337 18.3317Z" fill="white"/>
<path d="M19.4171 28.9532C18.366 29.4511 17.2596 29.0638 17.5362 28.0681C18.0894 26.1319 23.0681 24.1404 24.1745 24.0298C24.2852 24.0298 24.3405 24.0851 24.2852 24.1957C23.1235 26.2425 21.4639 27.9021 19.4171 28.9532Z" fill="white"/>
</svg>
