<svg width="154" height="44" viewBox="0 0 154 44" fill="none" xmlns="http://www.w3.org/2000/svg">
	<path d="M148.118 0H5.88322C2.63466 0 0 2.47866 0 5.5352V38.4658C0 41.5223 2.63466 44 5.88322 44H148.118C151.366 44 154 41.5223 154 38.4658V5.5352C154 2.47866 151.366 0 148.118 0Z" fill="#1F1A23" />
	<path d="M47.8449 32.1504V23.3429C47.8449 21.2637 46.9888 20.0803 45.1241 20.0803C43.1981 20.0803 42.2808 21.1489 42.2808 23.1408V32.1504H37.2061V10.7822H42.2808V17.6557C43.0142 16.3556 44.665 15.5755 46.6834 15.5755C50.5656 15.5755 52.9196 17.8853 52.9196 22.0722V32.1504H47.8449Z" fill="#FFB0C2" />
	<path d="M67.3474 18.459C67.3474 16.8674 65.9813 15.5761 64.2952 15.5761C62.6092 15.5761 61.2441 16.8674 61.2441 18.459C61.2441 20.0515 62.6092 21.3418 64.2952 21.3418C65.9813 21.3418 67.3474 20.0515 67.3474 18.459Z" fill="#FFB0C2" />
	<path d="M60.4109 16.125H55.6426V32.1504H60.4109V16.125Z" fill="#FFB0C2" />
	<path d="M108.786 32.1504V23.5166C108.786 21.0046 107.93 20.0803 106.187 20.0803C104.261 20.0803 103.375 21.1773 103.375 23.286V32.1504H98.3005V23.3144C98.3005 21.2352 97.5048 20.0803 95.7626 20.0803C93.7753 20.0803 92.8892 21.2931 92.8892 23.5166V32.1504H87.8145V16.125H92.5537V17.8274H92.6139C93.5 16.3261 95.1206 15.5755 97.2908 15.5755C99.4921 15.5755 101.113 16.6156 102.183 18.4338C103.405 16.6156 105.239 15.5755 107.563 15.5755C111.354 15.5755 113.86 17.7705 113.86 22.2459V32.1504H108.786Z" fill="#FFF8F8" />
	<path d="M116.585 16.125H121.66V32.1504H116.585V16.125Z" fill="#FFF8F8" />
	<path d="M137.222 24.1233C137.222 21.8704 135.296 20.0522 132.911 20.0522C130.588 20.0522 128.753 21.8704 128.753 24.1812C128.753 26.4037 130.618 28.2238 132.973 28.2238C135.357 28.2238 137.222 26.4331 137.222 24.1233ZM137.222 32.1507V30.4179H137.161C136.426 31.8328 134.409 32.6992 132.177 32.6992C127.164 32.6992 123.679 28.9735 123.679 24.1233C123.679 19.3869 127.317 15.5758 132.177 15.5758C134.256 15.5758 136.182 16.3559 137.161 17.8277H137.222V16.1253H142.297V32.1507H137.222Z" fill="#FFF8F8" />
	<path d="M122.174 12.1445C122.174 10.5529 120.807 9.26165 119.121 9.26165C117.436 9.26165 116.07 10.5529 116.07 12.1445C116.07 13.736 117.436 15.0273 119.121 15.0273C120.807 15.0273 122.174 13.736 122.174 12.1445Z" fill="#FFF8F8" />
	<path d="M76.775 28.1809C74.4117 28.1809 72.495 26.3705 72.495 24.1382C72.495 21.9049 74.4117 20.0956 76.775 20.0956C79.1384 20.0956 81.0551 21.9049 81.0551 24.1382C81.0551 26.3705 79.1384 28.1809 76.775 28.1809ZM76.775 15.6192C71.7938 15.6192 67.7568 19.4332 67.7568 24.1382C67.7568 28.8422 71.7938 32.6562 76.775 32.6562C81.7553 32.6562 85.7932 28.8422 85.7932 24.1382C85.7932 19.4332 81.7553 15.6192 76.775 15.6192Z" fill="#FFB0C2" />
	<path d="M28.8158 24.0693C27.8247 25.8375 25.8592 27.0434 23.5935 27.0434C20.3305 27.0434 17.6856 24.5442 17.6856 21.4632C17.6856 18.3811 20.3305 15.8819 23.5935 15.8819C25.8592 15.8819 27.8247 17.0888 28.8158 18.857H34.9657C33.7316 13.998 29.116 10.3831 23.5935 10.3831C17.1277 10.3831 11.8857 15.3344 11.8857 21.4406C11.8857 27.5487 17.1277 32.5 23.5935 32.5C29.0983 32.5 33.7046 28.9058 34.9543 24.0693H28.8158Z" fill="#FFB0C2" />
	<path d="M32.8501 14.6836C34.1704 13.6661 35.014 12.1177 35.014 10.3819C35.014 7.31752 32.3836 4.83403 29.1393 4.83403C25.895 4.83403 23.2646 7.31752 23.2646 10.3819V10.3868C23.3737 10.3839 23.4828 10.3819 23.5929 10.3819C27.3639 10.3819 30.7121 12.0676 32.8501 14.6836Z" fill="#CC91F0" />
	<path d="M29.1393 15.9297C30.5459 15.9297 31.8382 15.4626 32.8501 14.6825C30.7121 12.0666 27.3639 10.3818 23.5929 10.3818C23.4828 10.3818 23.3737 10.3838 23.2646 10.3867C23.2678 13.4482 25.896 15.9297 29.1393 15.9297Z" fill="#CB65B7" />
</svg>
