<svg width="96" height="32" viewBox="0 0 96 32" fill="none" xmlns="http://www.w3.org/2000/svg">
<g clip-path="url(#clip0)">
<path fill-rule="evenodd" clip-rule="evenodd" d="M53.377 27.0992C56.2912 27.5092 58.0659 26.9753 59.4405 25.602C60.3036 24.7403 60.9596 23.7309 61.5388 22.6704C63.8839 18.3787 69.5264 8.01025 69.5264 8.01025H65.4615L61.2352 16.504L59.9164 8.01025H55.5964V8.20774C55.5964 8.20774 57.0588 15.9837 57.8094 19.9687C57.9214 20.5625 58.0371 22.0907 56.9628 23.0791C56.3616 23.6317 55.4935 24.0912 53.9982 23.8466L53.377 27.0992Z" fill="#061027"/>
<path fill-rule="evenodd" clip-rule="evenodd" d="M50.1383 8.01025L46.2093 16.9293L46.1023 16.9203L45.5703 8.23125H41.2903L37.1183 16.9303L37.0123 16.8933L36.8333 8.01025H32.7373L33.5523 22.2573H37.9853L42.2793 12.9613L42.3803 12.9793L43.0613 22.2563H47.5223L53.9753 8.01025H50.1383Z" fill="#061027"/>
<path fill-rule="evenodd" clip-rule="evenodd" d="M73.8272 22.2576H69.5264C70.4845 17.4535 71.3997 12.8108 72.3575 8.0103H75.6919V10.6316C76.138 9.54859 76.7469 8.54013 77.7801 8.09762C78.7936 7.66333 80.3602 7.68619 81.9575 8.1767C81.3284 9.39499 80.8489 10.4789 80.1677 11.7977C79.5533 11.6761 79.0007 11.5207 78.4379 11.4649C77.1739 11.3392 76.256 11.8434 75.8244 13.0421C75.5232 13.8791 75.3357 14.7655 75.1538 15.64C74.6976 17.8311 74.2738 20.0277 73.8272 22.2576ZM87.5774 11.3986C88.1923 10.6512 89.2995 10.2379 90.1214 10.4953C91.1239 10.8093 91.4531 11.9207 90.7409 12.6964C90.499 12.9597 90.1617 13.1778 89.8257 13.304C88.7911 13.6925 87.7205 13.6807 86.5941 13.4868C86.7847 12.6608 87.0865 11.9952 87.5774 11.3986ZM93.0819 18.7161C93.0819 18.7161 93.0458 18.7156 92.9379 18.7156C91.2913 19.3474 89.4641 19.5129 88.2046 19.1559C86.8131 18.7613 86.0103 17.5504 86.2631 16.1826C90.4103 16.5314 92.1708 15.7419 93.1157 15.1769C95.6757 13.6459 96.3267 9.54809 92.9863 8.33483C90.0515 7.26877 85.9633 7.77574 84.0318 10.1154C82.2718 12.2475 81.7553 14.5922 82.025 17.202C82.2275 19.1655 83.5738 21.9801 87.9738 22.4194C90.6339 22.685 92.3367 22.0016 92.4606 21.9504L93.0819 18.7161Z" fill="#061027"/>
<path fill-rule="evenodd" clip-rule="evenodd" d="M16.4735 15.927H26.2536L20.9772 28.8152C20.2467 30.5999 18.5096 31.7661 16.5809 31.7661H6.80078L12.0771 18.8779C12.8076 17.0932 14.5448 15.927 16.4735 15.927Z" fill="#94C5FF"/>
<path fill-rule="evenodd" clip-rule="evenodd" d="M26.2535 15.9277L20.3317 23.4582C19.4343 24.6536 18.0761 25.4308 16.4789 25.4308H9.39453L12.0844 18.8744C12.8158 17.0916 14.5525 15.9268 16.4798 15.9272L26.2535 15.9277Z" fill="#1A32AF"/>
<path fill-rule="evenodd" clip-rule="evenodd" d="M13.2313 8.00562H23.0114L17.7351 20.8938C17.0045 22.6785 15.2674 23.8447 13.3387 23.8447H3.55859L8.83494 10.9565C9.56545 9.17179 11.3026 8.00562 13.2313 8.00562Z" fill="#0092FF"/>
<path fill-rule="evenodd" clip-rule="evenodd" d="M23.0113 8.00632L17.0895 15.5368C16.1921 16.7323 14.8339 17.5094 13.2367 17.5094H6.15234L8.84217 10.9531C9.5736 9.1702 11.3103 8.0054 13.2376 8.00586L23.0113 8.00632Z" fill="#1A32AF"/>
<path fill-rule="evenodd" clip-rule="evenodd" d="M9.98909 0.0766602H19.7692L14.4929 12.9649C13.7623 14.7496 12.0252 15.9157 10.0965 15.9157H0.316406L5.59275 3.02752C6.32326 1.24283 8.06041 0.0766602 9.98909 0.0766602Z" fill="#0055FF"/>
</g>
<defs>
<clipPath id="clip0">
<rect width="96" height="32" fill="white" transform="translate(0 0.000244141)"/>
</clipPath>
</defs>
</svg>
