<svg width="122" height="36" viewBox="0 0 122 36" fill="none" xmlns="http://www.w3.org/2000/svg">
<path d="M78.3581 29.7267L67.2131 2.77181C66.7738 1.70948 65.5599 1.20577 64.5018 1.64674C63.4436 2.0877 62.9418 3.30636 63.3811 4.36869L75.1571 32.8497C75.5857 33.8863 76.5938 34.562 77.7118 34.562H79.0096C80.1306 34.562 81.1407 33.8828 81.5674 32.8422L93.2453 4.36305C93.6815 3.29944 93.1762 2.08226 92.1167 1.64441C91.0573 1.20656 89.8449 1.71384 89.4087 2.77745L78.3581 29.7267Z" fill="url(#paint0_linear)"/>
<path d="M12.9503 15.6694L16.8148 6.32287L27.8654 33.2721C28.3015 34.3358 29.5139 34.843 30.5734 34.4052C31.6329 33.9673 32.1381 32.7502 31.702 31.6865L20.0241 3.2074C19.5974 2.16679 18.5873 1.48761 17.4663 1.48761H16.1685C15.0505 1.48761 14.0424 2.16327 13.6138 3.19988L8.45802 15.6694H4.64282C3.44255 15.6694 2.46954 16.6463 2.46954 17.8512C2.46954 19.0562 3.44255 20.0331 4.64282 20.0331H6.65379L1.83776 31.6809C1.39852 32.7432 1.90026 33.9619 2.95843 34.4029C4.0166 34.8438 5.23049 34.3401 5.66973 33.2778L11.146 20.0331H14.7189C15.9192 20.0331 16.8922 19.0562 16.8922 17.8512C16.8922 16.6463 15.9192 15.6694 14.7189 15.6694H12.9503Z" fill="url(#paint1_linear)"/>
<path d="M45.5233 20.0331L40.0471 33.2778C39.6078 34.3401 38.3939 34.8438 37.3358 34.4029C36.2776 33.9619 35.7758 32.7432 36.2151 31.6809L41.0311 20.0331H39.0201C37.8199 20.0331 36.8469 19.0562 36.8469 17.8512C36.8469 16.6463 37.8199 15.6694 39.0201 15.6694H42.8353L47.9911 3.19988C48.4197 2.16327 49.4278 1.48761 50.5458 1.48761H51.8436C52.9646 1.48761 53.9747 2.16679 54.4014 3.2074L66.0793 31.6865C66.5155 32.7502 66.0102 33.9673 64.9507 34.4052C63.8913 34.843 62.6789 34.3358 62.2427 33.2721L51.1921 6.32287L47.3276 15.6694H49.0963C50.2965 15.6694 51.2695 16.6463 51.2695 17.8512C51.2695 19.0562 50.2965 20.0331 49.0963 20.0331H45.5233Z" fill="url(#paint2_linear)"/>
<path d="M99.625 1.58678C98.5066 1.58678 97.5999 2.49701 97.5999 3.61984V32.3306C97.5999 33.4534 98.5066 34.3636 99.625 34.3636H118.345C119.463 34.3636 120.37 33.4534 120.37 32.3306C120.37 31.2078 119.463 30.2975 118.345 30.2975H101.65V20.0083H116.665C117.784 20.0083 118.691 19.098 118.691 17.9752C118.691 16.8524 117.784 15.9422 116.665 15.9422H101.65V5.6529H118.345C119.463 5.6529 120.37 4.74267 120.37 3.61984C120.37 2.49701 119.463 1.58678 118.345 1.58678H99.625Z" fill="url(#paint3_linear)"/>
<defs>
<linearGradient id="paint0_linear" x1="1.67925" y1="18.0496" x2="120.419" y2="18.0496" gradientUnits="userSpaceOnUse">
<stop stop-color="#30BAC6"/>
<stop offset="1" stop-color="#AC57A0"/>
</linearGradient>
<linearGradient id="paint1_linear" x1="1.67925" y1="18.0496" x2="120.419" y2="18.0496" gradientUnits="userSpaceOnUse">
<stop stop-color="#30BAC6"/>
<stop offset="1" stop-color="#AC57A0"/>
</linearGradient>
<linearGradient id="paint2_linear" x1="1.67925" y1="18.0496" x2="120.419" y2="18.0496" gradientUnits="userSpaceOnUse">
<stop stop-color="#30BAC6"/>
<stop offset="1" stop-color="#AC57A0"/>
</linearGradient>
<linearGradient id="paint3_linear" x1="1.67925" y1="18.0496" x2="120.419" y2="18.0496" gradientUnits="userSpaceOnUse">
<stop stop-color="#30BAC6"/>
<stop offset="1" stop-color="#AC57A0"/>
</linearGradient>
</defs>
</svg>
