<svg width="150" height="36" viewBox="0 0 150 36" fill="none" xmlns="http://www.w3.org/2000/svg">
<path d="M146.305 9.24749C144.236 6.60093 141.199 4.92576 137.841 4.92576C131.346 4.92576 126.594 10.961 126.594 17.4996C126.594 22.0582 129.619 25.4693 132.984 25.4693C133.298 25.4693 133.611 25.4408 133.918 25.3839C131.664 23.7402 130.222 20.7463 130.222 17.4996C130.222 12.3298 133.72 8.30153 137.841 8.30153C142.336 8.30153 145.461 12.7652 145.461 17.5C145.45 20.9968 144.203 24.4736 142.009 27.0389C140.095 29.2778 137.614 30.6979 134.888 31.1488C134.888 31.1488 135.115 31.1655 135.413 31.1655C142.959 31.1655 149.078 25.0472 149.078 17.4996C149.078 14.3994 148.045 11.5406 146.305 9.24749ZM144.231 17.5C144.231 12.9414 141.205 9.53029 137.841 9.53029C137.526 9.53029 137.215 9.55877 136.906 9.61571C139.161 11.2594 140.602 14.2533 140.602 17.5C140.602 22.6697 137.106 26.698 132.984 26.698C128.489 26.698 125.364 22.2343 125.364 17.4996C125.375 14.0027 126.622 10.526 128.816 7.96103C130.731 5.72178 133.211 4.3017 135.937 3.85074C135.937 3.85074 135.71 3.83404 135.413 3.83404C127.865 3.83404 121.747 9.95241 121.747 17.4996C121.747 20.6002 122.78 23.4589 124.52 25.7521C126.589 28.3986 129.626 30.0742 132.984 30.0742C139.479 30.0742 144.231 24.0382 144.231 17.5Z" fill="white"/>
<path d="M81.1 20.3978L82.4833 16.9518L83.8662 20.3978H81.1ZM82.0878 12.403L76.9563 24.4853L79.459 24.4857L80.2987 22.3933H84.6671L85.5068 24.4857H88.0099L82.8788 12.403H82.0878ZM54.9252 17.6715L53.5765 17.0778C53.0731 16.85 52.7167 16.6435 52.5068 16.4575C52.2968 16.2715 52.1925 16.0229 52.1925 15.7112C52.1925 15.3396 52.3329 15.0549 52.6142 14.8571C52.8959 14.6598 53.247 14.5607 53.6661 14.5607C54.5657 14.5607 55.3204 15.0162 55.9319 15.9272L57.5862 14.6503C57.2146 13.9674 56.696 13.4219 56.031 13.0142C55.3655 12.6069 54.5771 12.4027 53.6661 12.4027C52.5276 12.4027 51.5866 12.7117 50.8434 13.3285C50.1001 13.9461 49.7289 14.7581 49.7289 15.7655C49.7289 16.5445 49.9775 17.2034 50.4744 17.7432C50.9724 18.2823 51.6823 18.7617 52.6058 19.1815L53.8824 19.757C54.2662 19.9369 54.5444 20.0744 54.7183 20.17C54.8922 20.266 55.0478 20.4073 55.1856 20.5929C55.3234 20.7785 55.3925 20.9915 55.3925 21.2314C55.3925 21.6391 55.2425 21.9591 54.943 22.1929C54.6435 22.4271 54.2294 22.544 53.7021 22.544C52.5876 22.544 51.617 21.9685 50.7895 20.8172L49.1173 22.0764C49.5728 22.8796 50.1992 23.5181 50.9963 23.9911C51.7931 24.4648 52.6954 24.7013 53.7021 24.7013C54.9134 24.7013 55.9076 24.3775 56.6869 23.7303C57.4658 23.0831 57.8557 22.2198 57.8557 21.1414C57.8557 20.3382 57.6158 19.6701 57.1367 19.1367C56.6569 18.6026 55.9201 18.1145 54.9252 17.6715ZM42.4527 12.619V22.0589C42.4527 23.3993 43.5395 24.486 44.8799 24.486V15.0458C44.8799 13.7054 43.7931 12.619 42.4527 12.619ZM112.292 19.1364C111.813 18.603 111.076 18.1145 110.082 17.6719L108.734 17.0782C108.23 16.8504 107.874 16.6439 107.664 16.4583C107.454 16.2727 107.349 16.0237 107.349 15.712C107.349 15.3408 107.49 15.0561 107.772 14.8587C108.053 14.6605 108.404 14.5622 108.823 14.5622C109.722 14.5622 110.477 15.0173 111.088 15.928L112.742 14.6518C112.37 13.9685 111.852 13.4238 111.187 13.0161C110.522 12.6084 109.734 12.4049 108.823 12.4049C107.684 12.4049 106.744 12.7135 106.001 13.3308C105.258 13.9476 104.887 14.7596 104.887 15.7663C104.887 16.5452 105.135 17.2042 105.633 17.7436C106.13 18.2823 106.841 18.7613 107.763 19.1815L109.039 19.7562C109.422 19.9366 109.701 20.0736 109.875 20.1696C110.049 20.2657 110.204 20.4065 110.342 20.5921C110.48 20.7781 110.549 20.9907 110.549 21.2302C110.549 21.6375 110.399 21.9583 110.099 22.1921C109.8 22.4252 109.387 22.5421 108.859 22.5421C107.744 22.5421 106.775 21.967 105.947 20.8168L104.276 22.0752C104.731 22.8777 105.357 23.5158 106.154 23.9892C106.951 24.4625 107.853 24.6994 108.859 24.6994C110.069 24.6994 111.064 24.3756 111.843 23.728C112.622 23.0812 113.011 22.2187 113.011 21.1406C113.011 20.3374 112.771 19.6693 112.292 19.1364ZM97.9785 22.0031C97.6794 22.2669 97.2656 22.3983 96.7384 22.3983H93.9703L93.9696 19.4146H96.7384C97.2656 19.4146 97.6794 19.5497 97.9785 19.8193C98.278 20.0892 98.4272 20.4513 98.4272 20.9064C98.4272 21.3737 98.278 21.7393 97.9785 22.0031ZM93.9703 14.7057H96.3649C96.8921 14.7057 97.3051 14.8378 97.6046 15.1012C97.9045 15.3647 98.0537 15.7302 98.0537 16.1975C98.0537 16.6526 97.9045 17.0155 97.6046 17.2847C97.3051 17.5546 96.8921 17.6893 96.3649 17.6893H93.9696L93.9703 14.7057ZM99.4271 18.4155C99.6021 18.2671 99.763 18.1073 99.8963 17.9228C100.262 17.4198 100.445 16.8147 100.445 16.1079C100.445 15.0769 100.082 14.2384 99.3572 13.5916C98.6322 12.9443 97.6946 12.6205 96.5444 12.6205H91.6339V24.4838H96.9179C98.0681 24.4838 99.0057 24.16 99.7308 23.5131C100.456 22.8655 100.818 22.027 100.818 20.9968C100.818 20.29 100.636 19.6845 100.27 19.1812C100.048 18.8748 99.7623 18.6243 99.4271 18.4155ZM68.5524 12.6205H66.1256V24.4838H71.5539C72.7648 24.4838 73.7468 23.5017 73.7468 22.2904H68.5524V12.6205ZM9.62273 21.3574C8.89731 22.0885 7.98969 22.4541 6.89872 22.4541C5.78422 22.4541 4.87015 22.0915 4.15688 21.3665C3.44362 20.6411 3.08679 19.7031 3.08679 18.5522C3.08679 17.4137 3.44703 16.4784 4.16599 15.7473C4.88495 15.0158 5.79599 14.6503 6.89872 14.6503C7.98969 14.6503 8.89731 15.0158 9.62273 15.7473C10.3481 16.4784 10.7107 17.4137 10.7107 18.5522C10.7107 19.6913 10.3481 20.6263 9.62273 21.3574ZM6.8805 12.4027C5.13093 12.4027 3.64442 12.9937 2.42211 14.1742C1.19867 15.3548 0.587891 16.8144 0.587891 18.5522C0.587891 20.2903 1.19867 21.7503 2.42211 22.9308C3.64442 24.1114 5.13093 24.7017 6.8805 24.7017C8.63083 24.7017 10.1234 24.1114 11.3579 22.9308C12.5923 21.7503 13.2099 20.2903 13.2099 18.5522C13.2099 16.8144 12.5923 15.3548 11.3579 14.1742C10.1234 12.9937 8.63083 12.4027 6.8805 12.4027ZM35.0274 17.6715L33.679 17.0778C33.1753 16.85 32.8189 16.6435 32.609 16.4575C32.3994 16.2715 32.2946 16.0229 32.2946 15.7112C32.2946 15.3396 32.4351 15.0549 32.7168 14.8571C32.9988 14.6598 33.3492 14.5607 33.7686 14.5607C34.6679 14.5607 35.4229 15.0162 36.0341 15.9272L37.6884 14.6503C37.3171 13.9674 36.7986 13.4219 36.1331 13.0142C35.4681 12.6069 34.6797 12.4027 33.7686 12.4027C32.6298 12.4027 31.6888 12.7117 30.9463 13.3285C30.2023 13.9461 29.831 14.7581 29.831 15.7655C29.831 16.5445 30.0801 17.2034 30.5773 17.7432C31.075 18.2823 31.7848 18.7617 32.708 19.1815L33.9846 19.757C34.3684 19.9369 34.6466 20.0744 34.8205 20.17C34.9947 20.266 35.15 20.4073 35.2885 20.5929C35.426 20.7785 35.4947 20.9915 35.4947 21.2314C35.4947 21.6391 35.3447 21.9591 35.0452 22.1929C34.7457 22.4271 34.3323 22.544 33.8047 22.544C32.6902 22.544 31.7192 21.9685 30.8916 20.8172L29.2199 22.0764C29.675 22.8796 30.3014 23.5181 31.0989 23.9911C31.8961 24.4648 32.7976 24.7013 33.8047 24.7013C35.0156 24.7013 36.0102 24.3775 36.7895 23.7303C37.5684 23.0831 37.9583 22.2198 37.9583 21.1414C37.9583 20.3382 37.7187 19.6701 37.2393 19.1367C36.7595 18.6026 36.0227 18.1145 35.0274 17.6715ZM19.4585 20.3978L20.8418 16.9518L22.2246 20.3978H19.4585ZM20.4462 12.403L15.3148 24.4853L17.8175 24.4857L18.6572 22.3933H23.026L23.8657 24.4857H26.3687L21.2373 12.403H20.4462Z" fill="white"/>
</svg>
