<svg width="116" height="36" viewBox="0 0 116 36" fill="none" xmlns="http://www.w3.org/2000/svg">
<g clip-path="url(#clip0)">
<path fill-rule="evenodd" clip-rule="evenodd" d="M75.4005 23.9973C76.6167 23.9973 77.6405 23.5887 78.449 22.7881C79.2575 21.9481 79.6652 20.9243 79.6652 19.6836C79.6652 18.4437 79.2575 17.4191 78.449 16.6106C77.6405 15.7793 76.6167 15.3707 75.4005 15.3707C74.1912 15.3707 73.1683 15.7784 72.3598 16.6106C71.5513 17.4191 71.1515 18.4437 71.1515 19.6836C71.1515 20.9234 71.5513 21.9481 72.359 22.7881C73.1683 23.5887 74.1912 23.9973 75.4005 23.9973ZM79.6652 12.9452H82.5746V26.4237H79.6652V24.4821C78.5566 26.0238 76.9938 26.7781 74.9463 26.7781C73.0913 26.7781 71.5207 26.0999 70.2038 24.7288C68.8878 23.3507 68.2412 21.6488 68.2412 19.6836C68.2412 17.6886 68.8878 16.0182 70.2047 14.6392C71.5207 13.2681 73.0913 12.5899 74.9463 12.5899C76.9938 12.5899 78.5566 13.3451 79.6652 14.8544V12.9452ZM93.8516 15.7478H90.5108V22.2184C90.5108 23.9439 91.6431 23.9124 93.8516 23.8048V26.4237C89.4022 26.9627 87.6015 25.7456 87.6015 22.2184V15.7478H85.1226V12.9443H87.6015L87.5962 9.16956H90.5108V12.9443H93.8516V15.7478ZM96.5151 26.4237H99.4253V12.9443H96.516V26.4237H96.5151ZM96.6463 10.3876C95.9148 9.63243 95.9148 8.49231 96.6463 7.76781C96.8165 7.58892 97.0213 7.44649 97.2482 7.34917C97.4751 7.25185 97.7194 7.20166 97.9663 7.20166C98.2132 7.20166 98.4575 7.25185 98.6844 7.34917C98.9113 7.44649 99.1161 7.58892 99.2862 7.76781C100.01 8.49231 100.01 9.63156 99.2556 10.3876C98.5328 11.1112 97.4006 11.1112 96.6463 10.3876ZM104.066 24.7288C102.72 23.3498 102.042 21.6786 102.042 19.6836C102.042 17.6588 102.72 15.9946 104.067 14.6392C105.445 13.2681 107.138 12.5899 109.155 12.5899C111.772 12.5899 114.09 13.9462 115.167 16.0724L112.666 17.5276C112.042 16.2326 110.75 15.4556 109.133 15.4556C107.947 15.4556 106.954 15.8554 106.137 16.6648C105.36 17.4733 104.953 18.4752 104.953 19.6836C104.953 20.8928 105.36 21.8947 106.137 22.7032C106.954 23.5126 107.947 23.9124 109.133 23.9124C110.726 23.9124 112.065 23.1118 112.711 21.8404L115.221 23.2658C114.067 25.4218 111.773 26.7781 109.155 26.7781C107.138 26.7781 105.445 26.0999 104.067 24.7288" fill="white"/>
<path fill-rule="evenodd" clip-rule="evenodd" d="M30.2807 4.08313L24.4619 7.43788L30.2807 10.7918L36.0994 7.43788L30.2807 4.08313Z" fill="white" fill-opacity="0.32"/>
<path fill-rule="evenodd" clip-rule="evenodd" d="M62.5302 9.17041L56.8191 18.6055L51.1307 9.17041H47.7891V26.4237H50.8918V14.5613L56.0281 23.0864H57.6066L62.7463 14.591V26.4228H65.8753V9.17041H62.5302Z" fill="white"/>
<path fill-rule="evenodd" clip-rule="evenodd" d="M7.01093 4.08228L1.19043 7.43615L18.6432 17.5004L21.2804 15.9805L24.4611 14.1457L7.01093 4.08228Z" fill="white" fill-opacity="0.32"/>
<path fill-rule="evenodd" clip-rule="evenodd" d="M7.01064 17.4969H7.00977V31.6317L12.8285 28.2787V20.8508L7.01064 17.4969Z" fill="white"/>
<path d="M1.19238 7.43726L18.6434 17.5005L18.6478 17.498V24.2021L12.829 20.8491V20.8526L12.829 20.8509L7.01113 17.497H7.01026V31.6257L7.00938 31.6318L1.19238 28.2779V7.43726Z" fill="white" fill-opacity="0.51"/>
<path d="M18.6436 17.5005L18.648 17.498V24.2022L18.6406 24.198L18.6445 24.2065L24.458 20.8553L24.4624 20.8535V14.1458L24.4612 14.1459L18.6436 17.5005Z" fill="white"/>
<path d="M30.2803 10.7913L30.2812 10.7918L36.099 7.43848V28.2804L30.2803 31.6326V10.7913Z" fill="white"/>
<path d="M24.4647 7.43643L24.4629 7.43628V7.4375L24.4647 7.43643Z" fill="white" fill-opacity="0.51"/>
<path d="M24.4629 7.43851V28.2814L30.2808 31.6344L30.2823 31.6312L30.2799 31.6326V10.7914L24.4629 7.43851Z" fill="white" fill-opacity="0.51"/>
</g>
<defs>
<clipPath id="clip0">
<rect width="114.625" height="28" fill="white" transform="translate(1 4)"/>
</clipPath>
</defs>
</svg>
