<svg width="65" height="36" viewBox="0 0 65 36" fill="none" xmlns="http://www.w3.org/2000/svg">
<path d="M41.7483 24.5149L35.8104 9.53992C35.5764 8.94974 34.9296 8.6699 34.3658 8.91488C33.802 9.15986 33.5347 9.8369 33.7687 10.4271L40.0429 26.2499C40.2712 26.8258 40.8083 27.2011 41.404 27.2011H42.0954C42.6927 27.2011 43.2308 26.8238 43.4582 26.2457L49.68 10.4239C49.9124 9.83305 49.6432 9.15684 49.0787 8.91359C48.5143 8.67034 47.8683 8.95216 47.6359 9.54305L41.7483 24.5149Z" fill="white"/>
<path d="M6.89986 16.7053L8.95883 11.5127L14.8465 26.4845C15.0788 27.0754 15.7248 27.3573 16.2892 27.114C16.8537 26.8708 17.1229 26.1946 16.8906 25.6037L10.6687 9.78192C10.4414 9.2038 9.90318 8.82648 9.30596 8.82648H8.61447C8.01882 8.82648 7.48175 9.20185 7.25339 9.77774L4.50646 16.7053H2.47377C1.83428 16.7053 1.31587 17.2479 1.31587 17.9174C1.31587 18.5868 1.83428 19.1295 2.47377 19.1295H3.54519L0.979271 25.6005C0.74525 26.1907 1.01257 26.8677 1.57635 27.1127C2.14013 27.3577 2.78687 27.0779 3.0209 26.4877L5.93859 19.1295H7.84219C8.48168 19.1295 9.00008 18.5868 9.00008 17.9174C9.00008 17.2479 8.48168 16.7053 7.84219 16.7053H6.89986Z" fill="white"/>
<path d="M24.2544 19.1295L21.3367 26.4877C21.1027 27.0779 20.4559 27.3577 19.8921 27.1127C19.3284 26.8677 19.061 26.1907 19.2951 25.6005L21.861 19.1295H20.7896C20.1501 19.1295 19.6317 18.5868 19.6317 17.9174C19.6317 17.2479 20.1501 16.7053 20.7896 16.7053H22.8222L25.5692 9.77774C25.7975 9.20185 26.3346 8.82648 26.9303 8.82648H27.6218C28.219 8.82648 28.7571 9.2038 28.9845 9.78192L35.2063 25.6037C35.4387 26.1946 35.1695 26.8708 34.605 27.114C34.0406 27.3573 33.3946 27.0754 33.1622 26.4845L27.2746 11.5127L25.2157 16.7053H26.158C26.7975 16.7053 27.3159 17.2479 27.3159 17.9174C27.3159 18.5868 26.7975 19.1295 26.158 19.1295H24.2544Z" fill="white"/>
<path d="M53.079 8.88157C52.4831 8.88157 52.0001 9.38726 52.0001 10.011V25.9615C52.0001 26.5853 52.4831 27.0909 53.079 27.0909H63.0527C63.6486 27.0909 64.1317 26.5853 64.1317 25.9615C64.1317 25.3377 63.6486 24.832 63.0527 24.832H54.158V19.1157H62.158C62.7539 19.1157 63.2369 18.61 63.2369 17.9863C63.2369 17.3625 62.7539 16.8568 62.158 16.8568H54.158V11.1405H63.0527C63.6486 11.1405 64.1317 10.6348 64.1317 10.011C64.1317 9.38726 63.6486 8.88157 63.0527 8.88157H53.079Z" fill="white"/>
</svg>
