<svg width="167" height="39" viewBox="0 0 167 39" fill="none" xmlns="http://www.w3.org/2000/svg">
<g clip-path="url(#clip0)">
<path d="M32.1843 10.7236H1.10742V41.8005H32.1843V10.7236ZM30.7885 12.1194V40.4047H2.50321V12.1194H30.7885Z" fill="#B12029"/>
<path d="M21.8384 21.233H11.4932V31.5783H21.8384V21.233Z" fill="#B12029"/>
<path d="M21.8384 21.069H11.4932V31.4553H21.8384V21.069Z" fill="#B12029"/>
<path d="M47.4969 32.5636V3.04675L33.6211 10.1489V11.7089L46.4706 5.09939V33.0973L47.4969 32.5636Z" fill="#B12029"/>
<path d="M42.6524 26.2826V15.7321L37.2334 18.5647V29.1152L42.6524 26.2826Z" fill="#B12029"/>
<path d="M67.2438 15.0342L57.8838 35.5195H60.1417L62.6049 30.0595H74.0175L76.4807 35.5195H78.7796L69.4196 15.0342H67.2438ZM63.3849 28.2942L68.3112 17.2921L73.2375 28.2942H63.3849Z" fill="#373A36"/>
<path d="M85.0605 17.8668C86.4152 17.1278 87.8931 16.7584 89.5353 16.7584C92.0395 16.7584 94.0921 17.5794 95.7342 19.1394L97.0889 17.7436C96.1858 16.7584 95.0774 16.0194 93.7637 15.5268C92.45 15.0342 91.0131 14.7878 89.4531 14.7878C87.4005 14.7878 85.5121 15.2394 83.87 16.1426C82.2279 17.0457 80.9552 18.2773 80.011 19.8784C79.0668 21.4794 78.6152 23.2447 78.6152 25.2152C78.6152 27.1858 79.0668 28.951 80.011 30.5521C80.9552 32.1531 82.2279 33.3847 83.87 34.2879C85.5121 35.191 87.3595 35.6426 89.4121 35.6426C90.8489 35.6426 92.2447 35.4374 93.5584 34.9858C94.8721 34.5342 95.9805 33.8774 96.9658 33.0563V25.2563H94.8721V32.1531C93.3942 33.2205 91.6289 33.7542 89.4942 33.7542C87.8521 33.7542 86.3331 33.3847 85.0195 32.6458C83.7058 31.9068 82.6384 30.8805 81.8994 29.6079C81.1194 28.3352 80.75 26.8573 80.75 25.2563C80.75 23.6552 81.1194 22.2184 81.8994 20.9047C82.6795 19.6321 83.7058 18.6057 85.0605 17.8668Z" fill="#373A36"/>
<path d="M115.768 16.1836C114.126 15.2804 112.319 14.8289 110.267 14.8289C108.255 14.8289 106.408 15.2804 104.765 16.1836C103.123 17.0868 101.81 18.3183 100.907 19.9194C99.9623 21.5205 99.5107 23.2857 99.5107 25.2562C99.5107 27.2268 99.9623 28.992 100.907 30.5931C101.851 32.1942 103.123 33.4257 104.765 34.3289C106.408 35.2321 108.255 35.6836 110.267 35.6836C112.278 35.6836 114.126 35.2321 115.768 34.3289C117.41 33.4257 118.682 32.1942 119.627 30.5931C120.571 28.992 121.022 27.2268 121.022 25.2562C121.022 23.2857 120.571 21.5205 119.627 19.9194C118.682 18.3594 117.41 17.0868 115.768 16.1836ZM117.779 29.6078C117.04 30.9215 116.014 31.9068 114.7 32.6457C113.387 33.3847 111.909 33.7542 110.308 33.7542C108.707 33.7542 107.229 33.3847 105.915 32.6457C104.601 31.9068 103.575 30.8805 102.795 29.6078C102.056 28.2941 101.687 26.8573 101.687 25.2562C101.687 23.6552 102.056 22.2183 102.795 20.9047C103.534 19.591 104.601 18.6057 105.915 17.8668C107.229 17.1278 108.707 16.7583 110.308 16.7583C111.909 16.7583 113.387 17.1278 114.7 17.8668C116.014 18.6057 117.04 19.632 117.779 20.9047C118.518 22.2183 118.888 23.6552 118.888 25.2562C118.888 26.8984 118.518 28.3352 117.779 29.6078Z" fill="#373A36"/>
<path d="M145.49 15.0342H143.314V35.5195H145.49V15.0342Z" fill="#373A36"/>
<path d="M159.325 33.7542C157.724 33.7542 156.246 33.3847 154.891 32.6458C153.578 31.9068 152.51 30.8805 151.771 29.6079C151.033 28.3352 150.663 26.8573 150.663 25.2563C150.663 23.6552 151.033 22.2184 151.771 20.9047C152.51 19.6321 153.578 18.6057 154.891 17.8668C156.205 17.1278 157.683 16.7584 159.325 16.7584C161.747 16.7584 163.8 17.5794 165.401 19.1805L166.797 17.7847C165.894 16.7994 164.785 16.0605 163.513 15.5678C162.24 15.0752 160.803 14.7878 159.284 14.7878C157.273 14.7878 155.425 15.2394 153.783 16.1426C152.141 17.0457 150.868 18.2773 149.924 19.8784C148.98 21.4794 148.528 23.2447 148.528 25.2152C148.528 27.1858 148.98 28.951 149.924 30.5521C150.868 32.1531 152.141 33.3847 153.742 34.2879C155.384 35.191 157.19 35.6426 159.243 35.6426C160.762 35.6426 162.158 35.3963 163.472 34.8626C164.785 34.3289 165.853 33.59 166.756 32.6047L165.36 31.2089C163.8 32.9331 161.788 33.7542 159.325 33.7542Z" fill="#373A36"/>
<path d="M135.144 28.4174H135.062C136.458 27.9248 137.566 27.1448 138.346 26.0774C139.167 24.969 139.578 23.6143 139.578 22.0132C139.578 19.8374 138.839 18.1132 137.361 16.8406C135.883 15.609 133.831 14.9521 131.203 14.9521H123.526V35.4374H125.702V34.5343V28.9511V27.1037V22.629V16.8406H131.162C133.174 16.8406 134.734 17.2922 135.801 18.1543C136.868 19.0574 137.402 20.3301 137.402 21.9722C137.402 23.5732 136.868 24.8459 135.801 25.749C135.062 26.3648 134.077 26.7753 132.845 26.9806V28.869L137.525 35.4374H138.962H140.194L135.144 28.4174Z" fill="#373A36"/>
</g>
<defs>
<clipPath id="clip0">
<rect width="166.263" height="39.0001" fill="white" transform="translate(0.737305 -0.00012207)"/>
</clipPath>
</defs>
</svg>
