<svg width="100" height="16" viewBox="0 0 100 16" fill="none" xmlns="http://www.w3.org/2000/svg">
	<g clip-path="url(#clip0)">
		<path d="M12.5882 1.20117V15.7012H9.48676L3.64876 8.00117V15.7012H0V1.20117H3.10144L8.93945 8.90117V1.20117H12.5882Z" fill="white" />
		<path d="M29.2816 12.6008V15.8008H18.7002V1.30078H29.0991V4.50078H22.4402V6.90077H28.2782V10.0008H22.4402V12.7008H29.2816V12.6008Z" fill="white" />
		<path d="M40.5017 11.9008H38.4949V15.8008H34.7549V1.30078H40.7753C41.9612 1.30078 43.0558 1.50078 43.8768 2.00078C44.789 2.40078 45.4275 3.10077 45.8836 3.90077C46.3397 4.70077 46.6133 5.70078 46.6133 6.70078C46.6133 7.70078 46.4309 8.70077 45.9748 9.40077C45.5187 10.2008 44.8802 10.8008 44.0592 11.2008L46.887 15.8008H42.8734L40.5017 11.9008ZM42.326 5.00078C41.9612 4.60078 41.3226 4.40077 40.5929 4.40077H38.4949V8.60078H40.5929C41.3226 8.60078 41.9612 8.40078 42.326 8.10078C42.6909 7.70078 42.8734 7.20078 42.8734 6.50078C42.8734 5.90078 42.6909 5.40078 42.326 5.00078Z" fill="white" />
		<path d="M65.4951 1.20117L59.8395 15.7012H56.1907L50.5352 1.20117H54.5488L58.1063 10.6012L61.7551 1.20117H65.4951Z" fill="white" />
		<path d="M72.4276 15.0008C71.333 14.4008 70.4208 13.5008 69.7823 12.3008C69.1438 11.2008 68.8701 9.90077 68.8701 8.40077C68.8701 7.00077 69.1438 5.70078 69.7823 4.50078C70.4208 3.40078 71.333 2.50078 72.4276 1.80078C73.5223 1.20078 74.7993 0.800781 76.1676 0.800781C77.5359 0.800781 78.813 1.10078 79.9076 1.80078C81.0022 2.40078 81.9144 3.30078 82.5529 4.50078C83.1915 5.60078 83.4651 6.90077 83.4651 8.40077C83.4651 9.80077 83.1915 11.1008 82.5529 12.3008C81.9144 13.4008 81.0022 14.3008 79.9076 15.0008C78.813 15.6008 77.5359 16.0008 76.1676 16.0008C74.7993 16.0008 73.5223 15.7008 72.4276 15.0008ZM77.992 12.1008C78.5393 11.8008 78.9954 11.3008 79.2691 10.6008C79.5427 10.0008 79.7252 9.30077 79.7252 8.40077C79.7252 7.60077 79.5427 6.90077 79.2691 6.20078C78.9954 5.60078 78.5393 5.10078 77.992 4.70078C77.4447 4.40078 76.8062 4.20078 76.1676 4.20078C75.5291 4.20078 74.8906 4.40078 74.3432 4.70078C73.7959 5.00078 73.3398 5.50078 73.0662 6.20078C72.7925 6.80078 72.6101 7.60077 72.6101 8.40077C72.6101 9.20077 72.7925 9.90078 73.0662 10.6008C73.3398 11.2008 73.7959 11.7008 74.3432 12.1008C74.8906 12.5008 75.5291 12.6008 76.1676 12.6008C76.8974 12.6008 77.4447 12.5008 77.992 12.1008Z" fill="#3CC68A" />
		<path d="M90.4893 15.6004C89.4859 15.3004 88.6649 14.9004 88.0264 14.4004L89.2122 11.4004C89.7595 11.8004 90.4893 12.2004 91.3103 12.4004C92.1312 12.7004 92.861 12.8004 93.5907 12.8004C95.0502 12.8004 95.78 12.4004 95.78 11.6004C95.78 11.2004 95.5975 10.9004 95.1414 10.7004C94.7766 10.5004 94.0468 10.3004 93.1346 10.1004C92.1312 9.9004 91.3102 9.6004 90.6717 9.3004C90.0332 9.0004 89.3947 8.6004 88.9386 8.0004C88.4825 7.4004 88.2088 6.6004 88.2088 5.6004C88.2088 4.7004 88.3912 3.90039 88.8473 3.20039C89.3034 2.50039 89.942 1.9004 90.8542 1.5004C91.7663 1.1004 92.7698 0.900391 94.0468 0.900391C94.959 0.900391 95.78 1.00039 96.6009 1.20039C97.4219 1.40039 98.1517 1.7004 98.7902 2.1004L97.6043 5.1004C96.3273 4.4004 95.1414 4.0004 93.9556 4.0004C93.2258 4.0004 92.6785 4.10039 92.3137 4.40039C91.9488 4.60039 91.7663 5.0004 91.7663 5.3004C91.7663 5.7004 91.9488 6.00039 92.4049 6.20039C92.7698 6.40039 93.4995 6.6004 94.3205 6.8004C95.3239 7.0004 96.1449 7.3004 96.7834 7.6004C97.4219 7.9004 98.0604 8.30039 98.5165 8.90039C98.9726 9.50039 99.2463 10.3004 99.2463 11.3004C99.2463 12.2004 99.0639 13.0004 98.6078 13.7004C98.1517 14.4004 97.5131 15.0004 96.6009 15.4004C95.6887 15.8004 94.6853 16.0004 93.4083 16.0004C92.4961 16.0004 91.4927 15.9004 90.4893 15.6004Z" fill="white" />
	</g>
	<defs>
		<clipPath id="clip0">
			<rect width="99.4286" height="16" fill="white" />
		</clipPath>
	</defs>
</svg>
