<svg width="171" height="36" viewBox="0 0 171 36" fill="none" xmlns="http://www.w3.org/2000/svg">
<path fill-rule="evenodd" clip-rule="evenodd" d="M59 23.2677L57.272 21.5177C56.6156 22.1301 55.9521 22.6152 55.281 22.9726C54.6105 23.3297 53.8083 23.5082 52.8751 23.5082C52.1458 23.5082 51.4714 23.3663 50.8516 23.0818C50.2318 22.7973 49.6959 22.4075 49.2437 21.9114C48.7916 21.4156 48.4419 20.836 48.1937 20.1725C47.9457 19.5091 47.8221 18.7979 47.8221 18.04C47.8221 17.2816 47.9457 16.5742 48.1937 15.9179C48.4419 15.2618 48.7916 14.6896 49.2437 14.2009C49.6959 13.7124 50.2318 13.3261 50.8516 13.0416C51.4714 12.7575 52.1458 12.6152 52.8751 12.6152C53.7499 12.6152 54.5302 12.7902 55.2155 13.1402C55.9011 13.4899 56.5501 13.9494 57.1622 14.5181L58.8905 12.5279C58.526 12.1778 58.1397 11.8571 57.7312 11.5652C57.323 11.2736 56.8783 11.0219 56.3969 10.8106C55.9155 10.599 55.387 10.4352 54.8109 10.3186C54.2348 10.2017 53.5967 10.1433 52.8969 10.1433C51.7302 10.1433 50.6657 10.3514 49.7033 10.7669C48.7405 11.1824 47.9094 11.7511 47.2094 12.473C46.5093 13.1948 45.9663 14.0368 45.5796 14.9995C45.193 15.9618 45 16.99 45 18.0837C45 19.1919 45.1969 20.2271 45.5906 21.1898C45.9843 22.1519 46.5276 22.9868 47.2203 23.6942C47.913 24.4013 48.7332 24.959 49.6811 25.3675C50.6291 25.7759 51.6647 25.9798 52.7874 25.9798C53.5022 25.9798 54.1548 25.9179 54.7453 25.7939C55.3359 25.67 55.8792 25.4879 56.3751 25.2474C56.8709 25.0066 57.334 24.7221 57.7643 24.3942C58.1943 24.066 58.6063 23.6903 59 23.2677Z" fill="white"/>
<path fill-rule="evenodd" clip-rule="evenodd" d="M93.7102 14.4791C93.7102 13.9697 93.9277 13.5369 94.363 13.1806C94.798 12.8237 95.4074 12.6456 96.1905 12.6456C96.8868 12.6456 97.5757 12.7804 98.2572 13.0496C98.9391 13.3187 99.628 13.7079 100.324 14.217L101.76 12.1874C100.977 11.5617 100.139 11.0853 99.2473 10.7582C98.355 10.4308 97.3508 10.2671 96.2339 10.2671C95.4799 10.2671 94.7836 10.3725 94.149 10.5836C93.5109 10.7944 92.9673 11.0962 92.5138 11.489C92.0606 11.8821 91.7051 12.3511 91.4441 12.8967C91.1867 13.4423 91.0561 14.0498 91.0561 14.719C91.0561 15.4319 91.1685 16.0358 91.3934 16.5304C91.6182 17.0251 91.9481 17.447 92.3761 17.7962C92.8038 18.1454 93.3368 18.4363 93.9676 18.6692C94.6022 18.9021 95.324 19.1127 96.1397 19.302C96.8507 19.4766 97.4268 19.6438 97.873 19.8037C98.3154 19.9639 98.6635 20.135 98.9209 20.3166C99.1745 20.4986 99.3489 20.6985 99.4431 20.9167C99.5373 21.1352 99.5843 21.3822 99.5843 21.6587C99.5843 22.2555 99.3415 22.7284 98.8557 23.0773C98.3697 23.4268 97.7133 23.6011 96.8868 23.6011C95.9296 23.6011 95.0736 23.43 94.3196 23.0882C93.5652 22.7464 92.8184 22.2555 92.0785 21.6151L90.4688 23.5358C91.3825 24.3649 92.3761 24.9797 93.4492 25.3798C94.5227 25.78 95.6466 25.9799 96.8213 25.9799C97.6191 25.9799 98.3518 25.878 99.0189 25.6746C99.6823 25.4705 100.255 25.1723 100.727 24.7795C101.202 24.3867 101.571 23.9067 101.84 23.3394C102.105 22.772 102.239 22.1245 102.239 21.3969C102.239 20.7568 102.134 20.2003 101.923 19.7275C101.713 19.2546 101.401 18.8403 100.995 18.4835C100.589 18.1272 100.074 17.8251 99.4575 17.5778C98.8414 17.3307 98.1304 17.1052 97.3326 16.9014C96.6038 16.7268 96.0056 16.5593 95.5307 16.3994C95.0592 16.2395 94.6894 16.0649 94.4173 15.8756C94.149 15.6866 93.9644 15.4828 93.8625 15.2646C93.7613 15.0462 93.7102 14.7844 93.7102 14.4791Z" fill="white"/>
<path fill-rule="evenodd" clip-rule="evenodd" d="M123.492 14.6951V25.6085H126.15V10.3906H123.296L118.655 17.5866L114.013 10.3906H111.159V25.6085H113.817V14.7385L118.589 21.8693H118.676L123.492 14.6951Z" fill="white"/>
<path fill-rule="evenodd" clip-rule="evenodd" d="M148.484 18.0837C148.484 18.8274 148.357 19.5309 148.102 20.1947C147.848 20.8581 147.495 21.4339 147.043 21.9223C146.592 22.4107 146.05 22.7973 145.417 23.0818C144.783 23.3663 144.088 23.5082 143.332 23.5082C142.575 23.5082 141.876 23.3624 141.235 23.0709C140.595 22.779 140.045 22.3853 139.587 21.8898C139.128 21.3937 138.772 20.8141 138.517 20.1507C138.262 19.4873 138.135 18.7834 138.135 18.04C138.135 17.296 138.262 16.5925 138.517 15.9291C138.772 15.2653 139.125 14.6896 139.576 14.2008C140.027 13.7124 140.57 13.3261 141.203 13.0416C141.836 12.7574 142.531 12.6152 143.288 12.6152C144.045 12.6152 144.744 12.761 145.384 13.0528C146.024 13.3444 146.574 13.7381 147.032 14.2339C147.491 14.7294 147.848 15.3093 148.102 15.9727C148.357 16.6362 148.484 17.34 148.484 18.0837ZM151.301 18.04C151.301 16.9608 151.104 15.94 150.711 14.9773C150.319 14.0152 149.772 13.1765 149.074 12.462C148.375 11.7473 147.538 11.1824 146.563 10.7669C145.588 10.3514 144.511 10.1433 143.332 10.1433C142.152 10.1433 141.075 10.3549 140.1 10.7778C139.125 11.2007 138.28 11.7729 137.567 12.4948C136.854 13.2167 136.301 14.0589 135.908 15.0213C135.515 15.9837 135.318 17.0045 135.318 18.0837C135.318 19.1627 135.515 20.1832 135.908 21.1458C136.301 22.1085 136.847 22.9469 137.545 23.6614C138.244 24.3759 139.081 24.941 140.056 25.3566C141.032 25.7721 142.108 25.9798 143.288 25.9798C144.467 25.9798 145.544 25.7682 146.519 25.3456C147.495 24.9227 148.339 24.3505 149.052 23.6284C149.765 22.9068 150.319 22.0645 150.711 21.1022C151.104 20.1398 151.301 19.119 151.301 18.04Z" fill="white"/>
<path fill-rule="evenodd" clip-rule="evenodd" d="M162.472 14.4791C162.472 13.9697 162.689 13.5369 163.124 13.1806C163.56 12.8237 164.169 12.6456 164.952 12.6456C165.648 12.6456 166.337 12.7804 167.019 13.0496C167.701 13.3187 168.39 13.7079 169.086 14.217L170.522 12.1874C169.738 11.5617 168.901 11.0853 168.009 10.7582C167.117 10.4308 166.113 10.2671 164.996 10.2671C164.242 10.2671 163.545 10.3725 162.911 10.5836C162.273 10.7944 161.729 11.0962 161.275 11.489C160.822 11.8821 160.467 12.3511 160.206 12.8967C159.948 13.4423 159.818 14.0498 159.818 14.719C159.818 15.4319 159.93 16.0358 160.155 16.5304C160.38 17.0251 160.71 17.447 161.138 17.7962C161.565 18.1454 162.099 18.4363 162.73 18.6692C163.364 18.9021 164.086 19.1127 164.901 19.302C165.612 19.4766 166.189 19.6438 166.635 19.8037C167.077 19.9639 167.425 20.135 167.683 20.3166C167.936 20.4986 168.111 20.6985 168.205 20.9167C168.299 21.1352 168.346 21.3822 168.346 21.6587C168.346 22.2555 168.103 22.7284 167.617 23.0773C167.131 23.4268 166.475 23.6011 165.648 23.6011C164.691 23.6011 163.835 23.43 163.081 23.0882C162.327 22.7464 161.58 22.2555 160.84 21.6151L159.23 23.5358C160.144 24.3649 161.138 24.9797 162.211 25.3798C163.284 25.78 164.408 25.9799 165.583 25.9799C166.381 25.9799 167.113 25.878 167.781 25.6746C168.444 25.4705 169.017 25.1723 169.488 24.7795C169.963 24.3867 170.333 23.9067 170.601 23.3394C170.866 22.772 171 22.1245 171 21.3969C171 20.7568 170.895 20.2003 170.685 19.7275C170.474 19.2546 170.163 18.8403 169.756 18.4835C169.35 18.1272 168.836 17.8251 168.219 17.5778C167.603 17.3307 166.892 17.1052 166.094 16.9014C165.366 16.7268 164.767 16.5593 164.292 16.3994C163.821 16.2395 163.451 16.0649 163.179 15.8756C162.911 15.6866 162.726 15.4828 162.624 15.2646C162.523 15.0462 162.472 14.7844 162.472 14.4791Z" fill="white"/>
<path fill-rule="evenodd" clip-rule="evenodd" d="M77.2345 13.4372L69.9509 20.7111C69.857 20.5291 69.7722 20.3395 69.6962 20.1428C69.4419 19.4819 69.3147 18.7807 69.3147 18.0401C69.3147 17.2989 69.4419 16.598 69.6962 15.9371C69.9509 15.2759 70.3036 14.7023 70.7546 14.2154C71.2057 13.7288 71.7477 13.344 72.3804 13.0606C73.0133 12.7775 73.7078 12.6357 74.4642 12.6357C75.2208 12.6357 75.9191 12.781 76.5589 13.0717C76.7968 13.1796 77.022 13.3014 77.2345 13.4372ZM76.5919 23.0627C75.9589 23.3462 75.2644 23.4876 74.508 23.4876C73.7514 23.4876 73.0531 23.3423 72.413 23.0519C72.1754 22.9437 71.9502 22.822 71.738 22.6858L79.0213 15.4125C79.1152 15.5942 79.2 15.7836 79.276 15.9805C79.5303 16.6415 79.6575 17.3427 79.6575 18.0835C79.6575 18.8244 79.5303 19.5253 79.276 20.1865C79.0213 20.8474 78.6686 21.421 78.2176 21.9076C77.7665 22.3942 77.2248 22.7793 76.5919 23.0627ZM77.6938 25.3181C78.6686 24.8968 79.5124 24.3267 80.2251 23.6073C80.9379 22.8884 81.4905 22.0494 81.8832 21.0906C82.2763 20.1319 82.4726 19.1149 82.4726 18.0401C82.4726 16.9649 82.2763 15.9479 81.8832 14.9889C81.6504 14.4203 81.3636 13.8952 81.0233 13.4134L85.7606 8.68258L83.8781 6.80273L79.1264 11.5479C78.6998 11.2574 78.2367 11.0064 77.7374 10.7944C76.7626 10.3804 75.6863 10.1732 74.508 10.1732C73.3295 10.1732 72.2532 10.384 71.2784 10.8053C70.3036 11.2266 69.4598 11.7966 68.7471 12.5158C68.0343 13.2349 67.4814 14.074 67.0887 15.0327C66.6959 15.9915 66.4996 17.0084 66.4996 18.0836C66.4996 19.1584 66.6959 20.1751 67.0887 21.1341C67.3218 21.703 67.6086 22.2281 67.9489 22.7103L63.2119 27.4405L65.0944 29.3203L69.8458 24.5754C70.2724 24.8659 70.7355 25.117 71.2348 25.3289C72.2096 25.7429 73.2859 25.9499 74.4642 25.9499C75.6427 25.9499 76.719 25.7391 77.6938 25.3181Z" fill="white"/>
<path fill-rule="evenodd" clip-rule="evenodd" d="M18.2824 3.10745C18.1397 2.97612 18.066 2.97363 18.0536 2.97363C18.0413 2.97363 17.9676 2.97612 17.8249 3.10745C17.6784 3.24227 17.5033 3.47488 17.3146 3.83379C16.938 4.55017 16.5775 5.63298 16.2669 7.03019C15.648 9.8132 15.2592 13.692 15.2592 18C15.2592 22.308 15.648 26.1868 16.2669 28.9698C16.5775 30.367 16.938 31.4498 17.3146 32.1662C17.5033 32.5251 17.6784 32.7577 17.8249 32.8926C17.9676 33.0239 18.0413 33.0264 18.0536 33.0264C18.066 33.0264 18.1397 33.0239 18.2824 32.8926C18.4289 32.7577 18.604 32.5251 18.7927 32.1662C19.1693 31.4498 19.5297 30.367 19.8404 28.9698C20.4592 26.1868 20.848 22.308 20.848 18C20.848 13.692 20.4592 9.8132 19.8404 7.03019C19.5297 5.63298 19.1693 4.55017 18.7927 3.83379C18.604 3.47488 18.4289 3.24227 18.2824 3.10745ZM21.5512 18C21.5512 9.31285 19.9853 2.27051 18.0536 2.27051C16.122 2.27051 14.5561 9.31285 14.5561 18C14.5561 26.6872 16.122 33.7295 18.0536 33.7295C19.9853 33.7295 21.5512 26.6872 21.5512 18Z" fill="white"/>
<path fill-rule="evenodd" clip-rule="evenodd" d="M31.0735 10.7512C31.1159 10.5622 31.0812 10.4975 31.0752 10.4871C31.0691 10.4766 31.0303 10.4141 30.845 10.3562C30.6548 10.2968 30.3656 10.2615 29.9601 10.2777C29.1509 10.3099 28.0322 10.5394 26.6661 10.9691C23.9449 11.825 20.3892 13.4279 16.656 15.5819C12.9228 17.7359 9.75594 20.0119 7.65365 21.939C6.5982 22.9065 5.84008 23.7599 5.40758 24.444C5.1909 24.7868 5.07691 25.0547 5.03335 25.2488C4.99091 25.4379 5.02562 25.5026 5.03162 25.5129C5.03767 25.5234 5.07653 25.5859 5.26185 25.6438C5.45201 25.7032 5.74125 25.7385 6.14669 25.7223C6.95592 25.6901 8.07458 25.4606 9.44073 25.0309C12.1619 24.175 15.7176 22.5721 19.4508 20.4181C23.184 18.2641 26.3509 15.9882 28.4532 14.061C29.5086 13.0935 30.2667 12.2401 30.6992 11.556C30.9159 11.2132 31.0299 10.9454 31.0735 10.7512ZM19.8022 21.0271C27.3302 16.6836 32.6498 11.8072 31.684 10.1353C30.7182 8.46352 23.8326 10.6294 16.3046 14.9729C8.77664 19.3164 3.45698 24.1928 4.4228 25.8647C5.38865 27.5365 12.2742 25.3706 19.8022 21.0271Z" fill="white"/>
<path fill-rule="evenodd" clip-rule="evenodd" d="M30.841 25.6513C31.026 25.5935 31.0647 25.5311 31.0707 25.5207C31.0767 25.5103 31.1114 25.4453 31.0689 25.2559C31.0253 25.0615 30.9112 24.7934 30.6945 24.4504C30.262 23.7657 29.5039 22.9116 28.4487 21.9433C26.3468 20.0147 23.1809 17.7368 19.4488 15.5808C15.7168 13.4247 12.1624 11.8201 9.44228 10.963C8.07666 10.5328 6.95854 10.3029 6.14979 10.2704C5.7446 10.2542 5.45565 10.2894 5.26576 10.3487C5.08079 10.4065 5.04212 10.4689 5.03613 10.4793C5.03009 10.4897 4.99537 10.5547 5.03789 10.7441C5.08152 10.9385 5.1956 11.2066 5.41231 11.5497C5.84484 12.2344 6.60289 13.0884 7.65812 14.0567C9.75996 15.9853 12.9259 18.2632 16.658 20.4192C20.39 22.5753 23.9445 24.1799 26.6645 25.037C28.0301 25.4673 29.1483 25.6971 29.957 25.7296C30.3622 25.7459 30.6512 25.7107 30.841 25.6513ZM16.3063 21.0281C23.8318 25.3757 30.7148 27.5445 31.6797 25.8721C32.6446 24.1998 27.3262 19.3196 19.8006 14.972C12.275 10.6243 5.39203 8.45555 4.4271 10.1279C3.46219 11.8003 8.78066 16.6804 16.3063 21.0281Z" fill="white"/>
<path fill-rule="evenodd" clip-rule="evenodd" d="M7.99983 13.595C8.61071 13.595 9.10593 14.0905 9.10593 14.7017C9.10593 15.3129 8.61071 15.8083 7.99983 15.8083C7.38895 15.8083 6.89372 15.3129 6.89372 14.7017C6.89372 14.0905 7.38895 13.595 7.99983 13.595Z" fill="white"/>
<path fill-rule="evenodd" clip-rule="evenodd" d="M25.5789 9.8053C26.19 9.8053 26.6855 10.3008 26.6855 10.9119C26.6855 11.5231 26.19 12.0186 25.5789 12.0186C24.9677 12.0186 24.4722 11.5231 24.4722 10.9119C24.4722 10.3008 24.9677 9.8053 25.5789 9.8053Z" fill="white"/>
<path fill-rule="evenodd" clip-rule="evenodd" d="M15.8248 27.1748C16.436 27.1748 16.9314 27.6701 16.9314 28.2809C16.9314 28.8918 16.436 29.387 15.8248 29.387C15.2136 29.387 14.7181 28.8918 14.7181 28.2809C14.7181 27.6701 15.2136 27.1748 15.8248 27.1748Z" fill="white"/>
<path fill-rule="evenodd" clip-rule="evenodd" d="M17.9918 16.1182C19.0266 16.1182 19.8654 16.957 19.8654 17.9918C19.8654 19.0266 19.0266 19.8654 17.9918 19.8654C16.957 19.8654 16.1182 19.0266 16.1182 17.9918C16.1182 16.957 16.957 16.1182 17.9918 16.1182Z" fill="white"/>
</svg>
