<svg width="100" height="24" viewBox="0 0 100 24" fill="none" xmlns="http://www.w3.org/2000/svg">
<path fill-rule="evenodd" clip-rule="evenodd" d="M64.6472 17.1404C65.6897 17.1404 66.5672 16.7902 67.2602 16.1039C67.9532 15.3839 68.3027 14.5064 68.3027 13.4429C68.3027 12.3802 67.9532 11.5019 67.2602 10.8089C66.5672 10.0964 65.6897 9.74616 64.6472 9.74616C63.6107 9.74616 62.734 10.0957 62.041 10.8089C61.348 11.5019 61.0052 12.3802 61.0052 13.4429C61.0052 14.5057 61.348 15.3839 62.0402 16.1039C62.734 16.7902 63.6107 17.1404 64.6472 17.1404V17.1404ZM68.3027 7.66716H70.7965V19.2202H68.3027V17.5559C67.3525 18.8774 66.013 19.5239 64.258 19.5239C62.668 19.5239 61.3217 18.9427 60.193 17.7674C59.065 16.5862 58.5107 15.1274 58.5107 13.4429C58.5107 11.7329 59.065 10.3012 60.1937 9.11916C61.3217 7.94391 62.668 7.36266 64.258 7.36266C66.013 7.36266 67.3525 8.00991 68.3027 9.30366V7.66716V7.66716ZM80.4625 10.0694H77.599V15.6157C77.599 17.0947 78.5695 17.0677 80.4625 16.9754V19.2202C76.6487 19.6822 75.1052 18.6389 75.1052 15.6157V10.0694H72.9805V7.66641H75.1052L75.1008 4.43091H77.599V7.66641H80.4625V10.0694V10.0694ZM82.7455 19.2202H85.24V7.66641H82.7463V19.2202H82.7455ZM82.858 5.47491C82.231 4.82766 82.231 3.85041 82.858 3.22941C83.0039 3.07608 83.1794 2.954 83.3738 2.87058C83.5683 2.78716 83.7778 2.74414 83.9894 2.74414C84.201 2.74414 84.4104 2.78716 84.6049 2.87058C84.7994 2.954 84.9749 3.07608 85.1208 3.22941C85.741 3.85041 85.741 4.82691 85.0945 5.47491C84.475 6.09516 83.5045 6.09516 82.858 5.47491ZM89.218 17.7674C88.0638 16.5854 87.4833 15.1529 87.4833 13.4429C87.4833 11.7074 88.0638 10.2809 89.2188 9.11916C90.4 7.94391 91.8513 7.36266 93.58 7.36266C95.8233 7.36266 97.81 8.52516 98.7325 10.3477L96.589 11.5949C96.0543 10.4849 94.9465 9.81891 93.5605 9.81891C92.5443 9.81891 91.693 10.1617 90.9933 10.8554C90.3273 11.5484 89.9778 12.4072 89.9778 13.4429C89.9778 14.4794 90.3273 15.3382 90.9933 16.0312C91.693 16.7249 92.5443 17.0677 93.5605 17.0677C94.9263 17.0677 96.0738 16.3814 96.628 15.2917L98.779 16.5134C97.7898 18.3614 95.824 19.5239 93.58 19.5239C91.8513 19.5239 90.4 18.9427 89.2188 17.7674" fill="white"/>
<path fill-rule="evenodd" clip-rule="evenodd" d="M12.6514 9.89479L15.9994 17.3198L20.9824 14.4473L20.9861 14.4458V8.69629L12.6514 9.89479Z" fill="#2BBDF7"/>
<path fill-rule="evenodd" clip-rule="evenodd" d="M27.4206 4.38507L24.3103 3.21357L20.9863 2.94507V20.8123L25.9731 23.6863L29.9091 15.6313L27.4266 7.84257L27.4206 4.38507Z" fill="#2891F9"/>
<path fill-rule="evenodd" clip-rule="evenodd" d="M27.1292 2.94678L25.9742 5.82003H25.9727V23.685L30.9602 20.8118V2.94678H27.1292Z" fill="#2BBDF7"/>
<path fill-rule="evenodd" clip-rule="evenodd" d="M25.9729 0.0712891L20.9854 2.94679L25.9729 5.82154L30.9604 2.94679L25.9729 0.0712891Z" fill="#2B6DEF"/>
<path fill-rule="evenodd" clip-rule="evenodd" d="M16.001 11.5681V11.5666L11.0143 5.98658L1.04004 2.94458V20.8096L6.02604 23.6843L7.45104 13.7978L11.0143 14.4451V14.4421L16.0018 17.3161V11.5681H16.001Z" fill="#2891F9"/>
<path fill-rule="evenodd" clip-rule="evenodd" d="M53.6157 4.43164L48.7205 12.5189L43.8447 4.43164H40.9805V19.2201H43.64V9.05239L48.0425 16.3596H49.3955L53.801 9.07789V19.2194H56.483V4.43164H53.6157Z" fill="white"/>
<path fill-rule="evenodd" clip-rule="evenodd" d="M6.02806 0.0705566L1.03906 2.94531L15.9986 11.5718L18.2591 10.2691L20.9853 8.69631L6.02806 0.0705566Z" fill="#2B6DEF"/>
<path fill-rule="evenodd" clip-rule="evenodd" d="M6.02712 11.5686H6.02637V23.6841L11.0139 20.8101V14.4434L6.02712 11.5686Z" fill="#2BBDF7"/>
</svg>
