<svg width="98" height="36" viewBox="0 0 98 36" fill="none" xmlns="http://www.w3.org/2000/svg">
<g clip-path="url(#clip0)">
<path d="M35.4791 14.5781C35.2227 14.4889 34.6765 14.4332 34.1415 14.4332C32.5141 14.4332 30.7753 15.7485 30.7753 17.3759V25.145H27.0635V11.2899H30.6304V12.6944C31.4552 11.6689 32.9711 11.0112 34.6542 11.0112C35.0778 11.0112 35.5014 11.0558 35.9138 11.1227L35.4791 14.5781Z" fill="white"/>
<path d="M39.6819 4C41.0195 4 42.1118 5.02548 42.1118 6.3742C42.1118 7.72293 41.0195 8.74841 39.6819 8.74841C38.3443 8.74841 37.252 7.72293 37.252 6.3742C37.252 5.02548 38.3332 4 39.6819 4ZM41.5434 25.1449H37.8316V11.2898H41.5434V25.1449Z" fill="white"/>
<path d="M52.5113 11C51.04 10.9777 49.6021 11.4793 48.454 12.4044V11.2898H44.876V32H48.5989V24.1751C49.6578 25.0111 50.9731 25.457 52.3107 25.4347C54.3728 25.4347 56.3346 24.5207 57.5718 23.0939C58.653 21.8344 59.3107 20.1178 59.3107 18.2341C59.3107 14.1433 56.2788 11 52.5113 11ZM52.0543 22.0573C49.747 22.0573 48.2311 20.4634 48.2311 18.2452C48.2311 16.0271 49.747 14.4331 52.0543 14.4331C54.0272 14.4331 55.6212 16.1385 55.6212 18.2452C55.6212 20.3519 54.0272 22.0573 52.0543 22.0573Z" fill="white"/>
<path d="M81.8596 25.1448H78.1367V4.85815H81.8485L81.8596 25.1448Z" fill="white"/>
<path d="M96.9967 22.949C95.6592 24.5541 93.4522 25.4347 91.312 25.4347C87.1655 25.4347 84.0557 22.5812 84.0557 18.2341C84.0557 14.3774 86.6862 11 90.7993 11C94.6337 11 97.3423 14.2325 97.3423 18.0892C97.3423 18.4459 97.32 18.8025 97.2531 19.1481H87.656C87.8566 21.0876 89.4283 22.4363 91.4012 22.4363C92.9729 22.4363 94.2324 21.5557 94.8901 20.8312L96.9967 22.949ZM93.5413 16.4283C93.4299 15.2022 92.3152 13.9984 90.7993 13.9984C89.2611 13.9984 88.0015 15.1688 87.8232 16.4283H93.5413Z" fill="white"/>
<path d="M69.1422 11C67.6708 10.9777 66.233 11.4793 65.0849 12.4044V11.2898H61.5068V32H65.2186V24.1751C66.2775 25.0111 67.5928 25.457 68.9304 25.4347C70.9925 25.4347 72.9543 24.5207 74.1915 23.0939C75.2727 21.8344 75.9304 20.1178 75.9304 18.2341C75.9415 14.1433 72.9097 11 69.1422 11ZM68.6852 22.0573C66.3779 22.0573 64.8619 20.4634 64.8619 18.2452C64.8619 16.0271 66.3779 14.4331 68.6852 14.4331C70.6581 14.4331 72.2521 16.1385 72.2521 18.2452C72.2521 20.3519 70.6581 22.0573 68.6852 22.0573Z" fill="white"/>
<path d="M19.395 20.0956C18.559 19.6163 17.6115 19.4714 16.6752 19.4379C15.895 19.4156 14.7246 18.9029 14.7246 17.4761C14.7246 16.4172 15.5829 15.5589 16.6864 15.5143C17.6227 15.4809 18.5701 15.336 19.4061 14.8567C21.7803 13.4857 22.5829 10.4538 21.223 8.09078C19.8408 5.72772 16.809 4.91403 14.4348 6.28505C12.8966 7.16562 11.9603 8.80416 11.9603 10.5765C11.9603 11.535 12.3058 12.4156 12.7405 13.2405C13.1083 13.9315 13.2867 15.2134 12.0383 15.9379C11.102 16.4729 9.9316 16.1386 9.35198 15.2022C8.86153 14.4108 8.27077 13.6752 7.43478 13.1959C5.06058 11.8249 2.02873 12.6386 0.668857 15.0016C-0.691015 17.3647 0.111533 20.3965 2.48574 21.7675C4.02395 22.6481 5.90771 22.6481 7.43478 21.7675C8.27077 21.2882 8.86153 20.5526 9.35198 19.7612C9.75325 19.1147 10.7676 18.2898 12.0383 19.0255C12.9746 19.5605 13.2644 20.7421 12.7405 21.7229C12.3058 22.5366 11.9603 23.4284 11.9603 24.387C11.9603 27.1179 14.1784 29.336 16.9093 29.336C19.6402 29.336 21.8583 27.1179 21.8583 24.387C21.8695 22.6147 20.922 20.9761 19.395 20.0956Z" fill="white"/>
</g>
<defs>
<clipPath id="clip0">
<rect width="97.3424" height="28" fill="white" transform="translate(0 4)"/>
</clipPath>
</defs>
</svg>
