<svg width="124" height="32" viewBox="0 0 124 32" fill="none" xmlns="http://www.w3.org/2000/svg">
<path fill-rule="evenodd" clip-rule="evenodd" d="M118.82 17.4645C118.82 15.9356 117.916 14.7846 116.489 14.7846C115.062 14.7846 114.157 15.9356 114.157 17.4645C114.157 18.9933 115.062 20.1444 116.489 20.1444C117.919 20.1473 118.82 18.9963 118.82 17.4645ZM118.75 13.7586V9.75325C118.75 9.48875 118.928 9.25913 119.185 9.19228L121.318 8.62549V22.179H118.952V21.028C118.357 21.8912 117.288 22.397 115.952 22.397C113.206 22.397 111.598 20.2025 111.598 17.4674C111.598 14.7323 113.206 12.5378 115.952 12.5378C117.286 12.5349 118.263 13.1104 118.75 13.7586ZM104.192 12.75V13.901C104.627 13.09 105.602 12.532 107.011 12.532C109.287 12.532 110.498 14.0434 110.498 16.2931V22.179H107.933V16.5838C107.933 15.4851 107.463 14.7294 106.325 14.7294C105.079 14.7294 104.393 15.52 104.393 16.7814V22.179H101.828V12.75H104.192ZM95.8317 22.397C93.0683 22.397 91.5305 21.2082 91.5305 18.1504V12.75H94.0955V18.1853C94.0955 19.4991 94.6908 20.1095 95.8288 20.1095C96.9669 20.1095 97.5622 19.4962 97.5622 18.1853V12.75H100.127V18.1475C100.133 21.2082 98.5952 22.397 95.8317 22.397V22.397ZM83.0622 17.4645C83.0622 19.1561 84.1098 20.1444 85.4638 20.1444C86.8178 20.1444 87.8654 19.1532 87.8654 17.4645C87.8654 15.7757 86.8178 14.7846 85.4638 14.7846C84.1127 14.7846 83.0622 15.7728 83.0622 17.4645ZM85.4667 22.397C82.4319 22.397 80.4972 20.1473 80.4972 17.4674C80.4972 14.7875 82.4289 12.5378 85.4667 12.5378C88.5015 12.5378 90.4362 14.7875 90.4362 17.4674C90.4333 20.1473 88.5015 22.397 85.4667 22.397V22.397ZM72.6796 17.4645C72.6796 18.9933 73.5842 20.1444 75.0112 20.1444C76.4381 20.1444 77.3427 18.9933 77.3427 17.4645C77.3427 15.9356 76.4381 14.7846 75.0112 14.7846C73.5842 14.7846 72.6796 15.9356 72.6796 17.4645ZM72.7525 21.1733V25.0943C72.7525 25.3588 72.5745 25.5884 72.3178 25.6553L70.1875 26.2134V12.75H72.5541V13.901C73.1494 13.0377 74.2174 12.532 75.5539 12.532C78.2998 12.532 79.9077 14.7265 79.9077 17.4616C79.9077 20.1967 78.2998 22.3912 75.5539 22.3912C74.2145 22.397 73.2399 21.8215 72.7525 21.1733V21.1733ZM62.5684 16.8163V22.179H60.0034V16.5838C60.0034 15.5403 59.624 14.7294 58.486 14.7294C57.2925 14.7294 56.6417 15.5025 56.6417 16.764V22.1819H54.0767V12.75H56.4433V13.901C56.8781 13.09 57.8177 12.532 59.1717 12.532C60.4557 12.532 61.3749 13.0348 61.9177 13.8632C62.7493 12.9447 63.7065 12.532 65.0605 12.532C67.3366 12.532 68.4921 14.0986 68.4921 16.2931V22.179H65.9271V16.5838C65.9271 15.5403 65.5478 14.7294 64.4097 14.7294C63.1987 14.7294 62.5684 15.5025 62.5684 16.8163V16.8163ZM45.518 17.4645C45.518 19.1561 46.5656 20.1444 47.9196 20.1444C49.2736 20.1444 50.3212 19.1532 50.3212 17.4645C50.3212 15.7757 49.2736 14.7846 47.9196 14.7846C46.5656 14.7846 45.518 15.7728 45.518 17.4645ZM47.9196 22.397C44.8847 22.397 42.9501 20.1473 42.9501 17.4674C42.9501 14.7875 44.8818 12.5378 47.9196 12.5378C50.9573 12.5378 52.8891 14.7875 52.8891 17.4674C52.8891 20.1473 50.9544 22.397 47.9196 22.397ZM29.6406 15.7728C29.6406 11.7792 32.4041 9.13124 36.0896 9.13124C39.2878 9.13124 41.8178 11.0205 42.3052 14.1335H39.4863C39.1069 12.532 37.8055 11.6309 36.0896 11.6309C33.7405 11.6309 32.4216 13.2499 32.4216 15.7699C32.4216 18.2899 33.7405 19.9089 36.0896 19.9089C37.8055 19.9089 39.1069 19.0079 39.4863 17.4063H42.3052C41.8178 20.5193 39.2878 22.4086 36.0896 22.4086C32.4041 22.4144 29.6406 19.7694 29.6406 15.7728Z" fill="white"/>
<path fill-rule="evenodd" clip-rule="evenodd" d="M3.55636 22.9708C2.90271 22.5726 2.50293 21.8634 2.50293 21.1019V16.8495C2.50293 16.6868 2.5467 16.5298 2.62841 16.3903C2.88228 15.9543 3.44547 15.8061 3.88319 16.0618L13.5187 21.6571C14.0819 21.9855 14.4292 22.5843 14.4292 23.2354V27.6418C14.4292 27.8423 14.3737 28.0429 14.2687 28.2144C13.9506 28.7317 13.2736 28.8945 12.7542 28.5777L3.55636 22.9708ZM17.9192 14.8963C18.4824 15.2247 18.8297 15.8235 18.8297 16.4746V25.4153C18.8297 25.6798 18.6867 25.924 18.4561 26.0519L16.3464 27.2348C16.3201 27.2494 16.2909 27.261 16.2617 27.2697V22.3052C16.2617 21.6629 15.9232 21.067 15.3688 20.7357L6.90633 15.6927V10.0888C6.90633 9.92601 6.9501 9.76905 7.03181 9.62953C7.28568 9.19354 7.84888 9.0453 8.28659 9.30108L17.9192 14.8963ZM22.1359 8.29249C22.702 8.61803 23.0492 9.22261 23.0492 9.87369V22.9331C23.0492 23.2005 22.9004 23.4475 22.664 23.5754L20.6651 24.6509V15.559C20.6651 14.9166 20.3266 14.3237 19.7751 13.9923L11.1259 8.8244V3.50822C11.1259 3.34544 11.1697 3.18849 11.2485 3.04897C11.5023 2.61298 12.0655 2.46474 12.5032 2.71762L22.1359 8.29249Z" fill="#00D395"/>
</svg>
