<svg width="175" height="44" viewBox="0 0 175 44" fill="none" xmlns="http://www.w3.org/2000/svg">
<path d="M126.299 13.0637C126.088 13.0637 125.772 12.9573 124.929 12.9573C124.191 12.9573 123.559 13.0637 122.927 13.17C120.398 13.702 118.712 15.0849 117.342 16.5743V13.5956H109.333V39.7658H117.342V28.9147C117.342 27.6381 117.447 26.4679 117.552 25.4041C117.658 24.3403 117.974 23.3828 118.501 22.6381C119.028 21.8934 119.66 21.2551 120.503 20.8296C121.346 20.4041 122.611 20.1913 124.086 20.1913C124.718 20.1913 125.245 20.1913 125.772 20.2977C126.299 20.4041 126.931 20.5105 127.458 20.7232V13.3828C127.142 13.2764 126.72 13.17 126.299 13.0637Z" fill="white"/>
<path d="M147.691 13.0637C147.481 13.0637 147.165 12.9573 146.322 12.9573C145.584 12.9573 144.952 13.0637 144.319 13.17C141.79 13.702 140.104 15.0849 138.734 16.5743V13.5956H130.726V39.7658H138.734V28.9147C138.734 27.6381 138.84 26.4679 138.945 25.4041C139.05 24.3403 139.367 23.3828 139.893 22.6381C140.42 21.8934 141.053 21.2551 141.896 20.8296C142.739 20.4041 144.003 20.1913 145.478 20.1913C146.111 20.1913 146.638 20.1913 147.165 20.2977C147.691 20.4041 148.324 20.5105 148.851 20.7232V13.3828C148.534 13.2764 148.113 13.17 147.691 13.0637Z" fill="white"/>
<path d="M63.3882 12.6382H52.6396V5.19141H82.4616V12.6382H71.713V39.8723H63.3882V12.6382Z" fill="white"/>
<path d="M104.907 35.298C103.642 37.0001 102.062 38.1703 100.059 39.1278C98.0573 39.9789 96.0551 40.5108 93.9475 40.5108C91.9453 40.5108 90.0485 40.1916 88.3625 39.5533C86.5711 38.915 85.0958 37.9576 83.7259 36.7874C82.4613 35.6172 81.4075 34.1278 80.6699 32.4257C79.9322 30.7235 79.5107 28.8086 79.5107 26.7874C79.5107 24.6597 79.9322 22.8512 80.6699 21.1491C81.4075 19.4469 82.4613 18.064 83.7259 16.7874C84.9904 15.6172 86.5711 14.6597 88.3625 14.0214C90.1539 13.3831 91.9453 13.064 93.9475 13.064C95.8443 13.064 97.425 13.3831 99.0057 14.0214C100.481 14.6597 101.745 15.6172 102.799 16.7874C103.853 17.9576 104.696 19.4469 105.223 21.1491C105.75 22.8512 106.066 24.7661 106.066 26.7874V29.3406H87.5195C87.8356 30.9363 88.5732 32.1065 89.627 33.064C90.6808 34.0214 92.0507 34.4469 93.526 34.4469C94.7905 34.4469 95.9497 34.1278 96.8981 33.5959C97.8465 32.9576 98.5841 32.2129 99.3218 31.2555L104.907 35.298ZM98.1626 23.8086C98.1626 22.4257 97.7411 21.2555 96.7927 20.298C95.8443 19.3406 94.6852 18.8086 93.2099 18.8086C92.3668 18.8086 91.5238 18.915 90.8916 19.2342C90.2593 19.5533 89.627 19.8725 89.2055 20.298C88.6786 20.7235 88.3625 21.2555 88.0463 21.8938C87.7302 22.5321 87.6248 23.064 87.6248 23.7023H98.1626V23.8086Z" fill="white"/>
<path d="M149.798 32.3193C149.798 26.3618 154.329 23.7023 160.652 23.7023C163.392 23.7023 165.394 24.1278 167.291 24.7661V24.3406C167.291 21.2555 165.288 19.4469 161.495 19.4469C158.544 19.4469 156.542 19.9789 154.013 20.9363L152.116 15.1916C155.067 13.915 158.017 13.064 162.654 13.064C166.869 13.064 169.82 14.1278 171.822 16.0427C173.824 18.064 174.772 20.9363 174.772 24.5533V39.9789H167.396V37.1065C165.499 39.1278 162.97 40.5108 159.176 40.5108C153.908 40.5108 149.798 37.6384 149.798 32.3193ZM167.396 30.6172V30.1916C167.396 29.6597 167.08 29.1278 166.448 28.915C165.288 28.4895 163.918 28.2767 162.443 28.2767C159.176 28.2767 157.174 29.5533 157.174 32.0001V32.1065C157.174 34.1278 158.86 35.298 161.389 35.298C164.972 35.298 167.396 33.3831 167.396 30.6172Z" fill="white"/>
<path d="M20.1834 35.4042C21.4479 40.085 25.8738 43.5957 28.1921 43.4893C28.2975 43.4893 36.7277 41.8936 41.4697 34.0212C45.0525 27.9574 43.8934 21.9999 38.9406 21.8936C37.1492 21.9999 17.865 26.468 20.1834 35.4042Z" fill="#5493F7"/>
<path d="M38.4133 5.40417C34.725 2.1063 29.7723 0.191406 24.398 0.191406C21.2367 0.191406 18.2861 0.829707 15.6516 2.1063C15.1247 2.31907 14.7032 2.53183 14.2817 2.7446C13.9656 2.95737 13.6495 3.06375 13.3333 3.27651H13.4387C12.5957 3.91481 11.7527 4.65949 11.1204 5.51056C4.9031 13.8084 25.7679 19.7659 36.8326 19.8723C41.9961 23.4893 43.4714 9.34034 38.4133 5.40417Z" fill="#5493F7"/>
<path d="M16.9167 5.61683C14.0715 9.97854 4.5875 12.9573 3.00684 12.5317C3.11221 12.4253 3.11221 12.319 3.21759 12.1062C3.74448 11.0424 4.37674 10.0849 5.11439 9.12748C5.85204 8.17003 6.58969 7.31897 7.43271 6.4679C8.27573 5.61684 9.11876 4.87215 10.0672 4.12747C10.6994 3.70194 11.2263 3.27641 11.8586 2.95726C13.2285 2.21258 14.5984 2.1062 15.0199 2.1062C19.1297 2.1062 16.9167 5.51045 16.9167 5.61683Z" fill="white"/>
<path d="M14.5982 36.2551C14.8089 37.6381 14.5982 42.9572 14.282 43.4891C14.0713 43.4891 13.5444 43.4891 12.0691 42.7445C11.3315 42.3189 10.5938 41.787 9.85617 41.3615C8.90777 40.6168 8.06475 39.8721 7.22172 39.0211C6.3787 38.17 5.64106 37.3189 4.90341 36.3615C4.16577 35.404 3.63888 34.4466 3.00661 33.3828C2.47972 32.3189 1.95283 31.2551 1.6367 30.0849C1.32056 28.9147 1.00443 27.7445 0.793672 26.5743C0.582916 25.404 0.477539 24.1275 0.477539 22.8509C0.477539 21.5743 0.582916 20.2977 0.793672 19.1275C1.00443 17.9572 1.32056 16.6806 1.6367 15.6168C1.74208 15.404 1.74207 15.1913 1.84745 14.9785C3.5335 17.2126 5.4303 19.2338 7.01097 21.3615C8.59164 23.4892 10.6992 26.8934 11.1207 27.6381C13.9659 31.9998 14.3874 34.8721 14.5982 36.2551Z" fill="white"/>
<path d="M46.2114 22.638C46.2114 25.6167 45.6845 28.4891 44.6307 31.0423C41.9963 33.9146 23.8713 26.787 23.6606 26.6806C21.1315 25.6167 13.6497 22.2125 13.0174 16.9997C12.069 9.44653 27.138 4.23376 33.7768 4.021C34.6199 4.021 37.0435 4.02099 38.4135 5.19121C43.1555 9.55291 46.2114 15.7231 46.2114 22.638Z" fill="white"/>
<path d="M33.9881 43.0635C31.9859 44.021 29.8784 43.2763 30.4053 41.3614C31.459 37.638 40.943 33.8082 43.0506 33.5955C43.2614 33.5955 43.3667 33.7018 43.2614 33.9146C41.0484 37.8508 37.8871 41.0423 33.9881 43.0635Z" fill="white"/>
</svg>
