<svg width="343" height="72" viewBox="0 0 343 72" fill="none" xmlns="http://www.w3.org/2000/svg">
	<path fill-rule="evenodd" clip-rule="evenodd" d="M118.5 46.5359L115.044 43.0359C113.731 44.2606 112.404 45.2309 111.062 45.9457C109.721 46.6599 108.117 47.017 106.25 47.017C104.792 47.017 103.443 46.7331 102.203 46.1641C100.964 45.5951 99.8918 44.8154 98.9875 43.8232C98.0832 42.8316 97.3837 41.6724 96.8873 40.3456C96.3915 39.0187 96.1442 37.5963 96.1442 36.0806C96.1442 34.5637 96.3915 33.1489 96.8873 31.8362C97.3837 30.5241 98.0832 29.3796 98.9875 28.4022C99.8918 27.4254 100.964 26.6528 102.203 26.0838C103.443 25.5154 104.792 25.2309 106.25 25.2309C108 25.2309 109.56 25.5809 110.931 26.2809C112.302 26.9803 113.6 27.8993 114.824 29.0367L118.281 25.0562C117.552 24.3562 116.779 23.7146 115.962 23.1309C115.146 22.5477 114.257 22.0442 113.294 21.6216C112.331 21.1984 111.274 20.8708 110.122 20.6377C108.97 20.404 107.693 20.2871 106.294 20.2871C103.96 20.2871 101.831 20.7032 99.9065 21.5343C97.9811 22.3653 96.3189 23.5027 94.9188 24.9464C93.5186 26.3901 92.4325 28.0741 91.6593 29.9994C90.886 31.9241 90.5 33.9805 90.5 36.1679C90.5 38.3842 90.8937 40.4548 91.6811 42.3801C92.4685 44.3043 93.5552 45.974 94.9406 47.3888C96.326 48.803 97.9663 49.9186 99.8623 50.7354C101.758 51.5523 103.829 51.9602 106.075 51.9602C107.504 51.9602 108.81 51.8362 109.991 51.5883C111.172 51.3404 112.258 50.9763 113.25 50.4952C114.242 50.0136 115.168 49.4446 116.029 48.7889C116.889 48.1325 117.713 47.3812 118.5 46.5359" fill="white" />
	<path fill-rule="evenodd" clip-rule="evenodd" d="M187.921 28.9571C187.921 27.9384 188.356 27.0727 189.227 26.3602C190.097 25.6465 191.316 25.2902 192.882 25.2902C194.274 25.2902 195.652 25.5599 197.015 26.0981C198.379 26.6364 199.757 27.4149 201.149 28.433L204.021 24.3739C202.455 23.1225 200.78 22.1697 198.996 21.5155C197.211 20.8606 195.203 20.5332 192.969 20.5332C191.461 20.5332 190.068 20.744 188.799 21.1663C187.523 21.5879 186.436 22.1915 185.529 22.9771C184.622 23.7632 183.911 24.7013 183.389 25.7925C182.874 26.8837 182.613 28.0986 182.613 29.4371C182.613 30.8628 182.838 32.0706 183.288 33.0599C183.737 34.0492 184.397 34.8931 185.253 35.5915C186.109 36.2899 187.175 36.8717 188.436 37.3375C189.705 37.8033 191.149 38.2244 192.78 38.603C194.202 38.9522 195.355 39.2867 196.247 39.6065C197.132 39.9268 197.828 40.269 198.343 40.6323C198.85 40.9962 199.199 41.3961 199.387 41.8324C199.576 42.2694 199.67 42.7635 199.67 43.3164C199.67 44.5101 199.184 45.4558 198.212 46.1536C197.24 46.8526 195.928 47.2013 194.274 47.2013C192.36 47.2013 190.648 46.8591 189.14 46.1754C187.631 45.4917 186.138 44.5101 184.658 43.2293L181.438 47.0705C183.266 48.7288 185.253 49.9584 187.399 50.7587C189.546 51.559 191.794 51.9588 194.144 51.9588C195.739 51.9588 197.204 51.7551 198.539 51.3482C199.866 50.9401 201.012 50.3435 201.954 49.558C202.904 48.7724 203.644 47.8125 204.181 46.6777C204.71 45.543 204.978 44.248 204.978 42.7929C204.978 41.5127 204.768 40.3997 204.347 39.4539C203.926 38.5082 203.303 37.6796 202.491 36.9659C201.678 36.2534 200.649 35.6492 199.416 35.1545C198.184 34.6605 196.762 34.2094 195.166 33.8019C193.709 33.4527 192.512 33.1176 191.562 32.7978C190.619 32.4781 189.88 32.1289 189.336 31.7502C188.799 31.3721 188.43 30.9646 188.226 30.5283C188.024 30.0913 187.921 29.5678 187.921 28.9571" fill="white" />
	<path fill-rule="evenodd" clip-rule="evenodd" d="M247.484 29.3901V51.2171H252.801V20.7812H247.091L237.809 35.1732L228.527 20.7812H222.818V51.2171H228.135V29.477L237.678 43.7387H237.853L247.484 29.3901Z" fill="white" />
	<path fill-rule="evenodd" clip-rule="evenodd" d="M297.468 36.1679C297.468 37.6553 297.214 39.0624 296.704 40.3898C296.195 41.7167 295.489 42.8682 294.586 43.845C293.684 44.8219 292.599 45.5951 291.333 46.1641C290.067 46.7331 288.677 47.017 287.163 47.017C285.649 47.017 284.252 46.7254 282.971 46.1422C281.69 45.5585 280.59 44.7711 279.674 43.7801C278.757 42.7879 278.043 41.6287 277.534 40.3019C277.025 38.975 276.77 37.5673 276.77 36.0805C276.77 34.5925 277.025 33.1854 277.534 31.8586C278.043 30.5312 278.749 29.3796 279.652 28.4022C280.555 27.4254 281.639 26.6527 282.905 26.0838C284.171 25.5154 285.562 25.2309 287.075 25.2309C288.59 25.2309 289.987 25.5224 291.268 26.1062C292.548 26.6893 293.648 27.4767 294.564 28.4683C295.482 29.4593 296.195 30.6191 296.704 31.9459C297.214 33.2728 297.468 34.6805 297.468 36.1679ZM303.101 36.0806C303.101 33.9221 302.708 31.8805 301.922 29.9551C301.137 28.031 300.045 26.3535 298.648 24.9246C297.25 23.495 295.576 22.3653 293.625 21.5343C291.675 20.7032 289.521 20.2871 287.163 20.2871C284.805 20.2871 282.651 20.7103 280.7 21.5561C278.749 22.4019 277.061 23.5464 275.634 24.9901C274.207 26.4338 273.102 28.1183 272.316 30.0431C271.53 31.9678 271.137 34.0094 271.137 36.1679C271.137 38.3258 271.53 40.3668 272.316 42.2922C273.102 44.2175 274.193 45.8944 275.591 47.3233C276.988 48.7523 278.662 49.8826 280.613 50.7136C282.563 51.5447 284.717 51.9602 287.075 51.9602C289.433 51.9602 291.588 51.537 293.538 50.6918C295.489 49.846 297.177 48.7015 298.604 47.2572C300.031 45.8141 301.137 44.1296 301.922 42.2048C302.708 40.2801 303.101 38.2384 303.101 36.0806V36.0806Z" fill="white" />
	<path fill-rule="evenodd" clip-rule="evenodd" d="M325.443 28.9571C325.443 27.9384 325.878 27.0727 326.748 26.3602C327.618 25.6465 328.837 25.2902 330.403 25.2902C331.795 25.2902 333.174 25.5599 334.537 26.0981C335.9 26.6364 337.278 27.4149 338.671 28.433L341.542 24.3739C339.976 23.1225 338.301 22.1697 336.516 21.5155C334.733 20.8606 332.724 20.5332 330.49 20.5332C328.982 20.5332 327.59 20.744 326.32 21.1663C325.044 21.5879 323.957 22.1915 323.05 22.9771C322.144 23.7632 321.433 24.7013 320.91 25.7925C320.396 26.8837 320.135 28.0986 320.135 29.4371C320.135 30.8628 320.36 32.0706 320.809 33.0599C321.259 34.0492 321.919 34.8931 322.774 35.5915C323.63 36.2899 324.696 36.8717 325.958 37.3375C327.227 37.8033 328.67 38.2244 330.302 38.603C331.723 38.9522 332.876 39.2867 333.768 39.6065C334.653 39.9268 335.349 40.269 335.864 40.6323C336.371 40.9962 336.72 41.3961 336.909 41.8324C337.097 42.2694 337.192 42.7635 337.192 43.3164C337.192 44.5101 336.705 45.4558 335.734 46.1536C334.762 46.8526 333.449 47.2013 331.795 47.2013C329.881 47.2013 328.169 46.8591 326.662 46.1754C325.153 45.4917 323.659 44.5101 322.179 43.2293L318.96 47.0705C320.787 48.7288 322.774 49.9584 324.921 50.7587C327.067 51.559 329.315 51.9588 331.665 51.9588C333.261 51.9588 334.725 51.7551 336.06 51.3482C337.387 50.9401 338.533 50.3435 339.476 49.558C340.426 48.7724 341.165 47.8125 341.702 46.6777C342.231 45.543 342.5 44.248 342.5 42.7929C342.5 41.5127 342.289 40.3997 341.869 39.4539C341.448 38.5082 340.824 37.6796 340.012 36.9659C339.2 36.2534 338.17 35.6492 336.937 35.1545C335.705 34.6605 334.283 34.2094 332.688 33.8019C331.23 33.4527 330.034 33.1176 329.084 32.7978C328.141 32.4781 327.401 32.1289 326.857 31.7502C326.32 31.3721 325.951 30.9646 325.748 30.5283C325.545 30.0913 325.443 29.5678 325.443 28.9571" fill="white" />
	<path fill-rule="evenodd" clip-rule="evenodd" d="M154.97 26.8744L140.403 41.4222C140.215 41.0582 140.045 40.6789 139.893 40.2856C139.385 38.9637 139.13 37.5613 139.13 36.0802C139.13 34.5978 139.385 33.196 139.893 31.8742C140.403 30.5518 141.108 29.4046 142.01 28.4308C142.912 27.4577 143.996 26.688 145.262 26.1211C146.528 25.5549 147.917 25.2715 149.429 25.2715C150.943 25.2715 152.339 25.562 153.619 26.1435C154.094 26.3593 154.545 26.6027 154.97 26.8744ZM153.685 46.1255C152.419 46.6923 151.03 46.9752 149.517 46.9752C148.004 46.9752 146.607 46.6847 145.327 46.1037C144.852 45.8874 144.401 45.6439 143.977 45.3717L158.544 30.8251C158.731 31.1885 158.901 31.5671 159.053 31.9611C159.562 33.2829 159.816 34.6853 159.816 36.1671C159.816 37.6488 159.562 39.0506 159.053 40.3731C158.544 41.6949 157.838 42.8421 156.936 43.8152C156.034 44.7884 154.951 45.5587 153.685 46.1255ZM155.889 50.6361C157.838 49.7935 159.526 48.6534 160.951 47.2146C162.377 45.7769 163.482 44.0987 164.267 42.1812C165.054 40.2638 165.446 38.2299 165.446 36.0801C165.446 33.9298 165.054 31.8959 164.267 29.9778C163.802 28.8406 163.228 27.7905 162.548 26.8267L172.022 17.3652L168.257 13.6055L158.754 23.0958C157.901 22.5149 156.974 22.0127 155.976 21.5888C154.026 20.7609 151.873 20.3463 149.517 20.3463C147.16 20.3463 145.007 20.7679 143.058 21.6105C141.108 22.4532 139.421 23.5933 137.995 25.0315C136.57 26.4698 135.464 28.148 134.678 30.0654C133.893 31.9829 133.5 34.0168 133.5 36.1671C133.5 38.3169 133.893 40.3502 134.678 42.2683C135.145 43.4061 135.718 44.4562 136.399 45.4206L126.925 54.8809L130.69 58.6406L140.193 49.1508C141.046 49.7318 141.972 50.2339 142.971 50.6579C144.92 51.4858 147.073 51.8998 149.429 51.8998C151.786 51.8998 153.939 51.4782 155.889 50.6361V50.6361Z" fill="white" />
	<path fill-rule="evenodd" clip-rule="evenodd" d="M36.5002 0.0683594C56.3443 0.0683594 72.4311 16.1552 72.4311 35.9992C72.4311 55.8433 56.3443 71.9301 36.5002 71.9301C16.6562 71.9301 0.569336 55.8433 0.569336 35.9992C0.569336 16.1552 16.6562 0.0683594 36.5002 0.0683594Z" fill="#2E3148" />
	<path fill-rule="evenodd" clip-rule="evenodd" d="M36.4313 15.2703C47.8798 15.2703 57.1606 24.5511 57.1606 35.9996C57.1606 47.4481 47.8798 56.729 36.4313 56.729C24.9828 56.729 15.7019 47.4481 15.7019 35.9996C15.7019 24.5511 24.9828 15.2703 36.4313 15.2703Z" fill="#161931" />
	<path fill-rule="evenodd" clip-rule="evenodd" d="M37.0647 6.21491C36.7793 5.95223 36.632 5.94727 36.6073 5.94727C36.5825 5.94727 36.4352 5.95224 36.1498 6.21491C35.8568 6.48454 35.5065 6.94977 35.1292 7.66758C34.376 9.10034 33.6551 11.266 33.0337 14.0604C31.7961 19.6264 31.0184 27.3839 31.0184 36C31.0184 44.6161 31.7961 52.3736 33.0337 57.9397C33.6551 60.7341 34.376 62.8997 35.1292 64.3324C35.5065 65.0503 35.8568 65.5155 36.1498 65.7851C36.4352 66.0478 36.5825 66.0528 36.6073 66.0528C36.632 66.0528 36.7793 66.0478 37.0647 65.7851C37.3577 65.5155 37.708 65.0503 38.0853 64.3324C38.8385 62.8997 39.5594 60.7341 40.1808 57.9396C41.4184 52.3736 42.1961 44.6161 42.1961 36C42.1961 27.3839 41.4184 19.6264 40.1808 14.0604C39.5594 11.266 38.8385 9.10034 38.0853 7.66758C37.708 6.94977 37.3577 6.48454 37.0647 6.21491ZM43.6023 36C43.6023 18.6257 40.4705 4.54102 36.6073 4.54102C32.744 4.54102 29.6122 18.6257 29.6122 36C29.6122 53.3743 32.744 67.459 36.6073 67.459C40.4705 67.459 43.6023 53.3743 43.6023 36Z" fill="#6F7390" />
	<path fill-rule="evenodd" clip-rule="evenodd" d="M62.6469 21.5025C62.7318 21.1243 62.6624 20.9949 62.6504 20.9741C62.6383 20.9532 62.5606 20.8282 62.1899 20.7124C61.8096 20.5936 61.2311 20.523 60.4202 20.5553C58.8018 20.6198 56.5645 21.0787 53.8322 21.9382C48.3898 23.6501 41.2784 26.8558 33.812 31.1638C26.3456 35.4719 20.0119 40.0237 15.8073 43.878C13.6964 45.813 12.1802 47.5198 11.3152 48.8881C10.8818 49.5736 10.6538 50.1093 10.5667 50.4976C10.4818 50.8757 10.5512 51.0051 10.5632 51.0259C10.5753 51.0468 10.6531 51.1718 11.0237 51.2876C11.404 51.4065 11.9825 51.477 12.7934 51.4447C14.4118 51.3802 16.6492 50.9213 19.3815 50.0618C24.8238 48.35 31.9352 45.1442 39.4016 40.8362C46.8681 36.5282 53.2017 31.9763 57.4063 28.1221C59.5172 26.1871 61.0335 24.4803 61.8985 23.1119C62.3318 22.4264 62.5598 21.8907 62.6469 21.5025ZM40.1044 42.0542C55.1603 33.3672 65.7997 23.6144 63.868 20.2707C61.9363 16.927 48.1651 21.2587 33.1092 29.9458C18.0533 38.6328 7.41395 48.3857 9.3456 51.7293C11.2773 55.073 25.0485 50.7413 40.1044 42.0542Z" fill="#6F7390" />
	<path fill-rule="evenodd" clip-rule="evenodd" d="M62.1821 51.3026C62.552 51.1871 62.6294 51.0622 62.6414 51.0414C62.6534 51.0205 62.7229 50.8907 62.6378 50.5118C62.5506 50.123 62.3224 49.5868 61.889 48.9007C61.0239 47.5313 59.5078 45.8232 57.3974 43.8867C53.1937 40.0294 46.8618 35.4737 39.3977 31.1616C31.9336 26.8494 24.8247 23.6402 19.3846 21.9261C16.6533 21.0655 14.4171 20.6058 12.7996 20.5409C11.9892 20.5083 11.4113 20.5787 11.0315 20.6974C10.6616 20.813 10.5842 20.9378 10.5723 20.9586C10.5602 20.9795 10.4907 21.1093 10.5758 21.4882C10.663 21.877 10.8912 22.4132 11.3246 23.0993C12.1897 24.4687 13.7058 26.1768 15.8162 28.1133C20.0199 31.9706 26.3519 36.5264 33.816 40.8385C41.2801 45.1506 48.3889 48.3598 53.8291 50.0739C56.5603 50.9345 58.7965 51.3942 60.414 51.4592C61.2244 51.4917 61.8023 51.4213 62.1821 51.3026ZM33.1125 42.0561C48.1637 50.7514 61.9295 55.0889 63.8594 51.7442C65.7893 48.3995 55.1523 38.6392 40.1011 29.9439C25.05 21.2486 11.2841 16.9111 9.35421 20.2558C7.42438 23.6005 18.0613 33.3608 33.1125 42.0561Z" fill="#6F7390" />
	<path fill-rule="evenodd" clip-rule="evenodd" d="M16.4997 27.1896C17.7214 27.1896 18.7119 28.1805 18.7119 29.4029C18.7119 30.6252 17.7214 31.6162 16.4997 31.6162C15.2779 31.6162 14.2874 30.6252 14.2874 29.4029C14.2874 28.1805 15.2779 27.1896 16.4997 27.1896Z" fill="#B7B9C8" />
	<path fill-rule="evenodd" clip-rule="evenodd" d="M51.6587 19.6116C52.881 19.6116 53.872 20.6025 53.872 21.8249C53.872 23.0472 52.881 24.0382 51.6587 24.0382C50.4363 24.0382 49.4454 23.0472 49.4454 21.8249C49.4454 20.6025 50.4363 19.6116 51.6587 19.6116Z" fill="#B7B9C8" />
	<path fill-rule="evenodd" clip-rule="evenodd" d="M32.1486 54.3502C33.371 54.3502 34.3619 55.3406 34.3619 56.5624C34.3619 57.7841 33.371 58.7746 32.1486 58.7746C30.9262 58.7746 29.9353 57.7841 29.9353 56.5624C29.9353 55.3406 30.9262 54.3502 32.1486 54.3502Z" fill="#B7B9C8" />
	<path fill-rule="evenodd" clip-rule="evenodd" d="M36.4836 32.2364C38.5531 32.2364 40.2308 33.9141 40.2308 35.9836C40.2308 38.0531 38.5531 39.7308 36.4836 39.7308C34.4141 39.7308 32.7364 38.0531 32.7364 35.9836C32.7364 33.9141 34.4141 32.2364 36.4836 32.2364Z" fill="#B7B9C8" />
</svg>
