<svg width="120" height="36" viewBox="0 0 120 36" fill="none" xmlns="http://www.w3.org/2000/svg">
<g clip-path="url(#clip0)">
<path d="M22.6273 11.6992H0.265625V34.0108H22.6273V11.6992ZM21.6229 12.7013V33.0087H1.26998V12.7013H21.6229Z" fill="white"/>
<path d="M15.1833 19.2441H7.73926V26.6715H15.1833V19.2441Z" fill="white"/>
<path d="M15.1833 19.1265H7.73926V26.5833H15.1833V19.1265Z" fill="white"/>
<path d="M33.6456 27.3791V6.1875L23.6611 11.2864V12.4064L32.9071 7.66118V27.7622L33.6456 27.3791Z" fill="white"/>
<path d="M30.16 22.8697V15.2949L26.2607 17.3286V24.9033L30.16 22.8697Z" fill="white"/>
<path d="M47.8542 14.7937L41.1191 29.5011H42.7438L44.5162 25.5811H52.7283L54.5007 29.5011H56.1549L49.4198 14.7937H47.8542ZM45.0775 24.3137L48.6223 16.4148L52.167 24.3137H45.0775Z" fill="white"/>
<path d="M60.6749 16.8275C61.6497 16.2969 62.7131 16.0317 63.8947 16.0317C65.6966 16.0317 67.1736 16.6212 68.3552 17.7412L69.33 16.739C68.6802 16.0317 67.8826 15.5012 66.9373 15.1475C65.992 14.7938 64.9581 14.6169 63.8356 14.6169C62.3586 14.6169 60.9998 14.9412 59.8182 15.5896C58.6366 16.238 57.7209 17.1222 57.0415 18.2717C56.362 19.4212 56.0371 20.6885 56.0371 22.1033C56.0371 23.518 56.362 24.7854 57.0415 25.9348C57.7209 27.0843 58.6366 27.9685 59.8182 28.6169C60.9998 29.2654 62.3291 29.5896 63.8061 29.5896C64.84 29.5896 65.8443 29.4422 66.7896 29.118C67.7349 28.7938 68.5325 28.3222 69.2414 27.7327V22.1327H67.7349V27.0843C66.6714 27.8506 65.4012 28.2338 63.8652 28.2338C62.6836 28.2338 61.5906 27.9685 60.6453 27.438C59.7 26.9075 58.932 26.1706 58.4003 25.2569C57.839 24.3433 57.5732 23.2822 57.5732 22.1327C57.5732 20.9833 57.839 19.9517 58.4003 19.0085C58.9616 18.0948 59.7 17.358 60.6749 16.8275Z" fill="white"/>
<path d="M82.7701 15.6189C81.5885 14.9705 80.2887 14.6462 78.8117 14.6462C77.3643 14.6462 76.035 14.9705 74.8534 15.6189C73.6718 16.2673 72.7265 17.1515 72.0766 18.301C71.3972 19.4505 71.0723 20.7178 71.0723 22.1326C71.0723 23.5473 71.3972 24.8147 72.0766 25.9641C72.756 27.1136 73.6718 27.9978 74.8534 28.6462C76.035 29.2947 77.3643 29.6189 78.8117 29.6189C80.2592 29.6189 81.5885 29.2947 82.7701 28.6462C83.9516 27.9978 84.8674 27.1136 85.5468 25.9641C86.2262 24.8147 86.5512 23.5473 86.5512 22.1326C86.5512 20.7178 86.2262 19.4505 85.5468 18.301C84.8674 17.181 83.9516 16.2673 82.7701 15.6189ZM84.2175 25.2568C83.6858 26.1999 82.9473 26.9073 82.002 27.4378C81.0567 27.9683 79.9933 28.2336 78.8413 28.2336C77.6892 28.2336 76.6258 27.9683 75.6805 27.4378C74.7352 26.9073 73.9967 26.1705 73.4355 25.2568C72.9037 24.3136 72.6379 23.282 72.6379 22.1326C72.6379 20.9831 72.9037 19.9515 73.4355 19.0083C73.9672 18.0652 74.7352 17.3578 75.6805 16.8273C76.6258 16.2968 77.6892 16.0315 78.8413 16.0315C79.9933 16.0315 81.0567 16.2968 82.002 16.8273C82.9473 17.3578 83.6858 18.0947 84.2175 19.0083C84.7492 19.9515 85.0151 20.9831 85.0151 22.1326C85.0151 23.3115 84.7492 24.3431 84.2175 25.2568Z" fill="white"/>
<path d="M104.157 14.7937H102.592V29.5011H104.157V14.7937Z" fill="white"/>
<path d="M114.112 28.2338C112.96 28.2338 111.896 27.9685 110.921 27.438C109.976 26.9075 109.208 26.1706 108.676 25.2569C108.145 24.3433 107.879 23.2822 107.879 22.1327C107.879 20.9833 108.145 19.9517 108.676 19.0085C109.208 18.0948 109.976 17.358 110.921 16.8275C111.867 16.2969 112.93 16.0317 114.112 16.0317C115.855 16.0317 117.332 16.6212 118.484 17.7706L119.488 16.7685C118.838 16.0612 118.041 15.5306 117.125 15.1769C116.209 14.8233 115.175 14.6169 114.082 14.6169C112.635 14.6169 111.305 14.9412 110.124 15.5896C108.942 16.238 108.027 17.1222 107.347 18.2717C106.668 19.4212 106.343 20.6885 106.343 22.1033C106.343 23.518 106.668 24.7854 107.347 25.9348C108.027 27.0843 108.942 27.9685 110.094 28.6169C111.276 29.2654 112.576 29.5896 114.053 29.5896C115.146 29.5896 116.15 29.4127 117.095 29.0296C118.041 28.6464 118.809 28.1159 119.458 27.4085L118.454 26.4064C117.332 27.6443 115.884 28.2338 114.112 28.2338Z" fill="white"/>
<path d="M96.7133 24.4022H96.6542C97.6586 24.0485 98.4561 23.4885 99.0174 22.7222C99.6082 21.9264 99.9036 20.9538 99.9036 19.8043C99.9036 18.2422 99.3719 17.0043 98.3084 16.0907C97.245 15.2064 95.768 14.7349 93.8775 14.7349H88.3535V29.4422H89.9191V28.7938V24.7854V23.4591V20.2464V16.0907H93.8479C95.2954 16.0907 96.4179 16.4149 97.1859 17.0338C97.954 17.6822 98.338 18.5959 98.338 19.7749C98.338 20.9243 97.954 21.838 97.1859 22.4864C96.6542 22.9285 95.9453 23.2233 95.0591 23.3707V24.7264L98.4266 29.4422H99.4605H100.347L96.7133 24.4022Z" fill="white"/>
</g>
<defs>
<clipPath id="clip0">
<rect width="119.636" height="28" fill="white" transform="translate(0 4)"/>
</clipPath>
</defs>
</svg>
