<svg width="96" height="36" viewBox="0 0 96 36" fill="none" xmlns="http://www.w3.org/2000/svg">
<path fill-rule="evenodd" clip-rule="evenodd" d="M53.6691 29.2876L54.2964 26.0032C55.8064 26.2501 56.683 25.7862 57.2901 25.2281C58.3749 24.2301 58.2581 22.6868 58.145 22.0872C57.387 18.0632 55.9103 10.2109 55.9103 10.2109V10.0115H60.2726L61.6044 18.5885L65.8722 10.0115H69.9769C69.9769 10.0115 64.2791 20.4817 61.911 24.8154C61.3261 25.8864 60.6637 26.9056 59.7921 27.7758C58.404 29.1625 56.6119 29.7017 53.6691 29.2876ZM50.3988 10.0117H54.2733L47.757 24.3973H43.252L42.5646 15.0286L42.4626 15.0111L38.1261 24.3982H33.6501L32.827 10.0117H36.9632L37.1437 18.982L37.2513 19.0184L41.4641 10.2346H45.7858L46.3232 19.0083L46.4307 19.0175L50.3988 10.0117ZM74.3199 24.3984H69.9769C70.9445 19.5471 71.8687 14.8589 72.8358 10.0113H76.2029V12.6583C76.6534 11.5647 77.2683 10.5464 78.3116 10.0995C79.335 9.66096 80.917 9.68404 82.5299 10.1794C81.8947 11.4096 81.4105 12.5041 80.7227 13.8359C80.1022 13.7131 79.5441 13.5562 78.9759 13.4998C77.6995 13.3729 76.7725 13.8821 76.3368 15.0924C76.0325 15.9377 75.8433 16.8328 75.6596 17.7159C75.1989 19.9284 74.7709 22.1466 74.3199 24.3984ZM93.7635 20.8221L93.1361 24.0881C93.011 24.1398 91.2915 24.8299 88.6053 24.5617C84.1621 24.1181 82.8026 21.2759 82.5981 19.2932C82.3258 16.6578 82.8474 14.2901 84.6247 12.1371C86.575 9.77447 90.7034 9.26253 93.667 10.339C97.0401 11.5642 96.3827 15.7022 93.7976 17.2482C92.8434 17.8188 91.0657 18.616 86.8779 18.2638C86.6226 19.645 87.4332 20.8678 88.8384 21.2662C90.1102 21.6267 91.9553 21.4596 93.6181 20.8216C93.727 20.8216 93.7635 20.8221 93.7635 20.8221ZM88.205 13.4329C87.7092 14.0353 87.4046 14.7074 87.2121 15.5416C88.3495 15.7373 89.4306 15.7493 90.4753 15.3569C90.8146 15.2295 91.1553 15.0093 91.3995 14.7434C92.1187 13.96 91.7863 12.8378 90.774 12.5207C89.944 12.2608 88.8259 12.6781 88.205 13.4329ZM6.63578 34L9.25459 27.6028H16.4089C18.0218 27.6028 19.3933 26.818 20.2994 25.6109L26.2784 18.007L20.9513 31.0202C20.2136 32.8224 18.4594 34 16.5118 34H6.63578ZM3.36184 26.001L5.98064 19.6038H13.1349C14.7478 19.6038 16.1193 18.819 17.0255 17.6119L23.0049 10.0084L17.6773 23.0212C16.9396 24.8234 15.1855 26.001 13.2379 26.001H3.36184ZM9.85544 2H19.7315L14.4034 15.0146C13.6657 16.8168 11.9115 17.9944 9.96392 17.9944H0.0878906L5.41598 4.97979C6.15366 3.17761 7.90784 2 9.85544 2Z" fill="white"/>
</svg>
