<svg width="138" height="25" viewBox="0 0 138 25" fill="none" xmlns="http://www.w3.org/2000/svg">
<g clip-path="url(#clip0)">
<path d="M136.223 10.3003V19.6294C136.219 20.0068 136.079 20.3703 135.829 20.6524L135.815 20.6688L135.799 20.6844C133.634 22.7169 130.709 23.7088 127.07 23.7088C125.352 23.7349 123.642 23.4625 122.017 22.9037C120.605 22.4035 119.317 21.6035 118.243 20.5585C117.187 19.5076 116.374 18.2381 115.863 16.8391C114.772 13.6198 114.772 10.1311 115.863 6.91184C116.37 5.50122 117.183 4.22041 118.244 3.16141C119.318 2.11644 120.606 1.31641 122.018 0.816298C123.643 0.256685 125.352 -0.0161275 127.071 0.0100703C129.842 -0.10026 132.574 0.698462 134.849 2.28453L135.417 2.67166L133.414 4.78931L133.11 4.56575C131.334 3.36022 129.215 2.76256 127.071 2.86232C124.039 2.86232 121.786 3.64725 120.249 5.16097C118.731 6.67663 117.944 8.88818 117.944 11.8566C117.944 14.8463 118.731 17.0675 120.249 18.5822C121.786 20.0969 124.039 20.8809 127.071 20.8809C129.31 21.0018 131.522 20.3378 133.325 19.0032V13.1564L136.223 10.3003Z" fill="white"/>
<path d="M44.077 0.216431H44.0818C45.017 0.23107 45.9392 0.436929 46.7918 0.821338C47.6323 1.16953 48.3976 1.6766 49.0459 2.31473C49.6976 2.95866 50.2139 3.72635 50.5645 4.57271C50.932 5.43949 51.1186 6.37216 51.1131 7.31358C51.1076 8.25501 50.9101 9.18542 50.5326 10.0479C50.1681 10.8929 49.6421 11.6587 48.984 12.302C48.3236 12.9481 47.5483 13.4651 46.6978 13.8263C45.8175 14.1909 44.873 14.3752 43.9202 14.3683H35.6799V23.5261H32.7764V0.216431H44.077ZM43.9202 11.5403C44.4883 11.5427 45.0509 11.4302 45.5743 11.2093C46.088 10.995 46.5561 10.6846 46.9534 10.2947C47.347 9.90679 47.6621 9.44676 47.8815 8.93969C48.1071 8.41526 48.2215 7.84973 48.2174 7.27885C48.2196 6.71816 48.1052 6.16313 47.8815 5.64896C47.6623 5.14176 47.3471 4.68169 46.9534 4.29398C46.5564 3.90376 46.0881 3.59327 45.5743 3.37935C45.0509 3.15848 44.4883 3.04591 43.9202 3.04836H35.6799V11.5403H43.9202Z" fill="white"/>
<path d="M91.9395 23.5291H94.843V5.96548L106.885 22.3221C107.136 22.6613 107.467 22.9324 107.849 23.1113C108.232 23.2901 108.652 23.3708 109.073 23.3461L110.315 23.2764V0.216431H107.446V17.781L95.2118 1.16783C95.0109 0.896737 94.7456 0.679909 94.4399 0.53696C94.1343 0.394013 93.7978 0.329434 93.4609 0.34902L91.9433 0.434173L91.9395 23.5291Z" fill="white"/>
<path d="M62.8974 14.4314C63.6124 14.4304 64.3187 14.5883 64.9654 14.8935C65.612 15.1988 66.1826 15.644 66.6362 16.1968L72.6233 23.5293H76.3505L68.1596 13.3668C67.7061 12.807 67.1331 12.3558 66.4827 12.0461C65.8323 11.7365 65.1208 11.5762 64.4003 11.5772H58.7249V3.10753H66.9662C67.5342 3.10556 68.0968 3.21812 68.6202 3.43852C69.134 3.65286 69.6018 3.96367 69.9984 4.35412L70.0052 4.35992C70.4006 4.73268 70.7146 5.18312 70.9277 5.68297C71.149 6.20786 71.263 6.77174 71.263 7.34139C71.263 7.91103 71.149 8.47492 70.9277 8.99981C70.7939 9.29684 70.6274 9.57797 70.4311 9.83796L72.3184 12.064L72.3881 11.9847C72.9417 11.3577 73.3784 10.6365 73.6773 9.85539C74.002 9.0564 74.1664 8.20139 74.1612 7.33897C74.1665 6.40743 73.9793 5.48484 73.6115 4.62899C73.2606 3.78274 72.7445 3.01506 72.093 2.37099C71.4414 1.7313 70.6789 1.21544 69.8427 0.848558C68.9879 0.463383 68.0633 0.257189 67.1259 0.242676H57.2761C57.0831 0.243376 56.8924 0.282824 56.7149 0.358636C56.5376 0.434448 56.3773 0.545101 56.2434 0.68404C56.1101 0.811298 56.0042 0.964546 55.9324 1.13435C55.8606 1.30416 55.8245 1.4869 55.8262 1.67124V23.5244H58.7249V14.4265L62.8974 14.4314Z" fill="white"/>
<path d="M81.1514 0.216431H84.0549V23.5282H81.1514V0.216431Z" fill="white"/>
<path d="M24.3105 0.159302H28.3483L19.9474 8.52058C18.4834 9.97447 16.504 10.7904 14.4408 10.7904C12.3776 10.7904 10.3981 9.97447 8.93415 8.52058L0.533203 0.159302H4.57108L10.9531 6.51133C11.8804 7.43186 13.1341 7.94844 14.4408 7.94844C15.7474 7.94844 17.0011 7.43186 17.9284 6.51133L24.3105 0.159302Z" fill="white"/>
<path d="M0.481445 23.4097H4.51933L10.9526 17.0063C11.88 16.0859 13.1337 15.5693 14.4403 15.5693C15.747 15.5693 17.0006 16.0859 17.9279 17.0063L24.3613 23.4097H28.3991L19.9469 14.9971C18.4829 13.5432 16.5035 12.7273 14.4403 12.7273C12.3771 12.7273 10.3976 13.5432 8.9337 14.9971L0.481445 23.4097Z" fill="white"/>
</g>
<defs>
<clipPath id="clip0">
<rect width="136.765" height="25" fill="white" transform="translate(0.481445)"/>
</clipPath>
</defs>
</svg>
