<svg width="125" height="24" viewBox="0 0 125 24" fill="none" xmlns="http://www.w3.org/2000/svg">
	<path d="M121.726 5.16953C120.005 2.97927 117.478 1.59292 114.684 1.59292C109.28 1.59292 105.327 6.58761 105.327 11.9989C105.327 15.7715 107.844 18.5944 110.643 18.5944C110.905 18.5944 111.164 18.5709 111.42 18.5238C109.545 17.1635 108.345 14.6858 108.345 11.9989C108.345 7.72043 111.255 4.38667 114.684 4.38667C118.424 4.38667 121.024 8.08076 121.024 11.9992C121.014 14.8931 119.977 17.7704 118.152 19.8935C116.559 21.7463 114.495 22.9216 112.227 23.2948C112.227 23.2948 112.416 23.3086 112.664 23.3086C118.943 23.3086 124.033 18.2451 124.033 11.9989C124.033 9.43318 123.173 7.06731 121.726 5.16953ZM120 11.9992C120 8.22653 117.483 5.40357 114.684 5.40357C114.422 5.40357 114.163 5.42713 113.906 5.47425C115.782 6.83453 116.982 9.31223 116.982 11.9992C116.982 16.2776 114.072 19.6114 110.643 19.6114C106.903 19.6114 104.303 15.9173 104.303 11.9989C104.312 9.1049 105.35 6.22759 107.175 4.10487C108.768 2.2517 110.832 1.07646 113.1 0.703247C113.1 0.703247 112.911 0.689426 112.664 0.689426C106.384 0.689426 101.294 5.75291 101.294 11.9989C101.294 14.5648 102.153 16.9307 103.601 18.8285C105.322 21.0187 107.849 22.4054 110.643 22.4054C116.047 22.4054 120 17.4101 120 11.9992Z" fill="#FF4212" />
	<path d="M67.4754 14.3971L68.6262 11.5453L69.7768 14.3971H67.4754ZM68.2971 7.78082L64.0278 17.7799L66.1101 17.7802L66.8087 16.0486H70.4432L71.1418 17.7802H73.2243L68.9553 7.78082H68.2971ZM45.6979 12.1409L44.5758 11.6496C44.157 11.4611 43.8604 11.2902 43.6858 11.1363C43.5111 10.9823 43.4243 10.7766 43.4243 10.5186C43.4243 10.2111 43.5411 9.97547 43.7751 9.8118C44.0095 9.64844 44.3016 9.56645 44.6503 9.56645C45.3988 9.56645 46.0267 9.94343 46.5355 10.6974L47.9118 9.64059C47.6026 9.07543 47.1712 8.624 46.6179 8.2866C46.0642 7.94951 45.4083 7.7805 44.6503 7.7805C43.7031 7.7805 42.9202 8.03622 42.3018 8.54672C41.6834 9.05784 41.3745 9.72981 41.3745 10.5636C41.3745 11.2082 41.5814 11.7536 41.9948 12.2003C42.4092 12.6464 42.9998 13.0432 43.7682 13.3906L44.8303 13.8669C45.1496 14.0158 45.3811 14.1295 45.5258 14.2087C45.6704 14.2881 45.7999 14.405 45.9145 14.5586C46.0292 14.7122 46.0867 14.8885 46.0867 15.087C46.0867 15.4244 45.9619 15.6892 45.7127 15.8828C45.4635 16.0766 45.119 16.1734 44.6803 16.1734C43.753 16.1734 42.9455 15.6971 42.257 14.7443L40.8657 15.7863C41.2447 16.4511 41.7659 16.9795 42.4291 17.3709C43.092 17.763 43.8427 17.9587 44.6803 17.9587C45.6881 17.9587 46.5152 17.6907 47.1636 17.1551C47.8117 16.6194 48.1361 15.9051 48.1361 15.0126C48.1361 14.3478 47.9365 13.7949 47.5379 13.3535C47.1387 12.9115 46.5257 12.5075 45.6979 12.1409ZM35.3208 7.95957V15.7719C35.3208 16.8811 36.225 17.7805 37.3402 17.7805V9.96793C37.3402 8.85867 36.436 7.95957 35.3208 7.95957ZM93.4271 13.3532C93.0282 12.9118 92.4155 12.5075 91.5884 12.1412L90.4666 11.6499C90.0478 11.4614 89.7512 11.2905 89.5766 11.1369C89.4019 10.9833 89.3148 10.7772 89.3148 10.5193C89.3148 10.212 89.4319 9.97642 89.6663 9.81306C89.9006 9.64907 90.1924 9.56771 90.5411 9.56771C91.2887 9.56771 91.9172 9.94437 92.4253 10.698L93.8011 9.64184C93.4919 9.07637 93.0608 8.62557 92.5078 8.28817C91.9544 7.95077 91.2991 7.78239 90.5411 7.78239C89.5936 7.78239 88.8113 8.03779 88.1933 8.5486C87.5752 9.05909 87.266 9.73106 87.266 10.5642C87.266 11.2088 87.4728 11.7542 87.8869 12.2006C88.3006 12.6464 88.8915 13.0428 89.6587 13.3906L90.7208 13.8662C91.0395 14.0155 91.2716 14.1289 91.4159 14.2083C91.5606 14.2878 91.6901 14.4044 91.8047 14.558C91.9194 14.7119 91.9765 14.8878 91.9765 15.0861C91.9765 15.4232 91.8524 15.6886 91.6026 15.8821C91.3534 16.075 91.0098 16.1718 90.5708 16.1718C89.6435 16.1718 88.8366 15.6958 88.1484 14.744L86.7578 15.7854C87.1365 16.4495 87.6573 16.9776 88.3202 17.3693C88.9838 17.7611 89.7338 17.9571 90.5708 17.9571C91.5776 17.9571 92.4054 17.6891 93.0535 17.1532C93.7016 16.6179 94.0253 15.9041 94.0253 15.0119C94.0253 14.3472 93.826 13.7943 93.4271 13.3532ZM81.5183 15.7257C81.2694 15.944 80.9251 16.0527 80.4865 16.0527H78.1835L78.1828 13.5835H80.4865C80.9251 13.5835 81.2694 13.6953 81.5183 13.9184C81.7674 14.1417 81.8916 14.4414 81.8916 14.8181C81.8916 15.2048 81.7674 15.5074 81.5183 15.7257ZM78.1835 9.68645H80.1757C80.6144 9.68645 80.958 9.79578 81.2072 10.0138C81.4567 10.2318 81.5808 10.5343 81.5808 10.9211C81.5808 11.2977 81.4567 11.5981 81.2072 11.8208C80.958 12.0442 80.6144 12.1557 80.1757 12.1557H78.1828L78.1835 9.68645ZM82.7234 12.7566C82.869 12.6338 83.003 12.5016 83.1138 12.3489C83.418 11.9326 83.5702 11.4319 83.5702 10.8469C83.5702 9.99369 83.2686 9.29973 82.6653 8.76442C82.0621 8.22879 81.282 7.96082 80.3251 7.96082H76.2395V17.7787H80.6358C81.5928 17.7787 82.3729 17.5107 82.9761 16.9754C83.5793 16.4394 83.881 15.7455 83.881 14.8929C83.881 14.3079 83.7294 13.8069 83.4246 13.3903C83.2402 13.1368 83.0023 12.9294 82.7234 12.7566ZM57.0357 7.96082H55.0167V17.7787H59.533C60.5405 17.7787 61.3575 16.966 61.3575 15.9635H57.0357V7.96082ZM8.00624 15.1913C7.4027 15.7964 6.64755 16.0989 5.73987 16.0989C4.8126 16.0989 4.0521 15.7989 3.45866 15.1989C2.86522 14.5985 2.56834 13.8222 2.56834 12.8697C2.56834 11.9276 2.86806 11.1535 3.46624 10.5485C4.06441 9.94312 4.82239 9.64059 5.73987 9.64059C6.64755 9.64059 7.4027 9.94312 8.00624 10.5485C8.60978 11.1535 8.9114 11.9276 8.9114 12.8697C8.9114 13.8125 8.60978 14.5863 8.00624 15.1913ZM5.72471 7.7805C4.26907 7.7805 3.03229 8.26963 2.01533 9.24664C0.997422 10.2237 0.489258 11.4316 0.489258 12.8697C0.489258 14.3082 0.997422 15.5165 2.01533 16.4935C3.03229 17.4705 4.26907 17.959 5.72471 17.959C7.18099 17.959 8.42281 17.4705 9.44988 16.4935C10.4769 15.5165 10.9908 14.3082 10.9908 12.8697C10.9908 11.4316 10.4769 10.2237 9.44988 9.24664C8.42281 8.26963 7.18099 7.7805 5.72471 7.7805ZM29.1429 12.1409L28.0211 11.6496C27.602 11.4611 27.3054 11.2902 27.1308 11.1363C26.9564 10.9823 26.8693 10.7766 26.8693 10.5186C26.8693 10.2111 26.9861 9.97547 27.2205 9.8118C27.4551 9.64844 27.7466 9.56645 28.0956 9.56645C28.8438 9.56645 29.472 9.94343 29.9805 10.6974L31.3568 9.64059C31.048 9.07543 30.6166 8.624 30.0629 8.2866C29.5096 7.94951 28.8536 7.7805 28.0956 7.7805C27.1481 7.7805 26.3652 8.03622 25.7475 8.54672C25.1284 9.05784 24.8196 9.72981 24.8196 10.5636C24.8196 11.2082 25.0267 11.7536 25.4405 12.2003C25.8545 12.6464 26.4451 13.0432 27.2132 13.3906L28.2753 13.8669C28.5946 14.0158 28.8261 14.1295 28.9708 14.2087C29.1157 14.2881 29.2449 14.405 29.3602 14.5586C29.4745 14.7122 29.5317 14.8885 29.5317 15.087C29.5317 15.4244 29.4069 15.6892 29.1578 15.8828C28.9086 16.0766 28.5646 16.1734 28.1256 16.1734C27.1984 16.1734 26.3905 15.6971 25.702 14.7443L24.3111 15.7863C24.6898 16.4511 25.2109 16.9795 25.8744 17.3709C26.5377 17.763 27.2877 17.9587 28.1256 17.9587C29.1331 17.9587 29.9606 17.6907 30.609 17.1551C31.257 16.6194 31.5814 15.9051 31.5814 15.0126C31.5814 14.3478 31.3821 13.7949 30.9832 13.3535C30.584 12.9115 29.971 12.5075 29.1429 12.1409ZM16.1896 14.3971L17.3405 11.5453L18.491 14.3971H16.1896ZM17.0114 7.78082L12.7421 17.7799L14.8243 17.7802L15.5229 16.0486H19.1577L19.8564 17.7802H21.9389L17.6696 7.78082H17.0114Z" fill="#FF4212" />
</svg>
