<svg width="99" height="36" viewBox="0 0 99 36" fill="none" xmlns="http://www.w3.org/2000/svg">
<g clip-path="url(#clip0)">
<path d="M97.7342 16.4162V23.1332C97.7319 23.4049 97.6311 23.6666 97.4506 23.8697L97.4408 23.8816L97.429 23.8928C95.8702 25.3562 93.7643 26.0704 91.1441 26.0704C89.9071 26.0891 88.6763 25.893 87.5065 25.4906C86.4893 25.1305 85.5622 24.5545 84.7887 23.8021C84.0286 23.0455 83.4436 22.1314 83.0752 21.1242C82.29 18.8063 82.29 16.2944 83.0752 13.9765C83.4402 12.9609 84.0256 12.0387 84.7895 11.2762C85.5628 10.5238 86.4901 9.94782 87.5072 9.58773C88.6768 9.18481 89.9077 8.98839 91.1448 9.00725C93.1402 8.92781 95.107 9.50289 96.7454 10.6449L97.1544 10.9236L95.712 12.4483L95.4931 12.2873C94.2143 11.4194 92.6886 10.989 91.1448 11.0609C88.9622 11.0609 87.34 11.626 86.2333 12.7159C85.1399 13.8072 84.5735 15.3995 84.5735 17.5367C84.5735 19.6894 85.1399 21.2886 86.2333 22.3792C87.34 23.4698 88.9622 24.0342 91.1448 24.0342C92.7573 24.1213 94.3498 23.6432 95.6478 22.6823V18.4726L97.7342 16.4162Z" fill="white"/>
<path d="M31.3884 9.15576H31.3919C32.0652 9.1663 32.7292 9.31452 33.3431 9.5913C33.9482 9.84199 34.4992 10.2071 34.966 10.6665C35.4352 11.1302 35.807 11.6829 36.0594 12.2923C36.324 12.9164 36.4583 13.5879 36.4544 14.2657C36.4504 14.9435 36.3082 15.6134 36.0364 16.2344C35.774 16.8428 35.3953 17.3942 34.9215 17.8574C34.4459 18.3226 33.8877 18.6948 33.2754 18.9549C32.6416 19.2174 31.9615 19.35 31.2755 19.3451H25.3425V25.9387H23.252V9.15576H31.3884ZM31.2755 17.3089C31.6845 17.3107 32.0896 17.2297 32.4665 17.0706C32.8363 16.9163 33.1733 16.6928 33.4594 16.4121C33.7428 16.1328 33.9697 15.8016 34.1277 15.4365C34.2901 15.0589 34.3725 14.6517 34.3695 14.2407C34.3711 13.837 34.2887 13.4374 34.1277 13.0672C33.9698 12.702 33.7429 12.3707 33.4594 12.0916C33.1736 11.8106 32.8364 11.5871 32.4665 11.4331C32.0896 11.274 31.6845 11.193 31.2755 11.1948H25.3425V17.3089H31.2755Z" fill="white"/>
<path d="M65.8496 25.9408H67.9402V13.2951L76.6104 25.0719C76.7911 25.316 77.0297 25.5113 77.3048 25.64C77.58 25.7688 77.8828 25.8269 78.1861 25.8091L79.08 25.7589V9.15576H77.0146V21.8022L68.2057 9.84077C68.0611 9.64558 67.8701 9.48947 67.6499 9.38654C67.4299 9.28362 67.1876 9.23712 66.9451 9.25123L65.8524 9.31254L65.8496 25.9408Z" fill="white"/>
<path d="M44.9399 19.3904C45.4547 19.3897 45.9633 19.5034 46.4288 19.7232C46.8944 19.943 47.3052 20.2635 47.6319 20.6615L51.9426 25.9409H54.6261L48.7287 18.6239C48.4022 18.2209 47.9897 17.896 47.5213 17.673C47.053 17.4501 46.5408 17.3347 46.022 17.3354H41.9357V11.2373H47.8695C48.2784 11.2358 48.6835 11.3169 49.0603 11.4756C49.4303 11.6299 49.7671 11.8537 50.0527 12.1348L50.0575 12.139C50.3423 12.4074 50.5683 12.7317 50.7217 13.0916C50.8811 13.4695 50.9631 13.8755 50.9631 14.2856C50.9631 14.6958 50.8811 15.1018 50.7217 15.4797C50.6254 15.6936 50.5055 15.896 50.3642 16.0832L51.7231 17.6859L51.7733 17.6288C52.1718 17.1774 52.4863 16.6581 52.7014 16.0957C52.9352 15.5204 53.0536 14.9048 53.0499 14.2839C53.0537 13.6132 52.9189 12.9489 52.6541 12.3327C52.4015 11.7234 52.0298 11.1707 51.5607 10.7069C51.0916 10.2464 50.5426 9.87495 49.9405 9.6108C49.325 9.33347 48.6594 9.18501 47.9845 9.17456H40.8926C40.7537 9.17506 40.6163 9.20347 40.4885 9.25805C40.3608 9.31264 40.2454 9.39231 40.1491 9.49234C40.053 9.58397 39.9768 9.69431 39.9251 9.81657C39.8735 9.93883 39.8474 10.0704 39.8487 10.2031V25.9374H41.9357V19.3869L44.9399 19.3904Z" fill="white"/>
<path d="M58.082 9.15576H60.1726V25.9402H58.082V9.15576Z" fill="white"/>
<path d="M17.1567 9.11475H20.064L14.0153 15.1349C12.9613 16.1817 11.5361 16.7691 10.0506 16.7691C8.56505 16.7691 7.13982 16.1817 6.08579 15.1349L0.0371094 9.11475H2.94438L7.53943 13.6882C8.20711 14.351 9.10976 14.7229 10.0506 14.7229C10.9913 14.7229 11.894 14.351 12.5617 13.6882L17.1567 9.11475Z" fill="white"/>
<path d="M0 25.8552H2.90728L7.53926 21.2447C8.20694 20.582 9.1096 20.21 10.0504 20.21C10.9912 20.21 11.8938 20.582 12.5615 21.2447L17.1935 25.8552H20.1007L14.0151 19.798C12.9611 18.7513 11.5359 18.1638 10.0504 18.1638C8.56488 18.1638 7.13965 18.7513 6.08562 19.798L0 25.8552Z" fill="white"/>
</g>
<defs>
<clipPath id="clip0">
<rect width="98.4706" height="18" fill="white" transform="translate(0 9)"/>
</clipPath>
</defs>
</svg>
