<svg width="131" height="36" viewBox="0 0 131 36" fill="none" xmlns="http://www.w3.org/2000/svg">
<path fill-rule="evenodd" clip-rule="evenodd" d="M126.393 19.556C126.393 17.9315 125.43 16.7086 123.912 16.7086C122.395 16.7086 121.432 17.9315 121.432 19.556C121.432 21.1804 122.395 22.4034 123.912 22.4034C125.433 22.4064 126.393 21.1835 126.393 19.556ZM126.318 15.6184V11.3628C126.318 11.0818 126.507 10.8378 126.781 10.7668L129.05 10.1646V24.5651H126.532V23.3422C125.899 24.2594 124.763 24.7968 123.341 24.7968C120.42 24.7968 118.71 22.4651 118.71 19.5591C118.71 16.653 120.42 14.3214 123.341 14.3214C124.76 14.3183 125.8 14.9297 126.318 15.6184ZM110.832 14.5468V15.7698C111.294 14.9081 112.331 14.3152 113.83 14.3152C116.252 14.3152 117.54 15.9211 117.54 18.3114V24.5651H114.811V18.6202C114.811 17.4529 114.312 16.6499 113.101 16.6499C111.776 16.6499 111.046 17.4899 111.046 18.8302V24.5651H108.318V14.5468H110.832ZM101.939 24.7968C98.9992 24.7968 97.3634 23.5337 97.3634 20.2848V14.5468H100.092V20.3219C100.092 21.7178 100.725 22.3663 101.936 22.3663C103.146 22.3663 103.78 21.7147 103.78 20.3219V14.5468H106.508V20.2817C106.514 23.5337 104.878 24.7968 101.939 24.7968V24.7968ZM88.3554 19.556C88.3554 21.3533 89.4698 22.4034 90.9101 22.4034C92.3503 22.4034 93.4647 21.3503 93.4647 19.556C93.4647 17.7617 92.3503 16.7086 90.9101 16.7086C89.4729 16.7086 88.3554 17.7586 88.3554 19.556ZM90.9132 24.7968C87.6849 24.7968 85.6269 22.4064 85.6269 19.5591C85.6269 16.7117 87.6818 14.3214 90.9132 14.3214C94.1414 14.3214 96.1994 16.7117 96.1994 19.5591C96.1963 22.4064 94.1414 24.7968 90.9132 24.7968V24.7968ZM77.3111 19.556C77.3111 21.1804 78.2734 22.4034 79.7913 22.4034C81.3092 22.4034 82.2714 21.1804 82.2714 19.556C82.2714 17.9315 81.3092 16.7086 79.7913 16.7086C78.2734 16.7086 77.3111 17.9315 77.3111 19.556ZM77.3888 23.4966V27.6627C77.3888 27.9437 77.1994 28.1877 76.9262 28.2587L74.6603 28.8517V14.5468H77.1777V15.7698C77.8109 14.8525 78.947 14.3152 80.3687 14.3152C83.2896 14.3152 84.9999 16.6468 84.9999 19.5529C84.9999 22.4589 83.2896 24.7906 80.3687 24.7906C78.9439 24.7968 77.9071 24.1853 77.3888 23.4966V23.4966ZM66.5556 18.8673V24.5651H63.8271V18.6202C63.8271 17.5115 63.4236 16.6499 62.213 16.6499C60.9434 16.6499 60.2512 17.4714 60.2512 18.8117V24.5682H57.5227V14.5468H60.0401V15.7698C60.5026 14.9081 61.5021 14.3152 62.9424 14.3152C64.3082 14.3152 65.286 14.8495 65.8634 15.7296C66.748 14.7537 67.7662 14.3152 69.2064 14.3152C71.6276 14.3152 72.8568 15.9798 72.8568 18.3114V24.5651H70.1283V18.6202C70.1283 17.5115 69.7248 16.6499 68.5142 16.6499C67.226 16.6499 66.5556 17.4714 66.5556 18.8673V18.8673ZM48.4185 19.556C48.4185 21.3533 49.5329 22.4034 50.9732 22.4034C52.4134 22.4034 53.5278 21.3503 53.5278 19.556C53.5278 17.7617 52.4134 16.7086 50.9732 16.7086C49.5329 16.7086 48.4185 17.7586 48.4185 19.556ZM50.9732 24.7968C47.7449 24.7968 45.6869 22.4064 45.6869 19.5591C45.6869 16.7117 47.7418 14.3214 50.9732 14.3214C54.2045 14.3214 56.2594 16.7117 56.2594 19.5591C56.2594 22.4064 54.2014 24.7968 50.9732 24.7968ZM31.5293 17.7586C31.5293 13.5153 34.4688 10.7019 38.3893 10.7019C41.7913 10.7019 44.4826 12.7093 45.0009 16.0168H42.0024C41.5989 14.3152 40.2145 13.3578 38.3893 13.3578C35.8905 13.3578 34.4875 15.078 34.4875 17.7555C34.4875 20.433 35.8905 22.1532 38.3893 22.1532C40.2145 22.1532 41.5989 21.1958 42.0024 19.4942H45.0009C44.4826 22.8017 41.7913 24.8091 38.3893 24.8091C34.4688 24.8153 31.5293 22.005 31.5293 17.7586Z" fill="white"/>
<path fill-rule="evenodd" clip-rule="evenodd" d="M3.78268 25.4065C3.08737 24.9834 2.66211 24.2299 2.66211 23.4207V18.9026C2.66211 18.7297 2.70867 18.5629 2.79558 18.4147C3.06564 17.9514 3.66472 17.7939 4.13033 18.0657L14.38 24.0106C14.979 24.3596 15.3484 24.9958 15.3484 25.6875V30.3693C15.3484 30.5824 15.2894 30.7955 15.1777 30.9777C14.8394 31.5274 14.1192 31.7004 13.5667 31.3638L3.78268 25.4065ZM19.0609 16.8273C19.66 17.1763 20.0293 17.8124 20.0293 18.5042V28.0037C20.0293 28.2848 19.8773 28.5442 19.632 28.6801L17.3878 29.937C17.3599 29.9524 17.3288 29.9648 17.2978 29.974V24.6993C17.2978 24.0168 16.9377 23.3837 16.3479 23.0316L7.34614 17.6735V11.7193C7.34614 11.5464 7.3927 11.3796 7.47962 11.2313C7.74967 10.7681 8.34876 10.6106 8.81437 10.8824L19.0609 16.8273ZM23.5463 9.81074C24.1484 10.1566 24.5178 10.799 24.5178 11.4908V25.3663C24.5178 25.6505 24.3595 25.913 24.1081 26.0489L21.9818 27.1915V17.5314C21.9818 16.8489 21.6217 16.2189 21.0351 15.8668L11.8346 10.3759V4.72745C11.8346 4.5545 11.8812 4.38774 11.965 4.2395C12.235 3.77626 12.8341 3.61876 13.2997 3.88744L23.5463 9.81074Z" fill="white"/>
</svg>
