<svg width="109" height="36" viewBox="0 0 109 36" fill="none" xmlns="http://www.w3.org/2000/svg">
<g clip-path="url(#clip0)">
<path d="M13.8 11.2V25.7H10.4L4 18V25.7H0V11.2H3.4L9.8 18.8999V11.2H13.8Z" fill="white"/>
<path d="M32.1 22.6001V25.8H20.5V11.3H31.9V14.5H24.6V16.9H31V20H24.6V22.7H32.1V22.6001Z" fill="white"/>
<path d="M44.3996 21.9H42.1996V25.8H38.0996V11.3H44.6996C45.9996 11.3 47.1996 11.5 48.0996 12C49.0996 12.4 49.7996 13.1 50.2996 13.9C50.7996 14.7 51.0996 15.7 51.0996 16.7C51.0996 17.7 50.8996 18.7 50.3996 19.4C49.8996 20.2 49.1996 20.8 48.2996 21.2L51.3996 25.8H46.9996L44.3996 21.9ZM46.3996 15C45.9996 14.6 45.2996 14.4 44.4996 14.4H42.1996V18.6001H44.4996C45.2996 18.6001 45.9996 18.4001 46.3996 18.1001C46.7996 17.7001 46.9996 17.2 46.9996 16.5C46.9996 15.9 46.7996 15.4 46.3996 15Z" fill="white"/>
<path d="M71.8004 11.2L65.6004 25.7H61.6004L55.4004 11.2H59.8004L63.7004 20.6L67.7004 11.2H71.8004Z" fill="white"/>
<path d="M79.4 25C78.2 24.4 77.2 23.5 76.5 22.3C75.8 21.2 75.5 19.9 75.5 18.4C75.5 17 75.8 15.7 76.5 14.5C77.2 13.4 78.2 12.5 79.4 11.8C80.6 11.2 82 10.8 83.5 10.8C85 10.8 86.4 11.1 87.6 11.8C88.8 12.4 89.8 13.3 90.5 14.5C91.2 15.6 91.5 16.9 91.5 18.4C91.5 19.8 91.2 21.1 90.5 22.3C89.8 23.4 88.8 24.3 87.6 25C86.4 25.6 85 26 83.5 26C82 26 80.6 25.7 79.4 25ZM85.5 22.1001C86.1 21.8001 86.6 21.3001 86.9 20.6001C87.2 20.0001 87.4 19.3 87.4 18.4C87.4 17.6 87.2 16.9 86.9 16.2C86.6 15.6 86.1 15.1 85.5 14.7C84.9 14.4 84.2 14.2 83.5 14.2C82.8 14.2 82.1 14.4 81.5 14.7C80.9 15 80.4 15.5 80.1 16.2C79.8 16.8 79.6 17.6 79.6 18.4C79.6 19.2 79.8 19.9001 80.1 20.6001C80.4 21.2001 80.9 21.7001 81.5 22.1001C82.1 22.5001 82.8 22.6001 83.5 22.6001C84.3 22.6001 84.9 22.5001 85.5 22.1001Z" fill="white" fill-opacity="0.8"/>
<path d="M99.2 25.6002C98.1 25.3002 97.2 24.9001 96.5 24.4001L97.8 21.4001C98.4 21.8001 99.2 22.2001 100.1 22.4001C101 22.7001 101.8 22.8002 102.6 22.8002C104.2 22.8002 105 22.4002 105 21.6002C105 21.2002 104.8 20.9001 104.3 20.7001C103.9 20.5001 103.1 20.3002 102.1 20.1002C101 19.9002 100.1 19.6002 99.4 19.3002C98.7 19.0002 98 18.6002 97.5 18.0002C97 17.4002 96.7 16.6002 96.7 15.6002C96.7 14.7002 96.9 13.9001 97.4 13.2001C97.9 12.5001 98.6 11.9002 99.6 11.5002C100.6 11.1002 101.7 10.9001 103.1 10.9001C104.1 10.9001 105 11.0001 105.9 11.2001C106.8 11.4001 107.6 11.7002 108.3 12.1002L107 15.1002C105.6 14.4002 104.3 14.0002 103 14.0002C102.2 14.0002 101.6 14.1001 101.2 14.4001C100.8 14.6001 100.6 15.0002 100.6 15.3002C100.6 15.7002 100.8 16.0001 101.3 16.2001C101.7 16.4001 102.5 16.6002 103.4 16.8002C104.5 17.0002 105.4 17.3002 106.1 17.6002C106.8 17.9002 107.5 18.3001 108 18.9001C108.5 19.5001 108.8 20.3002 108.8 21.3002C108.8 22.2002 108.6 23.0001 108.1 23.7001C107.6 24.4001 106.9 25.0001 105.9 25.4001C104.9 25.8001 103.8 26.0002 102.4 26.0002C101.4 26.0002 100.3 25.9002 99.2 25.6002Z" fill="white"/>
</g>
<defs>
<clipPath id="clip0">
<rect width="109" height="16" fill="white" transform="translate(0 10)"/>
</clipPath>
</defs>
</svg>
