<svg width="97" height="24" viewBox="0 0 97 24" fill="none" xmlns="http://www.w3.org/2000/svg">
<g clip-path="url(#clip0)">
<path d="M4.89662 8.59613L0 0H23.084L27.9806 8.59613H4.89662Z" fill="#39F1FF"/>
<path d="M4.89661 23.6393L0 15.0432H23.084L27.9807 23.6393H4.89661Z" fill="#D693FF"/>
<path d="M4.89662 23.6393L0 15.0432L23.084 0L27.9806 8.59613L4.89662 23.6393Z" fill="#5C6FEA"/>
<path fill-rule="evenodd" clip-rule="evenodd" d="M27.9801 8.59613L23.0835 0L9.89258 8.59613H27.9801Z" fill="#3465E0"/>
<path fill-rule="evenodd" clip-rule="evenodd" d="M0 15.0432L4.89661 23.6393L18.0875 15.0432H0Z" fill="#857AF3"/>
<path fill-rule="evenodd" clip-rule="evenodd" d="M39.6399 5.0144H49.4332V7.52159L43.9246 15.0432H49.4332V18.6249H38.9404V16.1177L44.4492 8.59612H39.6399V5.0144Z" fill="white"/>
<path d="M65.1712 5.0144H61.6738V18.6249H65.1712V5.0144Z" fill="white"/>
<path d="M70.7677 0H67.2705V18.6249H70.7677V0Z" fill="white"/>
<path fill-rule="evenodd" clip-rule="evenodd" d="M56.952 18.9831C60.5257 18.9831 63.4225 15.7759 63.4225 11.8197C63.4225 7.86346 60.5257 4.65625 56.952 4.65625C53.3783 4.65625 50.4814 7.86346 50.4814 11.8197C50.4814 15.7759 53.3783 18.9831 56.952 18.9831ZM57.8267 15.7596C59.9515 15.7596 61.674 13.9957 61.674 11.8197C61.674 9.64373 59.9515 7.8798 57.8267 7.8798C55.7018 7.8798 53.9793 9.64373 53.9793 11.8197C53.9793 13.9957 55.7018 15.7596 57.8267 15.7596Z" fill="white"/>
<path fill-rule="evenodd" clip-rule="evenodd" d="M75.4899 18.9831C71.9165 18.9831 69.0195 15.7759 69.0195 11.8197C69.0195 7.86346 71.9165 4.65625 75.4899 4.65625C79.0639 4.65625 81.9609 7.86346 81.9609 11.8197C81.9609 15.7759 79.0639 18.9831 75.4899 18.9831ZM74.6162 15.7596C72.4914 15.7596 70.7688 13.9957 70.7688 11.8197C70.7688 9.64373 72.4914 7.8798 74.6162 7.8798C76.7411 7.8798 78.463 9.64373 78.463 11.8197C78.463 13.9957 76.7411 15.7596 74.6162 15.7596Z" fill="white"/>
<path fill-rule="evenodd" clip-rule="evenodd" d="M90.0048 18.9831C93.8679 18.9831 96.9999 15.7759 96.9999 11.8197C96.9999 7.86346 93.8679 4.65625 90.0048 4.65625C86.1418 4.65625 83.0098 7.86346 83.0098 11.8197C83.0098 15.7759 86.1418 18.9831 90.0048 18.9831ZM90.0048 15.4014C91.937 15.4014 93.5027 13.7979 93.5027 11.8197C93.5027 9.84173 91.937 8.23793 90.0048 8.23793C88.0733 8.23793 86.5076 9.84173 86.5076 11.8197C86.5076 13.7979 88.0733 15.4014 90.0048 15.4014Z" fill="white"/>
</g>
<defs>
<clipPath id="clip0">
<rect width="97" height="24" fill="white"/>
</clipPath>
</defs>
</svg>
