<svg width="151" height="36" viewBox="0 0 151 36" fill="none" xmlns="http://www.w3.org/2000/svg">
<path d="M27.5283 22.418C27.3471 22.2315 27.2464 22.1279 27.4276 21.7963L28.1525 20.5113C28.3135 20.2212 28.6558 20.2212 28.837 20.3663C28.9377 20.4284 30.5687 21.6512 31.8774 21.6512C32.9244 21.6512 33.7097 20.9466 33.7097 20.0554C33.7097 18.9984 32.8439 18.273 31.1526 17.5684C29.2599 16.7808 27.3672 15.5373 27.3672 13.0918C27.3672 11.2472 28.6961 9.11255 31.8976 9.11255C33.9513 9.11255 35.5218 10.1903 35.9245 10.5011C36.1259 10.6255 36.1863 10.9778 36.0453 11.1851L35.2802 12.3664C35.1191 12.6151 34.8171 12.7809 34.5755 12.6151C34.4144 12.5115 32.8842 11.4752 31.7767 11.4752C30.6291 11.4752 30.0049 12.2628 30.0049 12.926C30.0049 13.9 30.7499 14.5632 32.3808 15.2472C34.3339 16.0554 36.589 17.2575 36.589 19.931C36.589 22.0657 34.797 24.0346 31.958 24.0346C29.421 24.0346 27.931 22.8118 27.5283 22.418ZM38.1595 16.5943C38.1595 12.4493 41.361 9.11255 45.3879 9.11255C49.4149 9.11255 52.6365 12.4493 52.6365 16.5943C52.6365 19.4129 51.0458 21.8999 48.7102 23.2263L51.2271 27.3092C51.4083 27.5993 51.2271 27.9309 50.9049 27.9309H48.7706C48.6901 27.9309 48.5088 27.848 48.4484 27.7237L46.294 23.9724C45.9718 24.0139 45.6296 24.0346 45.3879 24.0346C41.361 24.0346 38.1595 20.7393 38.1595 16.5943ZM40.777 16.5943C40.777 19.2057 42.8509 21.3403 45.3879 21.3403C47.9249 21.3403 50.019 19.2057 50.019 16.5943C50.019 13.9829 47.9249 11.8068 45.3879 11.8068C42.8509 11.8068 40.777 13.9829 40.777 16.5943ZM55.093 18.3352V9.71358C55.093 9.50632 55.2742 9.3198 55.4755 9.3198H57.3883C57.6098 9.3198 57.7709 9.50632 57.7709 9.71358V18.1901C57.7709 19.9518 58.9387 21.3403 60.6905 21.3403C62.4422 21.3403 63.6302 19.9518 63.6302 18.2109V9.71358C63.6302 9.50632 63.7912 9.3198 64.0127 9.3198H65.9255C66.1269 9.3198 66.3081 9.50632 66.3081 9.71358V18.3352C66.3081 21.4854 63.8718 24.0346 60.6905 24.0346C57.5293 24.0346 55.093 21.4854 55.093 18.3352ZM68.2813 23.8273C67.9793 23.8273 67.8182 23.5579 67.939 23.2885L74.201 9.34052C74.2614 9.21617 74.3621 9.11255 74.5433 9.11255H74.7446C74.946 9.11255 75.0265 9.21617 75.0869 9.34052L81.2885 23.2885C81.4093 23.5579 81.2482 23.8273 80.9462 23.8273H79.1944C78.8924 23.8273 78.7515 23.703 78.6105 23.4128L77.6239 21.1745H71.6036L70.617 23.4128C70.5364 23.6201 70.3552 23.8273 70.033 23.8273H68.2813ZM72.5902 18.8741H76.6373L74.6238 14.3145H74.5634L72.5902 18.8741ZM83.1207 23.4336V9.71358C83.1207 9.50632 83.2818 9.3198 83.5033 9.3198H89.2619C91.6781 9.3198 93.6513 11.3094 93.6513 13.7757C93.6513 15.6824 92.4231 17.2368 90.6713 17.9621L93.4298 23.2263C93.5707 23.4957 93.4298 23.8273 93.0875 23.8273H90.9733C90.7921 23.8273 90.6915 23.7237 90.6512 23.6408L87.9732 18.1487H85.7383V23.4336C85.7383 23.6408 85.5571 23.8273 85.3557 23.8273H83.5033C83.2818 23.8273 83.1207 23.6408 83.1207 23.4336ZM85.7584 15.9311H89.0404C90.1075 15.9311 91.0337 14.9777 91.0337 13.8171C91.0337 12.7187 90.1075 11.8068 89.0404 11.8068H85.7584V15.9311ZM96.5306 23.4336V9.71358C96.5306 9.50632 96.6917 9.3198 96.9131 9.3198H105.108C105.33 9.3198 105.491 9.50632 105.491 9.71358V11.413C105.491 11.6203 105.33 11.8068 105.108 11.8068H99.1481V15.2057H104.121C104.323 15.2057 104.504 15.3922 104.504 15.5995V17.3197C104.504 17.5476 104.323 17.7134 104.121 17.7134H99.1481V21.3403H105.108C105.33 21.3403 105.491 21.5269 105.491 21.7341V23.4336C105.491 23.6408 105.33 23.8273 105.108 23.8273H96.9131C96.6917 23.8273 96.5306 23.6408 96.5306 23.4336Z" fill="white"/>
<path d="M108.365 23.1981V9.72863C108.365 9.52516 108.525 9.34204 108.744 9.34204H110.579C110.778 9.34204 110.957 9.52516 110.957 9.72863V21.1431H116.042C116.261 21.1431 116.421 21.3262 116.421 21.5297V23.1981C116.421 23.4016 116.261 23.5847 116.042 23.5847H108.744C108.525 23.5847 108.365 23.4016 108.365 23.1981Z" fill="white"/>
<path d="M118.435 23.1981V9.72863C118.435 9.52516 118.614 9.34204 118.813 9.34204H120.668C120.867 9.34204 121.047 9.52516 121.047 9.72863V23.1981C121.047 23.4016 120.867 23.5847 120.668 23.5847H118.813C118.614 23.5847 118.435 23.4016 118.435 23.1981Z" fill="white"/>
<path d="M124.676 23.1982V9.50491C124.676 9.30145 124.855 9.13867 125.055 9.13867H125.553L133.848 18.1319H133.868V9.72873C133.868 9.52526 134.028 9.34214 134.247 9.34214H136.081C136.281 9.34214 136.46 9.52526 136.46 9.72873V23.422C136.46 23.6255 136.281 23.7883 136.081 23.7883H135.603L127.268 14.4492H127.248V23.1982C127.248 23.4017 127.088 23.5848 126.869 23.5848H125.055C124.855 23.5848 124.676 23.4017 124.676 23.1982Z" fill="white"/>
<path d="M140.09 23.0964V9.83036C140.09 9.56585 140.289 9.34204 140.568 9.34204H142.323C142.582 9.34204 142.802 9.56585 142.802 9.83036V15.324L147.826 9.54551C147.906 9.44377 148.026 9.34204 148.205 9.34204H150.199C150.578 9.34204 150.778 9.76932 150.518 10.0745L145.314 16.0564L150.897 22.8726C151.097 23.1371 150.937 23.5847 150.538 23.5847H148.365C148.165 23.5847 148.046 23.5033 148.006 23.4423L142.802 16.8907V23.0964C142.802 23.3609 142.582 23.5847 142.323 23.5847H140.568C140.289 23.5847 140.09 23.3609 140.09 23.0964Z" fill="white"/>
<path d="M0 7H15.8659C18.3 7 20.2732 8.90368 20.2732 11.252V22.348C20.2732 24.6963 18.3 26.6 15.8659 26.6H4.40721C1.97317 26.6 0 24.6963 0 22.348V7ZM2.86015 9.46798V22.4185C2.86015 23.3578 3.64941 24.1193 4.62303 24.1193H15.6681C16.6417 24.1193 17.431 23.3578 17.431 22.4185V11.1688C17.431 10.2295 16.6417 9.46798 15.6681 9.46798H2.86015ZM5.94135 9.46798H8.78267V15.7542V19.3601C8.78267 20.2994 7.9934 21.0609 7.01979 21.0609H2.86015V18.6703H5.94135V9.46798ZM5.94135 9.46798H8.78267H5.94135ZM2.86015 21.0609V18.6703V21.0609ZM14.3498 24.1193H11.5085V17.8331V14.2272C11.5085 13.2879 12.2978 12.5264 13.2714 12.5264H17.431V14.917H14.3498V24.1193ZM17.431 12.5264V14.917V12.5264ZM14.3498 24.1193H11.5085H14.3498Z" fill="white"/>
</svg>
