<svg fill="none" height="476" viewBox="0 0 320 476" width="320" xmlns="http://www.w3.org/2000/svg"><path d="m0 0h320v108h-320z" fill="#f8f9fc"/><path d="m0 0h320v108h-320z" fill="#f8f9fc"/><path d="m0 0h106v108h-106z" fill="#fff"/><g fill="#33364a" fill-opacity=".4"><path d="m52.446 60h4.864v-22.56h-3.36l-6.432 1.92 1.024 4.032 3.904-.96z"/><path d="m37.6962 28h.924v-6.888l5.424 6.888h.756v-8.4h-.924v6.732l-5.292-6.732h-.888zm15.7805.144c2.556 0 4.296-2.028 4.296-4.344v-.024c0-2.316-1.716-4.32-4.272-4.32s-4.296 2.028-4.296 4.344v.024c0 2.316 1.716 4.32 4.272 4.32zm.024-.876c-1.92 0-3.312-1.56-3.312-3.468v-.024c0-1.908 1.368-3.444 3.288-3.444s3.312 1.56 3.312 3.468v.024c0 1.908-1.368 3.444-3.288 3.444zm11.0711.792h.84l3.612-8.46h-1.02l-3 7.236-2.988-7.236h-1.056z"/><path d="m31.2674 91h2.156v-3.794h4.676v-1.96h-4.676v-2.086h5.306v-1.96h-7.462zm9.1035 0h2.128v-2.772c0-1.792.868-2.646 2.282-2.646h.112v-2.226c-1.26-.056-1.96.616-2.394 1.652v-1.512h-2.128zm6.0336-8.33h2.24v-1.89h-2.24zm.056 8.33h2.128v-7.504h-2.128zm7.3466.14c1.106 0 1.82-.518 2.338-1.218v1.078h2.128v-10.22h-2.128v3.696c-.504-.602-1.204-1.12-2.338-1.12-1.778 0-3.416 1.372-3.416 3.878v.028c0 2.506 1.666 3.878 3.416 3.878zm.546-1.806c-.994 0-1.834-.826-1.834-2.072v-.028c0-1.26.84-2.072 1.834-2.072s1.82.826 1.82 2.072v.028c0 1.246-.826 2.072-1.82 2.072zm8.0892 1.806c1.036 0 1.75-.378 2.268-.952v.812h2.058v-4.354c0-1.008-.252-1.834-.812-2.394-.532-.532-1.372-.84-2.534-.84-1.274 0-2.086.238-2.912.602l.532 1.624c.686-.252 1.26-.406 2.072-.406 1.064 0 1.61.49 1.61 1.372v.126c-.532-.182-1.078-.308-1.834-.308-1.778 0-3.024.756-3.024 2.394v.028c0 1.484 1.162 2.296 2.576 2.296zm.644-1.47c-.686 0-1.162-.336-1.162-.91v-.028c0-.672.56-1.036 1.47-1.036.518 0 .994.112 1.358.28v.378c0 .77-.672 1.316-1.666 1.316zm8.6698-1.064-1.708-5.11h-2.254l2.94 7.532c-.182.378-.378.49-.742.49-.28 0-.63-.126-.91-.294l-.714 1.54c.546.322 1.12.518 1.89.518 1.274 0 1.89-.574 2.464-2.1l2.884-7.686h-2.212z"/></g><path d="m106 2h-106" stroke="#dadce6" stroke-width="4"/><path d="m152.099 60h16.576v-4.256h-9.76l3.648-2.816c3.968-3.072 5.888-4.928 5.888-8.672v-.064c0-4.192-3.072-6.912-7.712-6.912-4 0-6.144 1.632-8.352 4.64l3.456 2.784c1.664-2.048 2.848-3.008 4.576-3.008 1.76 0 3.008 1.024 3.008 2.912 0 1.856-1.088 3.072-3.872 5.376l-7.456 6.112z" fill="#33364a" fill-opacity=".4"/><path d="m144.696 28h.924v-6.888l5.424 6.888h.756v-8.4h-.924v6.732l-5.292-6.732h-.888zm15.781.144c2.556 0 4.296-2.028 4.296-4.344v-.024c0-2.316-1.716-4.32-4.272-4.32s-4.296 2.028-4.296 4.344v.024c0 2.316 1.716 4.32 4.272 4.32zm.024-.876c-1.92 0-3.312-1.56-3.312-3.468v-.024c0-1.908 1.368-3.444 3.288-3.444s3.312 1.56 3.312 3.468v.024c0 1.908-1.368 3.444-3.288 3.444zm11.071.792h.84l3.612-8.46h-1.02l-3 7.236-2.988-7.236h-1.056z" fill="#161931" fill-opacity=".65"/><path d="m132.535 91.14c2.114 0 3.598-1.092 3.598-3.038v-.028c0-1.708-1.12-2.422-3.108-2.94-1.694-.434-2.114-.644-2.114-1.288v-.028c0-.476.434-.854 1.26-.854s1.68.364 2.548.966l1.12-1.624c-.994-.798-2.212-1.246-3.64-1.246-2.002 0-3.43 1.176-3.43 2.954v.028c0 1.946 1.274 2.492 3.248 2.996 1.638.42 1.974.7 1.974 1.246v.028c0 .574-.532.924-1.414.924-1.12 0-2.044-.462-2.926-1.19l-1.274 1.526c1.176 1.05 2.674 1.568 4.158 1.568zm7.513 0c1.036 0 1.75-.378 2.268-.952v.812h2.058v-4.354c0-1.008-.252-1.834-.812-2.394-.532-.532-1.372-.84-2.534-.84-1.274 0-2.086.238-2.912.602l.532 1.624c.686-.252 1.26-.406 2.072-.406 1.064 0 1.61.49 1.61 1.372v.126c-.532-.182-1.078-.308-1.834-.308-1.778 0-3.024.756-3.024 2.394v.028c0 1.484 1.162 2.296 2.576 2.296zm.644-1.47c-.686 0-1.162-.336-1.162-.91v-.028c0-.672.56-1.036 1.47-1.036.518 0 .994.112 1.358.28v.378c0 .77-.672 1.316-1.666 1.316zm8.119 1.456c.714 0 1.232-.168 1.68-.434v-1.708c-.308.168-.658.266-1.05.266-.476 0-.686-.238-.686-.728v-3.206h1.764v-1.82h-1.764v-1.918h-2.128v1.918h-.896v1.82h.896v3.556c0 1.736.882 2.254 2.184 2.254zm5.909.014c1.078 0 1.708-.574 2.198-1.204v1.064h2.128v-7.504h-2.128v4.186c0 1.008-.518 1.526-1.33 1.526s-1.288-.518-1.288-1.526v-4.186h-2.128v4.858c0 1.722.938 2.786 2.548 2.786zm6.37-.14h2.128v-2.772c0-1.792.868-2.646 2.282-2.646h.112v-2.226c-1.26-.056-1.96.616-2.394 1.652v-1.512h-2.128zm8.935.14c1.106 0 1.82-.518 2.338-1.218v1.078h2.128v-10.22h-2.128v3.696c-.504-.602-1.204-1.12-2.338-1.12-1.778 0-3.416 1.372-3.416 3.878v.028c0 2.506 1.666 3.878 3.416 3.878zm.546-1.806c-.994 0-1.834-.826-1.834-2.072v-.028c0-1.26.84-2.072 1.834-2.072s1.82.826 1.82 2.072v.028c0 1.246-.826 2.072-1.82 2.072zm8.089 1.806c1.036 0 1.75-.378 2.268-.952v.812h2.058v-4.354c0-1.008-.252-1.834-.812-2.394-.532-.532-1.372-.84-2.534-.84-1.274 0-2.086.238-2.912.602l.532 1.624c.686-.252 1.26-.406 2.072-.406 1.064 0 1.61.49 1.61 1.372v.126c-.532-.182-1.078-.308-1.834-.308-1.778 0-3.024.756-3.024 2.394v.028c0 1.484 1.162 2.296 2.576 2.296zm.644-1.47c-.686 0-1.162-.336-1.162-.91v-.028c0-.672.56-1.036 1.47-1.036.518 0 .994.112 1.358.28v.378c0 .77-.672 1.316-1.666 1.316zm8.67-1.064-1.708-5.11h-2.254l2.94 7.532c-.182.378-.378.49-.742.49-.28 0-.63-.126-.91-.294l-.714 1.54c.546.322 1.12.518 1.89.518 1.274 0 1.89-.574 2.464-2.1l2.884-7.686h-2.212z" fill="#33364a" fill-opacity=".4"/><path d="m267.515 60.384c4.992 0 8.064-3.104 8.064-7.328v-.064c0-4.16-2.976-5.76-6.016-6.272l5.664-5.408v-3.712h-15.136v4.224h8.8l-5.344 5.376.768 3.136h2.048c2.752 0 4.384 1.024 4.384 2.848v.064c0 1.664-1.312 2.72-3.168 2.72-2.272 0-3.872-.96-5.408-2.688l-3.392 3.232c1.92 2.272 4.704 3.872 8.736 3.872z" fill="#33364a" fill-opacity=".4"/><path d="m251.696 28h.924v-6.888l5.424 6.888h.756v-8.4h-.924v6.732l-5.292-6.732h-.888zm15.781.144c2.556 0 4.296-2.028 4.296-4.344v-.024c0-2.316-1.716-4.32-4.272-4.32s-4.296 2.028-4.296 4.344v.024c0 2.316 1.716 4.32 4.272 4.32zm.024-.876c-1.92 0-3.312-1.56-3.312-3.468v-.024c0-1.908 1.368-3.444 3.288-3.444s3.312 1.56 3.312 3.468v.024c0 1.908-1.368 3.444-3.288 3.444zm11.071.792h.84l3.612-8.46h-1.02l-3 7.236-2.988-7.236h-1.056z" fill="#161931" fill-opacity=".65"/><path d="m245.185 91.14c2.114 0 3.598-1.092 3.598-3.038v-.028c0-1.708-1.12-2.422-3.108-2.94-1.694-.434-2.114-.644-2.114-1.288v-.028c0-.476.434-.854 1.26-.854s1.68.364 2.548.966l1.12-1.624c-.994-.798-2.212-1.246-3.64-1.246-2.002 0-3.43 1.176-3.43 2.954v.028c0 1.946 1.274 2.492 3.248 2.996 1.638.42 1.974.7 1.974 1.246v.028c0 .574-.532.924-1.414.924-1.12 0-2.044-.462-2.926-1.19l-1.274 1.526c1.176 1.05 2.674 1.568 4.158 1.568zm7.877 0c1.078 0 1.708-.574 2.198-1.204v1.064h2.128v-7.504h-2.128v4.186c0 1.008-.518 1.526-1.33 1.526s-1.288-.518-1.288-1.526v-4.186h-2.128v4.858c0 1.722.938 2.786 2.548 2.786zm6.371-.14h2.128v-4.186c0-1.008.518-1.526 1.33-1.526s1.288.518 1.288 1.526v4.186h2.128v-4.858c0-1.722-.938-2.786-2.548-2.786-1.078 0-1.708.574-2.198 1.204v-1.064h-2.128zm11.942.14c1.106 0 1.82-.518 2.338-1.218v1.078h2.128v-10.22h-2.128v3.696c-.504-.602-1.204-1.12-2.338-1.12-1.778 0-3.416 1.372-3.416 3.878v.028c0 2.506 1.666 3.878 3.416 3.878zm.546-1.806c-.994 0-1.834-.826-1.834-2.072v-.028c0-1.26.84-2.072 1.834-2.072s1.82.826 1.82 2.072v.028c0 1.246-.826 2.072-1.82 2.072zm8.09 1.806c1.036 0 1.75-.378 2.268-.952v.812h2.058v-4.354c0-1.008-.252-1.834-.812-2.394-.532-.532-1.372-.84-2.534-.84-1.274 0-2.086.238-2.912.602l.532 1.624c.686-.252 1.26-.406 2.072-.406 1.064 0 1.61.49 1.61 1.372v.126c-.532-.182-1.078-.308-1.834-.308-1.778 0-3.024.756-3.024 2.394v.028c0 1.484 1.162 2.296 2.576 2.296zm.644-1.47c-.686 0-1.162-.336-1.162-.91v-.028c0-.672.56-1.036 1.47-1.036.518 0 .994.112 1.358.28v.378c0 .77-.672 1.316-1.666 1.316zm8.669-1.064-1.708-5.11h-2.254l2.94 7.532c-.182.378-.378.49-.742.49-.28 0-.63-.126-.91-.294l-.714 1.54c.546.322 1.12.518 1.89.518 1.274 0 1.89-.574 2.464-2.1l2.884-7.686h-2.212z" fill="#33364a" fill-opacity=".4"/><path d="m76 124h244v88h-244z" fill="#fff"/><path d="m0 0h41v12h-41z" fill="#eff0f5" transform="matrix(-1 0 0 1 133 140)"/><path d="m92 160h155v16h-155z" fill="#dadce6"/><path d="m92 184h98v12h-98z" fill="#eff0f5"/><path d="m76 212h244v88h-244z" fill="#fff"/><path d="m0 0h41v12h-41z" fill="#eff0f5" transform="matrix(-1 0 0 1 133 228)"/><path d="m92 248h155v16h-155z" fill="#dadce6"/><path d="m92 272h98v12h-98z" fill="#eff0f5"/><path d="m76 300h244v88h-244z" fill="#fff"/><path d="m0 0h41v12h-41z" fill="#eff0f5" transform="matrix(-1 0 0 1 133 316)"/><path d="m92 336h155v16h-155z" fill="#dadce6"/><path d="m92 360h98v12h-98z" fill="#eff0f5"/><path d="m76 388h244v88h-244z" fill="#fff"/><path d="m0 0h41v12h-41z" fill="#eff0f5" transform="matrix(-1 0 0 1 133 404)"/><path d="m92 424h155v16h-155z" fill="#dadce6"/><path d="m92 448h98v12h-98z" fill="#eff0f5"/></svg>