<svg fill="none" height="528" viewBox="0 0 1208 528" width="1208" xmlns="http://www.w3.org/2000/svg"><path d="m527 0h681v88h-681z" fill="#fff"/><path d="m559 24h50v16h-50z" fill="#eff0f5"/><path d="m666 24h255v16h-255z" fill="#dadce6"/><path d="m666 52h215v12h-215z" fill="#eff0f5"/><path d="m527 88h681v88h-681z" fill="#fff"/><path d="m559 112h50v16h-50z" fill="#eff0f5"/><path d="m666 112h255v16h-255z" fill="#dadce6"/><path d="m666 140h215v12h-215z" fill="#eff0f5"/><path d="m527 176h681v88h-681z" fill="#fff"/><path d="m559 200h50v16h-50z" fill="#eff0f5"/><path d="m666 200h255v16h-255z" fill="#dadce6"/><path d="m666 228h215v12h-215z" fill="#eff0f5"/><path d="m527 264h681v88h-681z" fill="#fff"/><path d="m559 288h50v16h-50z" fill="#eff0f5"/><path d="m666 288h255v16h-255z" fill="#dadce6"/><path d="m666 316h215v12h-215z" fill="#eff0f5"/><path d="m527 352h681v88h-681z" fill="#fff"/><path d="m559 376h50v16h-50z" fill="#eff0f5"/><path d="m666 376h255v16h-255z" fill="#dadce6"/><path d="m666 404h215v12h-215z" fill="#eff0f5"/><path d="m527 440h681v88h-681z" fill="#fff"/><path d="m559 464h50v16h-50z" fill="#eff0f5"/><path d="m666 464h255v16h-255z" fill="#dadce6"/><path d="m666 492h215v12h-215z" fill="#eff0f5"/><rect fill="#b0b4cf" fill-opacity=".09" height="80" rx="4" width="80" x="24"/><path d="m63.446 60h4.864v-22.56h-3.36l-6.432 1.92 1.024 4.032 3.904-.96z" fill="#33364a" fill-opacity=".4"/><path d="m48.0962 28h.924v-6.888l5.424 6.888h.756v-8.4h-.924v6.732l-5.292-6.732h-.888zm16.3805.144c2.556 0 4.296-2.028 4.296-4.344v-.024c0-2.316-1.716-4.32-4.272-4.32s-4.296 2.028-4.296 4.344v.024c0 2.316 1.716 4.32 4.272 4.32zm.024-.876c-1.92 0-3.312-1.56-3.312-3.468v-.024c0-1.908 1.368-3.444 3.288-3.444s3.312 1.56 3.312 3.468v.024c0 1.908-1.368 3.444-3.288 3.444zm11.6711.792h.84l3.612-8.46h-1.02l-3 7.236-2.988-7.236h-1.056z" fill="#161931" fill-opacity=".65"/><path d="m130.68 47h3.08v-5.42h6.68v-2.8h-6.68v-2.98h7.58v-2.8h-10.66zm12.605 0h3.04v-3.96c0-2.56 1.24-3.78 3.26-3.78h.16v-3.18c-1.8-.08-2.8.88-3.42 2.36v-2.16h-3.04zm8.219-11.9h3.2v-2.7h-3.2zm.08 11.9h3.04v-10.72h-3.04zm10.096.2c1.58 0 2.6-.74 3.34-1.74v1.54h3.04v-14.6h-3.04v5.28c-.72-.86-1.72-1.6-3.34-1.6-2.54 0-4.88 1.96-4.88 5.54v.04c0 3.58 2.38 5.54 4.88 5.54zm.78-2.58c-1.42 0-2.62-1.18-2.62-2.96v-.04c0-1.8 1.2-2.96 2.62-2.96s2.6 1.18 2.6 2.96v.04c0 1.78-1.18 2.96-2.6 2.96zm11.156 2.58c1.48 0 2.5-.54 3.24-1.36v1.16h2.94v-6.22c0-1.44-.36-2.62-1.16-3.42-.76-.76-1.96-1.2-3.62-1.2-1.82 0-2.98.34-4.16.86l.76 2.32c.98-.36 1.8-.58 2.96-.58 1.52 0 2.3.7 2.3 1.96v.18c-.76-.26-1.54-.44-2.62-.44-2.54 0-4.32 1.08-4.32 3.42v.04c0 2.12 1.66 3.28 3.68 3.28zm.92-2.1c-.98 0-1.66-.48-1.66-1.3v-.04c0-.96.8-1.48 2.1-1.48.74 0 1.42.16 1.94.4v.54c0 1.1-.96 1.88-2.38 1.88zm11.985-1.52-2.44-7.3h-3.22l4.2 10.76c-.26.54-.54.7-1.06.7-.4 0-.9-.18-1.3-.42l-1.02 2.2c.78.46 1.6.74 2.7.74 1.82 0 2.7-.82 3.52-3l4.12-10.98h-3.16z" fill="#33364a" fill-opacity=".4"/><rect fill="#b0b4cf" fill-opacity=".09" height="80" rx="4" width="80" x="24" y="104"/><path d="m56.0993 164h16.576v-4.256h-9.76l3.648-2.816c3.9679-3.072 5.888-4.928 5.888-8.672v-.064c0-4.192-3.072-6.912-7.712-6.912-4 0-6.144 1.632-8.352 4.64l3.456 2.784c1.664-2.048 2.848-3.008 4.576-3.008 1.76 0 3.008 1.024 3.008 2.912 0 1.856-1.088 3.072-3.872 5.376l-7.456 6.112z" fill="#33364a" fill-opacity=".4"/><path d="m48.0962 132h.924v-6.888l5.424 6.888h.756v-8.4h-.924v6.732l-5.292-6.732h-.888zm16.3805.144c2.556 0 4.296-2.028 4.296-4.344v-.024c0-2.316-1.716-4.32-4.272-4.32s-4.296 2.028-4.296 4.344v.024c0 2.316 1.716 4.32 4.272 4.32zm.024-.876c-1.92 0-3.312-1.56-3.312-3.468v-.024c0-1.908 1.368-3.444 3.288-3.444s3.312 1.56 3.312 3.468v.024c0 1.908-1.368 3.444-3.288 3.444zm11.6711.792h.84l3.612-8.46h-1.02l-3 7.236-2.988-7.236h-1.056z" fill="#161931" fill-opacity=".65"/><path d="m135.66 151.2c3.02 0 5.14-1.56 5.14-4.34v-.04c0-2.44-1.6-3.46-4.44-4.2-2.42-.62-3.02-.92-3.02-1.84v-.04c0-.68.62-1.22 1.8-1.22s2.4.52 3.64 1.38l1.6-2.32c-1.42-1.14-3.16-1.78-5.2-1.78-2.86 0-4.9 1.68-4.9 4.22v.04c0 2.78 1.82 3.56 4.64 4.28 2.34.6 2.82 1 2.82 1.78v.04c0 .82-.76 1.32-2.02 1.32-1.6 0-2.92-.66-4.18-1.7l-1.82 2.18c1.68 1.5 3.82 2.24 5.94 2.24zm10.333 0c1.48 0 2.5-.54 3.24-1.36v1.16h2.94v-6.22c0-1.44-.36-2.62-1.16-3.42-.76-.76-1.96-1.2-3.62-1.2-1.82 0-2.98.34-4.16.86l.76 2.32c.98-.36 1.8-.58 2.96-.58 1.52 0 2.3.7 2.3 1.96v.18c-.76-.26-1.54-.44-2.62-.44-2.54 0-4.32 1.08-4.32 3.42v.04c0 2.12 1.66 3.28 3.68 3.28zm.92-2.1c-.98 0-1.66-.48-1.66-1.3v-.04c0-.96.8-1.48 2.1-1.48.74 0 1.42.16 1.94.4v.54c0 1.1-.96 1.88-2.38 1.88zm11.198 2.08c1.02 0 1.76-.24 2.4-.62v-2.44c-.44.24-.94.38-1.5.38-.68 0-.98-.34-.98-1.04v-4.58h2.52v-2.6h-2.52v-2.74h-3.04v2.74h-1.28v2.6h1.28v5.08c0 2.48 1.26 3.22 3.12 3.22zm8.041.02c1.54 0 2.44-.82 3.14-1.72v1.52h3.04v-10.72h-3.04v5.98c0 1.44-.74 2.18-1.9 2.18s-1.84-.74-1.84-2.18v-5.98h-3.04v6.94c0 2.46 1.34 3.98 3.64 3.98zm8.701-.2h3.04v-3.96c0-2.56 1.24-3.78 3.26-3.78h.16v-3.18c-1.8-.08-2.8.88-3.42 2.36v-2.16h-3.04zm12.364.2c1.58 0 2.6-.74 3.34-1.74v1.54h3.04v-14.6h-3.04v5.28c-.72-.86-1.72-1.6-3.34-1.6-2.54 0-4.88 1.96-4.88 5.54v.04c0 3.58 2.38 5.54 4.88 5.54zm.78-2.58c-1.42 0-2.62-1.18-2.62-2.96v-.04c0-1.8 1.2-2.96 2.62-2.96s2.6 1.18 2.6 2.96v.04c0 1.78-1.18 2.96-2.6 2.96zm11.156 2.58c1.48 0 2.5-.54 3.24-1.36v1.16h2.94v-6.22c0-1.44-.36-2.62-1.16-3.42-.76-.76-1.96-1.2-3.62-1.2-1.82 0-2.98.34-4.16.86l.76 2.32c.98-.36 1.8-.58 2.96-.58 1.52 0 2.3.7 2.3 1.96v.18c-.76-.26-1.54-.44-2.62-.44-2.54 0-4.32 1.08-4.32 3.42v.04c0 2.12 1.66 3.28 3.68 3.28zm.92-2.1c-.98 0-1.66-.48-1.66-1.3v-.04c0-.96.8-1.48 2.1-1.48.74 0 1.42.16 1.94.4v.54c0 1.1-.96 1.88-2.38 1.88zm11.985-1.52-2.44-7.3h-3.22l4.2 10.76c-.26.54-.54.7-1.06.7-.4 0-.9-.18-1.3-.42l-1.02 2.2c.78.46 1.6.74 2.7.74 1.82 0 2.7-.82 3.52-3l4.12-10.98h-3.16z" fill="#33364a" fill-opacity=".4"/><rect fill="#b0b4cf" fill-opacity=".09" height="80" rx="4" width="80" x="24" y="208"/><path d="m64.5145 268.384c4.992 0 8.064-3.104 8.064-7.328v-.064c0-4.16-2.976-5.76-6.016-6.272l5.664-5.408v-3.712h-15.136v4.224h8.8l-5.344 5.376.768 3.136h2.048c2.752 0 4.384 1.024 4.384 2.848v.064c0 1.664-1.312 2.72-3.168 2.72-2.272 0-3.872-.96-5.408-2.688l-3.392 3.232c1.92 2.272 4.704 3.872 8.736 3.872z" fill="#33364a" fill-opacity=".4"/><path d="m48.0962 236h.924v-6.888l5.424 6.888h.756v-8.4h-.924v6.732l-5.292-6.732h-.888zm16.3805.144c2.556 0 4.296-2.028 4.296-4.344v-.024c0-2.316-1.716-4.32-4.272-4.32s-4.296 2.028-4.296 4.344v.024c0 2.316 1.716 4.32 4.272 4.32zm.024-.876c-1.92 0-3.312-1.56-3.312-3.468v-.024c0-1.908 1.368-3.444 3.288-3.444s3.312 1.56 3.312 3.468v.024c0 1.908-1.368 3.444-3.288 3.444zm11.6711.792h.84l3.612-8.46h-1.02l-3 7.236-2.988-7.236h-1.056z" fill="#161931" fill-opacity=".65"/><path d="m135.66 255.2c3.02 0 5.14-1.56 5.14-4.34v-.04c0-2.44-1.6-3.46-4.44-4.2-2.42-.62-3.02-.92-3.02-1.84v-.04c0-.68.62-1.22 1.8-1.22s2.4.52 3.64 1.38l1.6-2.32c-1.42-1.14-3.16-1.78-5.2-1.78-2.86 0-4.9 1.68-4.9 4.22v.04c0 2.78 1.82 3.56 4.64 4.28 2.34.6 2.82 1 2.82 1.78v.04c0 .82-.76 1.32-2.02 1.32-1.6 0-2.92-.66-4.18-1.7l-1.82 2.18c1.68 1.5 3.82 2.24 5.94 2.24zm10.853 0c1.54 0 2.44-.82 3.14-1.72v1.52h3.04v-10.72h-3.04v5.98c0 1.44-.74 2.18-1.9 2.18s-1.84-.74-1.84-2.18v-5.98h-3.04v6.94c0 2.46 1.34 3.98 3.64 3.98zm8.701-.2h3.04v-5.98c0-1.44.74-2.18 1.9-2.18s1.84.74 1.84 2.18v5.98h3.04v-6.94c0-2.46-1.34-3.98-3.64-3.98-1.54 0-2.44.82-3.14 1.72v-1.52h-3.04zm16.661.2c1.58 0 2.6-.74 3.34-1.74v1.54h3.04v-14.6h-3.04v5.28c-.72-.86-1.72-1.6-3.34-1.6-2.54 0-4.88 1.96-4.88 5.54v.04c0 3.58 2.38 5.54 4.88 5.54zm.78-2.58c-1.42 0-2.62-1.18-2.62-2.96v-.04c0-1.8 1.2-2.96 2.62-2.96s2.6 1.18 2.6 2.96v.04c0 1.78-1.18 2.96-2.6 2.96zm11.156 2.58c1.48 0 2.5-.54 3.24-1.36v1.16h2.94v-6.22c0-1.44-.36-2.62-1.16-3.42-.76-.76-1.96-1.2-3.62-1.2-1.82 0-2.98.34-4.16.86l.76 2.32c.98-.36 1.8-.58 2.96-.58 1.52 0 2.3.7 2.3 1.96v.18c-.76-.26-1.54-.44-2.62-.44-2.54 0-4.32 1.08-4.32 3.42v.04c0 2.12 1.66 3.28 3.68 3.28zm.92-2.1c-.98 0-1.66-.48-1.66-1.3v-.04c0-.96.8-1.48 2.1-1.48.74 0 1.42.16 1.94.4v.54c0 1.1-.96 1.88-2.38 1.88zm11.985-1.52-2.44-7.3h-3.22l4.2 10.76c-.26.54-.54.7-1.06.7-.4 0-.9-.18-1.3-.42l-1.02 2.2c.78.46 1.6.74 2.7.74 1.82 0 2.7-.82 3.52-3l4.12-10.98h-3.16z" fill="#33364a" fill-opacity=".4"/></svg>