<svg width="270" height="96" viewBox="0 0 270 96" fill="none" xmlns="http://www.w3.org/2000/svg">
<g style="mix-blend-mode:multiply" opacity=".25">
<path fill-rule="evenodd" clip-rule="evenodd" d="M99.6667 55.0227L97.3626 52.6893C96.4875 53.5058 95.6029 54.1527 94.708 54.6292C93.814 55.1053 92.7444 55.3434 91.5001 55.3434C90.5277 55.3434 89.6286 55.1541 88.8022 54.7748C87.9758 54.3954 87.2612 53.8756 86.6583 53.2142C86.0555 52.5531 85.5891 51.7803 85.2582 50.8958C84.9276 50.0112 84.7628 49.0629 84.7628 48.0524C84.7628 47.0411 84.9276 46.0979 85.2582 45.2228C85.5891 44.3481 86.0555 43.5851 86.6583 42.9335C87.2612 42.2823 87.9758 41.7672 88.8022 41.3879C89.6286 41.009 90.5277 40.8193 91.5001 40.8193C92.6665 40.8193 93.7069 41.0526 94.6207 41.5193C95.5348 41.9856 96.4001 42.5983 97.2163 43.3565L99.5207 40.7028C99.0347 40.2361 98.5196 39.8084 97.975 39.4193C97.4307 39.0305 96.8377 38.6949 96.1959 38.4131C95.5541 38.131 94.8493 37.9126 94.0811 37.7572C93.313 37.6013 92.4622 37.5234 91.5292 37.5234C89.9737 37.5234 88.5543 37.8008 87.271 38.3549C85.9874 38.9089 84.8792 39.6672 83.9458 40.6296C83.0124 41.5921 82.2884 42.7147 81.7729 43.9983C81.2574 45.2815 81 46.6524 81 48.1106C81 49.5882 81.2625 50.9685 81.7874 52.2521C82.3124 53.5349 83.0368 54.6481 83.9604 55.5913C84.884 56.534 85.9775 57.2777 87.2415 57.8223C88.5055 58.3669 89.8863 58.6388 91.3832 58.6388C92.3363 58.6388 93.2064 58.5562 93.9938 58.3909C94.7812 58.2257 95.5057 57.9829 96.1668 57.6622C96.8279 57.3411 97.4453 56.9618 98.019 56.5246C98.5924 56.087 99.1417 55.5861 99.6667 55.0227Z" fill="#161931"/>
<path fill-rule="evenodd" clip-rule="evenodd" d="M145.947 43.3054C145.947 42.6262 146.237 42.0491 146.817 41.5741C147.397 41.0983 148.21 40.8608 149.254 40.8608C150.182 40.8608 151.101 41.0406 152.01 41.3994C152.919 41.7582 153.837 42.2772 154.765 42.956L156.68 40.2499C155.636 39.4157 154.519 38.7805 153.33 38.3443C152.14 37.9077 150.801 37.6895 149.312 37.6895C148.306 37.6895 147.378 37.83 146.532 38.1115C145.681 38.3926 144.956 38.795 144.352 39.3187C143.747 39.8428 143.273 40.4682 142.926 41.1956C142.582 41.9231 142.408 42.733 142.408 43.6254C142.408 44.5758 142.558 45.381 142.858 46.0406C143.158 46.7001 143.598 47.2627 144.168 47.7283C144.738 48.1939 145.449 48.5818 146.29 48.8923C147.136 49.2029 148.099 49.4836 149.186 49.736C150.134 49.9688 150.902 50.1918 151.497 50.405C152.087 50.6185 152.551 50.8466 152.895 51.0888C153.233 51.3315 153.465 51.598 153.591 51.8889C153.716 52.1802 153.779 52.5096 153.779 52.8783C153.779 53.674 153.455 54.3045 152.808 54.7697C152.16 55.2357 151.284 55.4682 150.182 55.4682C148.906 55.4682 147.765 55.2401 146.759 54.7843C145.754 54.3285 144.758 53.674 143.771 52.8202L141.625 55.381C142.843 56.4865 144.168 57.3063 145.599 57.8398C147.03 58.3733 148.529 58.6399 150.095 58.6399C151.159 58.6399 152.136 58.504 153.025 58.2328C153.91 57.9607 154.674 57.563 155.302 57.0393C155.936 56.5156 156.429 55.8757 156.786 55.1191C157.139 54.3626 157.318 53.4993 157.318 52.5293C157.318 51.6758 157.178 50.9338 156.897 50.3033C156.617 49.6728 156.201 49.1204 155.66 48.6446C155.118 48.1696 154.432 47.7668 153.61 47.437C152.788 47.1076 151.841 46.8069 150.777 46.5352C149.805 46.3024 149.007 46.079 148.374 45.8659C147.746 45.6527 147.253 45.4199 146.89 45.1675C146.532 44.9154 146.286 44.6437 146.15 44.3528C146.015 44.0615 145.947 43.7125 145.947 43.3054Z" fill="#161931"/>
<path fill-rule="evenodd" clip-rule="evenodd" d="M185.657 43.5928V58.1441H189.201V37.8535H185.395L179.207 47.4481L173.019 37.8535H169.213V58.1441H172.757V43.6507L179.119 53.1585H179.236L185.657 43.5928Z" fill="#161931"/>
<path fill-rule="evenodd" clip-rule="evenodd" d="M218.979 48.1106C218.979 49.1022 218.809 50.0403 218.47 50.9252C218.13 51.8098 217.66 52.5775 217.058 53.2287C216.456 53.8799 215.733 54.3954 214.889 54.7747C214.045 55.1541 213.118 55.3433 212.109 55.3433C211.1 55.3433 210.168 55.1489 209.314 54.7602C208.46 54.371 207.727 53.8461 207.116 53.1854C206.505 52.524 206.029 51.7512 205.69 50.8666C205.35 49.982 205.18 49.0436 205.18 48.0524C205.18 47.0604 205.35 46.1223 205.69 45.2378C206.029 44.3528 206.5 43.5851 207.102 42.9335C207.703 42.2823 208.426 41.7672 209.271 41.3879C210.115 41.0089 211.042 40.8193 212.051 40.8193C213.06 40.8193 213.992 41.0137 214.846 41.4028C215.699 41.7916 216.432 42.3165 217.043 42.9776C217.655 43.6382 218.13 44.4114 218.47 45.296C218.809 46.1806 218.979 47.119 218.979 48.1106ZM222.735 48.0524C222.735 46.6134 222.473 45.2523 221.949 43.9688C221.425 42.686 220.697 41.5677 219.766 40.6151C218.834 39.662 217.718 38.9089 216.417 38.3549C215.117 37.8008 213.681 37.5234 212.109 37.5234C210.537 37.5234 209.101 37.8056 207.8 38.3694C206.5 38.9333 205.374 39.6963 204.423 40.6588C203.472 41.6212 202.735 42.7442 202.211 44.0274C201.687 45.3106 201.425 46.6717 201.425 48.1106C201.425 49.5492 201.687 50.9099 202.211 52.1935C202.735 53.477 203.463 54.5949 204.394 55.5476C205.325 56.5002 206.442 57.2537 207.742 57.8078C209.042 58.3618 210.478 58.6388 212.051 58.6388C213.623 58.6388 215.059 58.3567 216.359 57.7932C217.66 57.2293 218.785 56.4664 219.736 55.5035C220.687 54.5414 221.425 53.4184 221.949 52.1352C222.473 50.8521 222.735 49.491 222.735 48.0524Z" fill="#161931"/>
<path fill-rule="evenodd" clip-rule="evenodd" d="M237.629 43.3054C237.629 42.6262 237.919 42.0491 238.499 41.5741C239.079 41.0983 239.891 40.8608 240.936 40.8608C241.864 40.8608 242.783 41.0406 243.691 41.3994C244.6 41.7582 245.519 42.2772 246.447 42.956L248.362 40.2499C247.317 39.4157 246.2 38.7805 245.011 38.3443C243.822 37.9077 242.483 37.6895 240.994 37.6895C239.988 37.6895 239.06 37.83 238.214 38.1115C237.363 38.3926 236.638 38.795 236.033 39.3187C235.429 39.8428 234.955 40.4682 234.607 41.1956C234.264 41.9231 234.09 42.733 234.09 43.6254C234.09 44.5758 234.24 45.381 234.539 46.0406C234.839 46.7001 235.279 47.2627 235.849 47.7283C236.42 48.1939 237.131 48.5818 237.972 48.8923C238.818 49.2029 239.78 49.4836 240.868 49.736C241.815 49.9688 242.584 50.1918 243.179 50.405C243.768 50.6185 244.233 50.8466 244.576 51.0888C244.914 51.3315 245.147 51.598 245.272 51.8889C245.398 52.1802 245.461 52.5096 245.461 52.8783C245.461 53.674 245.137 54.3045 244.489 54.7697C243.841 55.2357 242.966 55.4682 241.864 55.4682C240.587 55.4682 239.446 55.2401 238.441 54.7843C237.436 54.3285 236.44 53.674 235.453 52.8202L233.307 55.381C234.525 56.4865 235.849 57.3063 237.281 57.8398C238.711 58.3733 240.21 58.6399 241.777 58.6399C242.84 58.6399 243.817 58.504 244.707 58.2328C245.591 57.9607 246.355 57.563 246.984 57.0393C247.617 56.5156 248.11 55.8757 248.468 55.1191C248.821 54.3626 249 53.4993 249 52.5293C249 51.6758 248.859 50.9338 248.579 50.3033C248.299 49.6728 247.883 49.1204 247.341 48.6446C246.8 48.1696 246.113 47.7668 245.292 47.437C244.47 47.1076 243.522 46.8069 242.458 46.5352C241.487 46.3024 240.689 46.079 240.056 45.8659C239.427 45.6527 238.934 45.4199 238.571 45.1675C238.214 44.9154 237.967 44.6437 237.832 44.3528C237.697 44.0615 237.629 43.7125 237.629 43.3054Z" fill="#161931"/>
<path fill-rule="evenodd" clip-rule="evenodd" d="M123.98 41.9163L114.269 51.6148C114.143 51.3721 114.03 51.1193 113.929 50.857C113.59 49.9758 113.42 49.0409 113.42 48.0534C113.42 47.0652 113.59 46.1307 113.929 45.2494C114.269 44.3678 114.739 43.603 115.34 42.9539C115.942 42.3051 116.664 41.792 117.508 41.4141C118.352 41.0366 119.278 40.8477 120.286 40.8477C121.295 40.8477 122.226 41.0413 123.079 41.429C123.396 41.5729 123.697 41.7351 123.98 41.9163ZM123.123 54.7503C122.279 55.1282 121.353 55.3168 120.345 55.3168C119.336 55.3168 118.405 55.1231 117.551 54.7358C117.235 54.5916 116.934 54.4293 116.651 54.2478L126.362 44.55C126.488 44.7923 126.601 45.0448 126.702 45.3074C127.041 46.1886 127.211 47.1235 127.211 48.1114C127.211 49.0992 127.041 50.0338 126.702 50.9154C126.362 51.7966 125.892 52.5614 125.291 53.2102C124.689 53.8589 123.967 54.3724 123.123 54.7503ZM124.592 57.7574C125.892 57.1957 127.017 56.4356 127.967 55.4764C128.918 54.5179 129.655 53.3991 130.178 52.1208C130.702 50.8425 130.964 49.4866 130.964 48.0534C130.964 46.6199 130.702 45.2639 130.178 43.9852C129.868 43.2271 129.485 42.527 129.032 41.8845L135.348 35.5768L132.838 33.0703L126.503 39.3972C125.934 39.0099 125.316 38.6752 124.651 38.3925C123.351 37.8406 121.916 37.5642 120.345 37.5642C118.773 37.5642 117.338 37.8453 116.038 38.407C114.739 38.9688 113.614 39.7289 112.663 40.6877C111.713 41.6465 110.976 42.7653 110.452 44.0436C109.929 45.3219 109.667 46.6779 109.667 48.1114C109.667 49.5446 109.929 50.9001 110.452 52.1788C110.763 52.9374 111.145 53.6375 111.599 54.2804L105.283 60.5873L107.793 63.0938L114.128 56.7672C114.697 57.1545 115.315 57.4893 115.98 57.7719C117.28 58.3239 118.715 58.5998 120.286 58.5998C121.858 58.5998 123.293 58.3188 124.592 57.7574Z" fill="#161931"/>
<path fill-rule="evenodd" clip-rule="evenodd" d="M44.9998 24.0469C58.2292 24.0469 68.9537 34.7714 68.9537 48.0008C68.9537 61.2302 58.2292 71.9547 44.9998 71.9547C31.7704 71.9547 21.0459 61.2302 21.0459 48.0008C21.0459 34.7714 31.7704 24.0469 44.9998 24.0469Z" fill="white"/>
<path fill-rule="evenodd" clip-rule="evenodd" d="M68.485 48.0008C68.485 35.0303 57.9703 24.5156 44.9998 24.5156C32.0293 24.5156 21.5146 35.0303 21.5146 48.0008C21.5146 60.9713 32.0293 71.486 44.9998 71.486C57.9703 71.486 68.485 60.9713 68.485 48.0008ZM68.9537 48.0008C68.9537 34.7714 58.2292 24.0469 44.9998 24.0469C31.7704 24.0469 21.0459 34.7714 21.0459 48.0008C21.0459 61.2302 31.7704 71.9547 44.9998 71.9547C58.2292 71.9547 68.9537 61.2302 68.9537 48.0008Z" fill="#DADCE6"/>
<path fill-rule="evenodd" clip-rule="evenodd" d="M44.9535 34.1808C52.5859 34.1808 58.7731 40.3681 58.7731 48.0004C58.7731 55.6327 52.5859 61.82 44.9535 61.82C37.3212 61.82 31.134 55.6327 31.134 48.0004C31.134 40.3681 37.3212 34.1808 44.9535 34.1808Z" fill="#DADCE6"/>
<path fill-rule="evenodd" clip-rule="evenodd" d="M45.3765 28.1433C45.1862 27.9682 45.088 27.9648 45.0715 27.9648C45.055 27.9648 44.9568 27.9682 44.7665 28.1433C44.5712 28.323 44.3377 28.6332 44.0861 29.1117C43.584 30.0669 43.1034 31.5106 42.6891 33.3736C41.8641 37.0843 41.3456 42.256 41.3456 48C41.3456 53.7441 41.8641 58.9158 42.6891 62.6264C43.1034 64.4894 43.584 65.9331 44.0861 66.8883C44.3377 67.3668 44.5712 67.677 44.7665 67.8568C44.9568 68.0319 45.055 68.0352 45.0715 68.0352C45.088 68.0352 45.1862 68.0319 45.3765 67.8568C45.5718 67.677 45.8053 67.3668 46.0569 66.8883C46.559 65.9331 47.0396 64.4894 47.4539 62.6264C48.279 58.9158 48.7974 53.7441 48.7974 48C48.7974 42.256 48.279 37.0843 47.4539 33.3736C47.0396 31.5106 46.559 30.0669 46.0569 29.1117C45.8053 28.6332 45.5718 28.323 45.3765 28.1433ZM49.7349 48C49.7349 36.4171 47.647 27.0273 45.0715 27.0273C42.496 27.0273 40.4081 36.4171 40.4081 48C40.4081 59.5829 42.496 68.9727 45.0715 68.9727C47.647 68.9727 49.7349 59.5829 49.7349 48Z" fill="#161931"/>
<path fill-rule="evenodd" clip-rule="evenodd" d="M62.4313 38.335C62.4879 38.0829 62.4416 37.9966 62.4336 37.9828C62.4255 37.9688 62.3737 37.8855 62.1266 37.8083C61.8731 37.729 61.4874 37.682 60.9468 37.7036C59.8679 37.7465 58.3763 38.0525 56.5548 38.6255C52.9266 39.7667 48.1856 41.9039 43.208 44.7759C38.2304 47.6479 34.0079 50.6825 31.2049 53.252C29.7976 54.542 28.7868 55.6799 28.2101 56.5921C27.9212 57.0491 27.7692 57.4062 27.7111 57.665C27.6546 57.9172 27.7008 58.0034 27.7088 58.0173C27.7169 58.0312 27.7687 58.1146 28.0158 58.1918C28.2694 58.271 28.655 58.318 29.1956 58.2965C30.2746 58.2535 31.7661 57.9475 33.5876 57.3746C37.2159 56.2333 41.9568 54.0961 46.9344 51.2241C51.912 48.3521 56.1345 45.3175 58.9375 42.7481C60.3448 41.458 61.3556 40.3202 61.9323 39.408C62.2212 38.9509 62.3732 38.5938 62.4313 38.335ZM47.4029 52.0361C57.4402 46.2448 64.5331 39.7429 63.2453 37.5138C61.9576 35.2847 52.7768 38.1725 42.7395 43.9639C32.7022 49.7552 25.6093 56.2571 26.8971 58.4862C28.1849 60.7153 37.3657 57.8275 47.4029 52.0361Z" fill="#161931"/>
<path fill-rule="evenodd" clip-rule="evenodd" d="M62.1214 58.2018C62.368 58.1247 62.4196 58.0415 62.4276 58.0276C62.4356 58.0137 62.4819 57.9271 62.4252 57.6746C62.3671 57.4154 62.215 57.0579 61.926 56.6005C61.3493 55.6875 60.3386 54.5488 58.9316 53.2578C56.1291 50.6863 51.9078 47.6491 46.9318 44.7744C41.9557 41.8996 37.2165 39.7602 33.5897 38.6174C31.7689 38.0437 30.278 37.7372 29.1997 37.6939C28.6595 37.6722 28.2742 37.7191 28.021 37.7983C27.7744 37.8753 27.7228 37.9585 27.7148 37.9724C27.7068 37.9863 27.6605 38.0729 27.7172 38.3255C27.7754 38.5847 27.9275 38.9422 28.2164 39.3995C28.7931 40.3125 29.8039 41.4512 31.2108 42.7422C34.0133 45.3137 38.2346 48.3509 43.2106 51.2256C48.1867 54.1004 52.9259 56.2399 56.5527 57.3826C58.3735 57.9564 59.8644 58.2628 60.9427 58.3061C61.483 58.3278 61.8682 58.2809 62.1214 58.2018ZM42.7417 52.0374C52.7758 57.8343 61.953 60.726 63.2396 58.4962C64.5262 56.2664 57.4349 49.7595 47.4007 43.9626C37.3666 38.1657 28.1894 35.2741 26.9028 37.5039C25.6163 39.7337 32.7075 46.2406 42.7417 52.0374Z" fill="#161931"/>
<path fill-rule="evenodd" clip-rule="evenodd" d="M31.6664 42.1257C32.481 42.1257 33.1412 42.7864 33.1412 43.6013C33.1412 44.4162 32.481 45.0768 31.6664 45.0768C30.8519 45.0768 30.1916 44.4162 30.1916 43.6013C30.1916 42.7864 30.8519 42.1257 31.6664 42.1257Z" fill="#161931"/>
<path fill-rule="evenodd" clip-rule="evenodd" d="M55.1058 37.0737C55.9207 37.0737 56.5813 37.7343 56.5813 38.5493C56.5813 39.3642 55.9207 40.0248 55.1058 40.0248C54.2909 40.0248 53.6303 39.3642 53.6303 38.5493C53.6303 37.7343 54.2909 37.0737 55.1058 37.0737Z" fill="#161931"/>
<path fill-rule="evenodd" clip-rule="evenodd" d="M42.0997 60.2341C42.9146 60.2341 43.5752 60.8944 43.5752 61.7089C43.5752 62.5234 42.9146 63.1837 42.0997 63.1837C41.2848 63.1837 40.6242 62.5234 40.6242 61.7089C40.6242 60.8944 41.2848 60.2341 42.0997 60.2341Z" fill="#161931"/>
<path fill-rule="evenodd" clip-rule="evenodd" d="M44.9891 45.4909C46.3687 45.4909 47.4872 46.6094 47.4872 47.9891C47.4872 49.3687 46.3687 50.4872 44.9891 50.4872C43.6094 50.4872 42.4909 49.3687 42.4909 47.9891C42.4909 46.6094 43.6094 45.4909 44.9891 45.4909Z" fill="#161931"/>
</g>
</svg>
