<svg width="183" height="112" viewBox="0 0 183 112" fill="none" xmlns="http://www.w3.org/2000/svg">
<path d="M26.4566 111L1.3233 82L26.4566 53L77.5434 53L102.677 82L77.5434 111H26.4566Z" stroke="url(#paint0_linear)" stroke-width="2"/>
<path opacity="0.1" d="M75.5 47L182.5 0V60L75.5 107V47Z" fill="url(#paint1_linear)"/>
<path d="M7 82L28.5 57L28.5 107L7 82Z" fill="#D38CFF"/>
<rect x="7" y="34" width="22" height="48" fill="#D38CFF"/>
<path d="M75.5 57L97 82L75.5 107V57Z" fill="#882CC0"/>
<rect x="75" y="34" width="22" height="48" fill="#882CC0"/>
<path d="M28.5 59L75.5 59V107H28.5L28.5 59Z" fill="#B455F0"/>
<path d="M7 34L28.5 9L75.5 9L97 34L75.5 59H28.5L7 34Z" fill="#DBA0FF"/>
<defs>
<linearGradient id="paint0_linear" x1="104" y1="112" x2="0" y2="112" gradientUnits="userSpaceOnUse">
<stop stop-color="#882CC0"/>
<stop offset="1" stop-color="#DBA0FF"/>
</linearGradient>
<linearGradient id="paint1_linear" x1="75.5" y1="77.6277" x2="186.878" y2="47.9064" gradientUnits="userSpaceOnUse">
<stop stop-color="#1D213E"/>
<stop offset="1" stop-color="#1D213E" stop-opacity="0"/>
</linearGradient>
</defs>
</svg>
