<svg width="64" height="64" viewBox="0 0 64 64" fill="none" xmlns="http://www.w3.org/2000/svg">
<path d="M42.0952 31.375C41.063 31.375 40.2246 30.718 40.2217 29.9055C40.2183 29.0919 41.0547 28.4299 42.0898 28.4276C46.7973 28.4161 51.2758 26.1809 54.7002 22.1336C57.9871 18.249 59.9182 13.1689 60.2124 7.69742H51.9581C50.923 7.69742 50.0841 7.0377 50.0841 6.22371C50.0841 5.40971 50.923 4.75 51.9581 4.75H62.126C63.161 4.75 63.9999 5.40971 63.9999 6.22371C63.9999 12.827 61.8053 19.0569 57.8211 23.7666C53.6818 28.6582 48.0993 31.3604 42.1015 31.375C42.0996 31.375 42.0976 31.375 42.0952 31.375Z" fill="#3A363D"/>
<path d="M21.9047 31.375C21.9022 31.375 21.9008 31.375 21.8988 31.375C15.9011 31.3604 10.3182 28.6582 6.17928 23.7666C2.19462 19.0569 0 12.827 0 6.22371C0 5.40971 0.838903 4.75 1.87399 4.75H12.0418C13.0769 4.75 13.9158 5.40971 13.9158 6.22371C13.9158 7.0377 13.0769 7.69742 12.0418 7.69742H3.78751C4.08178 13.1689 6.01287 18.249 9.29967 22.1336C12.7241 26.1809 17.2026 28.4161 21.91 28.4276C22.9451 28.4299 23.7816 29.0919 23.7782 29.9055C23.7753 30.718 22.9368 31.3746 21.9047 31.375Z" fill="#3A363E"/>
<path d="M50.9704 0.125H13.0308C12.053 0.125 11.2598 0.962716 11.2598 1.99634C11.2598 12.989 13.2997 23.3535 17.0031 31.1799C19.376 36.1941 22.2779 39.8339 25.487 41.9177V52.1063C25.487 53.1399 26.2803 53.9776 27.258 53.9776H36.7432C37.7214 53.9776 38.5142 53.1399 38.5142 52.1063V41.9177C41.7233 39.8344 44.6256 36.1941 46.9981 31.1799C50.7015 23.3535 52.7414 12.989 52.7414 1.99634C52.7414 0.962716 51.9486 0.125 50.9704 0.125Z" fill="#565259"/>
<path d="M38.5136 52.1063V41.9177C41.7227 39.8344 44.625 36.1941 46.9975 31.1799C50.7009 23.3535 52.7408 12.989 52.7408 1.99634C52.7408 0.962716 51.948 0.125 50.9698 0.125H32V53.9776H36.7426C37.7208 53.9776 38.5136 53.1399 38.5136 52.1063Z" fill="#1F1A23"/>
<path d="M41.5035 51.875H22.497C18.8986 51.875 15.9707 54.2865 15.9707 57.2502V61.1639C15.9707 61.9708 16.7651 62.625 17.7452 62.625H46.2554C47.2355 62.625 48.0299 61.9708 48.0299 61.1639V57.2502C48.0299 54.2865 45.1024 51.875 41.5035 51.875Z" fill="#2F2A33"/>
<path d="M41.5277 51.875H32.0596V64H46.2621C47.2386 64 48.03 63.2621 48.03 62.352V57.9377C48.03 54.5949 45.1133 51.875 41.5277 51.875Z" fill="#140F17"/>
<path d="M48.1239 64H15.8755C14.8978 64 14.1045 63.1623 14.1045 62.1291C14.1045 61.0955 14.8978 60.2578 15.8755 60.2578H48.1239C49.1021 60.2578 49.8949 61.0955 49.8949 62.1291C49.8949 63.1623 49.1021 64 48.1239 64Z" fill="#736F77"/>
<path d="M48.1242 60.2578H32V64H48.1242C49.1024 64 49.8952 63.1623 49.8952 62.1291C49.8952 61.0955 49.1024 60.2578 48.1242 60.2578Z" fill="#5A5161"/>
<g clip-path="url(#clip0)">
<g clip-path="url(#clip1)">
<path d="M36.1599 21.9238C35.3633 23.4284 33.7836 24.4545 31.9626 24.4545C29.34 24.4545 27.2142 22.3279 27.2142 19.7062C27.2142 17.0836 29.34 14.957 31.9626 14.957C33.7836 14.957 35.3633 15.984 36.1599 17.4886H41.1027C40.1108 13.3539 36.4011 10.278 31.9626 10.278C26.7659 10.278 22.5527 14.4911 22.5527 19.687C22.5527 24.8845 26.7659 29.0977 31.9626 29.0977C36.387 29.0977 40.0891 26.0392 41.0935 21.9238H36.1599Z" fill="#FFB0C2"/>
<path d="M39.4023 13.9375C40.4635 13.0717 41.1415 11.7541 41.1415 10.2771C41.1415 7.66956 39.0274 5.55631 36.4199 5.55631C33.8123 5.55631 31.6982 7.66956 31.6982 10.2771V10.2813C31.7859 10.2788 31.8736 10.2771 31.9621 10.2771C34.9929 10.2771 37.684 11.7115 39.4023 13.9375Z" fill="#CC91F0"/>
<path d="M36.4199 14.9961C37.5504 14.9961 38.589 14.5987 39.4023 13.9349C37.684 11.7089 34.9929 10.2753 31.9621 10.2753C31.8736 10.2753 31.7859 10.277 31.6982 10.2795C31.7007 12.8845 33.8132 14.9961 36.4199 14.9961Z" fill="#CB65B7"/>
</g>
</g>
<path fill-rule="evenodd" clip-rule="evenodd" d="M32 10.2774C31.9875 10.2774 31.9751 10.2773 31.9626 10.2773C26.7659 10.2773 22.5527 14.4905 22.5527 19.6864C22.5527 24.8839 26.7659 29.097 31.9626 29.097C31.9751 29.097 31.9875 29.097 32 29.097V24.4537C31.9875 24.4538 31.9751 24.4539 31.9626 24.4539C29.34 24.4539 27.2142 22.3273 27.2142 19.7056C27.2142 17.083 29.34 14.9564 31.9626 14.9564C31.9751 14.9564 31.9875 14.9564 32 14.9565V10.2774Z" fill="#FFDAE2"/>
<defs>
<clipPath id="clip0">
<rect width="37" height="37" fill="white" transform="translate(13 1)"/>
</clipPath>
<clipPath id="clip1">
<rect width="123.774" height="37.4405" fill="white" transform="translate(13 1.44141)"/>
</clipPath>
</defs>
</svg>
