<svg width="64" height="64" viewBox="0 0 64 64" fill="none" xmlns="http://www.w3.org/2000/svg">
<path d="M42.0952 31.375C41.063 31.375 40.2246 30.718 40.2217 29.9055C40.2183 29.0919 41.0547 28.4299 42.0898 28.4276C46.7973 28.4161 51.2758 26.1809 54.7002 22.1336C57.9871 18.249 59.9182 13.1689 60.2124 7.69742H51.9581C50.923 7.69742 50.0841 7.0377 50.0841 6.22371C50.0841 5.40971 50.923 4.75 51.9581 4.75H62.126C63.161 4.75 63.9999 5.40971 63.9999 6.22371C63.9999 12.827 61.8053 19.0569 57.8211 23.7666C53.6818 28.6582 48.0993 31.3604 42.1015 31.375C42.0996 31.375 42.0976 31.375 42.0952 31.375Z" fill="#3582FD"/>
<path d="M21.9047 31.375C21.9022 31.375 21.9008 31.375 21.8988 31.375C15.9011 31.3604 10.3182 28.6582 6.17928 23.7666C2.19462 19.0569 0 12.827 0 6.22371C0 5.40971 0.838903 4.75 1.87399 4.75H12.0418C13.0769 4.75 13.9158 5.40971 13.9158 6.22371C13.9158 7.0377 13.0769 7.69742 12.0418 7.69742H3.78751C4.08178 13.1689 6.01287 18.249 9.29967 22.1336C12.7241 26.1809 17.2026 28.4161 21.91 28.4276C22.9451 28.4299 23.7816 29.0919 23.7782 29.9055C23.7753 30.718 22.9368 31.3746 21.9047 31.375Z" fill="#66A1FF"/>
<path d="M50.9704 0.125H13.0308C12.053 0.125 11.2598 0.962716 11.2598 1.99634C11.2598 12.989 13.2997 23.3535 17.0031 31.1799C19.376 36.1941 22.2779 39.8339 25.487 41.9177V52.1063C25.487 53.1399 26.2803 53.9776 27.258 53.9776H36.7432C37.7214 53.9776 38.5142 53.1399 38.5142 52.1063V41.9177C41.7233 39.8344 44.6256 36.1941 46.9981 31.1799C50.7015 23.3535 52.7414 12.989 52.7414 1.99634C52.7414 0.962716 51.9486 0.125 50.9704 0.125Z" fill="#A4C6FC"/>
<path d="M38.5136 52.1063V41.9177C41.7227 39.8344 44.625 36.1941 46.9975 31.1799C50.7009 23.3535 52.7408 12.989 52.7408 1.99634C52.7408 0.962716 51.948 0.125 50.9698 0.125H32V53.9776H36.7426C37.7208 53.9776 38.5136 53.1399 38.5136 52.1063Z" fill="#66A1FF"/>
<path d="M41.5035 51.875H22.497C18.8986 51.875 15.9707 54.2865 15.9707 57.2502V61.1639C15.9707 61.9708 16.7651 62.625 17.7452 62.625H46.2554C47.2355 62.625 48.0299 61.9708 48.0299 61.1639V57.2502C48.0299 54.2865 45.1024 51.875 41.5035 51.875Z" fill="#1A71FF"/>
<path d="M41.5277 51.875H32.0596V64H46.2621C47.2386 64 48.03 63.2621 48.03 62.352V57.9377C48.03 54.5949 45.1133 51.875 41.5277 51.875Z" fill="#3147F2"/>
<path d="M48.1239 64H15.8755C14.8978 64 14.1045 63.1623 14.1045 62.1291C14.1045 61.0955 14.8978 60.2578 15.8755 60.2578H48.1239C49.1021 60.2578 49.8949 61.0955 49.8949 62.1291C49.8949 63.1623 49.1021 64 48.1239 64Z" fill="#66A1FF"/>
<path d="M48.1242 60.2578H32V64H48.1242C49.1024 64 49.8952 63.1623 49.8952 62.1291C49.8952 61.0955 49.1024 60.2578 48.1242 60.2578Z" fill="#3582FD"/>
<path fill-rule="evenodd" clip-rule="evenodd" d="M32.2513 5.43145C32.1245 5.31471 32.059 5.3125 32.048 5.3125C32.037 5.3125 31.9715 5.31471 31.8447 5.43145C31.7144 5.55129 31.5588 5.75806 31.3911 6.07709C31.0563 6.71387 30.7359 7.67637 30.4598 8.91833C29.9097 11.3921 29.5641 14.8399 29.5641 18.6693C29.5641 22.4986 29.9097 25.9464 30.4598 28.4202C30.7359 29.6622 31.0563 30.6247 31.3911 31.2615C31.5588 31.5805 31.7144 31.7873 31.8447 31.9071C31.9715 32.0239 32.037 32.0261 32.048 32.0261C32.059 32.0261 32.1245 32.0239 32.2513 31.9071C32.3815 31.7873 32.5372 31.5805 32.7049 31.2615C33.0397 30.6247 33.3601 29.6622 33.6362 28.4202C34.1863 25.9464 34.5319 22.4986 34.5319 18.6693C34.5319 14.8399 34.1863 11.3921 33.6362 8.91833C33.3601 7.67637 33.0397 6.71387 32.7049 6.07709C32.5372 5.75806 32.3815 5.55129 32.2513 5.43145ZM35.1569 18.6693C35.1569 10.9474 33.765 4.6875 32.048 4.6875C30.331 4.6875 28.9391 10.9474 28.9391 18.6693C28.9391 26.3912 30.331 32.6511 32.048 32.6511C33.765 32.6511 35.1569 26.3912 35.1569 18.6693Z" fill="#1A71FF"/>
<path fill-rule="evenodd" clip-rule="evenodd" d="M43.6212 12.2259C43.6589 12.0579 43.628 12.0003 43.6227 11.9911C43.6173 11.9818 43.5828 11.9262 43.4181 11.8748C43.249 11.822 42.9919 11.7906 42.6315 11.805C41.9122 11.8336 40.9179 12.0376 39.7035 12.4196C37.2847 13.1804 34.1241 14.6052 30.8057 16.5199C27.4872 18.4346 24.6723 20.4576 22.8036 22.1706C21.8654 23.0306 21.1915 23.7892 20.8071 24.3973C20.6145 24.702 20.5131 24.9401 20.4744 25.1126C20.4367 25.2807 20.4675 25.3382 20.4729 25.3474C20.4783 25.3567 20.5128 25.4123 20.6775 25.4638C20.8466 25.5166 21.1037 25.5479 21.464 25.5336C22.1834 25.5049 23.1777 25.301 24.3921 24.919C26.8109 24.1582 29.9715 22.7334 33.2899 20.8187C36.6083 18.904 39.4233 16.881 41.292 15.168C42.2302 14.308 42.9041 13.5494 43.2885 12.9412C43.4811 12.6366 43.5825 12.3985 43.6212 12.2259ZM33.6023 21.36C40.2938 17.4991 45.0224 13.1645 44.1639 11.6785C43.3054 10.1924 37.1848 12.1176 30.4933 15.9785C23.8018 19.8394 19.0732 24.174 19.9317 25.6601C20.7902 27.1462 26.9108 25.221 33.6023 21.36Z" fill="#1A71FF"/>
<path fill-rule="evenodd" clip-rule="evenodd" d="M43.4146 25.4705C43.579 25.4191 43.6134 25.3636 43.6187 25.3544C43.6241 25.3451 43.6549 25.2874 43.6171 25.119C43.5784 24.9462 43.477 24.7079 43.2843 24.4029C42.8999 23.7943 42.226 23.0351 41.2881 22.1745C39.4197 20.4601 36.6055 18.4354 33.2882 16.5189C29.9708 14.6024 26.8113 13.176 24.3935 12.4142C23.1796 12.0317 22.1857 11.8274 21.4668 11.7985C21.1066 11.7841 20.8498 11.8154 20.681 11.8681C20.5166 11.9195 20.4822 11.975 20.4769 11.9842C20.4715 11.9935 20.4407 12.0512 20.4784 12.2196C20.5172 12.3924 20.6186 12.6307 20.8113 12.9356C21.1957 13.5443 21.8696 14.3034 22.8075 15.1641C24.6758 16.8784 27.49 18.9032 30.8074 20.8197C34.1248 22.7362 37.2843 24.1625 39.7021 24.9244C40.916 25.3068 41.9099 25.5112 42.6288 25.54C42.989 25.5545 43.2458 25.5232 43.4146 25.4705ZM30.4948 21.3609C37.1842 25.2255 43.3023 27.1532 44.1601 25.6667C45.0178 24.1802 40.2902 19.8422 33.6008 15.9777C26.9114 12.1131 20.7932 10.1853 19.9355 11.6718C19.0778 13.1584 23.8054 17.4963 30.4948 21.3609Z" fill="#1A71FF"/>
<path fill-rule="evenodd" clip-rule="evenodd" d="M23.1113 14.7531C23.6543 14.7531 24.0945 15.1935 24.0945 15.7368C24.0945 16.2801 23.6543 16.7205 23.1113 16.7205C22.5683 16.7205 22.1281 16.2801 22.1281 15.7368C22.1281 15.1935 22.5683 14.7531 23.1113 14.7531Z" fill="#1A71FF"/>
<path fill-rule="evenodd" clip-rule="evenodd" d="M38.7359 11.3838C39.2792 11.3838 39.7196 11.8242 39.7196 12.3675C39.7196 12.9107 39.2792 13.3512 38.7359 13.3512C38.1926 13.3512 37.7522 12.9107 37.7522 12.3675C37.7522 11.8242 38.1926 11.3838 38.7359 11.3838Z" fill="#1A71FF"/>
<path fill-rule="evenodd" clip-rule="evenodd" d="M30.0662 26.8253C30.6094 26.8253 31.0498 27.2655 31.0498 27.8085C31.0498 28.3515 30.6094 28.7917 30.0662 28.7917C29.5229 28.7917 29.0825 28.3515 29.0825 27.8085C29.0825 27.2655 29.5229 26.8253 30.0662 26.8253Z" fill="#1A71FF"/>
<path fill-rule="evenodd" clip-rule="evenodd" d="M31.9927 16.9953C32.9125 16.9953 33.6581 17.7409 33.6581 18.6607C33.6581 19.5805 32.9125 20.3261 31.9927 20.3261C31.0729 20.3261 30.3273 19.5805 30.3273 18.6607C30.3273 17.7409 31.0729 16.9953 31.9927 16.9953Z" fill="#1A71FF"/>
<mask id="mask0" mask-type="alpha" maskUnits="userSpaceOnUse" x="32" y="0" width="21" height="42">
<path d="M38.5136 41.9177C41.7227 39.8344 44.625 36.1941 46.9975 31.18C50.7009 23.3535 52.7408 12.989 52.7408 1.99634C52.7408 0.962716 51.948 0.125 50.9698 0.125H32V41.9177H38.5136Z" fill="#DBA0FF"/>
</mask>
<g mask="url(#mask0)">
<path fill-rule="evenodd" clip-rule="evenodd" d="M32.2513 5.43145C32.1245 5.31471 32.059 5.3125 32.048 5.3125C32.037 5.3125 31.9715 5.31471 31.8447 5.43145C31.7144 5.55129 31.5588 5.75806 31.3911 6.07709C31.0563 6.71387 30.7359 7.67637 30.4598 8.91833C29.9097 11.3921 29.5641 14.8399 29.5641 18.6693C29.5641 22.4986 29.9097 25.9464 30.4598 28.4202C30.7359 29.6622 31.0563 30.6247 31.3911 31.2615C31.5588 31.5805 31.7144 31.7873 31.8447 31.9071C31.9715 32.0239 32.037 32.0261 32.048 32.0261C32.059 32.0261 32.1245 32.0239 32.2513 31.9071C32.3815 31.7873 32.5372 31.5805 32.7049 31.2615C33.0397 30.6247 33.3601 29.6622 33.6362 28.4202C34.1863 25.9464 34.5319 22.4986 34.5319 18.6693C34.5319 14.8399 34.1863 11.3921 33.6362 8.91833C33.3601 7.67637 33.0397 6.71387 32.7049 6.07709C32.5372 5.75806 32.3815 5.55129 32.2513 5.43145ZM35.1569 18.6693C35.1569 10.9474 33.765 4.6875 32.048 4.6875C30.331 4.6875 28.9391 10.9474 28.9391 18.6693C28.9391 26.3912 30.331 32.6511 32.048 32.6511C33.765 32.6511 35.1569 26.3912 35.1569 18.6693Z" fill="#3147F2"/>
<path fill-rule="evenodd" clip-rule="evenodd" d="M43.6212 12.2259C43.6589 12.0579 43.628 12.0003 43.6227 11.9911C43.6173 11.9818 43.5828 11.9262 43.4181 11.8748C43.249 11.822 42.9919 11.7906 42.6315 11.805C41.9122 11.8336 40.9179 12.0376 39.7035 12.4196C37.2847 13.1804 34.1241 14.6052 30.8057 16.5199C27.4872 18.4346 24.6723 20.4576 22.8036 22.1706C21.8654 23.0306 21.1915 23.7892 20.8071 24.3973C20.6145 24.702 20.5131 24.9401 20.4744 25.1126C20.4367 25.2807 20.4675 25.3382 20.4729 25.3474C20.4783 25.3567 20.5128 25.4123 20.6775 25.4638C20.8466 25.5166 21.1037 25.5479 21.464 25.5336C22.1834 25.5049 23.1777 25.301 24.3921 24.919C26.8109 24.1582 29.9715 22.7334 33.2899 20.8187C36.6083 18.904 39.4233 16.881 41.292 15.168C42.2302 14.308 42.9041 13.5494 43.2885 12.9412C43.4811 12.6366 43.5825 12.3985 43.6212 12.2259ZM33.6023 21.36C40.2938 17.4991 45.0224 13.1645 44.1639 11.6785C43.3054 10.1924 37.1848 12.1176 30.4933 15.9785C23.8018 19.8394 19.0732 24.174 19.9317 25.6601C20.7902 27.1462 26.9108 25.221 33.6023 21.36Z" fill="#3147F2"/>
<path fill-rule="evenodd" clip-rule="evenodd" d="M43.4146 25.4705C43.579 25.4191 43.6134 25.3636 43.6187 25.3544C43.6241 25.3451 43.6549 25.2874 43.6171 25.119C43.5784 24.9462 43.477 24.7079 43.2843 24.4029C42.8999 23.7943 42.226 23.0351 41.2881 22.1745C39.4197 20.4601 36.6055 18.4354 33.2882 16.5189C29.9708 14.6024 26.8113 13.176 24.3935 12.4142C23.1796 12.0317 22.1857 11.8274 21.4668 11.7985C21.1066 11.7841 20.8498 11.8154 20.681 11.8681C20.5166 11.9195 20.4822 11.975 20.4769 11.9842C20.4715 11.9935 20.4407 12.0512 20.4784 12.2196C20.5172 12.3924 20.6186 12.6307 20.8113 12.9356C21.1957 13.5443 21.8696 14.3034 22.8075 15.1641C24.6758 16.8784 27.49 18.9032 30.8074 20.8197C34.1248 22.7362 37.2843 24.1625 39.7021 24.9244C40.916 25.3068 41.9099 25.5112 42.6288 25.54C42.989 25.5545 43.2458 25.5232 43.4146 25.4705ZM30.4948 21.3609C37.1842 25.2255 43.3023 27.1532 44.1601 25.6667C45.0178 24.1802 40.2902 19.8422 33.6008 15.9777C26.9114 12.1131 20.7932 10.1853 19.9355 11.6718C19.0778 13.1584 23.8054 17.4963 30.4948 21.3609Z" fill="#3147F2"/>
<path fill-rule="evenodd" clip-rule="evenodd" d="M38.7359 11.3838C39.2792 11.3838 39.7196 11.8242 39.7196 12.3675C39.7196 12.9107 39.2792 13.3512 38.7359 13.3512C38.1926 13.3512 37.7522 12.9107 37.7522 12.3675C37.7522 11.8242 38.1926 11.3838 38.7359 11.3838Z" fill="#3147F2"/>
<path fill-rule="evenodd" clip-rule="evenodd" d="M31.9927 16.9953C32.9125 16.9953 33.6581 17.7409 33.6581 18.6607C33.6581 19.5805 32.9125 20.3261 31.9927 20.3261C31.0729 20.3261 30.3273 19.5805 30.3273 18.6607C30.3273 17.7409 31.0729 16.9953 31.9927 16.9953Z" fill="#3147F2"/>
</g>
</svg>
