<svg width="64" height="64" viewBox="0 0 64 64" fill="none" xmlns="http://www.w3.org/2000/svg">
<path d="M42.0952 31.375C41.063 31.375 40.2246 30.718 40.2217 29.9055C40.2183 29.0919 41.0547 28.4299 42.0898 28.4276C46.7973 28.4161 51.2758 26.1809 54.7002 22.1336C57.9871 18.249 59.9182 13.1689 60.2124 7.69742H51.9581C50.923 7.69742 50.0841 7.0377 50.0841 6.22371C50.0841 5.40971 50.923 4.75 51.9581 4.75H62.126C63.161 4.75 63.9999 5.40971 63.9999 6.22371C63.9999 12.827 61.8053 19.0569 57.8211 23.7666C53.6818 28.6582 48.0993 31.3604 42.1015 31.375C42.0996 31.375 42.0976 31.375 42.0952 31.375Z" fill="#7C7EAF"/>
<path d="M21.9047 31.375C21.9022 31.375 21.9008 31.375 21.8988 31.375C15.9011 31.3604 10.3182 28.6582 6.17928 23.7666C2.19462 19.0569 0 12.827 0 6.22371C0 5.40971 0.838903 4.75 1.87399 4.75H12.0418C13.0769 4.75 13.9158 5.40971 13.9158 6.22371C13.9158 7.0377 13.0769 7.69742 12.0418 7.69742H3.78751C4.08178 13.1689 6.01287 18.249 9.29967 22.1336C12.7241 26.1809 17.2026 28.4161 21.91 28.4276C22.9451 28.4299 23.7816 29.0919 23.7782 29.9055C23.7753 30.718 22.9368 31.3746 21.9047 31.375Z" fill="#5A98B9"/>
<path d="M50.9709 0.124756H13.0313C12.0535 0.124756 11.2603 0.962472 11.2603 1.99609C11.2603 12.9887 13.3002 23.3532 17.0036 31.1797C19.3765 36.1938 22.2784 39.8337 25.4875 41.9175V52.106C25.4875 53.1397 26.2808 53.9774 27.2585 53.9774H36.7437C37.7219 53.9774 38.5147 53.1397 38.5147 52.106V41.9175C41.7237 39.8342 44.6261 36.1938 46.9985 31.1797C50.702 23.3532 52.7419 12.9887 52.7419 1.99609C52.7419 0.962472 51.9491 0.124756 50.9709 0.124756Z" fill="#34B7C5"/>
<path d="M38.5136 52.106V41.9175C41.7227 39.8342 44.625 36.1938 46.9975 31.1797C50.7009 23.3532 52.7408 12.9887 52.7408 1.99609C52.7408 0.962472 51.948 0.124756 50.9698 0.124756H32V53.9774H36.7426C37.7208 53.9774 38.5136 53.1397 38.5136 52.106Z" fill="#6292B7"/>
<path d="M41.504 51.875H22.4975C18.8991 51.875 15.9712 54.2865 15.9712 57.2502V61.1639C15.9712 61.9708 16.7656 62.625 17.7457 62.625H46.2559C47.236 62.625 48.0303 61.9708 48.0303 61.1639V57.2502C48.0303 54.2865 45.1029 51.875 41.504 51.875Z" fill="#8E6FA9"/>
<path d="M41.5277 51.875H32.0596V64H46.2621C47.2386 64 48.03 63.2621 48.03 62.352V57.9377C48.03 54.5949 45.1133 51.875 41.5277 51.875Z" fill="#A959A1"/>
<path d="M48.1239 63.9993H15.8755C14.8978 63.9993 14.1045 63.1616 14.1045 62.1284C14.1045 61.0948 14.8978 60.2571 15.8755 60.2571H48.1239C49.1021 60.2571 49.8949 61.0948 49.8949 62.1284C49.8949 63.1616 49.1021 63.9993 48.1239 63.9993Z" fill="#4CA4BE"/>
<path d="M48.1242 60.2571H32V63.9993H48.1242C49.1024 63.9993 49.8952 63.1616 49.8952 62.1284C49.8952 61.0948 49.1024 60.2571 48.1242 60.2571Z" fill="#6C8AB4"/>
<g clip-path="url(#clip0)">
<path d="M64.7483 23.5659L58.8104 8.59095C58.5764 8.00077 57.9296 7.72093 57.3658 7.96591C56.802 8.21089 56.5347 8.88792 56.7687 9.4781L63.0429 25.3009C63.2712 25.8768 63.8083 26.2522 64.404 26.2522H65.0954C65.6927 26.2522 66.2308 25.8748 66.4582 25.2967L72.68 9.47497C72.9124 8.88407 72.6432 8.20786 72.0787 7.96461C71.5143 7.72136 70.8683 8.00318 70.6359 8.59408L64.7483 23.5659Z" fill="white"/>
<path d="M29.8999 15.7563L31.9588 10.5638L37.8465 25.5356C38.0788 26.1265 38.7248 26.4083 39.2892 26.165C39.8537 25.9218 40.1229 25.2456 39.8906 24.6547L33.6687 8.83294C33.4414 8.25482 32.9032 7.8775 32.306 7.8775H31.6145C31.0188 7.8775 30.4817 8.25287 30.2534 8.82876L27.5065 15.7563H25.4738C24.8343 15.7563 24.3159 16.299 24.3159 16.9684C24.3159 17.6378 24.8343 18.1805 25.4738 18.1805H26.5452L23.9793 24.6516C23.7453 25.2417 24.0126 25.9188 24.5764 26.1637C25.1401 26.4087 25.7869 26.1289 26.0209 25.5387L28.9386 18.1805H30.8422C31.4817 18.1805 32.0001 17.6378 32.0001 16.9684C32.0001 16.299 31.4817 15.7563 30.8422 15.7563H29.8999Z" fill="white"/>
<path d="M47.2544 18.1805L44.3367 25.5387C44.1027 26.1289 43.4559 26.4087 42.8921 26.1637C42.3284 25.9188 42.061 25.2417 42.2951 24.6516L44.861 18.1805H43.7896C43.1501 18.1805 42.6317 17.6378 42.6317 16.9684C42.6317 16.299 43.1501 15.7563 43.7896 15.7563H45.8222L48.5692 8.82876C48.7975 8.25287 49.3346 7.8775 49.9303 7.8775H50.6218C51.219 7.8775 51.7571 8.25482 51.9845 8.83294L58.2063 24.6547C58.4387 25.2456 58.1695 25.9218 57.605 26.165C57.0406 26.4083 56.3946 26.1265 56.1622 25.5356L50.2746 10.5638L48.2157 15.7563H49.158C49.7975 15.7563 50.3159 16.299 50.3159 16.9684C50.3159 17.6378 49.7975 18.1805 49.158 18.1805H47.2544Z" fill="white"/>
<path d="M76.079 7.9326C75.4831 7.9326 75.0001 8.43828 75.0001 9.06207V25.0125C75.0001 25.6363 75.4831 26.142 76.079 26.142H86.0527C86.6486 26.142 87.1317 25.6363 87.1317 25.0125C87.1317 24.3887 86.6486 23.883 86.0527 23.883H77.158V18.1668H85.158C85.7539 18.1668 86.2369 17.6611 86.2369 17.0373C86.2369 16.4135 85.7539 15.9078 85.158 15.9078H77.158V10.1915H86.0527C86.6486 10.1915 87.1317 9.68587 87.1317 9.06207C87.1317 8.43828 86.6486 7.9326 86.0527 7.9326H76.079Z" fill="white"/>
</g>
<defs>
<clipPath id="clip0">
<rect width="17" height="20" fill="white" transform="translate(23.2217 7.05103)"/>
</clipPath>
</defs>
</svg>
