<svg width="64" height="64" viewBox="0 0 64 64" fill="none" xmlns="http://www.w3.org/2000/svg">
<path d="M42.0952 31.375C41.063 31.375 40.2246 30.718 40.2217 29.9055C40.2183 29.0919 41.0547 28.4299 42.0898 28.4276C46.7973 28.4161 51.2758 26.1809 54.7002 22.1336C57.9871 18.249 59.9182 13.1689 60.2124 7.69742H51.9581C50.923 7.69742 50.0841 7.0377 50.0841 6.22371C50.0841 5.40971 50.923 4.75 51.9581 4.75H62.126C63.161 4.75 63.9999 5.40971 63.9999 6.22371C63.9999 12.827 61.8053 19.0569 57.8211 23.7666C53.6818 28.6582 48.0993 31.3604 42.1015 31.375C42.0996 31.375 42.0976 31.375 42.0952 31.375Z" fill="#DC515A"/>
<path d="M21.9047 31.375C21.9022 31.375 21.9008 31.375 21.8988 31.375C15.9011 31.3604 10.3182 28.6582 6.17928 23.7666C2.19462 19.0569 0 12.827 0 6.22371C0 5.40971 0.838903 4.75 1.87399 4.75H12.0418C13.0769 4.75 13.9158 5.40971 13.9158 6.22371C13.9158 7.0377 13.0769 7.69742 12.0418 7.69742H3.78751C4.08178 13.1689 6.01287 18.249 9.29967 22.1336C12.7241 26.1809 17.2026 28.4161 21.91 28.4276C22.9451 28.4299 23.7816 29.0919 23.7782 29.9055C23.7753 30.718 22.9368 31.3746 21.9047 31.375Z" fill="#EC8289"/>
<path d="M50.9704 0.125H13.0308C12.053 0.125 11.2598 0.962716 11.2598 1.99634C11.2598 12.989 13.2997 23.3535 17.0031 31.1799C19.376 36.1941 22.2779 39.8339 25.487 41.9177V52.1063C25.487 53.1399 26.2803 53.9776 27.258 53.9776H36.7432C37.7214 53.9776 38.5142 53.1399 38.5142 52.1063V41.9177C41.7233 39.8344 44.6256 36.1941 46.9981 31.1799C50.7015 23.3535 52.7414 12.989 52.7414 1.99634C52.7414 0.962716 51.9486 0.125 50.9704 0.125Z" fill="#F8C6C9"/>
<path d="M38.5136 52.1063V41.9177C41.7227 39.8344 44.625 36.1941 46.9975 31.1799C50.7009 23.3535 52.7408 12.989 52.7408 1.99634C52.7408 0.962716 51.948 0.125 50.9698 0.125H32V53.9776H36.7426C37.7208 53.9776 38.5136 53.1399 38.5136 52.1063Z" fill="#F28F96"/>
<path d="M41.5035 51.875H22.497C18.8986 51.875 15.9707 54.2865 15.9707 57.2502V61.1639C15.9707 61.9708 16.7651 62.625 17.7452 62.625H46.2554C47.2355 62.625 48.0299 61.9708 48.0299 61.1639V57.2502C48.0299 54.2865 45.1024 51.875 41.5035 51.875Z" fill="#DC515A"/>
<path d="M41.5277 51.875H32.0596V64H46.2621C47.2386 64 48.03 63.2621 48.03 62.352V57.9377C48.03 54.5949 45.1133 51.875 41.5277 51.875Z" fill="#B12029"/>
<path d="M48.1239 64H15.8755C14.8978 64 14.1045 63.1623 14.1045 62.1291C14.1045 61.0955 14.8978 60.2578 15.8755 60.2578H48.1239C49.1021 60.2578 49.8949 61.0955 49.8949 62.1291C49.8949 63.1623 49.1021 64 48.1239 64Z" fill="#EC8289"/>
<path d="M48.1242 60.2578H32V64H48.1242C49.1024 64 49.8952 63.1623 49.8952 62.1291C49.8952 61.0955 49.1024 60.2578 48.1242 60.2578Z" fill="#D54A53"/>
<g clip-path="url(#clip0)">
<g clip-path="url(#clip1)">
<path d="M36.0839 12.5H20.1885V28.4368H36.0839V12.5ZM35.37 13.2158V27.7211H20.9024V13.2158H35.37Z" fill="#B12029"/>
<path d="M30.7925 17.8906H25.501V23.1959H30.7925V17.8906Z" fill="#B12029"/>
<path d="M30.7925 17.8047H25.501V23.131H30.7925V17.8047Z" fill="#B12029"/>
<path d="M43.9166 23.6993V8.5625L36.8193 12.2046V13.0046L43.3917 9.61513V23.973L43.9166 23.6993Z" fill="#B12029"/>
<path d="M41.4387 20.4769V15.0664L38.667 16.519V21.9296L41.4387 20.4769Z" fill="#B12029"/>
</g>
</g>
<defs>
<clipPath id="clip0">
<rect width="24" height="20" fill="white" transform="translate(20 7)"/>
</clipPath>
<clipPath id="clip1">
<rect width="85.0417" height="20" fill="white" transform="translate(20 7)"/>
</clipPath>
</defs>
</svg>
