<svg width="182" height="182" viewBox="0 0 182 182" fill="none" xmlns="http://www.w3.org/2000/svg">
<path d="M119.708 89.2227C116.772 89.2227 114.388 87.3542 114.38 85.0438C114.37 82.7301 116.749 80.8475 119.692 80.8409C133.079 80.8082 145.815 74.4521 155.553 62.9425C164.9 51.8956 170.392 37.4492 171.229 21.8895H147.755C144.812 21.8895 142.426 20.0135 142.426 17.6987C142.426 15.3839 144.812 13.5078 147.755 13.5078H176.67C179.614 13.5078 181.999 15.3839 181.999 17.6987C181.999 36.4768 175.758 54.193 164.428 67.5863C152.657 81.4969 136.782 89.1812 119.726 89.2227C119.72 89.2227 119.715 89.2227 119.708 89.2227Z" fill="#C468FD"/>
<path d="M62.2914 89.2227C62.2845 89.2227 62.2803 89.2227 62.2748 89.2227C45.2187 89.1812 29.3423 81.4969 17.5723 67.5863C6.24094 54.193 0 36.4768 0 17.6987C0 15.3839 2.38563 13.5078 5.32915 13.5078H34.244C37.1875 13.5078 39.5731 15.3839 39.5731 17.6987C39.5731 20.0135 37.1875 21.8895 34.244 21.8895H10.7707C11.6076 37.4492 17.0991 51.8956 26.4459 62.9425C36.1841 74.4521 48.92 80.8082 62.3067 80.8409C65.2502 80.8475 67.6289 82.7301 67.6192 85.0438C67.6109 87.3542 65.2266 89.2216 62.2914 89.2227Z" fill="#DBA0FF"/>
<path d="M144.949 0.355469H37.0578C34.2774 0.355469 32.0215 2.73772 32.0215 5.67708C32.0215 36.9374 37.8225 66.4114 48.3542 88.668C55.1022 102.927 63.3544 113.278 72.4802 119.204V148.177C72.4802 151.117 74.7361 153.499 77.5166 153.499H104.49C107.272 153.499 109.526 151.117 109.526 148.177V119.204C118.652 113.279 126.906 102.927 133.652 88.668C144.184 66.4114 149.985 36.9374 149.985 5.67708C149.985 2.73772 147.73 0.355469 144.949 0.355469Z" fill="#E9C6FF"/>
<path d="M109.523 148.177V119.204C118.649 113.279 126.902 102.927 133.649 88.668C144.181 66.4114 149.982 36.9374 149.982 5.67708C149.982 2.73772 147.727 0.355469 144.945 0.355469H91V153.499H104.487C107.268 153.499 109.523 151.117 109.523 148.177Z" fill="#DBA0FF"/>
<path d="M118.027 147.52H63.9773C53.7442 147.52 45.418 154.377 45.418 162.805V173.935C45.418 176.229 47.6769 178.09 50.4642 178.09H131.54C134.327 178.09 136.586 176.229 136.586 173.935V162.805C136.586 154.377 128.261 147.52 118.027 147.52Z" fill="#BD59FB"/>
<path d="M118.095 147.52H91.1699V182H131.558C134.335 182 136.586 179.902 136.586 177.313V164.76C136.586 155.254 128.292 147.52 118.095 147.52Z" fill="#882CC0"/>
<path d="M136.852 181.997H45.1457C42.3652 181.997 40.1094 179.615 40.1094 176.677C40.1094 173.738 42.3652 171.355 45.1457 171.355H136.852C139.634 171.355 141.888 173.738 141.888 176.677C141.888 179.615 139.634 181.997 136.852 181.997Z" fill="#DBA0FF"/>
<path d="M136.853 171.355H91V181.997H136.853C139.635 181.997 141.889 179.615 141.889 176.677C141.889 173.738 139.635 171.355 136.853 171.355Z" fill="#C468FD"/>
<path fill-rule="evenodd" clip-rule="evenodd" d="M127.166 53.0829L109.083 21.7628L72.9176 21.7628L54.835 53.0829L72.9176 84.403L109.083 84.403L127.166 53.0829ZM109.959 85.9197L128.917 53.0829L109.959 20.2461L72.042 20.2461L53.0837 53.0829L72.042 85.9197L109.959 85.9197Z" fill="#BB61F5"/>
<mask id="mask0" mask-type="alpha" maskUnits="userSpaceOnUse" x="91" y="0" width="59" height="120">
<path d="M109.523 119.204C118.649 113.279 126.902 102.927 133.649 88.668C144.181 66.4114 149.982 36.9374 149.982 5.67709C149.982 2.73772 147.727 0.355469 144.945 0.355469H91V119.204H109.523Z" fill="#DBA0FF"/>
</mask>
<g mask="url(#mask0)">
<path fill-rule="evenodd" clip-rule="evenodd" d="M127.166 53.0829L109.083 21.7628L72.9176 21.7628L54.835 53.0829L72.9176 84.403L109.083 84.403L127.166 53.0829ZM109.959 85.9197L128.917 53.0829L109.959 20.2461L72.042 20.2461L53.0837 53.0829L72.042 85.9197L109.959 85.9197Z" fill="#882CC0"/>
</g>
</svg>
