<svg fill="none" height="140" viewBox="0 0 140 140" width="140" xmlns="http://www.w3.org/2000/svg" xmlns:xlink="http://www.w3.org/1999/xlink"><linearGradient id="a" gradientUnits="userSpaceOnUse" x1="70" x2="70" y1="0" y2="140"><stop offset="0" stop-color="#1d213e"/><stop offset="1" stop-color="#2e1a3b"/></linearGradient><linearGradient id="b" gradientUnits="userSpaceOnUse" x1="70" x2="70" y1="0" y2="140"><stop offset="0" stop-color="#41417b"/><stop offset="1" stop-color="#5c3577"/></linearGradient><linearGradient id="c" gradientUnits="userSpaceOnUse" x1="23.2373" x2="114.905" y1="79.6843" y2="45.065"><stop offset="0" stop-color="#d898ff"/><stop offset="1" stop-color="#e2bcff"/></linearGradient><circle cx="70" cy="70" fill="url(#a)" r="70"/><path clip-rule="evenodd" d="m140 70c0 38.66-31.34 70-70 70-38.6599 0-70-31.34-70-70 0-38.6599 31.3401-70 70-70 38.66 0 70 31.3401 70 70zm-39.125 60.34c-9.259 4.747-19.7542 7.426-30.875 7.426-6.4899 0-12.7668-.912-18.7093-2.616v-18.129l49.5843-24.7469zm3.883-2.155c2.717-1.627 5.311-3.438 7.764-5.418v-36.3055l-7.764 3.8748zm11.647-8.801c12.261-11.525 20.229-27.5653 21.25-45.4654l-21.25 10.6051zm20.815-58.0304c.034.2701.067.5406.098.8116l-1.232.6152v-1.3687c.375-.0078.753-.027 1.134-.0581zm-.117-.8675c-1.658-1.063-3.253-2.3338-4.782-3.7726-6.65-6.2542-12.032-15.6583-15.916-24.86v-1.9118l-.774.3867.773-.3867-1.941-.9704-.004.002-9.702-4.8512-.001.0002-1.939-.9697-1.942.9704v4.8025c-5.1108 17.5644-9.7827 31.4418-14.3452 41.6154-2.3279 5.1909-4.6239 9.41-6.9306 12.6597-2.3078 3.2513-4.6163 5.5182-6.9639 6.8231-.9391.522-1.8857.8909-2.8435 1.1071-5.4489-5.1408-11.5021-14.0136-18.5011-26.6686v-1.9898l-.6963.3478.6957-.3478-1.9411-.9704-.0039.002-9.7025-4.8513-.0006.0003-1.9397-.9697-1.9411.9704v4.9638c-.3236 1.1011-.6471 2.207-.9716 3.3166l-.001.0033c-3.7685 13.0042-7.7244 26.4108-13.7187 38.4246-1.4093 2.825-2.9319 5.569-4.5927 8.207-8.92691-11.478-14.24316-25.9025-14.24316-41.569 0-37.4261 30.33986-67.76596 67.76596-67.76596 34.197 0 62.478 25.33046 67.103 58.25206zm-120.2592 51.5499c.591.746 1.1974 1.48 1.8187 2.2v-5.207c-.5875 1.016-1.1933 2.019-1.8187 3.007zm2.0053 2.416c1.3328 1.532 2.7333 3.004 4.1969 4.411v-18.323c-.4779 1.033-.9693 2.057-1.4753 3.072-.8627 1.729-1.768 3.428-2.7216 5.093zm4.4571 4.659c-.0246-.023-.0492-.046-.0737-.07v-18.907c1.4874-3.247 2.8437-6.5813 4.1036-9.9662v26.9312zm9.1468 7.311c1.0812.721 2.1844 1.412 3.3082 2.071v-3.722zm7.1909 4.181c2.5034 1.256 5.0953 2.362 7.764 3.306v-14.951l-7.764 3.875zm7.764-61.1112v4.0559l-.5112-.2556c-.1351-.2041-.2705-.4099-.4063-.6174.3072-1.0623.6127-2.1236.9175-3.1829zm0-1.9836c-.1628.5649-.3256 1.1304-.4885 1.6963-.2743.953-.549 1.9072-.8249 2.8619-2.0628-3.1872-4.2093-6.7715-6.4506-10.7547v-.5494l7.764 3.8789zm-1.5189 5.2688c-.3138-.4812-.6294-.9715-.9469-1.471v1.0088l.944.472zm-1.1334 3.8825v-.3311l-4.1544-2.0756v8.9038l1.8903.9452c.7802-2.4693 1.5303-4.954 2.2641-7.4423zm-3.4074 10.9788-.747-.3732v2.5912c.2526-.7372.5015-1.4766.747-2.218zm-.747 3.8986c.4254-1.2108.8398-2.4279 1.2449-3.6498l2.9095 1.4536v8.9054l-4.1544-2.0772zm-.1865-1.1386v-3.2264l-.7708-.385v5.7997c.261-.7269.5178-1.4565.7708-2.1883zm-.7708 3.7999c.2611-.7084.5179-1.4194.7708-2.1327v.3762l-.0216.0591v3.5641l-.7492-.3746zm-3.8827 8.1818v-38.7739c-.1446.4937-.2893.9884-.4342 1.4839l-.002.0069-.0003.0009c-1.1097 3.7946-2.2333 7.6365-3.4186 11.4755v33.7017c1.3876-2.557 2.6654-5.195 3.8551-7.895zm-3.8551 9.037c1.3863-2.491 2.6646-5.06 3.8551-7.688v9.161l-3.8551 1.926zm-.1866-.799v-33.4423c-1.3014 4.1911-2.6796 8.3758-4.1969 12.4888v27.3405l.498-.248c1.3166-1.984 2.5455-4.034 3.6989-6.139zm-2.7219 5.651c.9523-1.473 1.858-2.981 2.7219-4.518v3.158zm13.9926-31.9179c.6048-1.913 1.1912-3.8342 1.7654-5.7579v6.6406zm1.9519-6.3843v.742l.021-.0692v6.6979l2.4448 1.2225v-8.9066l-2.0676-1.0329c-.1322.4488-.2648.8976-.3982 1.3463zm2.4658 29.1062v-3.395l-2.4448-1.221v5.837zm0-7.5007-2.4448-1.2224v-8.9056l2.4448 1.2214zm3.8828 5.5617 2.1468-1.072v-21.0697c-.7062-.8124-1.4216-1.6803-2.1468-2.6037zm0-25.6563c.7303.9473 1.4499 1.8378 2.1594 2.6716v-12.73c-.7101-1.2272-1.4297-2.4954-2.1594-3.8045zm-6.5351-7.2562v-1.2096c-1.3498-2.1336-2.7336-4.4304-4.1544-6.8906v6.023zm-5.1117 27.5777.7492.3748v10.403l-.7492.374zm5.1117 2.5538-4.1544-2.076v10.196l4.1544-2.075zm-4.3409-19.2897v-8.9036l-.7708-.3851v8.9034zm0-13.0122v-6.2534c-.2557-.4443-.5126-.8939-.7708-1.3487v7.2167zm26.1857 18.5731c.8516.9607 1.6893 1.8386 2.5142 2.6337-.8283.1241-1.6656.1355-2.5142.0342zm-4.2902-5.3713c1.405 1.9215 2.7714 3.6415 4.1037 5.1598v2.8554c-.33-.0457-.6616-.1083-.9952-.1879-1.0145-.242-2.0497-.6415-3.1085-1.2009zm-4.3834-6.4459c1.4377 2.2516 2.8354 4.315 4.1969 6.1899v6.7823c-1.358-.7396-2.7549-1.741-4.1969-3.0092zm-4.2901-7.0659c1.4043 2.4186 2.7711 4.6763 4.1036 6.7731v10.0905c-.0801-.0715-.1603-.1438-.2406-.2169-1.2556-1.143-2.542-2.4829-3.863-4.0204zm16.089 22.0928c-.0346-.0319-.0693-.0639-.1039-.0961-.978.1902-1.969.2313-2.9749.1224v5.6035l4.1504-2.073v-2.6112c-.3551-.2994-.7123-.6147-1.0716-.9456zm.5575-.2481c.1734.1575.3461.311.5181.4607v-.6125c-.1723.0553-.345.1059-.5181.1518zm.7047 3.7097v-2.3566c.6314.5234 1.2563.9969 1.8755 1.4199zm0-3.088c.832.7123 1.6484 1.3333 2.4505 1.864l1.7039-.851v-4.2389c-.7382.6021-1.4827 1.1126-2.2349 1.5308-.6348.3528-1.2744.6395-1.9195.8598zm25.8302-9.8135-.857.428c.2856-.5307.5712-1.0762.857-1.6366zm-1.7324.8652c.5861-1.062 1.173-2.1882 1.7614-3.3786v-35.7495c-1.4099 4.4299-2.792 8.5531-4.1545 12.3688v27.9546zm1.9479-.9729v-1.5262c.757-1.5036 1.5152-3.1111 2.2764-4.8221.5201-1.1692 1.042-2.3871 1.565-3.6537v8.0831zm1.765-6.5754c.689-1.5488 1.3804-3.1838 2.0764-4.9051v-39.8858c-1.3061 4.4502-2.5849 8.6583-3.8414 12.6237v35.9574c.5865-1.1996 1.1746-2.4629 1.765-3.7902zm5.9594-12.5513v-1.0303c.244-.683.488-1.3761.734-2.0791v3.4761zm0-2.7075c.245-.6981.491-1.4062.737-2.1245v-3.703l-.737-.3683zm.924 3.1694v-4.1188c.461-1.3283.924-2.6919 1.39-4.0906l2.803 1.4005v8.9054zm0-5.8389c.294-.8601.588-1.7344.884-2.6231l-.884-.4417zm4.193-5.0769-1.645-.8224c.544-1.6812 1.092-3.4094 1.645-5.1843zm-2.151-1.0755c.71-2.1978 1.428-4.476 2.155-6.8348v-.9932l-4.197-2.0967v8.9037zm2.341 1.1708v-6.7144c.195-.6271.39-1.26.586-1.8987l1.871.9349v8.9065zm0-8.6123.078-.2543-.078-.039zm2.457-3.1717-.789-.3948c.262-.8727.525-1.7554.789-2.6483zm-1.297-.6488c.429-1.4305.861-2.8882 1.297-4.3732v-3.8845l-7.764-3.8788v.9952c1.532 3.5288 3.251 7.0904 5.158 10.487zm-57.5883 63.5938 4.1036-2.05v-14.5624c-.2052-.1777-.411-.3606-.6175-.5485-1.1379-1.0359-2.299-2.2295-3.4861-3.5809zm8.6735-4.3322 4.1037-2.0497v-5.7478c-.373-.0489-.748-.1183-1.1251-.2082-.9805-.2339-1.9726-.6061-2.9786-1.1152zm50.2118-41.4947-2.457-1.2274v8.9055l2.457 1.2284zm0 13.0123-2.457-1.2274v5.8572l2.457-1.2271zm6.031.3907-2.148 1.0726v-22.2515c.699.8455 1.415 1.6572 2.148 2.4295zm-.001-19.568c-.733-.794-1.448-1.6279-2.147-2.4961v-16.2007c.674 1.5469 1.39 3.0968 2.147 4.6336zm-13.794-10.7261v8.9034l.737.3686v-8.9037zm.734 26.3909v10.4268l-.734.3663v-11.1595zm4.383 2.19-4.193-2.0948v10.2365l4.193-2.0943zm-4.193-37.1784c1.04 2.2326 2.156 4.4575 3.348 6.6243l-3.348-1.6739zm-.187-.4023v5.2595l-.737-.3686v-6.5177c.242.5421.487 1.0846.737 1.6268zm17.348 23.7228v-10.2954c-1.477-2.3766-2.846-4.863-4.104-7.3882v13.8875c.314.3356.631.6638.951.9842 1.02 1.0217 2.071 1.9635 3.153 2.8119zm.186-9.9967v10.1418c1.351 1.0426 2.75 1.939 4.197 2.6631v-6.8294c-1.481-1.8705-2.881-3.8787-4.197-5.9755zm4.384 6.2098v6.6873c1.327.6488 2.695 1.1523 4.103 1.4903v-3.6386c-1.429-1.3829-2.797-2.907-4.103-4.539zm4.29 4.7184v3.503c1.361.3118 2.76.4688 4.197.453v-.5006c-1.368-.95-2.69-2.0357-3.963-3.2333-.078-.0736-.156-.1476-.234-.2221zm4.383 3.5839v.3691c.174-.0037.349-.01.525-.0188-.176-.1146-.351-.2313-.525-.3503zm-.186.9323v1.4589l-4.197 2.0963v-3.9948c1.361.3024 2.76.455 4.197.4396zm-4.384-.482v4.1303l-4.103 2.0497v-7.6255c1.326.629 2.694 1.1175 4.103 1.4455zm-4.29-1.535v7.8082l-4.197 2.0962v-12.4882c1.35 1.0109 2.749 1.8809 4.197 2.5838zm-4.383-2.7246v12.7222l-4.104 2.0496v-18.4609c.184.1912.369.3799.554.566 1.142 1.1434 2.325 2.1911 3.55 3.1231zm-30.3369 27.8746v-27.5269c-1.4025 3.9041-2.7844 7.4815-4.1544 10.7313v18.8706zm-4.341 2.1682v-18.5232c-.3756.8836-.7505 1.7426-1.1246 2.5769-1.013 2.2589-2.0218 4.3383-3.0298 6.2374v11.7839zm-4.3409 2.1682v-11.5278c-1.2545 2.3359-2.5083 4.3923-3.7686 6.1678-.1285.181-.2571.3592-.3858.5345v6.9005zm-4.341 2.1682v-6.7418c-1.3691 1.8335-2.7506 3.3411-4.1544 4.517v4.2998zm-17.3638 8.6728v-9.3143c-1.3575-.7091-2.7404-1.6664-4.1544-2.8683v14.2575z" fill="url(#b)" fill-rule="evenodd"/><path d="m35.2462 79.1612h-12.0089v-3.5689l28.9491-6.1936c-2.2066 5.8314-8.1572 9.7625-16.9402 9.7625z" fill="url(#c)"/><path d="m52.8986 66.7589c.1599-.9029.2411-1.839.2411-2.8026v-.0861c0-8.6915-6.519-14.8761-17.7137-14.8761h-12.1887v24.1108l8.7329-1.8664v-14.898h3.5457c5.2602 0 8.722 2.8398 8.722 7.6588v.0861c0 1.9955-.5831 3.6359-1.6344 4.8765z" fill="url(#c)"/><path d="m54.0466 68.9627c.6524 6.4195 5.8299 10.6985 12.9685 10.6985 4.8105 0 8.1824-1.8932 10.5203-4.733l-4.7207-3.7433c-1.7534 1.635-3.3269 2.3665-5.395 2.3665-2.6526 0-4.5858-1.2679-5.2602-3.8065h16.2751c.0449-.5594.0449-1.1847.0449-1.701 0-1.4574-.1754-2.8718-.5324-4.1955l-7.4393 1.5919c.005.0358.0096.0718.014.108h-.5187z" fill="url(#c)"/><path d="m62.2012 64.7683-8.1897 1.7525c.4556-6.336 5.3894-11.213 12.2393-11.213 5.5141 0 9.0733 2.5631 10.8582 6.2705l-7.405 1.5846c-.7536-1.1606-1.9559-1.8313-3.4532-1.8313-2.0123 0-3.4481 1.3102-4.0496 3.4367z" fill="url(#c)"/><path d="m80.4563 63.3699v15.7913h8.7273v-10.7242h14.8334v-6.975h-14.6815z" fill="url(#c)"/><path d="m89.1836 59.0008-8.7273 1.8663v-11.873h25.1977v6.4856l-3.837.8382h-12.6334z" fill="url(#c)"/><path d="m107.656 57.5386v21.6226h8.733v-21.6226z" fill="url(#c)"/><path d="m116.389 53.1861-8.733 1.8663v-6.0583h8.733z" fill="url(#c)"/><g fill="#fff"><path d="m23.2578 90.9149h1.6491v-2.1738h2.1166v2.1738h1.6491v-5.7204h-1.6491v2.141h-2.1166v-2.141h-1.6491z"/><path d="m34.0435 90.9149h1.7256l.425-1.0297h2.3036l.425 1.0297h1.7681l-2.5331-5.7613h-1.5896zm2.6351-2.2637.6716-1.618.663 1.618z"/><path d="m48.5197 91.0293c1.309 0 2.0656-.5475 2.6266-1.2912l-1.2411-.8499c-.357.4168-.7225.6946-1.343.6946-.8331 0-1.4196-.6701-1.4196-1.5281v-.0164c0-.8335.5865-1.52 1.4196-1.52.5695 0 .9605.2697 1.3005.6701l1.2411-.9234c-.527-.6946-1.3091-1.1849-2.5246-1.1849-1.8021 0-3.1282 1.3075-3.1282 2.9746v.0163c0 1.708 1.3686 2.9583 3.0687 2.9583z"/><path d="m56.6243 90.9149h1.6491v-1.4873l.6035-.6374 1.5046 2.1247h1.9721l-2.3291-3.2688 2.2526-2.4516h-1.9551l-2.0486 2.3208v-2.3208h-1.6491z"/><path d="m66.9603 90.9149h1.7255l.4251-1.0297h2.3036l.425 1.0297h1.7681l-2.5331-5.7613h-1.5896zm2.6351-2.2637.6715-1.618.6631 1.618z"/><path d="m79.635 90.9149h1.6491v-4.3312h1.7851v-1.3892h-5.2108v1.3892h1.7766z"/><path d="m88.5797 90.9149h1.649v-2.1738h2.1166v2.1738h1.6491v-5.7204h-1.6491v2.141h-2.1166v-2.141h-1.649z"/><path d="m102.382 91.0293c1.836 0 3.213-1.3321 3.213-2.9746v-.0164c0-1.6425-1.36-2.9582-3.196-2.9582s-3.2131 1.332-3.2131 2.9746v.0163c0 1.6426 1.3601 2.9583 3.1961 2.9583zm.017-1.4301c-.909 0-1.53-.7192-1.53-1.5445v-.0164c0-.8253.604-1.5281 1.513-1.5281.91 0 1.522.7109 1.522 1.5445v.0163c0 .8254-.604 1.5282-1.505 1.5282z"/><path d="m110.755 90.9149h1.632v-3.1381l2.55 3.1381h1.436v-5.7204h-1.632v3.0236l-2.448-3.0236h-1.538z"/></g></svg>