<svg fill="none" height="486" viewBox="0 0 1026 486" width="1026" xmlns="http://www.w3.org/2000/svg" xmlns:xlink="http://www.w3.org/1999/xlink"><linearGradient id="a" gradientUnits="userSpaceOnUse" x1=".999986" x2="1019.03" y1="353" y2="-15.4933"><stop offset="0" stop-color="#d898ff"/><stop offset="1" stop-color="#e2bcff"/></linearGradient><path d="m133.012 347h-132.012v-40.934l318.234-71.036c-24.258 66.883-89.672 111.97-186.222 111.97z" fill="url(#a)"/><path d="m327.063 204.753c1.757-10.356 2.65-21.093 2.65-32.145v-.987c0-99.687-71.663-170.621-194.724-170.621h-133.989v276.537l96-21.406v-170.8725h38.977c57.824 0 95.88 32.5715 95.88 87.8435v.987c0 22.887-6.411 41.702-17.968 55.931z" fill="url(#a)"/><path d="m339.683 230.029c7.17 73.628 64.086 122.707 142.56 122.707 52.882 0 89.948-21.714 115.648-54.285l-51.893-42.935c-19.275 18.753-36.573 27.143-59.307 27.143-29.16 0-50.411-14.542-57.825-43.659h178.91c.494-6.415.494-13.587.494-19.509 0-16.716-1.929-32.939-5.853-48.12l-81.779 18.258c.054.411.106.823.154 1.239h-5.703z" fill="url(#a)"/><path d="m429.325 181.922-90.029 20.099c5.008-72.67 59.245-128.6065 134.545-128.6065 60.615 0 99.742 29.3975 119.363 71.9195l-81.402 18.174c-8.285-13.311-21.501-21.003-37.961-21.003-22.121 0-37.905 15.027-44.516 39.417z" fill="url(#a)"/><path d="m630 165.882v181.118h95.938v-123h163.062v-80h-161.392z" fill="url(#a)"/><path d="m725.938 115.771-95.938 21.406v-136.177h277v74.3861l-42.185 9.6139h-138.877z" fill="url(#a)"/><path d="m929 99v248h96v-248z" fill="url(#a)"/><path d="m1025 49.0794-96 21.406v-69.4854h96z" fill="url(#a)"/><g fill="#fff"><path d="m1.23074 481.818h18.12806v-24.932h23.2674v24.932h18.128v-65.61h-18.128v24.557h-23.2674v-24.557h-18.12806z"/><path d="m119.796 481.818h18.969l4.673-11.81h25.323l4.672 11.81h19.436l-27.846-66.079h-17.474zm28.968-25.963 7.382-18.558 7.289 18.558z"/><path d="m278.931 483.13c14.39 0 22.706-6.28 28.874-14.809l-13.643-9.748c-3.925 4.78-7.943 7.967-14.764 7.967-9.158 0-15.605-7.686-15.605-17.527v-.188c0-9.56 6.447-17.433 15.605-17.433 6.261 0 10.559 3.093 14.297 7.686l13.642-10.592c-5.793-7.967-14.39-13.59-27.752-13.59-19.81 0-34.387 14.996-34.387 34.117v.187c0 19.59 15.044 33.93 33.733 33.93z"/><path d="m368.024 481.818h18.128v-17.059l6.634-7.311 16.54 24.37h21.679l-25.604-37.492 24.763-28.118h-21.492l-22.52 26.619v-26.619h-18.128z"/><path d="m481.645 481.818h18.969l4.673-11.81h25.323l4.672 11.81h19.436l-27.846-66.079h-17.474zm28.968-25.963 7.382-18.558 7.289 18.558z"/><path d="m620.977 481.818h18.128v-49.676h19.623v-15.934h-57.281v15.934h19.53z"/><path d="m719.304 481.818h18.128v-24.932h23.268v24.932h18.128v-65.61h-18.128v24.557h-23.268v-24.557h-18.128z"/><path d="m871.032 483.13c20.184 0 35.322-15.278 35.322-34.117v-.188c0-18.839-14.951-33.929-35.135-33.929-20.183 0-35.321 15.277-35.321 34.117v.187c0 18.84 14.951 33.93 35.134 33.93zm.187-16.402c-9.998 0-16.819-8.249-16.819-17.715v-.188c0-9.466 6.634-17.527 16.632-17.527 9.999 0 16.727 8.155 16.727 17.715v.187c0 9.467-6.635 17.528-16.54 17.528z"/><path d="m963.069 481.818h17.942v-35.992l28.029 35.992h15.8v-65.61h-17.95v34.679l-26.907-34.679h-16.914z"/></g></svg>