<svg width="1778" height="279" fill="none" xmlns="http://www.w3.org/2000/svg"><path d="M477 108v53l-21.5 25v-53l21.5-25z" fill="#9359B6"/><path d="M408.5 186L387 161v-53l21.5 25v53z" fill="#57167E"/><path d="M455.5 133h-47v21h47v-21z" fill="#71309A"/><path d="M477 108l-21.5-25h-47L387 108l21.5 25h47l21.5-25z" fill="#632888"/><path d="M459 135l6-7v3l-6 7v-3zm-54 12l-6-7v3l6 7v-3zm-9-14l-6-7v3l6 7v-3zm0 30l-6-7v3l6 7v-3zm19-16h14v3h-14v-3z" fill="#DBA0FF" opacity=".6"/><path d="M173 25v136l-21.5 25V50L173 25z" fill="#2262CA"/><path d="M104.5 50v136L83 161V25l21.5 25z" fill="#263079"/><path d="M151.5 50h-47v136h47V50z" fill="#2736AF"/><path d="M173 25L151.5 0h-47L83 25l21.5 25h47L173 25z" fill="#1E2A82"/><path d="M155 52l6-7v3l-6 7v-3zm9 14l6-7v3l-6 7v-3zm-9 41l6-7v3l-6 7v-3zm9 0l6-7v3l-6 7v-3zm0-15l6-7v3l-6 7v-3zm-63-28l-6-7v3l6 7v-3zm-9-14l-6-7v3l6 7v-3zm9 64l-6-7v3l6 7v-3zm-9-27l-6-7v3l6 7v-3zm0-7l-6-7v3l6 7v-3zm19-16h14v3h-14v-3zm0 27h14v3h-14v-3zm20-23h14v3h-14v-3zm0 11h14v3h-14v-3zm0 22h14v3h-14v-3zm-20 13h14v3h-14v-3zm44 12l6-7v3l-6 7v-3zm-54 12l-6-7v3l6 7v-3zm-9-14l-6-7v3l6 7v-3zm19 14h14v3h-14v-3zm0 27h14v3h-14v-3zm20-23h14v3h-14v-3zm0 11h14v3h-14v-3zm0 22h14v3h-14v-3z" fill="#7EB0FF" opacity=".6"/><path d="M553 107v83l-21.5 25v-83l21.5-25z" fill="#9359B6"/><path d="M484.5 215L463 190v-83l21.5 25v83z" fill="#57167E"/><path d="M531.5 132h-47v83h47v-83z" fill="#71309A"/><path d="M553 107l-21.5-25h-47L463 107l21.5 25h47l21.5-25z" fill="#632888"/><path d="M535 134l6-7v3l-6 7v-3zm0 55l6-7v3l-6 7v-3zm-54-43l-6-7v3l6 7v-3zm-9-14l-6-7v3l6 7v-3zm9 64l-6-7v3l6 7v-3zm-9-27l-6-7v3l6 7v-3zm0-7l-6-7v3l6 7v-3zm19-16h14v3h-14v-3zm0 27h14v3h-14v-3zm20-23h14v3h-14v-3zm0 11h14v3h-14v-3zm0 22h14v3h-14v-3zm-20 13h14v3h-14v-3z" fill="#DBA0FF" opacity=".6"/><path d="M1617 65v91l-21.5 25V90l21.5-25z" fill="#2262CA"/><path d="M1548.5 181l-21.5-25V65l21.5 25v91z" fill="#263079"/><path d="M1595.5 90h-47v91h47V90z" fill="#2736AF"/><path d="M1617 65l-21.5-25h-47L1527 65l21.5 25h47l21.5-25z" fill="#1E2A82"/><path d="M1599 92l6-7v3l-6 7v-3zm9 14l6-7v3l-6 7v-3zm-9 41l6-7v3l-6 7v-3zm9 0l6-7v3l-6 7v-3zm0-15l6-7v3l-6 7v-3zm-63-28l-6-7v3l6 7v-3zm-9-14l-6-7v3l6 7v-3zm9 64l-6-7v3l6 7v-3zm-9-27l-6-7v3l6 7v-3zm0-7l-6-7v3l6 7v-3zm19-16h14v3h-14v-3zm0 27h14v3h-14v-3zm20-23h14v3h-14v-3zm0 11h14v3h-14v-3zm0 22h14v3h-14v-3z" fill="#7EB0FF" opacity=".6"/><path d="M1771 105v36l-21.5 25v-36l21.5-25z" fill="#2262CA"/><path d="M1702.5 130v36l-21.5-25v-36l21.5 25z" fill="#263079"/><path d="M1749.5 130h-47v36h47v-36z" fill="#2736AF"/><path d="M1771 105l-21.5-25h-47l-21.5 25 21.5 25h47l21.5-25z" fill="#1E2A82"/><path d="M1753 132l6-7v3l-6 7v-3zm9 14l6-7v3l-6 7v-3zm-63-2l-6-7v3l6 7v-3zm-9-14l-6-7v3l6 7v-3zm19 14h14v3h-14v-3zm20 4h14v3h-14v-3zm0 11h14v3h-14v-3z" fill="#7EB0FF" opacity=".6"/><path d="M1695 124v37l-21.5 25v-37l21.5-25z" fill="#9359B6"/><path d="M1626.5 186l-21.5-25v-37l21.5 25v37z" fill="#57167E"/><path d="M1695 124l-21.5-25h-47l-21.5 25 21.5 25h47l21.5-25z" fill="#632888"/><path d="M1677 151l6-7v3l-6 7v-3z" fill="#B173D7"/><path d="M1771 163v27l-21.5 25v-27l21.5-25z" fill="#9359B6"/><path d="M1702.5 215l-21.5-25v-27l21.5 25v27z" fill="#57167E"/><path d="M1749.5 188h-47v27h47v-27z" fill="#71309A"/><path d="M1771 163l-21.5-25h-47l-21.5 25 21.5 25h47l21.5-25z" fill="#632888"/><path d="M1753 190l6-7v3l-6 7v-3zm-54 12l-6-7v3l6 7v-3zm10 0h14v3h-14v-3zm20 4h14v3h-14v-3z" fill="#DBA0FF" opacity=".6"/><path d="M1085 57h-22v110h22V57z" fill="#2262CA"/><path d="M1017 57h-22v110h22V57z" fill="#263079"/><path d="M1063.5 82h-47v74h47V82z" fill="#2736AF"/><path d="M1085 57l-21.5-25h-47L995 57l21.5 25h47l21.5-25z" fill="#1E2A82"/><path d="M1067 84l6-7v3l-6 7v-3zm9 14l6-7v3l-6 7v-3zm-9 41l6-7v3l-6 7v-3zm-54-43l-6-7v3l6 7v-3zm0 50l-6-7v3l6 7v-3zm10-50h14v3h-14v-3zm0 27h14v3h-14v-3zm20-23h14v3h-14v-3zm0 11h14v3h-14v-3zm0 22h14v3h-14v-3zm-20 13h14v3h-14v-3zm44 12l6-7v3l-6 7v-3z" fill="#7EB0FF" opacity=".6"/><path d="M864.5 186L843 161v-24l21.5 25v24z" fill="#263079"/><path d="M933 137v24l-21.5 25v-24l21.5-25z" fill="#2262CA"/><path d="M911.5 162h-47v24h47v-24z" fill="#2736AF"/><path d="M933 137l-21.5-25h-47L843 137l21.5 25h47l21.5-25z" fill="#1E2A82"/><path d="M915 164l6-7v3l-6 7v-3zm-54 12l-6-7v3l6 7v-3zm10 0h14v3h-14v-3zm20 4h14v3h-14v-3z" fill="#7EB0FF" opacity=".6"/><path d="M781 161v-42l-21.5 25v42l21.5-25z" fill="#2262CA"/><path d="M691 161l21.5 25v-42L691 119v42z" fill="#263079"/><path d="M759.5 144h-47v42h47v-42z" fill="#2736AF"/><path d="M781 119l-21.5-25h-47L691 119l21.5 25h47l21.5-25z" fill="#1E2A82"/><path d="M763 146l6-7v3l-6 7v-3zm-54 12l-6-7v3l6 7v-3zm10 0h14v3h-14v-3zm20 4h14v3h-14v-3zm0 11h14v3h-14v-3z" fill="#7EB0FF" opacity=".6"/><path d="M325 162v-42l-21.5 25v42l21.5-25z" fill="#2262CA"/><path d="M235 162l21.5 25v-42L235 120v42z" fill="#263079"/><path d="M303.5 145h-47v42h47v-42z" fill="#2736AF"/><path d="M325 120l-21.5-25h-47L235 120l21.5 25h47l21.5-25z" fill="#1E2A82"/><path d="M307 147l6-7v3l-6 7v-3zm-54 12l-6-7v3l6 7v-3zm10 0h14v3h-14v-3zm20 4h14v3h-14v-3zm0 11h14v3h-14v-3z" fill="#7EB0FF" opacity=".6"/><path d="M401 154v36l-21.5 25v-36l21.5-25z" fill="#2262CA"/><path d="M332.5 179v36L311 190v-36l21.5 25z" fill="#263079"/><path d="M379.5 179h-47v36h47v-36z" fill="#2736AF"/><path d="M401 154l-21.5-25h-47L311 154l21.5 25h47l21.5-25z" fill="#1E2A82"/><path d="M383 181l6-7v3l-6 7v-3zm9 14l6-7v3l-6 7v-3zm-63-2l-6-7v3l6 7v-3zm-9-14l-6-7v3l6 7v-3zm19 14h14v3h-14v-3zm20 4h14v3h-14v-3zm0 11h14v3h-14v-3z" fill="#7EB0FF" opacity=".6"/><path d="M857 132v58l-21.5 25v-58l21.5-25z" fill="#2262CA"/><path d="M788.5 215L767 190v-58l21.5 25v58z" fill="#263079"/><path d="M835.5 157h-47v58h47v-58z" fill="#2736AF"/><path d="M857 132l-21.5-25h-47L767 132l21.5 25h47l21.5-25z" fill="#1E2A82"/><path d="M839 159l6-7v3l-6 7v-3zm9 14l6-7v3l-6 7v-3zm-63-2l-6-7v3l6 7v-3zm-9-14l-6-7v3l6 7v-3zm0 37l-6-7v3l6 7v-3zm0-7l-6-7v3l6 7v-3zm19-16h14v3h-14v-3zm20 4h14v3h-14v-3z" fill="#7EB0FF" opacity=".6"/><path d="M705 152v38l-21.5 25v-38l21.5-25z" fill="#9359B6"/><path d="M636.5 215L615 190v-38l21.5 25v38z" fill="#57167E"/><path d="M683.5 177h-47v38h47v-38z" fill="#71309A"/><path d="M705 152l-21.5-25h-47L615 152l21.5 25h47l21.5-25z" fill="#632888"/><path d="M687 179l6-7v3l-6 7v-3zm9 14l6-7v3l-6 7v-3zm-63-2l-6-7v3l6 7v-3zm10 0h14v3h-14v-3zm20 4h14v3h-14v-3zm0 11h14v3h-14v-3z" fill="#DBA0FF" opacity=".6"/><path d="M477 176v43l-21.5 25v-43l21.5-25z" fill="#9359B6"/><path d="M408.5 244L387 219v-43l21.5 25v43z" fill="#57167E"/><path d="M455.5 201h-47v43h47v-43z" fill="#71309A"/><path d="M477 176l-21.5-25h-47L387 176l21.5 25h47l21.5-25z" fill="#632888"/><path d="M459 203l6-7v3l-6 7v-3zm9 14l6-7v3l-6 7v-3zm-63-2l-6-7v3l6 7v-3zm-9-14l-6-7v3l6 7v-3zm19 14h14v3h-14v-3zm0 23h14v3h-14v-3zm20-19h14v3h-14v-3zm0 11h14v3h-14v-3z" fill="#DBA0FF" opacity=".6"/><path d="M1389 36v125l-21.5 25V61l21.5-25z" fill="#9359B6"/><path d="M1320.5 186l-21.5-25V36l21.5 25v125z" fill="#57167E"/><path d="M1367.5 61h-47v125h47V61z" fill="#71309A"/><path d="M1389 36l-21.5-25h-47L1299 36l21.5 25h47l21.5-25z" fill="#632888"/><path d="M1371 63l6-7v3l-6 7v-3zm9 14l6-7v3l-6 7v-3zm-9 41l6-7v3l-6 7v-3zm9 0l6-7v3l-6 7v-3zm0-15l6-7v3l-6 7v-3zm-63-28l-6-7v3l6 7v-3zm-9-14l-6-7v3l6 7v-3zm9 64l-6-7v3l6 7v-3zm-9-27l-6-7v3l6 7v-3zm0-7l-6-7v3l6 7v-3zm19-16h14v3h-14v-3zm0 27h14v3h-14v-3zm20-23h14v3h-14v-3zm0 11h14v3h-14v-3zm0 22h14v3h-14v-3zm-20 13h14v3h-14v-3zm44 12l6-7v3l-6 7v-3zm-54 12l-6-7v3l6 7v-3zm-9-14l-6-7v3l6 7v-3zm19 14h14v3h-14v-3zm0 27h14v3h-14v-3zm20-23h14v3h-14v-3zm0 11h14v3h-14v-3z" fill="#DBA0FF" opacity=".6"/><path d="M1465 83v92l-21.5 25v-92l21.5-25z" fill="#2262CA"/><path d="M1396.5 200l-21.5-25V83l21.5 25v92z" fill="#263079"/><path d="M1443.5 108h-47v92h47v-92z" fill="#2736AF"/><path d="M1465 83l-21.5-25h-47L1375 83l21.5 25h47l21.5-25z" fill="#1E2A82"/><path d="M1447 110l6-7v3l-6 7v-3zm-54 12l-6-7v3l6 7v-3zm-9-14l-6-7v3l6 7v-3zm0 37l-6-7v3l6 7v-3zm0-7l-6-7v3l6 7v-3zm19-16h14v3h-14v-3zm20 4h14v3h-14v-3z" fill="#7EB0FF" opacity=".6"/><path d="M1541 113v106l-21.5 25V138l21.5-25z" fill="#9359B6"/><path d="M1472.5 244l-21.5-25V113l21.5 25v106z" fill="#57167E"/><path d="M1519.5 138h-47v106h47V138z" fill="#71309A"/><path d="M1541 113l-21.5-25h-47l-21.5 25 21.5 25h47l21.5-25z" fill="#632888"/><path d="M1523 140l6-7v3l-6 7v-3zm0 55l6-7v3l-6 7v-3zm-54-43l-6-7v3l6 7v-3zm-9-14l-6-7v3l6 7v-3zm9 64l-6-7v3l6 7v-3zm10-50h14v3h-14v-3zm0 27h14v3h-14v-3zm20-23h14v3h-14v-3zm0 11h14v3h-14v-3zm0 22h14v3h-14v-3zm-20 13h14v3h-14v-3zm44 12l6-7v3l-6 7v-3zm-54 12l-6-7v3l6 7v-3zm10 0h14v3h-14v-3zm20 4h14v3h-14v-3zm0 11h14v3h-14v-3z" fill="#DBA0FF" opacity=".6"/><path d="M1237 107v48l-21.5 25v-48l21.5-25z" fill="#9359B6"/><path d="M1168.5 180l-21.5-25v-48l21.5 25v48z" fill="#57167E"/><path d="M1215.5 132h-47v48h47v-48z" fill="#71309A"/><path d="M1237 107l-21.5-25h-47l-21.5 25 21.5 25h47l21.5-25z" fill="#632888"/><path d="M1219 134l6-7v3l-6 7v-3zm-54 12l-6-7v3l6 7v-3zm-9-14l-6-7v3l6 7v-3zm19 14h14v3h-14v-3zm0 27h14v3h-14v-3zm20-23h14v3h-14v-3zm0 11h14v3h-14v-3z" fill="#DBA0FF" opacity=".6"/><path d="M1695 169v50l-21.5 25v-50l21.5-25z" fill="#2262CA"/><path d="M1626.5 244l-21.5-25v-50l21.5 25v50z" fill="#263079"/><path d="M1673.5 194h-47v50h47v-50z" fill="#2736AF"/><path d="M1695 169l-21.5-25h-47l-21.5 25 21.5 25h47l21.5-25z" fill="#1E2A82"/><path d="M1677 196l6-7v3l-6 7v-3zm9 14l6-7v3l-6 7v-3zm-63-2l-6-7v3l6 7v-3zm10 0h14v3h-14v-3zm0 27h14v3h-14v-3zm20-23h14v3h-14v-3zm0 11h14v3h-14v-3z" fill="#5991EA"/><path d="M1617 149v100l-21.5 25V174l21.5-25z" fill="#9359B6"/><path d="M1548.5 274l-21.5-25V149l21.5 25v100z" fill="#57167E"/><path d="M1595.5 174h-47v100h47V174z" fill="#71309A"/><path d="M1617 149l-21.5-25h-47l-21.5 25 21.5 25h47l21.5-25z" fill="#632888"/><path d="M1599 176l6-7v3l-6 7v-3zm9 14l6-7v3l-6 7v-3zm-9 41l6-7v3l-6 7v-3zm9 0l6-7v3l-6 7v-3zm0-15l6-7v3l-6 7v-3zm-63-28l-6-7v3l6 7v-3zm-9-14l-6-7v3l6 7v-3zm9 64l-6-7v3l6 7v-3zm-9-27l-6-7v3l6 7v-3zm0-7l-6-7v3l6 7v-3zm19-16h14v3h-14v-3zm0 27h14v3h-14v-3zm20-23h14v3h-14v-3zm0 11h14v3h-14v-3zm0 22h14v3h-14v-3zm-20 13h14v3h-14v-3zm44 12l6-7v3l-6 7v-3zm-54 12l-6-7v3l6 7v-3zm-9-14l-6-7v3l6 7v-3zm19 14h14v3h-14v-3zm20 4h14v3h-14v-3z" fill="#DBA0FF" opacity=".6"/><path d="M1313 156v34l-21.5 25v-34l21.5-25z" fill="#9359B6"/><path d="M1244.5 215l-21.5-25v-34l21.5 25v34z" fill="#57167E"/><path d="M1291.5 181h-47v34h47v-34z" fill="#71309A"/><path d="M1313 156l-21.5-25h-47l-21.5 25 21.5 25h47l21.5-25z" fill="#632888"/><path d="M1295 183l6-7v3l-6 7v-3zm9 11l6-7v3l-6 7v-3zm-63 1l-6-7v3l6 7v-3zm10 0h14v3h-14v-3zm20 4h14v3h-14v-3zm0 9h14v3h-14v-3z" fill="#DBA0FF" opacity=".6"/><path d="M1237 169v50l-21.5 25v-50l21.5-25z" fill="#9359B6"/><path d="M1168.5 244l-21.5-25v-50l21.5 25v50z" fill="#57167E"/><path d="M1215.5 194h-47v50h47v-50z" fill="#71309A"/><path d="M1237 169l-21.5-25h-47l-21.5 25 21.5 25h47l21.5-25z" fill="#632888"/><path d="M1219 196l6-7v3l-6 7v-3zm9 14l6-7v3l-6 7v-3zm-63-2l-6-7v3l6 7v-3zm10 0h14v3h-14v-3zm0 27h14v3h-14v-3zm20-23h14v3h-14v-3zm0 11h14v3h-14v-3z" fill="#DBA0FF" opacity=".6"/><path d="M1389 169v50l-21.5 25v-50l21.5-25z" fill="#9359B6"/><path d="M1320.5 244l-21.5-25v-50l21.5 25v50z" fill="#57167E"/><path d="M1367.5 194h-47v50h47v-50z" fill="#71309A"/><path d="M1389 169l-21.5-25h-47l-21.5 25 21.5 25h47l21.5-25z" fill="#632888"/><path d="M1371 196l6-7v3l-6 7v-3zm9 14l6-7v3l-6 7v-3zm-63-2l-6-7v3l6 7v-3zm10 0h14v3h-14v-3zm0 27h14v3h-14v-3zm20-23h14v3h-14v-3zm0 11h14v3h-14v-3z" fill="#DBA0FF" opacity=".6"/><path d="M1009 107v83l-21.5 25v-83l21.5-25z" fill="#9359B6"/><path d="M940.5 215L919 190v-83l21.5 25v83z" fill="#57167E"/><path d="M987.5 132h-47v83h47v-83z" fill="#71309A"/><path d="M1009 107l-21.5-25h-47L919 107l21.5 25h47l21.5-25z" fill="#632888"/><path d="M991 134l6-7v3l-6 7v-3zm9 14l6-7v3l-6 7v-3zm-63-2l-6-7v3l6 7v-3zm-9-14l-6-7v3l6 7v-3zm0 37l-6-7v3l6 7v-3zm0-7l-6-7v3l6 7v-3zm19-16h14v3h-14v-3zm0 27h14v3h-14v-3zm20-23h14v3h-14v-3zm0 11h14v3h-14v-3z" fill="#DBA0FF" opacity=".6"/><path d="M1085 177v42l-21.5 25v-42l21.5-25z" fill="#2262CA"/><path d="M1016.5 244L995 219v-42l21.5 25v42z" fill="#263079"/><path d="M1063.5 202h-47v42h47v-42z" fill="#2736AF"/><path d="M1085 177l-21.5-25h-47L995 177l21.5 25h47l21.5-25z" fill="#1E2A82"/><path d="M1067 204l6-7v3l-6 7v-3zm-54 12l-6-7v3l6 7v-3zm10 0h14v3h-14v-3zm20 4h14v3h-14v-3zm0 11h14v3h-14v-3z" fill="#7EB0FF" opacity=".6"/><path d="M1161 161v88l-21.5 25v-88l21.5-25z" fill="#9359B6"/><path d="M1092.5 274l-21.5-25v-88l21.5 25v88z" fill="#57167E"/><path d="M1139.5 186h-47v88h47v-88z" fill="#71309A"/><path d="M1161 161l-21.5-25h-47l-21.5 25 21.5 25h47l21.5-25z" fill="#632888"/><path d="M1143 188l6-7v3l-6 7v-3zm9 14l6-7v3l-6 7v-3zm-9 41l6-7v3l-6 7v-3zm9 0l6-7v3l-6 7v-3zm0-15l6-7v3l-6 7v-3zm-63-28l-6-7v3l6 7v-3zm-9-14l-6-7v3l6 7v-3zm9 64l-6-7v3l6 7v-3zm-9-27l-6-7v3l6 7v-3zm0-7l-6-7v3l6 7v-3zm19-16h14v3h-14v-3zm0 27h14v3h-14v-3zm20-23h14v3h-14v-3zm0 11h14v3h-14v-3zm0 22h14v3h-14v-3zm-20 13h14v3h-14v-3zm44 12l6-7v3l-6 7v-3z" fill="#DBA0FF" opacity=".6"/><path d="M933 172v47l-21.5 25v-47l21.5-25z" fill="#9359B6"/><path d="M864.5 244L843 219v-47l21.5 25v47z" fill="#57167E"/><path d="M911.5 197h-47v47h47v-47z" fill="#71309A"/><path d="M933 172l-21.5-25h-47L843 172l21.5 25h47l21.5-25z" fill="#632888"/><path d="M915 199l6-7v3l-6 7v-3zm-54 12l-6-7v3l6 7v-3zm-9-14l-6-7v3l6 7v-3zm0 23l-6-7v3l6 7v-3zm19-9h14v3h-14v-3zm0 27h14v3h-14v-3zm20-23h14v3h-14v-3zm0 11h14v3h-14v-3z" fill="#DBA0FF" opacity=".6"/><path d="M629 138v81l-21.5 25v-81l21.5-25z" fill="#2262CA"/><path d="M560.5 244L539 219v-81l21.5 25v81z" fill="#263079"/><path d="M607.5 163h-47v81h47v-81z" fill="#2736AF"/><path d="M629 138l-21.5-25h-47L539 138l21.5 25h47l21.5-25z" fill="#1E2A82"/><path d="M611 165l6-7v3l-6 7v-3zm9 14l6-7v3l-6 7v-3zm-9 41l6-7v3l-6 7v-3zm9 0l6-7v3l-6 7v-3zm0-15l6-7v3l-6 7v-3zm-63-28l-6-7v3l6 7v-3zm-9-14l-6-7v3l6 7v-3zm9 64l-6-7v3l6 7v-3zm-9-27l-6-7v3l6 7v-3zm0-7l-6-7v3l6 7v-3zm19-16h14v3h-14v-3zm0 27h14v3h-14v-3zm20-23h14v3h-14v-3zm0 11h14v3h-14v-3zm0 22h14v3h-14v-3zm-20 13h14v3h-14v-3z" fill="#7EB0FF" opacity=".6"/><path d="M97 154v36l-21.5 25v-36L97 154z" fill="#2262CA"/><path d="M28.5 179v36L7 190v-36l21.5 25z" fill="#263079"/><path d="M75.5 179h-47v36h47v-36z" fill="#2736AF"/><path d="M97 154l-21.5-25h-47L7 154l21.5 25h47L97 154z" fill="#1E2A82"/><path d="M79 181l6-7v3l-6 7v-3zm9 14l6-7v3l-6 7v-3zm-63-2l-6-7v3l6 7v-3zm-9-14l-6-7v3l6 7v-3zm19 14h14v3H35v-3zm20 4h14v3H55v-3zm0 11h14v3H55v-3z" fill="#7EB0FF" opacity=".6"/><path d="M1244.5 274l-21.5-25v-24l21.5 25v24z" fill="#263079"/><path d="M1313 225v24l-21.5 25v-24l21.5-25z" fill="#2262CA"/><path d="M1291.5 250h-47v24h47v-24z" fill="#2736AF"/><path d="M1313 225l-21.5-25h-47l-21.5 25 21.5 25h47l21.5-25z" fill="#1E2A82"/><path d="M1241 253l-6-7v3l6 7v-3zm54 7l6-7v3l-6 7v-3zm-10 5h-14v3h14v-3zm-20-4h-14v3h14v-3z" fill="#7EB0FF" opacity=".6"/><path d="M484.5 274L463 249v-24l21.5 25v24z" fill="#263079"/><path d="M553 225v24l-21.5 25v-24l21.5-25z" fill="#2262CA"/><path d="M531.5 250h-47v24h47v-24z" fill="#2736AF"/><path d="M553 225l-21.5-25h-47L463 225l21.5 25h47l21.5-25z" fill="#1E2A82"/><path d="M535 251l6-7v3l-6 7v-3zm-54 12l-6-7v3l6 7v-3zm10 0h14v3h-14v-3zm20 4h14v3h-14v-3z" fill="#7EB0FF" opacity=".6"/><path d="M1465 157v92l-21.5 25v-92l21.5-25z" fill="#2262CA"/><path d="M1396.5 274l-21.5-25v-92l21.5 25v92z" fill="#263079"/><path d="M1443.5 182h-47v92h47v-92z" fill="#2736AF"/><path d="M1465 157l-21.5-25h-47l-21.5 25 21.5 25h47l21.5-25z" fill="#1E2A82"/><path d="M1447 184l6-7v3l-6 7v-3zm9 14l6-7v3l-6 7v-3zm-9 41l6-7v3l-6 7v-3zm9 0l6-7v3l-6 7v-3zm0-15l6-7v3l-6 7v-3zm-63-28l-6-7v3l6 7v-3zm-9-14l-6-7v3l6 7v-3zm9 64l-6-7v3l6 7v-3zm-9-27l-6-7v3l6 7v-3zm0-7l-6-7v3l6 7v-3zm19-16h14v3h-14v-3zm0 27h14v3h-14v-3zm20-23h14v3h-14v-3zm0 11h14v3h-14v-3zm0 22h14v3h-14v-3zm-20 13h14v3h-14v-3zm44 12l6-7v3l-6 7v-3zm-54 12l-6-7v3l6 7v-3zm-9-18l-6-7v3l6 7v-3zm19 15h14v3h-14v-3z" fill="#7EB0FF" opacity=".6"/><path d="M249 130v60l-21.5 25v-60l21.5-25z" fill="#9359B6"/><path d="M180.5 155v60L159 190v-60l21.5 25z" fill="#57167E"/><path d="M227.5 155h-47v60h47v-60z" fill="#71309A"/><path d="M249 130l-21.5-25h-47L159 130l21.5 25h47l21.5-25z" fill="#632888"/><path d="M231 157l6-7v3l-6 7v-3zm9 14l6-7v3l-6 7v-3zm-63-2l-6-7v3l6 7v-3zm-9-14l-6-7v3l6 7v-3zm19 6h14v3h-14v-3z" fill="#DBA0FF" opacity=".6"/><path d="M325 190v29l-21.5 25v-29l21.5-25z" fill="#9359B6"/><path d="M235 219l21.5 25v-29L235 190v29z" fill="#57167E"/><path d="M303.5 215h-47v29h47v-29z" fill="#71309A"/><path d="M325 190l-21.5-25h-47L235 190l21.5 25h47l21.5-25z" fill="#632888"/><path d="M307 217l6-7v3l-6 7v-3zm-54 12l-6-7v3l6 7v-3zm-9-14l-6-7v3l6 7v-3zm19 14h14v3h-14v-3zm20 4h14v3h-14v-3z" fill="#DBA0FF" opacity=".6"/><path d="M781 190v29l-21.5 25v-29l21.5-25z" fill="#9359B6"/><path d="M691 219l21.5 25v-29L691 190v29z" fill="#57167E"/><path d="M759.5 215h-47v29h47v-29z" fill="#71309A"/><path d="M781 190l-21.5-25h-47L691 190l21.5 25h47l21.5-25z" fill="#632888"/><path d="M763 217l6-7v3l-6 7v-3zm-54 12l-6-7v3l6 7v-3zm-9-14l-6-7v3l6 7v-3zm19 14h14v3h-14v-3zm20 4h14v3h-14v-3z" fill="#DBA0FF" opacity=".6"/><path d="M401 222v27l-21.5 25v-27l21.5-25z" fill="#9359B6"/><path d="M332.5 274L311 249v-27l21.5 25v27z" fill="#57167E"/><path d="M379.5 247h-47v27h47v-27z" fill="#71309A"/><path d="M401 222l-21.5-25h-47L311 222l21.5 25h47l21.5-25z" fill="#632888"/><path d="M329 249l-6-7v3l6 7v-3zm54 12l6-7v3l-6 7v-3zm-10 0h-14v3h14v-3zm-20 4h-14v3h14v-3z" fill="#DBA0FF" opacity=".6"/><path d="M788.5 274L767 249v-29l21.5 25v29z" fill="#263079"/><path d="M857 220v29l-21.5 25v-29l21.5-25z" fill="#2262CA"/><path d="M835.5 245h-47v29h47v-29z" fill="#2736AF"/><path d="M857 220l-21.5-25h-47L767 220l21.5 25h47l21.5-25z" fill="#1E2A82"/><path d="M785 248l-6-7v3l6 7v-3zm54 12l6-7v3l-6 7v-3zm-10 0h-14v3h14v-3zm-20 4h-14v3h14v-3z" fill="#7EB0FF" opacity=".6"/><path d="M173 176v43l-21.5 25v-43l21.5-25z" fill="#9359B6"/><path d="M104.5 244L83 219v-43l21.5 25v43z" fill="#57167E"/><path d="M151.5 201h-47v43h47v-43z" fill="#71309A"/><path d="M173 176l-21.5-25h-47L83 176l21.5 25h47l21.5-25z" fill="#632888"/><path d="M101 203l-6-7v3l6 7v-3zm-9 14l-6-7v3l6 7v-3zm63-2l6-7v3l-6 7v-3zm9-14l6-7v3l-6 7v-3zm-19 14h-14v3h14v-3zm0 23h-14v3h14v-3zm-20-19h-14v3h14v-3zm0 11h-14v3h14v-3z" fill="#DBA0FF" opacity=".6"/><path d="M249 191v58l-21.5 25v-58l21.5-25z" fill="#2262CA"/><path d="M180.5 274L159 249v-58l21.5 25v58z" fill="#263079"/><path d="M227.5 216h-47v58h47v-58z" fill="#2736AF"/><path d="M249 191l-21.5-25h-47L159 191l21.5 25h47l21.5-25z" fill="#1E2A82"/><path d="M177 218l-6-7v3l6 7v-3zm-9 14l-6-7v3l6 7v-3zm63-2l6-7v3l-6 7v-3zm9-14l6-7v3l-6 7v-3zm0 37l6-7v3l-6 7v-3zm0-7l6-7v3l-6 7v-3zm-19-16h-14v3h14v-3zm-20 4h-14v3h14v-3zm20 24.5h-14v3h14v-3zM201 242h-14v3h14v-3zm-33 6l-6-7v3l6 7v-3z" fill="#7EB0FF" opacity=".6"/><path d="M1009 204v45l-21.5 25v-45l21.5-25z" fill="#2262CA"/><path d="M940.5 274L919 249v-45l21.5 25v45z" fill="#263079"/><path d="M987.5 229h-47v45h47v-45z" fill="#2736AF"/><path d="M1009 204l-21.5-25h-47L919 204l21.5 25h47l21.5-25z" fill="#1E2A82"/><path d="M991 231l6-7v3l-6 7v-3zm9 6l6-7v3l-6 7v-3zm-63-2l-6-7v3l6 7v-3zm-9-14l-6-7v3l6 7v-3zm0 29l-6-7v3l6 7v-3zm0-7l-6-7v3l6 7v-3zm19-8h14v3h-14v-3zm20 4h14v3h-14v-3zm-20 24.5h14v3h-14v-3zm20-16.5h14v3h-14v-3zm33 3l6-7v3l-6 7v-3z" fill="#7EB0FF" opacity=".6"/><path fill-rule="evenodd" clip-rule="evenodd" d="M151.5 0L173 25v88.721l7.5-8.721h47l10.2 11.86L256.5 95h47l21.5 25v17.721l7.5-8.721h47l7.5 8.721V108l21.5-25h47l14.07 16.36L484.5 82h47l21.5 25v14.721l7.5-8.721h47l20.52 23.86 8.48-9.86h47l7.5 8.721V119l21.5-25h47l20.09 23.36L788.5 107h47l16.65 19.36L864.5 112h47l7.5 8.721V107l21.5-25h47l7.5 8.72V57l21.5-25h47l21.5 25v87.721l7.5-8.721h47l7.5 8.721V107l21.5-25h47l21.5 25v32.721l7.5-8.721h47l7.5 8.721V36l21.5-25h47l21.5 25v30.72l7.5-8.72h47l21.5 25v13.72l7.5-8.72h47l7.5 8.72V65l21.5-25h47l21.5 25v45.047L1626.5 99h47l7.5 8.721V105l21.5-25h47l21.5 25v36l-9.46 11 9.46 11v27l-21.5 25h-47l-7.5-8.721V219l-21.5 25h-47l-9.5-11.047V249l-21.5 25h-47l-21.5-25v-13.721l-7.5 8.721h-47l-7.5-8.721V249l-21.5 25h-47l-21.5-25v-13.721l-7.5 8.721h-47l-7.5-8.721V249l-21.5 25h-47l-21.5-25v-13.721l-7.5 8.721h-47l-7.5-8.721V249l-21.5 25h-47l-21.5-25v-13.714l-7.5 8.714h-47l-7.5-8.727V249l-21.5 25h-47L919 249v-13.716L911.5 244h-47l-7.5-8.721V249l-21.5 25h-47L767 249v-13.721L759.5 244h-47L691 219v-12.721L683.5 215h-47l-7.5-8.721V219l-21.5 25h-47l-7.5-8.721V249l-21.5 25h-47L463 249v-13.721L455.5 244h-47l-7.5-8.721V249l-21.5 25h-47L311 249v-13.721L303.5 244h-47l-7.5-8.721V249l-21.5 25h-47L159 249v-13.721L151.5 244h-47L83 219v-12.721L75.5 215h-47L7 190v-36l21.5-25h47l7.5 8.721V25l21.5-25h47zm326.55 207.5l-1.05 1.221v-2.442l1.05 1.221zm60.95 1.221l-1.05-1.221 1.05-1.221v2.442zm698 0l1.05-1.221-1.05-1.221v2.442zm60.95-1.221l1.05 1.221v-2.442l-1.05 1.221z" fill="url(#paint0_linear)"/><path d="M1393 270.5l-6-7v3l6 7v-3z" fill="url(#paint1_linear)"/><defs><linearGradient id="paint0_linear" x1="857.842" y1="73.243" x2="845.453" y2="227.316" gradientUnits="userSpaceOnUse"><stop stop-color="#34156B" stop-opacity=".46"/><stop offset="1" stop-color="#642FB9" stop-opacity=".28"/></linearGradient><linearGradient id="paint1_linear" x1="857.842" y1="73.243" x2="845.453" y2="227.316" gradientUnits="userSpaceOnUse"><stop stop-color="#34156B" stop-opacity=".46"/><stop offset="1" stop-color="#642FB9" stop-opacity=".28"/></linearGradient></defs></svg>