<svg fill="none" height="278" width="1776" xmlns="http://www.w3.org/2000/svg" xmlns:xlink="http://www.w3.org/1999/xlink"><linearGradient id="a" gradientUnits="userSpaceOnUse" x1="856.878" x2="844.564" y1="72.976" y2="226.492"><stop offset="0" stop-color="#200d41" stop-opacity=".68"/><stop offset="1" stop-color="#461c87" stop-opacity=".38"/></linearGradient><path d="m1161 70h-22v62h22z" fill="#9359b6"/><path d="m1093 70h-22v62h22z" fill="#57167e"/><path d="m1139.5 95h-47v30h47z" fill="#71309a"/><path d="m1161 70-21.5-25h-47l-21.5 25 21.5 25h47z" fill="#632888"/><path d="m1143 97 6-7v3l-6 7zm-54 12-6-7v3l6 7zm-9-14-6-7v3l6 7zm19 14h14v3h-14zm20 4h14v3h-14z" fill="#dba0ff" opacity=".6"/><path d="m553 121v-42l-21.5 25v42z" fill="#2262ca"/><path d="m463 121 21.5 25v-42l-21.5-25z" fill="#263079"/><path d="m531.5 104h-47v42h47z" fill="#2736af"/><path d="m553 79-21.5-25h-47l-21.5 25 21.5 25h47z" fill="#1e2a82"/><path d="m535 106 6-7v3l-6 7zm-54 12-6-7v3l6 7zm10 0h14v3h-14zm20 4h14v3h-14zm0 11h14v3h-14z" fill="#7eb0ff" opacity=".6"/><path d="m401 100.829-21.5-26.829h-47l-21.5 26.829 21.5 26.83h47z" fill="#632888"/><path d="m857 74v66l-21.5 25v-66z" fill="#2262ca"/><path d="m788.5 165-21.5-25v-66l21.5 25z" fill="#263079"/><path d="m835.5 99h-47v58h47z" fill="#2736af"/><path d="m857 74-21.5-25h-47l-21.5 25 21.5 25h47z" fill="#1e2a82"/><path d="m839 101 6-7v3l-6 7zm9 14 6-7v3l-6 7zm-63-2-6-7v3l6 7zm-9-14-6-7v3l6 7zm0 30-6-7v3l6 7zm19-16h14v3h-14zm0 27h14v3h-14zm20-23h14v3h-14zm0 11h14v3h-14zm0 22h14v3h-14z" fill="#7eb0ff" opacity=".6"/><path d="m705 105v27l-21.5 25v-27z" fill="#9359b6"/><path d="m636.5 157-21.5-25v-27l21.5 25z" fill="#57167e"/><path d="m683.5 130h-47v27h47z" fill="#71309a"/><path d="m705 105-21.5-25h-47l-21.5 25 21.5 25h47z" fill="#632888"/><path d="m687 132 6-7v3l-6 7zm-54 12-6-7v3l6 7zm10 0h14v3h-14zm20 4h14v3h-14z" fill="#dba0ff" opacity=".6"/><path d="m1617 68h-22v86h22z" fill="#2262ca"/><path d="m1549 68h-22v86h22z" fill="#263079"/><path d="m1595.5 93h-47v52h47z" fill="#2736af"/><path d="m1617 68-21.5-25h-47l-21.5 25 21.5 25h47z" fill="#1e2a82"/><path d="m1599 95 6-7v3l-6 7zm-54 12-6-7v3l6 7zm-9-14-6-7v3l6 7zm0 26-6-7v3l6 7zm19-12h14v3h-14zm0 27h14v3h-14zm20-23h14v3h-14zm0 11h14v3h-14z" fill="#7eb0ff" opacity=".6"/><path d="m1693 113v48l-21.5 25v-48z" fill="#9359b6"/><path d="m1624.5 186-21.5-25v-48l21.5 25z" fill="#57167e"/><path d="m1671.5 138h-47v48h47z" fill="#71309a"/><path d="m1693 113-21.5-25h-47l-21.5 25 21.5 25h47z" fill="#632888"/><path d="m1675 140 6-7v3l-6 7zm-54 12-6-7v3l6 7zm-9-14-6-7v3l6 7zm19 14h14v3h-14zm0 27h14v3h-14zm20-23h14v3h-14zm0 11h14v3h-14z" fill="#dba0ff" opacity=".6"/><path d="m781 141v20l-21.5 25v-20z" fill="#2262ca"/><path d="m712.5 186-21.5-25v-20l21.5 25z" fill="#263079"/><path d="m781 141-21.5-25h-47l-21.5 25 21.5 25h47z" fill="#1e2a82"/><path d="m700 161-6-7v3l6 7z" fill="#7eb0ff" opacity=".6"/><path d="m629 40v121l-21.5 25v-121z" fill="#9359b6"/><path d="m560.5 186-21.5-25v-121l21.5 25z" fill="#57167e"/><path d="m607.5 65h-47v80h47z" fill="#71309a"/><path d="m629 40-21.5-25h-47l-21.5 25 21.5 25h47z" fill="#632888"/><path d="m611 67 6-7v3l-6 7zm9 14 6-7v3l-6 7zm-9 41 6-7v3l-6 7zm9 0 6-7v3l-6 7zm0-15 6-7v3l-6 7zm-63-28-6-7v3l6 7zm-9-14-6-7v3l6 7zm9 64-6-7v3l6 7zm-9-27-6-7v3l6 7zm0-7-6-7v3l6 7zm19-16h14v3h-14zm0 27h14v3h-14zm20-23h14v3h-14zm0 11h14v3h-14zm0 22h14v3h-14zm-20 13h14v3h-14zm44 12 6-7v3l-6 7zm9 14 6-7v3l-6 7zm-63-2-6-7v3l6 7zm-9-14-6-7v3l6 7z" fill="#dba0ff" opacity=".6"/><path d="m477 115h-22v33h22z" fill="#9359b6"/><path d="m477 115-21.5-25h-47l-21.5 25 21.5 25h47z" fill="#632888"/><path d="m173 96h-22v30h22z" fill="#2262ca"/><path d="m105 80h-22v67h22z" fill="#263079"/><path d="m152 105h-47v14h47z" fill="#2736af"/><path d="m173 80-21.5-25h-47l-21.5 25 21.5 25h47z" fill="#1e2a82"/><path d="m155 107 6-7v3l-6 7zm-54 12-6-7v3l6 7zm-9-14-6-7v3l6 7zm0 30-6-7v3l6 7z" fill="#7eb0ff" opacity=".6"/><path d="m553 188v-42l-21.5 25v42z" fill="#2262ca"/><path d="m463 188 21.5 25v-42l-21.5-25z" fill="#263079"/><path d="m553 146-21.5-25h-47l-21.5 25 21.5 25h47z" fill="#1e2a82"/><path d="m248 45h-22v59h22z" fill="#9359b6"/><path d="m180 45h-22v83h22z" fill="#57167e"/><path d="m226.5 70h-47v22h47z" fill="#71309a"/><path d="m248 45-21.5-25h-47l-21.5 25 21.5 25h47z" fill="#632888"/><path d="m186 84h14v3h-14zm20 4h14v3h-14zm24-16 6-7v3l-6 7zm9 14 6-7v3l-6 7zm-63-2-6-7v3l6 7zm-9-14-6-7v3l6 7zm0 37-6-7v3l6 7zm0-7-6-7v3l6 7z" fill="#dba0ff" opacity=".6"/><path d="m325 108h-22v77h22z" fill="#2262ca"/><path d="m257 108h-22v73h22z" fill="#263079"/><path d="m303.5 133h-47v36h47z" fill="#2736af"/><path d="m325 108-21.5-25h-47l-21.5 25 21.5 25h47z" fill="#1e2a82"/><path d="m253 135-6-7v3l6 7zm54 12 6-7v3l-6 7zm-10 0h-14v3h14zm-20 4h-14v3h14zm0 11h-14v3h14z" fill="#7eb0ff" opacity=".6"/><path d="m401 110v80l-21.5 25v-80z" fill="#9359b6"/><path d="m332.5 135v80l-21.5-25v-80z" fill="#57167e"/><path d="m379.5 135h-47v80h47z" fill="#71309a"/><path d="m401 110-21.5-25h-47l-21.5 25 21.5 25h47z" fill="#632888"/><path d="m383 137 6-7v3l-6 7zm0 55 6-7v3l-6 7zm-54-43-6-7v3l6 7zm-9-14-6-7v3l6 7zm9 64-6-7v3l6 7zm-9-27-6-7v3l6 7zm0-7-6-7v3l6 7zm19-16h14v3h-14zm0 27h14v3h-14zm20-23h14v3h-14zm0 11h14v3h-14zm0 22h14v3h-14zm-20 13h14v3h-14z" fill="#dba0ff" opacity=".6"/><path clip-rule="evenodd" d="m1009 85v47l-21.5 25v-47z" fill="#2262ca" fill-rule="evenodd"/><path d="m940.5 157-21.5-25v-47l21.5 25z" fill="#263079"/><path d="m987.5 110h-47v47h47z" fill="#2736af"/><path d="m1009 85-21.5-25h-47l-21.5 25 21.5 25h47z" fill="#1e2a82"/><path d="m991 112 6-7v3l-6 7zm-54 12-6-7v3l6 7zm-9-14-6-7v3l6 7zm0 22-6-7v3l6 7zm19-8h14v3h-14zm0 27h14v3h-14zm20-23h14v3h-14zm0 11h14v3h-14z" fill="#7eb0ff" opacity=".6"/><path d="m1085 125v36l-21.5 25v-36z" fill="#2262ca"/><path d="m1016.5 186-21.5-25v-36l21.5 25z" fill="#263079"/><path d="m1063.5 150h-47v22h47z" fill="#2736af"/><path d="m1085 125-21.5-25h-47l-21.5 25 21.5 25h47z" fill="#1e2a82"/><path d="m1067 152 6-7v3l-6 7zm9 12 6-7v3l-6 7zm-63 0-6-7v3l6 7zm-9-14-6-7v3l6 7zm19 9h14v3h-14zm20 4h14v3h-14z" fill="#7eb0ff" opacity=".6"/><path d="m933 87h-22v25h.5v80l21.5-25z" fill="#2262ca"/><path d="m865 87h-22v80l21.5 25v-80h.5z" fill="#263079"/><path d="m911.5 112h-47v80h47z" fill="#2736af"/><path d="m933 87-21.5-25h-47l-21.5 25 21.5 25h47z" fill="#1e2a82"/><path d="m915 114 6-7v3l-6 7zm9 14 6-7v3l-6 7zm-9 41 6-7v3l-6 7zm-54-43-6-7v3l6 7zm-9-14-6-7v3l6 7zm9 64-6-7v3l6 7zm-9-27-6-7v3l6 7zm0-7-6-7v3l6 7zm19-16h14v3h-14zm0 27h14v3h-14zm20-23h14v3h-14zm0 11h14v3h-14zm0 22h14v3h-14zm-20 13h14v3h-14z" fill="#7eb0ff" opacity=".6"/><path d="m857 170v24l-21.5 25v-24z" fill="#9359b6"/><path d="m788.5 219-21.5-25v-24l21.5 25z" fill="#57167e"/><path d="m835.5 195h-47v24h47z" fill="#71309a"/><path d="m857 170-21.5-25h-47l-21.5 25 21.5 25h47z" fill="#632888"/><path d="m1010 144h-22v71h22z" fill="#9359b6"/><path d="m942 144h-22v71h22z" fill="#57167e"/><path d="m988.5 169h-47v34h47z" fill="#71309a"/><path d="m1010 144-21.5-25h-47l-21.5 25 21.5 25h47z" fill="#632888"/><path d="m992 171 6-7v3l-6 7zm-54 12-6-7v3l6 7zm10 0h14v3h-14zm20 4h14v3h-14zm0 11h14v3h-14z" fill="#dba0ff" opacity=".6"/><path d="m97 153v37l-21.5 25v-37z" fill="#9359b6"/><path d="m28.5 178v37l-21.5-25v-37z" fill="#57167e"/><path d="m75.5 178h-47v37h47z" fill="#71309a"/><path d="m97 153-21.5-25h-47l-21.5 25 21.5 25h47z" fill="#632888"/><path d="m79 180 6-7v3l-6 7zm-54 12-6-7v3l6 7zm-9-14-6-7v3l6 7zm19 6h14v3h-14z" fill="#dba0ff" opacity=".6"/><path d="m1769 98v91l-21.5 25v-91z" fill="#2262ca"/><path d="m1700.5 214-21.5-25v-91l21.5 25z" fill="#263079"/><path d="m1747.5 123h-47v91h47z" fill="#2736af"/><path d="m1769 98-21.5-25h-47l-21.5 25 21.5 25h47z" fill="#1e2a82"/><path d="m1697 125-6-7v3l6 7zm-9 14-6-7v3l6 7zm9 41-6-7v3l6 7zm54-43 6-7v3l-6 7zm9-14 6-7v3l-6 7zm-9 64 6-7v3l-6 7zm9-27 6-7v3l-6 7zm0-7 6-7v3l-6 7zm-19-16h-14v3h14zm0 27h-14v3h14zm-20-23h-14v3h14zm0 11h-14v3h14zm0 22h-14v3h14z" fill="#7eb0ff" opacity=".6"/><path d="m1465 80h-22v42h22z" fill="#2262ca"/><path d="m1397 80h-22v36h22z" fill="#263079"/><path d="m1465 80-21.5-25h-47l-21.5 25 21.5 25h47z" fill="#1e2a82"/><path d="m1447 107 6-7v3l-6 7zm9 10 6-7v3l-6 7zm-72-12-6-7v3l6 7z" fill="#7eb0ff" opacity=".6"/><path d="m1541 130v31l-21.5 25v-31z" fill="#2262ca"/><path d="m1472.5 186-21.5-25v-31l21.5 25z" fill="#263079"/><path d="m1519.5 155h-47v31h47z" fill="#2736af"/><path d="m1541 130-21.5-25h-47l-21.5 25 21.5 25h47z" fill="#1e2a82"/><path d="m1523 157 6-7v3l-6 7zm-54 12-6-7v3l6 7zm10 0h14v3h-14zm20-4h14v3h-14zm0 11h14v3h-14z" fill="#7eb0ff" opacity=".6"/><path d="m1617 169-21.5-25h-47l-21.5 25 21.5 25h47z" fill="#632888"/><path d="m1313 67h-22v71h22z" fill="#9359b6"/><path d="m1245 67h-22v73h22z" fill="#57167e"/><path d="m1291.5 92h-47v36h47z" fill="#71309a"/><path d="m1313 67-21.5-25h-47l-21.5 25 21.5 25h47z" fill="#632888"/><path d="m1295 94 6-7v3l-6 7zm9 14 6-7v3l-6 7zm-63-2-6-7v3l6 7zm10 0h14v3h-14zm20 4h14v3h-14zm0 11h14v3h-14z" fill="#dba0ff" opacity=".6"/><path d="m1389 120v41l-21.5 25v-41z" fill="#9359b6"/><path d="m1320.5 186-21.5-25v-41l21.5 25z" fill="#57167e"/><path d="m1367.5 145h-47v41h47z" fill="#71309a"/><path d="m1389 120-21.5-25h-47l-21.5 25 21.5 25h47z" fill="#632888"/><path d="m1371 147 6-7v3l-6 7zm-54 12-6-7v3l6 7zm10 0h14v3h-14zm20 4h14v3h-14zm0 11h14v3h-14z" fill="#dba0ff" opacity=".6"/><path d="m1237 25v144l-21.5 25v-144z" fill="#2262ca"/><path clip-rule="evenodd" d="m1169 186v7h-22v-168l21.5 25v136z" fill="#263079" fill-rule="evenodd"/><path d="m1215.5 50h-47v128h47z" fill="#2736af"/><path d="m1237 25-21.5-25h-47l-21.5 25 21.5 25h47z" fill="#1e2a82"/><path d="m1165 52-6-7v3l6 7zm-9 14-6-7v3l6 7zm9 41-6-7v3l6 7zm-9 0-6-7v3l6 7zm0-15-6-7v3l6 7zm63-28 6-7v3l-6 7zm9-14 6-7v3l-6 7zm-9 64 6-7v3l-6 7zm9-27 6-7v3l-6 7zm0-7 6-7v3l-6 7zm-19-16h-14v3h14zm0 27h-14v3h14zm-20-23h-14v3h14zm0 11h-14v3h14zm0 22h-14v3h14zm20 13h-14v3h14zm-44 12-6-7v3l6 7zm54 12 6-7v3l-6 7zm9-14 6-7v3l-6 7zm-19 14h-14v3h14zm0 27h-14v3h14zm-20-23h-14v3h14zm0 11h-14v3h14z" fill="#7eb0ff" opacity=".6"/><path d="m1313 151v39l-21.5 25v-39z" fill="#2262ca"/><path d="m1244.5 215-21.5-25v-39l21.5 25z" fill="#263079"/><path d="m1313 151-21.5-25h-47l-21.5 25 21.5 25h47z" fill="#1e2a82"/><path d="m1295 178 6-7v3l-6 7zm-63-2-6-7v3l6 7z" fill="#7eb0ff" opacity=".6"/><path d="m325 192h-22v27h22z" fill="#9359b6"/><path d="m325 192-21.5-25h-47l-21.5 25 21.5 25h47z" fill="#632888"/><path d="m477 139h-22v25h.5v80l21.5-25z" fill="#2262ca"/><path d="m409 139h-22v80l21.5 25v-80h.5z" fill="#263079"/><path d="m455.5 164h-47v80h47z" fill="#2736af"/><path d="m477 139-21.5-25h-47l-21.5 25 21.5 25h47z" fill="#1e2a82"/><path d="m459 166 6-7v3l-6 7zm9 14 6-7v3l-6 7zm-9 41 6-7v3l-6 7zm-54-43-6-7v3l6 7zm-9-14-6-7v3l6 7zm9 64-6-7v3l6 7zm-9-27-6-7v3l6 7zm0-7-6-7v3l6 7zm19-16h14v3h-14zm0 27h14v3h-14zm20-23h14v3h-14zm0 11h14v3h-14zm0 22h14v3h-14zm-20 13h14v3h-14z" fill="#7eb0ff" opacity=".6"/><path d="m781 175h-22v51h22z" fill="#9359b6"/><path d="m712.5 244-21.5-25v-44l21.5 25z" fill="#57167e"/><path d="m759.5 200h-47v20h47z" fill="#71309a"/><path d="m781 175-21.5-25h-47l-21.5 25 21.5 25h47z" fill="#632888"/><path d="m763 202 6-7v3l-6 7zm-54 12-6-7v3l6 7zm-9-14-6-7v3l6 7z" fill="#dba0ff" opacity=".6"/><path d="m705 151h-22v84h22z" fill="#9359b6"/><path d="m637 151h-22v62h22z" fill="#57167e"/><path d="m683.5 176h-47v30h47z" fill="#71309a"/><path d="m705 151-21.5-25h-47l-21.5 25 21.5 25h47z" fill="#632888"/><path d="m687 178 6-7v3l-6 7zm-54 12-6-7v3l6 7zm-9-14-6-7v3l6 7zm19 14h14v3h-14zm20 4h14v3h-14zm33.5 0 6-7v3l-6 7z" fill="#dba0ff" opacity=".6"/><path d="m933 195h-22v20h22z" fill="#9359b6"/><path d="m865 195h-22v25h22z" fill="#57167e"/><path d="m933 195-21.5-25h-47l-21.5 25 21.5 25h47z" fill="#632888"/><path d="m629 166h-22v46h22z" fill="#2262ca"/><path d="m561 166h-22v25h22z" fill="#263079"/><path d="m629 166-21.5-25h-47l-21.5 25 21.5 25h47z" fill="#1e2a82"/><path d="m173 140v79l-21.5 25v-79z" fill="#9359b6"/><path d="m104.5 165v79l-21.5-25v-79z" fill="#57167e"/><path d="m151.5 165h-47v79h47z" fill="#71309a"/><path d="m173 140-21.5-25h-47l-21.5 25 21.5 25h47z" fill="#632888"/><path d="m155 167 6-7v3l-6 7zm-54 12-6-7v3l6 7zm-9-14-6-7v3l6 7zm9 64-6-7v3l6 7zm-9-27-6-7v3l6 7zm0-7-6-7v3l6 7zm19-16h14v3h-14zm0 27h14v3h-14zm20-23h14v3h-14zm0 11h14v3h-14z" fill="#dba0ff" opacity=".6"/><path d="m1237 199v20l-21.5 25v-20z" fill="#2262ca"/><path d="m1169 199h-22v36h22z" fill="#263079"/><path d="m1237 199-21.5-25h-47l-21.5 25 21.5 25h47z" fill="#1e2a82"/><path d="m1219 226 6-7v3l-6 7z" fill="#7eb0ff" opacity=".6"/><path d="m97 212v36l-21.5 25v-36z" fill="#2262ca"/><path d="m28.5 237v36l-21.5-25v-36z" fill="#263079"/><path d="m75.5 237h-47v36h47z" fill="#2736af"/><path d="m97 212-21.5-25h-47l-21.5 25 21.5 25h47z" fill="#1e2a82"/><path d="m16 247-6-7v3l6 7zm63-2 6-7v3l-6 7zm9-14 6-7v3l-6 7zm-19 14h-14v3h14zm-20 4h-14v3h14zm0 11h-14v3h14z" fill="#7eb0ff" opacity=".6"/><path d="m1389 177v42l-21.5 25v-42z" fill="#2262ca"/><path d="m1320.5 244-21.5-25v-42l21.5 25z" fill="#263079"/><path d="m1367.5 202h-47v42h47z" fill="#2736af"/><path d="m1389 177-21.5-25h-47l-21.5 25 21.5 25h47z" fill="#1e2a82"/><path d="m1371 204 6-7v3l-6 7zm-54 12-6-7v3l6 7zm10 0h14v3h-14z" fill="#7eb0ff" opacity=".6"/><path d="m1237 25-21.5-25h-47l-21.5 25v28.72l-7.5-8.72h-47l-21.5 25v38.721l-7.5-8.721h-47l-7.5 8.721v-23.721l-21.5-25h-47l-15.36 17.86-13.64-15.86h-47l-8.91 10.36-20.09-23.36h-47l-21.5 25v50.721l-7.5-8.721h-47l-7.5 8.721v-19.721l-21.5-25h-47l-7.5 8.72v-48.72l-21.5-25h-47l-21.5 25v22.72l-7.5-8.72h-47l-21.5 25v19.72l-7.5-8.72h-47l-8.375 9.738-20.625-25.738h-47l-17.722 22.114-11.278-13.114h-47l-8.5 9.884v-47.884l-21.5-25h-47l-21.5 25v17.558l-6.5-7.558h-47l-21.5 25v56.721l-7.5-8.721h-47l-21.5 25v37l9.46 11-9.46 11v36l21.5 25h47l21.5-25v-12.721l7.5 8.721h47l21.5-25v-79l-10.32-12h17.32v-36h46v12h12.44l-3.44 4v73h9.46l-9.46 11 21.5 25h46.5v2h22v-12.721l7.5 8.721h47l7.5-8.721v12.721l21.5 25h47l21.5-25v-14.721l7.5 8.721v-42h47v42l18.92-22h56.58v21h8v1h22v-7h46v29h21.76l7.74 9v-24h46.5v6h22v-15.721l7.5 8.721h47l7.5-8.721v9.721h68.5l4.3-5h26.2v-12h46v12h22v-36.558l6.5 7.558v-14h47v14l21.5-25v-29h8v-7h46v7h8v61h5.16l-5.16 6v36h22v-11h46.5v20l21.5-25v-12.721l7.5 8.721v-39h47v39l7.5-8.721v12.721l21.5 25h47l21.5-25v-42l-6.88-8 6.88-8v-41l-3.44-4h11.44v-11h46v17h14.88l-6.88 8v31l21.5 25h47l11.06-12.86 17.94 20.86h47l17.94-20.86 11.06 12.86h47l7.5-8.721v11.721l21.5 25h47l21.5-25v-91l-21.5-25h-47l-20.95 24.36-8.05-9.36h-47l-7.5 8.72v-28.72l-21.5-25h-47l-21.5 25v45.721l-7.5-8.721h-47l-7.5 8.721v-33.721l-21.5-25h-47l-21.5 25v23.721l-7.5-8.721h-47l-7.5 8.721v-36.721l-21.5-25h-47l-7.5 8.72z" fill="url(#a)"/></svg>