<svg fill="none" height="405" width="1624" xmlns="http://www.w3.org/2000/svg" xmlns:xlink="http://www.w3.org/1999/xlink"><linearGradient id="a" gradientUnits="userSpaceOnUse" x1="783.562" x2="754.212" y1="108.261" y2="333.647"><stop offset="0" stop-color="#1b0b38"/><stop offset="1" stop-color="#180831" stop-opacity=".41"/></linearGradient><path d="m781 145h-22v110h22z" fill="#9359b6"/><path d="m713 145h-22v110h22z" fill="#57167e"/><path d="m759.5 170h-47v77h47z" fill="#71309a"/><path d="m781 145-21.5-25h-47l-21.5 25 21.5 25h47z" fill="#632888"/><path d="m763 172 6-7v3l-6 7zm9 14 6-7v3l-6 7zm-9 41 6-7v3l-6 7zm-54-43-6-7v3l6 7zm0 50-6-7v3l6 7zm10-50h14v3h-14zm0 27h14v3h-14zm20-23h14v3h-14zm0 11h14v3h-14zm0 22h14v3h-14zm-20 13h14v3h-14zm44 12 6-7v3l-6 7z" fill="#dba0ff" opacity=".6"/><path d="m857 218h-22v71h22z" fill="#2262ca"/><path d="m789 218h-22v71h22z" fill="#263079"/><path d="m835.5 243h-47v37h47z" fill="#2736af"/><path d="m857 218-21.5-25h-47l-21.5 25 21.5 25h47z" fill="#1e2a82"/><path d="m839 245 6-7v3l-6 7zm9 14 6-7v3l-6 7zm-63-2-6-7v3l6 7zm-9-14-6-7v3l6 7zm19 14h14v3h-14zm20 4h14v3h-14zm0 11h14v3h-14z" fill="#7eb0ff" opacity=".6"/><path d="m629 186h-22v86h22z" fill="#2262ca"/><path d="m561 186h-22v83h22z" fill="#263079"/><path d="m607.5 211h-47v50h47z" fill="#2736af"/><path d="m629 186-21.5-25h-47l-21.5 25 21.5 25h47z" fill="#1e2a82"/><path d="m611 213 6-7v3l-6 7zm-54 12-6-7v3l6 7zm10 0h14v3h-14zm0 27h14v3h-14zm20-23h14v3h-14zm0 11h14v3h-14z" fill="#7eb0ff" opacity=".6"/><path d="m249 145h-22v73h22z" fill="#2262ca"/><path d="m181 145h-22v92h22z" fill="#263079"/><path d="m227.5 170h-47v38h47z" fill="#2736af"/><path d="m249 145-21.5-25h-47l-21.5 25 21.5 25h47z" fill="#1e2a82"/><path d="m231 172 6-7v3l-6 7zm-54 12-6-7v3l6 7zm-9-14-6-7v3l6 7zm0 37-6-7v3l6 7zm0-7-6-7v3l6 7zm19-16h14v3h-14zm20 4h14v3h-14zm0 11h14v3h-14z" fill="#7eb0ff" opacity=".6"/><path d="m325 25h-22v193h22z" fill="#9359b6"/><path d="m257 25h-22v210h22z" fill="#57167e"/><path d="m303.5 50h-47v157h47z" fill="#71309a"/><path d="m325 25-21.5-25h-47l-21.5 25 21.5 25h47z" fill="#632888"/><path d="m307 52 6-7v3l-6 7zm9 14 6-7v3l-6 7zm-9 41 6-7v3l-6 7zm-54-43-6-7v3l6 7zm-9-14-6-7v3l6 7zm9 64-6-7v3l6 7zm-9-27-6-7v3l6 7zm0-7-6-7v3l6 7zm19-16h14v3h-14zm0 27h14v3h-14zm20-23h14v3h-14zm0 11h14v3h-14zm0 22h14v3h-14zm-20 13h14v3h-14zm44 12 6-7v3l-6 7zm0 55 6-7v3l-6 7zm-54-43-6-7v3l6 7zm-9-14-6-7v3l6 7zm9 64-6-7v3l6 7zm-9-27-6-7v3l6 7zm0-7-6-7v3l6 7zm19-16h14v3h-14zm0 27h14v3h-14zm20-23h14v3h-14zm0 11h14v3h-14zm0 22h14v3h-14zm-20 13h14v3h-14z" fill="#dba0ff" opacity=".6"/><path d="m249 232h-22v65h22z" fill="#9359b6"/><path d="m181 232h-22v73h22z" fill="#57167e"/><path d="m227.5 257h-47v33h47z" fill="#71309a"/><path d="m249 232-21.5-25h-47l-21.5 25 21.5 25h47z" fill="#632888"/><path d="m231 259 6-7v3l-6 7zm-54 12-6-7v3l6 7zm-9-14-6-7v3l6 7zm0 37-6-7v3l6 7zm0-7-6-7v3l6 7zm19-16h14v3h-14zm20 4h14v3h-14z" fill="#dba0ff" opacity=".6"/><path d="m477 142h-22v74h22z" fill="#9359b6"/><path d="m409 142h-22v77h22z" fill="#57167e"/><path d="m455.5 167h-47v41h47z" fill="#71309a"/><path d="m477 142-21.5-25h-47l-21.5 25 21.5 25h47z" fill="#632888"/><path d="m459 169 6-7v3l-6 7zm-54 12-6-7v3l6 7zm10 0h14v3h-14zm20 4h14v3h-14zm0 11h14v3h-14z" fill="#dba0ff" opacity=".6"/><path d="m553 115h-22v74h22z" fill="#9359b6"/><path d="m485 115h-22v77h22z" fill="#57167e"/><path d="m531.5 140h-47v24h47z" fill="#71309a"/><path d="m553 115-21.5-25h-47l-21.5 25 21.5 25h47z" fill="#632888"/><path d="m535 142 6-7v3l-6 7zm9 14 6-7v3l-6 7zm0 26 6-7v3l-6 7zm-63-28-6-7v3l6 7zm-9-14-6-7v3l6 7zm0 37-6-7v3l6 7zm0-7-6-7v3l6 7zm19-16h14v3h-14zm20 4h14v3h-14z" fill="#dba0ff" opacity=".6"/><path d="m705 75h-22v193h22z" fill="#9359b6"/><path d="m637 75h-22v205h22z" fill="#57167e"/><path d="m683.5 100h-47v158h47z" fill="#71309a"/><path d="m705 75-21.5-25h-47l-21.5 25 21.5 25h47z" fill="#632888"/><path d="m633 102-6-7v3l6 7zm-9 14-6-7v3l6 7zm9 41-6-7v3l6 7zm-9 0-6-7v3l6 7zm0-15-6-7v3l6 7zm63-28 6-7v3l-6 7zm9-14 6-7v3l-6 7zm-9 64 6-7v3l-6 7zm9-27 6-7v3l-6 7zm0-7 6-7v3l-6 7zm-19-16h-14v3h14zm0 27h-14v3h14zm-20-23h-14v3h14zm0 11h-14v3h14zm0 22h-14v3h14zm20 13h-14v3h14zm-44 12-6-7v3l6 7zm-9 14-6-7v3l6 7zm9 41-6-7v3l6 7zm-9 0-6-7v3l6 7zm0-15-6-7v3l6 7zm63-28 6-7v3l-6 7zm9-14 6-7v3l-6 7zm-9 64 6-7v3l-6 7zm9-27 6-7v3l-6 7zm0-7 6-7v3l-6 7zm-19-16h-14v3h14zm0 27h-14v3h14zm-20-23h-14v3h14zm0 11h-14v3h14zm0 22h-14v3h14zm20 13h-14v3h14z" fill="#dba0ff" opacity=".6"/><path d="m401 92h-22v133h22z" fill="#2262ca"/><path d="m333 92h-22v127h22z" fill="#263079"/><path d="m379.5 117h-47v53h47z" fill="#2736af"/><path d="m401 92-21.5-25h-47l-21.5 25 21.5 25h47z" fill="#1e2a82"/><path d="m329 119-6-7v3l6 7zm-9 14-6-7v3l6 7zm9 41-6-7v3l6 7zm-9 0-6-7v3l6 7zm0-15-6-7v3l6 7zm63-28 6-7v3l-6 7zm9-14 6-7v3l-6 7zm0 37 6-7v3l-6 7zm0-7 6-7v3l-6 7zm-19-16h-14v3h14zm0 27h-14v3h14zm-20-23h-14v3h14zm0 11h-14v3h14z" fill="#7eb0ff" opacity=".6"/><path d="m97 236v144l-21.5 25v-144z" fill="#2262ca"/><path clip-rule="evenodd" d="m29 397v7h-22v-168l21.5 25v136z" fill="#263079" fill-rule="evenodd"/><path d="m75.5 261h-47v128h47z" fill="#2736af"/><path d="m97 236-21.5-25h-47l-21.5 25 21.5 25h47z" fill="#1e2a82"/><path d="m79 269 6-7v3l-6 7zm9 14 6-7v3l-6 7zm-63-2-6-7v3l6 7zm-9-14-6-7v3l6 7zm0 37-6-7v3l6 7zm0-7-6-7v3l6 7zm19-16h14v3h-14zm0 27h14v3h-14zm20-23h14v3h-14zm0 11h14v3h-14z" fill="#7eb0ff" opacity=".6"/><path d="m1313 243h-22v96h22z" fill="#2262ca"/><path d="m1245 243h-22v94h22z" fill="#263079"/><path d="m1291.5 268h-47v59h47z" fill="#2736af"/><path d="m1313 243-21.5-25h-47l-21.5 25 21.5 25h47z" fill="#1e2a82"/><path d="m1295 270 6-7v3l-6 7zm9 14 6-7v3l-6 7zm-9 41 6-7v3l-6 7zm9 0 6-7v3l-6 7zm0-15 6-7v3l-6 7zm-63-28-6-7v3l6 7zm-9-14-6-7v3l6 7zm19 14h14v3h-14zm0 27h14v3h-14zm20-23h14v3h-14zm0 11h14v3h-14zm0 22h14v3h-14z" fill="#7eb0ff" opacity=".6"/><path d="m1237 297h-22v37h22z" fill="#9359b6"/><path d="m1237 297-21.5-25h-47l-21.5 25 21.5 25h47z" fill="#632888"/><path d="m933 285h-22v49h22z" fill="#2262ca"/><path d="m865 285h-22v49h22z" fill="#263079"/><path d="m911.5 310h-47v13h47z" fill="#2736af"/><path d="m933 285-21.5-25h-47l-21.5 25 21.5 25h47z" fill="#1e2a82"/><path d="m915 312 6-7v3l-6 7zm-54 12-6-7v3l6 7z" fill="#7eb0ff" opacity=".6"/><path d="m1085 240h-22v77h22z" fill="#2262ca"/><path d="m1017 240h-22v77h22z" fill="#263079"/><path d="m1063.5 265h-47v46h47z" fill="#2736af"/><path d="m1085 240-21.5-25h-47l-21.5 25 21.5 25h47z" fill="#1e2a82"/><path d="m1067 267 6-7v3l-6 7zm-54 12-6-7v3l6 7zm-9-14-6-7v3l6 7zm19 14h14v3h-14zm20 4h14v3h-14zm0 11h14v3h-14z" fill="#7eb0ff" opacity=".6"/><path d="m1009 291h-22v81h22z" fill="#9359b6"/><path d="m941 291h-22v81h22z" fill="#57167e"/><path d="m987.5 316h-47v48h47z" fill="#71309a"/><path d="m1009 291-21.5-25h-47l-21.5 25 21.5 25h47z" fill="#632888"/><path d="m991 318 6-7v3l-6 7zm-54 12-6-7v3l6 7zm-9-14-6-7v3l6 7zm19 14h14v3h-14zm0 27h14v3h-14zm20-23h14v3h-14zm0 11h14v3h-14z" fill="#dba0ff" opacity=".6"/><path d="m781 268h-22v53h22z" fill="#9359b6"/><path d="m713 268h-22v55h22z" fill="#57167e"/><path d="m759.5 293h-47v18h47z" fill="#71309a"/><path d="m781 268-21.5-25h-47l-21.5 25 21.5 25h47z" fill="#632888"/><path d="m763 295 6-7v3l-6 7zm-54 12-6-7v3l6 7zm10 0h14v3h-14z" fill="#dba0ff" opacity=".6"/><path d="m857 301v62l-21.5 25v-62z" fill="#9359b6"/><path d="m788.5 388-21.5-25v-62l21.5 25z" fill="#57167e"/><path d="m835.5 326h-47v62h47z" fill="#71309a"/><path d="m857 301-21.5-25h-47l-21.5 25 21.5 25h47z" fill="#632888"/><path d="m839 328 6-7v3l-6 7zm-63-2-6-7v3l6 7z" fill="#dba0ff" opacity=".6"/><path d="m1465 221h-22v93h22z" fill="#9359b6"/><path d="m1397 221h-22v111h22z" fill="#57167e"/><path d="m1443.5 246h-47v31h47z" fill="#71309a"/><path d="m1465 221-21.5-25h-47l-21.5 25 21.5 25h47z" fill="#632888"/><path d="m1393 248-6-7v3l6 7zm-9 14-6-7v3l6 7zm0 26-6-7v3l6 7zm63-28 6-7v3l-6 7zm9-14 6-7v3l-6 7zm0 37 6-7v3l-6 7zm0-7 6-7v3l-6 7zm-19-16h-14v3h14zm-20 4h-14v3h14z" fill="#dba0ff" opacity=".6"/><path d="m1465 296h-22v83h22z" fill="#2262ca"/><path d="m1397 296h-22v83h22z" fill="#263079"/><path d="m1443.5 321h-47v51h47z" fill="#2736af"/><path d="m1465 296-21.5-25h-47l-21.5 25 21.5 25h47z" fill="#1e2a82"/><path d="m1447 323 6-7v3l-6 7zm-54 12-6-7v3l6 7zm-9-14-6-7v3l6 7zm19 14h14v3h-14zm0 27h14v3h-14zm20-23h14v3h-14zm0 11h14v3h-14z" fill="#7eb0ff" opacity=".6"/><path d="m1617 271h-22v92h22z" fill="#9359b6"/><path d="m1549 271h-22v92h22z" fill="#57167e"/><path d="m1595.5 296h-47v54h47z" fill="#71309a"/><path d="m1617 271-21.5-25h-47l-21.5 25 21.5 25h47z" fill="#632888"/><path d="m1599 298 6-7v3l-6 7zm9 14 6-7v3l-6 7zm-9 41 6-7v3l-6 7zm9-15 6-7v3l-6 7zm-63-28-6-7v3l6 7zm-9-14-6-7v3l6 7zm19 14h14v3h-14zm0 27h14v3h-14zm20-23h14v3h-14zm0 11h14v3h-14zm0 22h14v3h-14z" fill="#dba0ff" opacity=".6"/><path d="m629 284h-22v71h22z" fill="#9359b6"/><path d="m561 284h-22v71h22z" fill="#57167e"/><path d="m607.5 309h-47v34h47z" fill="#71309a"/><path d="m629 284-21.5-25h-47l-21.5 25 21.5 25h47z" fill="#632888"/><path d="m611 311 6-7v3l-6 7zm-54 12-6-7v3l6 7zm10 0h14v3h-14zm20 4h14v3h-14zm0 11h14v3h-14z" fill="#dba0ff" opacity=".6"/><path d="m705 276v95l-21.5 25v-95z" fill="#2262ca"/><path d="m636.5 396-21.5-25v-95l21.5 25z" fill="#263079"/><path d="m683.5 301h-47v79h47z" fill="#2736af"/><path d="m705 276-21.5-25h-47l-21.5 25 21.5 25h47z" fill="#1e2a82"/><path d="m687 303 6-7v3l-6 7zm9 14 6-7v3l-6 7zm-9 41 6-7v3l-6 7zm-54-43-6-7v3l6 7zm-9-14-6-7v3l6 7zm9 64-6-7v3l6 7zm-9-27-6-7v3l6 7zm0-7-6-7v3l6 7zm19-16h14v3h-14zm0 27h14v3h-14zm20-23h14v3h-14zm0 11h14v3h-14zm0 22h14v3h-14zm-20 13h14v3h-14zm44 12 6-7v3l-6 7z" fill="#7eb0ff" opacity=".6"/><path d="m553 186h-22v117h22z" fill="#2262ca"/><path d="m485 186h-22v104h22z" fill="#263079"/><path d="m531.5 211h-47v65h47z" fill="#2736af"/><path d="m553 186-21.5-25h-47l-21.5 25 21.5 25h47z" fill="#1e2a82"/><path d="m535 213 6-7v3l-6 7zm9 14 6-7v3l-6 7zm-9 41 6-7v3l-6 7zm9 0 6-7v3l-6 7zm0-15 6-7v3l-6 7zm-63-28-6-7v3l6 7zm-9-14-6-7v3l6 7zm9 64-6-7v3l6 7zm10-50h14v3h-14zm0 27h14v3h-14zm20-23h14v3h-14zm0 11h14v3h-14zm0 22h14v3h-14zm24 25 6-7v3l-6 7z" fill="#7eb0ff" opacity=".6"/><path d="m477 230h-22v107h22z" fill="#2262ca"/><path d="m409 230h-22v107h22z" fill="#263079"/><path d="m455.5 255h-47v72h47z" fill="#2736af"/><path d="m477 230-21.5-25h-47l-21.5 25 21.5 25h47z" fill="#1e2a82"/><path d="m459 257 6-7v3l-6 7zm9 14 6-7v3l-6 7zm-9 41 6-7v3l-6 7zm-54-43-6-7v3l6 7zm0 50-6-7v3l6 7zm10-50h14v3h-14zm0 27h14v3h-14zm20-23h14v3h-14zm0 11h14v3h-14zm0 22h14v3h-14zm-20 13h14v3h-14zm44 12 6-7v3l-6 7z" fill="#7eb0ff" opacity=".6"/><path d="m325 230h-22v120h22z" fill="#2262ca"/><path d="m257 230h-22v117h22z" fill="#263079"/><path d="m303.5 255h-47v80h47z" fill="#2736af"/><path d="m325 230-21.5-25h-47l-21.5 25 21.5 25h47z" fill="#1e2a82"/><path d="m307 257 6-7v3l-6 7zm0 55 6-7v3l-6 7zm-54-43-6-7v3l6 7zm-9-14-6-7v3l6 7zm9 64-6-7v3l6 7zm-9-27-6-7v3l6 7zm0-7-6-7v3l6 7zm19-16h14v3h-14zm0 27h14v3h-14zm20-23h14v3h-14zm0 11h14v3h-14zm0 22h14v3h-14zm-20 13h14v3h-14zm44 12 6-7v3l-6 7zm-54 12-6-7v3l6 7z" fill="#7eb0ff" opacity=".6"/><path d="m401 191h-22v172h22z" fill="#9359b6"/><path d="m333 191h-22v172h22z" fill="#57167e"/><path d="m379.5 216h-47v140h47z" fill="#71309a"/><path d="m401 191-21.5-25h-47l-21.5 25 21.5 25h47z" fill="#632888"/><path d="m383 218 6-7v3l-6 7zm9 14 6-7v3l-6 7zm-9 41 6-7v3l-6 7zm9 0 6-7v3l-6 7zm0-15 6-7v3l-6 7zm-63-28-6-7v3l6 7zm-9-14-6-7v3l6 7zm9 64-6-7v3l6 7zm-9-27-6-7v3l6 7zm0-7-6-7v3l6 7zm19-16h14v3h-14zm0 27h14v3h-14zm20-23h14v3h-14zm0 11h14v3h-14zm0 22h14v3h-14zm-20 13h14v3h-14zm44 12 6-7v3l-6 7zm9 14 6-7v3l-6 7zm-9 41 6-7v3l-6 7zm9-15 6-7v3l-6 7zm-63-28-6-7v3l6 7zm-9-14-6-7v3l6 7zm9 64-6-7v3l6 7zm-9-27-6-7v3l6 7zm0-7-6-7v3l6 7zm19-16h14v3h-14zm0 27h14v3h-14zm20-23h14v3h-14zm0 11h14v3h-14zm0 22h14v3h-14z" fill="#dba0ff" opacity=".6"/><path d="m249 309h-22v54h22z" fill="#2262ca"/><path d="m181 309h-22v48h22z" fill="#263079"/><path d="m227.5 334h-47v14h47z" fill="#2736af"/><path d="m249 309-21.5-25h-47l-21.5 25 21.5 25h47z" fill="#1e2a82"/><path d="m231 336 6-7v3l-6 7zm9 14 6-7v3l-6 7zm-63-2-6-7v3l6 7z" fill="#7eb0ff" opacity=".6"/><path d="m1313 349-21.5-25h-47l-21.5 25 21.5 25h47z" fill="#1e2a82"/><g fill="url(#a)"><path d="m303.5 0 21.5 25v50.72l7.5-8.72h47l21.5 25v33.721l7.5-8.721h47l7.5 8.721v-10.721l21.5-25h47l21.5 25v54.721l7.5-8.721h47l7.5 8.721v-94.721l21.5-25h47l21.5 25v53.721l7.5-8.721h47l21.5 25v56.721l7.5-8.721h47l21.5 25v50.721l7.5-8.721h47l17.08 19.86 11.92-13.86h47l7.5 8.721v-34.721l21.5-25h47l21.5 25v77h-22v-6h-46v6h-8v55h-22v-8h-46v8h-22v-38h-8v-11h-46v11h-8v29l-21.5 25h-47l-21.5-25v-42h-8v-10h-46v12h-8v48l-21.5 25v-16h-47v16l-21.5-25v-16h-8v-12h-46v12h-22v-52h-8v-27h-46v14h-8v47h-22v-10h-46v10h-8v26h-22v-7h-46v7h-22v-13h-8v-15h-46v12h-8v16h-22v-15h-46v9h-22v-48l3.44-4h-3.44v-160l21.5-25h47l7.5 8.721v-103.721l21.5-25z"/><path d="m97 380-21.5 25v-16h-47v8h.5v7h-22v-168l21.5-25h47l21.5 25z"/><path d="m1244.5 218-21.5 25v37.721l-7.5-8.721h-47l-21.5 25 21.5 25h46.5v12h8v3h10.32l-10.32 12 21.5 25h47l21.5-25-8.6-10h8.6v-96l-21.5-25z"/><path d="m1396.5 196-21.5 25v158h22v-7h46v7h22v-158l-21.5-25z"/><path d="m1548.5 246-21.5 25v92h22v-13h46v13h22v-92l-21.5-25z"/></g></svg>