<svg width="1884" height="974" fill="none" xmlns="http://www.w3.org/2000/svg"><path d="M819.454 118.896v281.351l-1.129-.563V121.38c.378-.827.754-1.655 1.129-2.484zm-26.545 52.081v216.029l-1.13-.564V172.933c.378-.651.754-1.303 1.13-1.956zm-25.981 40.458v162.611l-1.129-.564v-160.49c.377-.518.753-1.037 1.129-1.557zm-26.545 32.562v116.807l-1.13-.564V245.202c.377-.4.754-.802 1.13-1.205zm-25.981 24.183v79.664l-1.129-.564v-78.214c.377-.293.753-.589 1.129-.886zm-26.545 17.282v49.14l-1.13-.563v-48.005c.377-.189.754-.379 1.13-.572zm-25.981 9.772v26.408l-1.129-.563v-25.581c.377-.086.753-.174 1.129-.264zm-26.545 2.607V308.4l-1.13-.563v-10.054c.377.022.754.041 1.13.058zm-25.981-4.912v2.511l-1.129-.563v-2.334c.376.131.753.26 1.129.386z" fill="#38428E"/><path fill-rule="evenodd" clip-rule="evenodd" d="M829.736 94.745a1.695 1.695 0 0 0-2.219.903c-23.542 55.871-54.927 114.188-94.02 153.345-39.041 39.103-85.531 58.906-139.621 38.479a1.696 1.696 0 0 0-2.184.986 1.692 1.692 0 0 0 .986 2.182c55.763 21.059 103.605.42 143.218-39.256 39.56-39.623 71.149-98.424 94.744-154.421a1.692 1.692 0 0 0-.904-2.218z" fill="#3147F2"/><path d="M824.256 90.84C778.393 202.895 701.712 325.466 594.83 283.912" stroke="#68D1AB" stroke-width="2" stroke-linecap="round" stroke-dasharray="0.1 16"/><path d="M835.675 79.025l-11.756-5.874v662.214l11.756 5.911V79.025z" fill="#3147F2"/><path d="M847.432 73.15l-11.756 5.874v662.252l11.756-5.911V73.151z" fill="#66A1FF"/><path transform="scale(-1.2649 .63246) rotate(-45 -195.362 866.537)" fill="#1A71FF" d="M0 0H13.143V13.143H0z"/><path d="M1212.44 596.321l1.13.564V310.05c-.37.658-.75 1.314-1.13 1.968v284.303zm-26.28-13.111l1.13.563V353.971c-.38.6-.76 1.197-1.13 1.792V583.21zm-26.29-13.112l1.13.563V393.345c-.38.527-.76 1.052-1.13 1.574v175.179zm-26.29-13.112l1.13.564V427.12c-.38.439-.75.875-1.13 1.308v128.558zm-26.29-13.111l1.13.563v-90.382c-.38.331-.75.658-1.13.983v88.836zM1081 530.763l1.13.563v-58.599c-.37.201-.75.399-1.13.594v57.442zm-26.28-13.112l1.13.564v-36.634c-.38.049-.76.095-1.13.137v35.933zm-26.29-13.111l1.13.563v-26.044c-.38-.125-.76-.253-1.13-.386v25.867zm-26.29-13.112l1.13.563V463.79c-.38-.316-.75-.635-1.13-.958v28.596zm-26.289-13.112l1.13.564v-44.035c-.377-.515-.754-1.034-1.13-1.557v45.028zm-26.288-13.112l1.129.564v-73.796c-.376-.712-.753-1.428-1.129-2.149v75.381zm-26.288-13.111l1.129.563V335.721c-.376-.896-.753-1.796-1.129-2.7v119.072zm-26.288-13.112l1.129.563V267.376c-.376-1.056-.753-2.117-1.129-3.181v174.786zm-26.289-13.112l1.13.564V188.734l-1.13-3.58v240.715z" fill="#38428E"/><path fill-rule="evenodd" clip-rule="evenodd" d="M843.426 94.509a1.693 1.693 0 0 0-1.156 2.097c31.71 109.537 60.649 195.968 88.945 259.074 14.149 31.554 28.157 57.324 42.3 77.251 14.135 19.918 28.465 34.086 43.285 42.327 14.87 8.267 30.19 10.538 46.14 6.733 15.89-3.792 32.29-13.586 49.45-29.212 34.31-31.232 72.09-86.146 115.48-164.704.46-.819.16-1.849-.66-2.301a1.691 1.691 0 0 0-2.3.664c-43.37 78.514-80.93 133.005-114.8 163.838-16.92 15.406-32.82 24.81-47.96 28.421-15.08 3.598-29.53 1.478-43.7-6.399-14.22-7.903-28.196-21.634-42.171-41.326-13.969-19.683-27.874-45.237-41.971-76.677-28.197-62.883-57.083-149.129-88.783-258.63a1.695 1.695 0 0 0-2.099-1.156z" fill="#3147F2"/><path d="M1222.9 276.014c-170.23 313.518-250.806 246.461-375.215-190.74" stroke="#68D1AB" stroke-width="2" stroke-linecap="round" stroke-dasharray="0.1 16"/><path d="M1230 276.057l-11.76-5.874v662.214l11.76 5.911V276.057z" fill="#3147F2"/><path d="M1241.75 270.183l-11.75 5.874v662.251l11.75-5.911V270.183z" fill="#66A1FF"/><path transform="scale(-1.2649 .63246) rotate(-45 24.825 1398.603)" fill="#1A71FF" d="M0 0H13.143V13.143H0z"/><path d="M1475.77 728.12l1.13.564v-.954c-.38-.25-.75-.501-1.13-.752v1.142zm-26.55-13.24l1.13.564v-7.049c-.37-.301-.75-.602-1.13-.905v7.39zm-26.54-13.24l1.13.564v-17.12c-.38-.364-.76-.728-1.13-1.094v17.65zm-25.98-12.958l1.13.563v-31.734c-.38-.44-.76-.881-1.13-1.323v32.494zm-26.55-13.24l1.13.563v-52.777c-.37-.539-.75-1.079-1.13-1.619v53.833zm-25.98-12.958l1.13.563v-80.989c-.38-.663-.75-1.327-1.13-1.992v82.418zm-26.54-13.24l1.13.563V530.013c-.38-.825-.76-1.65-1.13-2.477v121.708zm-25.98-12.959l1.13.564V466.878c-.38-1.015-.76-2.032-1.13-3.051v172.458zm-26.55-13.24l1.13.564V388.334c-.38-1.214-.75-2.428-1.13-3.644v238.355z" fill="#38428E"/><path fill-rule="evenodd" clip-rule="evenodd" d="M1237.79 292.794a1.692 1.692 0 0 0-1.14 2.103c2.58 8.754 5.16 17.568 7.75 26.425 22.93 78.444 46.85 160.221 83.29 233.275 40.58 81.348 96.77 152.026 184.61 195.419a1.7 1.7 0 0 0 2.27-.768c.41-.838.07-1.854-.77-2.268-86.97-42.964-142.71-112.969-183.08-193.894-36.3-72.765-60.25-153.967-83.07-232.73-2.59-8.849-5.17-17.66-7.75-26.416a1.703 1.703 0 0 0-2.11-1.146z" fill="#3147F2"/><path d="M1244.12 289.37c50.17 171.464 98.47 365.061 270.67 450.793" stroke="#68D1AB" stroke-width="2" stroke-linecap="round" stroke-dasharray="0.1 16"/><path d="M1563.31 843.26L339.685 232.485V219.35L1563.31 830.124v13.136z" fill="url(#paint0_linear)"/><path d="M1622.05 800.776L398.648 189.619l-59.042 29.744L1563.28 830.165l58.77-29.389z" fill="url(#paint1_linear)"/><path stroke="#DBA0FF" stroke-width="4" stroke-linecap="round" stroke-dasharray="0.1 29" d="M1823.32 942.895L2.695 33.083"/><path stroke="#DBA0FF" stroke-width="4" stroke-linecap="round" stroke-dasharray="0.1 28.7" d="M1881.32 912.895L61.096 3.282"/><path d="M740.383 152.561v266.877l-1.129-.564V154.847c.378-.762.754-1.524 1.129-2.286zm-25.98 47.121v206.796l-1.13-.564V201.5c.378-.605.754-1.211 1.13-1.818zm-26.546 38.388v155.166l-1.129-.564V239.515c.377-.48.753-.962 1.129-1.445zm-25.98 29.649v112.557l-1.13-.564V268.843c.377-.373.754-.748 1.13-1.124zm-26.546 22.948v76.367l-1.129-.563v-74.987c.377-.27.753-.543 1.129-.817zm-26.545 15.854v47.271l-1.13-.563v-46.188c.377-.172.754-.345 1.13-.52zm-25.981 8.738v25.573l-1.129-.563v-24.783c.377-.073.753-.149 1.129-.227zm-26.545 1.931v10.401l-1.13-.564v-9.914c.377.028.754.053 1.13.077zm-25.981-5.148v2.589l-1.129-.564v-2.411c.377.131.753.26 1.129.386z" fill="#38428E"/><path fill-rule="evenodd" clip-rule="evenodd" d="M755.749 118.733a1.695 1.695 0 0 0-2.219.903c-23.529 55.84-56.175 112.952-96.524 150.909-40.3 37.91-88.075 56.558-142.2 36.118a1.694 1.694 0 1 0-1.198 3.168c55.727 21.045 104.825 1.65 145.721-36.82 40.846-38.424 73.716-96.032 97.324-152.06a1.693 1.693 0 0 0-.904-2.218z" fill="#3147F2"/><path d="M749.099 115.596c-45.668 110.461-126.95 226.552-233.381 185.588" stroke="#68D1AB" stroke-width="2" stroke-linecap="round" stroke-dasharray="0.1 16"/><path transform="scale(-1.26487 .63253) rotate(-45 -179.537 859.984)" fill="#1A71FF" d="M0 0H13.142V65.712H0z"/><path d="M835.682 92.159L776.9 121.53v-13.136l58.782-29.371v13.135z" fill="#66A1FF"/><path transform="scale(-1.26487 .63253) rotate(-45 -29.134 922.283)" fill="#1A71FF" d="M0 0H13.142V65.712H0z"/><path d="M835.682 170.972L776.9 200.343v-13.135l58.782-29.372v13.136z" fill="#66A1FF"/><path transform="scale(-1.26487 .63253) rotate(-45 121.27 984.582)" fill="#1A71FF" d="M0 0H13.142V65.712H0z"/><path d="M835.682 249.784L776.9 279.156v-13.135l58.782-29.372v13.135z" fill="#66A1FF"/><path transform="scale(-1.26487 .63253) rotate(-45 271.675 1046.882)" fill="#1A71FF" d="M0 0H13.142V65.712H0z"/><path d="M835.682 328.597L776.9 357.969v-13.136l58.782-29.371v13.135z" fill="#66A1FF"/><path d="M765.145 114.268l-11.757-5.874v662.214l11.757 5.911V114.268z" fill="#3147F2"/><path d="M776.902 108.394l-11.757 5.874v662.251l11.757-5.911V108.394z" fill="#66A1FF"/><path transform="scale(-1.26491 .63246) rotate(-45 -100.217 827.092)" fill="#1A71FF" d="M0 0H13.143V13.143H0z"/><path d="M791.803 201.585v243.562l1.129.564V205.266l-1.129-3.681zm26.545 82.442v174.38l1.13.564V287.33l-1.13-3.303zm25.981 71.014v116.343l1.129.564v-114.07c-.376-.942-.752-1.887-1.129-2.837zm26.545 60.491v69.112l1.13.564v-67.401c-.377-.754-.753-1.512-1.13-2.275zm25.981 82.089v-36.344c.376.561.753 1.118 1.129 1.67v35.239l-1.129-.565zm26.545 13.26v-17.486c.376.35.753.696 1.13 1.037v17.013l-1.13-.564zm25.981 12.977v-13.234c.376.151.752.298 1.129.442v13.357l-1.129-.565zm26.545 13.26V514.68c.376-.033.753-.069 1.13-.109v23.111l-1.13-.564zm25.984 12.977v-43.214c.37-.189.75-.381 1.13-.577v44.356l-1.13-.565zm26.54 13.26v-74.696c.38-.323.75-.649 1.13-.978v76.238l-1.13-.564zm26.55 13.26V461.844c.37-.433.75-.869 1.13-1.307v116.642l-1.13-.564zm25.98 12.977V428.827c.37-.52.75-1.042 1.13-1.566v162.895l-1.13-.564zm26.54 13.26V389.529c.38-.591.76-1.184 1.13-1.779v215.666l-1.13-.564zm25.98 12.977V346.713c.38-.647.76-1.295 1.13-1.945v271.625l-1.13-.564z" fill="#38428E"/><path fill-rule="evenodd" clip-rule="evenodd" d="M769.588 126.004a1.693 1.693 0 0 0-1.157 2.097c31.71 109.535 60.464 195.89 88.482 258.883 14.01 31.498 27.857 57.202 41.825 77.059 13.962 19.848 28.108 33.944 42.749 42.112 14.692 8.197 29.83 10.392 45.609 6.514 15.724-3.865 31.954-13.727 48.974-29.407 34.02-31.342 71.62-86.328 115.01-164.884.46-.819.16-1.849-.66-2.301a1.691 1.691 0 0 0-2.3.664c-43.37 78.516-80.75 133.084-114.35 164.031-16.78 15.464-32.52 24.93-47.483 28.608-14.907 3.664-29.169 1.617-43.148-6.181-14.029-7.827-27.824-21.48-41.628-41.103-13.797-19.614-27.541-45.102-41.501-76.488-27.921-62.773-56.623-148.946-88.324-258.448a1.694 1.694 0 0 0-2.098-1.156z" fill="#3147F2"/><path d="M1143.79 310.235C975.595 621.947 898.84 556.46 775.919 121.777" stroke="#68D1AB" stroke-width="2" stroke-linecap="round" stroke-dasharray="0.1 16"/><path transform="matrix(-.8944 -.44727 -.8944 .44727 1230 276.055)" fill="#1A71FF" d="M0 0H13.142V65.712H0z"/><path d="M1230 289.19l-58.78 29.372v-13.135l58.78-29.372v13.135z" fill="#66A1FF"/><path transform="matrix(-.8944 -.44727 -.8944 .44727 1230 354.868)" fill="#1A71FF" d="M0 0H13.142V65.712H0z"/><path d="M1230 368.003l-58.78 29.372V384.24l58.78-29.372v13.135z" fill="#66A1FF"/><path transform="matrix(-.8944 -.44727 -.8944 .44727 1230 433.68)" fill="#1A71FF" d="M0 0H13.142V65.712H0z"/><path d="M1230 446.816l-58.78 29.371v-13.135L1230 433.68v13.136z" fill="#66A1FF"/><path transform="matrix(-.8944 -.44727 -.8944 .44727 1230 512.493)" fill="#1A71FF" d="M0 0H13.142V65.712H0z"/><path d="M1230 525.628L1171.22 555v-13.135l58.78-29.372v13.135z" fill="#66A1FF"/><path d="M1159.47 311.299l-11.76-5.873v654.213l11.76 5.911V311.299z" fill="#3147F2"/><path d="M1171.22 305.426l-11.75 5.873V965.55l11.75-5.911V305.426z" fill="#66A1FF"/><path transform="scale(-1.2649 .63246) rotate(-45 119.97 1359.158)" fill="#1A71FF" d="M0 0H13.143V13.143H0z"/><path d="M1396.7 747.055l1.13.564v-1.025c-.38-.227-.76-.454-1.13-.683v1.144zm-26.55-13.24l1.13.564v-5.656c-.38-.282-.75-.566-1.13-.85v5.942zm-26.54-13.24l1.13.564v-14.605c-.38-.35-.76-.702-1.13-1.054v15.095zm-25.98-12.958l1.13.563v-28.495c-.38-.433-.76-.867-1.13-1.301v29.233zm-26.55-13.24l1.13.563v-49.232c-.38-.538-.75-1.077-1.13-1.617v50.286zm-25.98-12.958l1.13.563v-77.616c-.38-.669-.75-1.339-1.13-2.01v79.063zm-26.54-13.24l1.12.563V551.627c-.37-.838-.75-1.677-1.12-2.518v119.07zm-25.99-12.958l1.13.563V487.301c-.37-1.036-.75-2.074-1.13-3.113v171.033zm-26.54-13.24l1.13.563V407.071c-.38-1.24-.75-2.481-1.13-3.724v238.634z" fill="#38428E"/><path fill-rule="evenodd" clip-rule="evenodd" d="M1165.76 322.991c-.88.264-1.38 1.203-1.12 2.098 2.16 7.463 4.31 14.953 6.47 22.46 47.64 165.554 97.67 338.881 262.16 421.657.83.414 1.82.635 2.23-.201.4-1.401.07-2.414-.76-2.827-163.15-82.101-212.8-254.04-260.56-419.977-2.12-7.372-4.24-14.73-6.36-22.067a1.655 1.655 0 0 0-2.06-1.143z" fill="#3147F2"/><path d="M1171.91 319.348c50.22 171.65 94.95 356.483 267.29 442.308" stroke="#68D1AB" stroke-width="2" stroke-linecap="round" stroke-dasharray="0.1 16"/><path fill-rule="evenodd" clip-rule="evenodd" d="M835.678 67.273l11.755 5.878v29.087c30.953 106.384 59.245 190.437 86.875 252.057 14.097 31.44 28.002 56.993 41.971 76.677 13.976 19.692 27.951 33.422 42.171 41.326 5.69 3.161 11.42 5.396 17.22 6.705 33-31.136 69.66-84.877 112.04-161.526v-12.052l11.76-5.877.02.012 58.76-29.383v.001l11.75-5.873 11.75 5.878v30.061c1.96 6.66 3.92 13.348 5.88 20.059v.015l.01.003.01.034c22.82 78.764 46.77 159.965 83.07 232.731 38.22 76.611 90.21 143.436 169.44 186.796l121.87 60.883.02-.011v13.135l-58.74 29.35v.021l-.02-.011-.02.012v-.023l-321.52-160.484v249.643l-11.75 5.91-11.76-5.911V671.017l-47.02-23.469v320.091l-11.75 5.911-11.76-5.911V635.811L847.433 485.928v249.437l-11.757 5.911-11.757-5.911V474.191l-47.017-23.469v319.886l-11.757 5.911-11.757-5.911V438.985l-413.703-206.5v-13.083l-.079-.04 59.042-29.744 197.692 98.759c9.94 3.544 19.621 5.73 29.044 6.687 10.996-6.761 21.543-15.038 31.622-24.52 40.268-37.88 72.864-94.838 96.382-150.571v-11.579h.004l82.286-41.12zm382.562 227.795l-47.02 23.493v17.366c.99 3.421 1.98 6.846 2.96 10.273 1.66 5.772 3.33 11.552 5 17.334 12.49-19.304 25.49-41.013 39.06-65.138v-3.328zm-32.08 104.205c-.81-2.718-1.61-5.437-2.42-8.156l-12.52 6.257v53.945l14.81-7.404v-40.568l.13.419v-4.493zm-5.74-31.434c.01.019.01.039.02.059l5.72-2.859v-6.11c-1.93 3.025-3.84 5.995-5.74 8.91zm6.87 23.516c4.44 15.071 8.98 30.12 13.71 45.075l11.44-5.725v-53.928l-25.15 12.571v2.007zm10.69 46.585a2109.1 2109.1 0 0 1-10.69-34.873v40.219l10.69-5.346zm9.94 19.91l4.52-2.26v15.695c-1.53-4.465-3.03-8.944-4.52-13.435zm4.52 23.614a1344.81 1344.81 0 0 1-7.53-22.107l-17.62 8.804v53.938l25.15-12.581v-28.054zm1.13-6.896v-19.543l4.67-2.332v35.128c-1.58-4.403-3.13-8.821-4.67-13.253zm4.67 23.014c-1.58-4.29-3.13-8.597-4.67-12.917v2.278l.13.358v21.587l4.54-2.269v-9.037zm23.51 49.554V312.289c.88 3.005 1.76 6.016 2.65 9.032V321.33c6.72 22.982 13.52 46.25 20.7 69.501v204.128c-8.4-15.492-16.14-31.471-23.35-47.823zm23.35 54.739c-8.39-15.089-16.14-30.648-23.35-46.568v55.489l23.35 11.663v-20.584zm1.13-4.843V394.479c7.88 25.385 16.23 50.731 25.42 75.642V635.72l-3.02-1.507c-7.97-12.017-15.41-24.432-22.4-37.181zm16.48 34.225a519.571 519.571 0 0 1-16.48-27.362v19.129l16.48 8.233zm-105.93-264.038c-1.86-6.434-3.71-12.862-5.56-19.278v24.565l3.1-1.548c.82-1.236 1.64-2.482 2.46-3.739zm9.25 101.569v53.939l-14.81 7.404v-53.945l14.81-7.398zm0 78.813v35.358l-14.81-7.397v-20.563l14.81-7.398zm-38.32 16.215l-13-6.494V429.71c4.28-4.92 8.61-10.177 13-15.77v149.876zm0-155.393a425.296 425.296 0 0 1-13.08 16.181v-77.103c4.3-7.433 8.66-15.114 13.08-23.043v83.965zm39.58-43.949v-7.327c8.17-12.922 16.55-26.834 25.15-41.735v36.48l-25.15 12.582zm30.95 167.032l-4.54 2.267v63.011l4.54 2.266v-67.544zm-30.95 15.467l25.15-12.571v61.752l-25.15-12.568v-36.613zm26.28-116.833v-53.928l4.67-2.332v53.926l-4.67 2.334zm0-78.812v-37.875c1.55-2.691 3.11-5.414 4.67-8.169v43.71l-4.67 2.334zm-173.8 128.445c5.02.752 10.09.82 15.23.207v-16.159c-5.16 5.819-10.23 11.136-15.23 15.952zm16.36.062c2-.277 4-.656 6.02-1.138 6.15-1.466 12.42-3.886 18.83-7.274v-40.135c-8.51 11.639-16.78 22.056-24.85 31.252v17.295zm25.98-9.018c8.22-4.48 16.68-10.545 25.41-18.226v-60.344c-8.7 13.638-17.17 26.135-25.41 37.491v41.079zm26.54-19.228c.49-.433.97-.871 1.46-1.314 7.6-6.922 15.39-15.038 23.39-24.35v-76.474c-8.5 14.648-16.78 28.323-24.85 41.023v61.115zm-72.58 31.672l.63-.582c5.92 1.153 11.92 1.401 18.02.742v33.939l-25.14-12.556v-15.815c2.15-1.814 4.32-3.723 6.49-5.728zm-3.37-1.502c-1.06.954-2.1 1.884-3.14 2.791v-3.711c1.04.335 2.09.642 3.14.92zm-4.27 8.195c-3.83 3.171-7.61 6.038-11.36 8.6l11.36 5.674v-14.274zm0-4.429c-5.04 4.314-9.98 8.075-14.84 11.29l-10.32-5.155v-25.674c4.47 3.647 8.98 6.739 13.53 9.271 3.85 2.137 7.72 3.874 11.63 5.208v5.06zm-156.426-59.439l5.19 2.592a505.077 505.077 0 0 1-5.19-9.912v7.32zm10.491 5.24a509.116 509.116 0 0 1-10.667-20.464V194.336c8.538 26.83 16.908 51.804 25.159 74.915v169.315l-14.492-7.24zm-35.062-17.515l23.266 11.623v-9.245c-4.584-9.107-9.176-18.842-13.785-29.205a906.788 906.788 0 0 1-9.481-22.131v48.958zm12.577-28.203c-4.172-9.381-8.362-19.284-12.577-29.71V114.319c7.912 26.954 15.656 52.441 23.266 76.459v217.786a701.613 701.613 0 0 1-10.689-22.956zm-36.091-76.02v-6.242a1852.23 1852.23 0 0 1-4.441-12.593v21.056l4.441-2.221zm0-16.4a1984.8 1984.8 0 0 1-4.464-12.868v-22.427l4.464-2.231v37.526zm-5.594 19.197v-24.948a2156.965 2156.965 0 0 1-8.416-24.774l-16.976 8.482v53.938l25.392-12.698zm0-35.366a2231.067 2231.067 0 0 1-5.354-15.886l5.354-2.676v18.562zm-25.392-30.748l9.961-4.982a3031.258 3031.258 0 0 1-9.961-31.401v36.383zm13.027-6.515a3129.352 3129.352 0 0 1-13.051-41.398v-6.014l25.416-12.7v53.929l-12.365 6.183zm-14.18 7.091v-40.668c-1.179-3.798-2.36-7.631-3.546-11.499l-11.332 5.662v53.945l14.878-7.44zm-.472-53.703l.472-.236v1.775l-.472-1.539zm-14.406-17.669l4.782-2.392a4355.566 4355.566 0 0 1-4.782-16.04v18.432zm7.858-3.93c-2.6-8.664-5.219-17.494-7.858-26.488V121.53l47.017-23.493v6.027c-9.275 21.374-19.689 42.946-31.234 63.518l-7.925 3.963zm348.74 385.174l-24.85-12.414v-88.204c1.25-1.076 2.49-2.184 3.74-3.322 6.89-6.274 13.92-13.504 21.11-21.689v125.629zm-52.52-26.239l-24.85-12.415v-34.813c2.26-.296 4.53-.717 6.81-1.261 5.94-1.417 11.95-3.671 18.04-6.755v55.244zM776.902 279.155l14.878-7.434v53.939l-14.878 7.44v-53.945zm0 78.813l14.878-7.434v35.475l-14.878-7.432v-20.609zm-36.519 2.366l13.005 6.497V232.058a286.238 286.238 0 0 1-13.005 14.715v113.561zm.001-118.519a293.418 293.418 0 0 0 13.004-15.119v-98.123a656.708 656.708 0 0 1-13.004 28.064v85.178zm83.535-64.966v53.926l-4.464 2.233V179.08l4.464-2.231zm-4.441 222.997l4.441 2.219v-67.59l-4.441 2.219v63.152zm-26.545-49.888l25.392-12.688v62l-25.392-12.685v-36.627zm25.392-225.182c-6.297 13.522-13.055 26.998-20.273 40.122l20.273-10.138v-29.984zm1.13-2.437v31.856l4.464-2.233v-39.476a799.665 799.665 0 0 1-4.464 9.853zm-85.958 126.653c-6.178 6.188-12.542 11.893-19.094 17.031v-62.357c8.943-14.394 17.235-29.454 24.851-44.748v84.113c-1.9 2.032-3.819 4.02-5.757 5.961zm-20.224 17.91c-8.181 6.314-16.653 11.744-25.415 16.13v-41.364c8.968-11.329 17.447-23.493 25.415-36.192v61.426zm-26.545 16.688c-8.04 3.93-16.323 6.98-24.851 9.027v-22.038c8.653-8.376 16.941-17.608 24.851-27.492v40.503zm-27.399-10.58c.474-.445.947-.894 1.419-1.345v21.217a108.139 108.139 0 0 1-25.416 2.744v-3.032c8.284-5.754 16.286-12.33 23.997-19.584zm-28.303 22.484a177.173 177.173 0 0 0 3.176-2.122v2.236a113.248 113.248 0 0 1-3.176-.114zm-4.857 3.054c2.699.248 5.376.398 8.033.453v8.29l-12.397-6.193a166.193 166.193 0 0 0 4.364-2.55zm-8.035.716l-5.536-2.766c2.684.563 5.348 1.029 7.992 1.401-.816.463-1.635.918-2.456 1.365zm42.613-2.908a111.3 111.3 0 0 1-25.416 2.663v8.836l25.416 12.696v-24.195zm25.981-9.012c-8.036 3.81-16.32 6.769-24.851 8.755v25.017l24.851 12.414v-46.186zm26.545-16.191c-8.172 6.122-16.645 11.392-25.416 15.65v47.291l25.416 12.697v-75.638zm22.623-19.769c-6.914 6.926-14.079 13.271-21.493 18.916v77.055l24.851 12.415V247.956a247.772 247.772 0 0 1-3.358 3.428zm162.22 187.746V272.406c8.493 23.646 16.862 45.314 25.159 64.997v114.295l-25.159-12.568zm26.288 13.133V340.072a875.175 875.175 0 0 0 6.811 15.607c6.135 13.682 12.244 26.277 18.348 37.779v71.373l-25.159-12.568zm26.289 13.132v-69.821c7.597 14.148 15.19 26.603 22.822 37.357a256.51 256.51 0 0 0 2.336 3.237v41.795l-25.158-12.568zm51.447 25.7l-25.159-12.568v-40.833c8.291 11.105 16.657 20.236 25.159 27.358v26.043zm79.99-16.453c8.22-4.295 16.6-10.093 25.16-17.373v86.356l-25.16-12.568v-56.415zm210.65 161.642V473.17c7.63 20.501 15.84 40.697 24.85 60.366v115.163l-24.85-12.415zm25.98 12.979V535.991a697.864 697.864 0 0 0 8.93 18.606 610.121 610.121 0 0 0 16.48 30.848v76.515l-25.41-12.697zm26.54 13.261v-75.116c7.74 13.377 15.99 26.375 24.85 38.909v48.621l-24.85-12.414zm25.98 12.979v-47.595c7.97 11.173 16.42 21.973 25.42 32.34v27.951l-25.42-12.696zm26.55 13.261v-27.22a389.504 389.504 0 0 0 24.85 25.916v13.718l-24.85-12.414zm25.98 12.978v-13.213a368.898 368.898 0 0 0 25.41 21.855v4.055l-25.41-12.697zm26.54 13.261v-3.738a363.745 363.745 0 0 0 15.98 11.719l-15.98-7.981z" fill="url(#paint2_linear)"/><defs><linearGradient id="paint0_linear" x1="951.499" y1="236.012" x2="951.499" y2="823.903" gradientUnits="userSpaceOnUse"><stop stop-color="#3147F2" stop-opacity="0"/><stop offset=".116" stop-color="#3147F2"/><stop offset=".94" stop-color="#3147F2"/><stop offset="1" stop-color="#3147F2" stop-opacity="0"/></linearGradient><linearGradient id="paint1_linear" x1="381.37" y1="1716.04" x2="-351.589" y2="739.033" gradientUnits="userSpaceOnUse"><stop stop-color="#0F132C" stop-opacity="0"/><stop offset=".068" stop-color="#0F132C"/><stop offset=".838" stop-color="#0F132C"/><stop offset=".982" stop-color="#0F132C" stop-opacity="0"/></linearGradient><linearGradient id="paint2_linear" x1="822.5" y1="765" x2="1031.91" y2="197.794" gradientUnits="userSpaceOnUse"><stop offset=".099" stop-color="#290B43" stop-opacity=".8"/><stop offset=".427" stop-color="#290B43" stop-opacity="0"/><stop offset=".651" stop-color="#290B43" stop-opacity="0"/><stop offset="1" stop-color="#290B43" stop-opacity=".65"/></linearGradient></defs></svg>