<svg fill="none" height="948" width="1956" xmlns="http://www.w3.org/2000/svg"><path d="M1628 150h44v245h-44z" fill="#1a0c3c"/><path d="M1764 150h44v207h-44z" fill="#221e5a"/><path d="M1671 200.439h94V332h-94z" fill="#1f164b"/><path d="M1628 150.219L1671 100h94l43 50.219-43 50.22h-94z" fill="#211341"/><path d="M1480 114v834h43V114z" fill="#1a0c3c"/><path d="M1617 948h43V114h-43z" fill="#201963"/><path d="M1523 164h94v784h-94z" fill="#1d1555"/><path d="M1480 114.219L1523 64h94l43 50.219-43 50.22h-94z" fill="#1f1042"/><path d="M888 496v452h43V496z" fill="#1a0c3c"/><path d="M1025 948h43V496h-43z" fill="#221e5a"/><path d="M931 546h94v402h-94z" fill="#1f164b"/><path d="M888 496.219L931 446h94l43 50.219-43 50.22h-94z" fill="#211341"/><path d="M592 433v515h43V433z" fill="#1a0c3c"/><path d="M729 948h43V433h-43z" fill="#221e5a"/><path d="M635 483h94v465h-94z" fill="#1f164b"/><path d="M592 433.219L635 383h94l43 50.219-43 50.22h-94z" fill="#211341"/><path d="M148 50h44v213h-44z" fill="#1a0c3c"/><path d="M284 50h44v239h-44z" fill="#221e5a"/><path d="M191 100.439h94V232h-94z" fill="#1f164b"/><path d="M148 50.22L191 0h94l43 50.22-43 50.219h-94z" fill="#211341"/><path d="M0 176v772h43V176z" fill="#1a0c3c"/><path d="M137 948h43V176h-43z" fill="#221c6b"/><path d="M43 226h94v722H43z" fill="#1d1555"/><path d="M0 176.219L43 126h94l43 50.219-43 50.22H43z" fill="#1f1042"/><path d="M1184 414v534h43V414z" fill="#1a0c3c"/><path d="M1321 948h43V414h-43z" fill="#221c6b"/><path d="M1227 464h94v484h-94z" fill="#1d1555"/><path d="M1184 414.219L1227 364h94l43 50.219-43 50.22h-94z" fill="#1f1042"/><path d="M296 307v641h43V307z" fill="#1a0c3c"/><path d="M433 948h43V305h-43z" fill="#221c6b"/><path d="M339 357h94v591h-94z" fill="#1d1555"/><path d="M296 307l43-50h94l43 50-43 50h-94z" fill="#1f1042"/><path d="M148 272v676h43V272z" fill="#1a0c3c"/><path d="M285 948h43V272h-43z" fill="#221e5a"/><path d="M191 322h94v626h-94z" fill="#1f164b"/><path d="M148 272.219L191 222h94l43 50.219-43 50.22h-94z" fill="#211341"/><path d="M1776 228v720h43V228z" fill="#1a0c3c"/><path d="M1913 948h43V228h-43z" fill="#221c6b"/><path d="M1819 278h94v670h-94z" fill="#1d1555"/><path d="M1776 228.219L1819 178h94l43 50.219-43 50.22h-94z" fill="#1f1042"/><path d="M1628 332v616h43V332z" fill="#1a0c3c"/><path d="M1765 948h43V332h-43z" fill="#221e5a"/><path d="M1671 382h94v566h-94z" fill="#1f164b"/><path d="M1628 332.219L1671 282h94l43 50.219-43 50.22h-94z" fill="#211341"/><path d="M1332 320v628h43V320z" fill="#1a0c3c"/><path d="M1469 948h33V320h-33z" fill="#221e5a"/><path d="M1375 370h94v578h-94z" fill="#1f164b"/><path d="M1332 320.219L1375 270h94l43 50.219-43 50.22h-94z" fill="#211341"/><path d="M740 327v621h43V327z" fill="#1a0c3c"/><path d="M877 948h43V327h-43z" fill="#221c6b"/><path d="M783 377h94v571h-94z" fill="#1d1555"/><path d="M740 327.219L783 277h94l43 50.219-43 50.22h-94z" fill="#1f1042"/><path d="M444 726v222h43V726z" fill="#1a0c3c"/><path d="M581 948h43V726h-43z" fill="#221c6b"/><path d="M487 776h94v172h-94z" fill="#1d1555"/><path d="M444 726.219L487 676h94l43 50.219-43 50.22h-94z" fill="#1f1042"/><path d="M1036 726v222h43V726z" fill="#1a0c3c"/><path d="M1173 948h43V726h-43z" fill="#221e5a"/><path d="M1079 776h94v172h-94z" fill="#1f164b"/><path d="M1036 726.219L1079 676h94l43 50.219-43 50.22h-94z" fill="#211341"/></svg>