<svg width="681" height="554" viewBox="0 0 681 554" fill="none" xmlns="http://www.w3.org/2000/svg">
<g clip-path="url(#clip0)">
<mask id="mask0" mask-type="alpha" maskUnits="userSpaceOnUse" x="-63" y="1" width="712" height="553">
<path d="M115.457 60L90.3233 31L115.457 2L166.543 2L191.677 31L166.543 60H115.457Z" stroke="black" stroke-width="2"/>
<path d="M115.457 118L90.3233 89L115.457 60L166.543 60L191.677 89L166.543 118H115.457Z" stroke="black" stroke-width="2"/>
<path d="M115.457 176L90.3233 147L115.457 118L166.543 118L191.677 147L166.543 176H115.457Z" stroke="black" stroke-width="2"/>
<path d="M115.457 234L90.3233 205L115.457 176L166.543 176L191.677 205L166.543 234H115.457Z" stroke="black" stroke-width="2"/>
<path d="M115.457 292L90.3233 263L115.457 234L166.543 234L191.677 263L166.543 292H115.457Z" stroke="black" stroke-width="2"/>
<path d="M115.457 350L90.3233 321L115.457 292L166.543 292L191.677 321L166.543 350H115.457Z" stroke="black" stroke-width="2"/>
<path d="M115.457 408L90.3233 379L115.457 350L166.543 350L191.677 379L166.543 408H115.457Z" stroke="black" stroke-width="2"/>
<path d="M115.457 466L90.3233 437L115.457 408L166.543 408L191.677 437L166.543 466H115.457Z" stroke="black" stroke-width="2"/>
<path d="M115.457 524L90.3233 495L115.457 466L166.543 466L191.677 495L166.543 524H115.457Z" stroke="black" stroke-width="2"/>
<path d="M-36.5434 60L-61.6767 31L-36.5434 2L14.5434 2L39.6767 31L14.5434 60H-36.5434Z" stroke="black" stroke-width="2"/>
<path d="M-36.5434 118L-61.6767 89L-36.5434 60L14.5434 60L39.6767 89L14.5434 118H-36.5434Z" stroke="black" stroke-width="2"/>
<path d="M-36.5434 176L-61.6767 147L-36.5434 118L14.5434 118L39.6767 147L14.5434 176H-36.5434Z" stroke="black" stroke-width="2"/>
<path d="M-36.5434 234L-61.6767 205L-36.5434 176L14.5434 176L39.6767 205L14.5434 234H-36.5434Z" stroke="black" stroke-width="2"/>
<path d="M-36.5434 292L-61.6767 263L-36.5434 234L14.5434 234L39.6767 263L14.5434 292H-36.5434Z" stroke="black" stroke-width="2"/>
<path d="M-36.5434 350L-61.6767 321L-36.5434 292L14.5434 292L39.6767 321L14.5434 350H-36.5434Z" stroke="black" stroke-width="2"/>
<path d="M-36.5434 408L-61.6767 379L-36.5434 350L14.5434 350L39.6767 379L14.5434 408H-36.5434Z" stroke="black" stroke-width="2"/>
<path d="M-36.5434 466L-61.6767 437L-36.5434 408L14.5434 408L39.6767 437L14.5434 466H-36.5434Z" stroke="black" stroke-width="2"/>
<path d="M-36.5434 524L-61.6767 495L-36.5434 466L14.5434 466L39.6767 495L14.5434 524H-36.5434Z" stroke="black" stroke-width="2"/>
<path d="M191.457 89L166.323 60L191.457 31L242.543 31L267.677 60L242.543 89H191.457Z" stroke="black" stroke-width="2"/>
<path d="M191.457 147L166.323 118L191.457 89L242.543 89L267.677 118L242.543 147H191.457Z" stroke="black" stroke-width="2"/>
<path d="M191.457 205L166.323 176L191.457 147L242.543 147L267.677 176L242.543 205H191.457Z" stroke="black" stroke-width="2"/>
<path d="M191.457 263L166.323 234L191.457 205L242.543 205L267.677 234L242.543 263H191.457Z" stroke="black" stroke-width="2"/>
<path d="M191.457 321L166.323 292L191.457 263L242.543 263L267.677 292L242.543 321H191.457Z" stroke="black" stroke-width="2"/>
<path d="M191.457 379L166.323 350L191.457 321L242.543 321L267.677 350L242.543 379H191.457Z" stroke="black" stroke-width="2"/>
<path d="M191.457 437L166.323 408L191.457 379L242.543 379L267.677 408L242.543 437H191.457Z" stroke="black" stroke-width="2"/>
<path d="M191.457 495L166.323 466L191.457 437L242.543 437L267.677 466L242.543 495H191.457Z" stroke="black" stroke-width="2"/>
<path d="M191.457 553L166.323 524L191.457 495L242.543 495L267.677 524L242.543 553H191.457Z" stroke="black" stroke-width="2"/>
<path d="M39.4566 89L14.3233 60L39.4566 31L90.5434 31L115.677 60L90.5434 89H39.4566Z" stroke="black" stroke-width="2"/>
<path d="M39.4566 147L14.3233 118L39.4566 89L90.5434 89L115.677 118L90.5434 147H39.4566Z" stroke="black" stroke-width="2"/>
<path d="M39.4566 205L14.3233 176L39.4566 147L90.5434 147L115.677 176L90.5434 205H39.4566Z" stroke="black" stroke-width="2"/>
<path d="M39.4566 263L14.3233 234L39.4566 205L90.5434 205L115.677 234L90.5434 263H39.4566Z" stroke="black" stroke-width="2"/>
<path d="M39.4566 321L14.3233 292L39.4566 263L90.5434 263L115.677 292L90.5434 321H39.4566Z" stroke="black" stroke-width="2"/>
<path d="M39.4566 379L14.3233 350L39.4566 321L90.5434 321L115.677 350L90.5434 379H39.4566Z" stroke="black" stroke-width="2"/>
<path d="M39.4566 437L14.3233 408L39.4566 379L90.5434 379L115.677 408L90.5434 437H39.4566Z" stroke="black" stroke-width="2"/>
<path d="M39.4566 495L14.3233 466L39.4566 437L90.5434 437L115.677 466L90.5434 495H39.4566Z" stroke="black" stroke-width="2"/>
<path d="M39.4566 553L14.3233 524L39.4566 495L90.5434 495L115.677 524L90.5434 553H39.4566Z" stroke="black" stroke-width="2"/>
<path d="M267.457 118L242.323 89L267.457 60L318.543 60L343.677 89L318.543 118H267.457Z" stroke="black" stroke-width="2"/>
<path d="M267.457 176L242.323 147L267.457 118L318.543 118L343.677 147L318.543 176H267.457Z" stroke="black" stroke-width="2"/>
<path d="M267.457 234L242.323 205L267.457 176L318.543 176L343.677 205L318.543 234H267.457Z" stroke="black" stroke-width="2"/>
<path d="M267.457 292L242.323 263L267.457 234L318.543 234L343.677 263L318.543 292H267.457Z" stroke="black" stroke-width="2"/>
<path d="M267.457 350L242.323 321L267.457 292L318.543 292L343.677 321L318.543 350H267.457Z" stroke="black" stroke-width="2"/>
<path d="M267.457 408L242.323 379L267.457 350L318.543 350L343.677 379L318.543 408H267.457Z" stroke="black" stroke-width="2"/>
<path d="M267.457 466L242.323 437L267.457 408L318.543 408L343.677 437L318.543 466H267.457Z" stroke="black" stroke-width="2"/>
<path d="M267.457 524L242.323 495L267.457 466L318.543 466L343.677 495L318.543 524H267.457Z" stroke="black" stroke-width="2"/>
<path d="M343.457 147L318.323 118L343.457 89L394.543 89L419.677 118L394.543 147H343.457Z" stroke="black" stroke-width="2"/>
<path d="M343.457 205L318.323 176L343.457 147L394.543 147L419.677 176L394.543 205H343.457Z" stroke="black" stroke-width="2"/>
<path d="M343.457 263L318.323 234L343.457 205L394.543 205L419.677 234L394.543 263H343.457Z" stroke="black" stroke-width="2"/>
<path d="M343.457 321L318.323 292L343.457 263L394.543 263L419.677 292L394.543 321H343.457Z" stroke="black" stroke-width="2"/>
<path d="M343.457 379L318.323 350L343.457 321L394.543 321L419.677 350L394.543 379H343.457Z" stroke="black" stroke-width="2"/>
<path d="M343.457 437L318.323 408L343.457 379L394.543 379L419.677 408L394.543 437H343.457Z" stroke="black" stroke-width="2"/>
<path d="M343.457 495L318.323 466L343.457 437L394.543 437L419.677 466L394.543 495H343.457Z" stroke="black" stroke-width="2"/>
<path d="M419.457 234L394.323 205L419.457 176L470.543 176L495.677 205L470.543 234H419.457Z" stroke="black" stroke-width="2"/>
<path d="M419.457 292L394.323 263L419.457 234L470.543 234L495.677 263L470.543 292H419.457Z" stroke="black" stroke-width="2"/>
<path d="M419.457 350L394.323 321L419.457 292L470.543 292L495.677 321L470.543 350H419.457Z" stroke="black" stroke-width="2"/>
<path d="M419.457 408L394.323 379L419.457 350L470.543 350L495.677 379L470.543 408H419.457Z" stroke="black" stroke-width="2"/>
<path d="M419.457 466L394.323 437L419.457 408L470.543 408L495.677 437L470.543 466H419.457Z" stroke="black" stroke-width="2"/>
<path d="M495.457 321L470.323 292L495.457 263L546.543 263L571.677 292L546.543 321H495.457Z" stroke="black" stroke-width="2"/>
<path d="M495.457 379L470.323 350L495.457 321L546.543 321L571.677 350L546.543 379H495.457Z" stroke="black" stroke-width="2"/>
<path d="M495.457 437L470.323 408L495.457 379L546.543 379L571.677 408L546.543 437H495.457Z" stroke="black" stroke-width="2"/>
<path d="M495.457 495L470.323 466L495.457 437L546.543 437L571.677 466L546.543 495H495.457Z" stroke="black" stroke-width="2"/>
<path d="M571.457 350L546.323 321L571.457 292L622.543 292L647.677 321L622.543 350H571.457Z" stroke="black" stroke-width="2"/>
<path d="M571.457 408L546.323 379L571.457 350L622.543 350L647.677 379L622.543 408H571.457Z" stroke="black" stroke-width="2"/>
</mask>
<g mask="url(#mask0)">
<rect width="681" height="554" fill="url(#paint0_linear)"/>
</g>
<path d="M242.5 321L267.5 350L242.5 379L267.5 408H318.5" stroke="url(#paint1_linear)" stroke-width="2"/>
<path d="M419.5 408H470.5L495.5 379" stroke="url(#paint2_linear)" stroke-width="2"/>
<path d="M267.5 292H318.5L344 321H394.5L419.5 350H470.5" stroke="url(#paint3_linear)" stroke-width="2"/>
<path d="M191.457 321L166.323 292L191.457 263L242.543 263L267.677 292L242.543 321H191.457Z" stroke="url(#paint4_linear)" stroke-width="2"/>
<path opacity="0.08" d="M240.5 257L347.5 210V270L240.5 317V257Z" fill="url(#paint5_linear)"/>
<path d="M172 292L193.5 267L193.5 317L172 292Z" fill="#4F92FC"/>
<rect x="172" y="259" width="22" height="33" fill="#4F92FC"/>
<path d="M240.5 267L262 292L240.5 317V267Z" fill="#3147F2"/>
<rect x="240" y="259" width="22" height="33" fill="#3147F2"/>
<path d="M193.5 284L240.5 284V317H193.5L193.5 284Z" fill="#1A71FF"/>
<path d="M172 259L193.5 234L240.5 234L262 259L240.5 284H193.5L172 259Z" fill="#66A1FF"/>
<path d="M495.457 379L470.323 350L495.457 321L546.543 321L571.677 350L546.543 379H495.457Z" stroke="url(#paint6_linear)" stroke-width="2"/>
<path opacity="0.05" d="M544.5 315L651.5 268V328L544.5 375V315Z" fill="url(#paint7_linear)"/>
<path d="M476 350L497.5 325L497.5 375L476 350Z" fill="#B3B3BF"/>
<rect x="476" y="329" width="22" height="21" fill="#B3B3BF"/>
<path d="M544.5 325L566 350L544.5 375V325Z" fill="#686A79"/>
<rect x="544" y="329" width="22" height="21" fill="#686A79"/>
<path d="M497.5 354L544.5 354V375H497.5L497.5 354Z" fill="#A2A3AD"/>
<path d="M476 329L497.5 304L544.5 304L566 329L544.5 354H497.5L476 329Z" fill="#BDBDC6"/>
<path d="M343.457 437L318.323 408L343.457 379L394.543 379L419.677 408L394.543 437H343.457Z" stroke="url(#paint8_linear)" stroke-width="2"/>
<path opacity="0.1" d="M392.5 373L499.5 326V386L392.5 433V373Z" fill="url(#paint9_linear)"/>
<path d="M324 408L345.5 383L345.5 433L324 408Z" fill="#D38CFF"/>
<rect x="324" y="333" width="22" height="75" fill="#D38CFF"/>
<path d="M392.5 383L414 408L392.5 433V383Z" fill="#882CC0"/>
<rect x="392" y="333" width="22" height="75" fill="#882CC0"/>
<path d="M345.5 358L392.5 358V433H345.5L345.5 358Z" fill="#B455F0"/>
<path d="M324 333L345.5 308L392.5 308L414 333L392.5 358H345.5L324 333Z" fill="#DBA0FF"/>
</g>
<defs>
<linearGradient id="paint0_linear" x1="3.24269e-06" y1="278.199" x2="681" y2="278.199" gradientUnits="userSpaceOnUse">
<stop stop-color="#DADCE6" stop-opacity="0"/>
<stop offset="1" stop-color="#DADCE6"/>
</linearGradient>
<linearGradient id="paint1_linear" x1="243" y1="321" x2="341" y2="382" gradientUnits="userSpaceOnUse">
<stop stop-color="#3F5EF5"/>
<stop offset="1" stop-color="#DBA0FF"/>
</linearGradient>
<linearGradient id="paint2_linear" x1="496" y1="379" x2="420" y2="408" gradientUnits="userSpaceOnUse">
<stop stop-color="#A6A6B1"/>
<stop offset="0.994792" stop-color="#882CC0"/>
</linearGradient>
<linearGradient id="paint3_linear" x1="268" y1="292" x2="471" y2="350" gradientUnits="userSpaceOnUse">
<stop stop-color="#3147F2"/>
<stop offset="1" stop-color="#BDBDC6"/>
</linearGradient>
<linearGradient id="paint4_linear" x1="269" y1="322" x2="165" y2="322" gradientUnits="userSpaceOnUse">
<stop stop-color="#3147F2"/>
<stop offset="1" stop-color="#66A1FF"/>
</linearGradient>
<linearGradient id="paint5_linear" x1="240.5" y1="287.628" x2="351.878" y2="257.906" gradientUnits="userSpaceOnUse">
<stop stop-color="#1D213E"/>
<stop offset="1" stop-color="#1D213E" stop-opacity="0"/>
</linearGradient>
<linearGradient id="paint6_linear" x1="573" y1="380" x2="469" y2="380" gradientUnits="userSpaceOnUse">
<stop stop-color="#686A79"/>
<stop offset="1" stop-color="#BDBDC6"/>
</linearGradient>
<linearGradient id="paint7_linear" x1="544.5" y1="345.628" x2="655.878" y2="315.906" gradientUnits="userSpaceOnUse">
<stop stop-color="#1D213E"/>
<stop offset="1" stop-color="#1D213E" stop-opacity="0"/>
</linearGradient>
<linearGradient id="paint8_linear" x1="421" y1="438" x2="317" y2="438" gradientUnits="userSpaceOnUse">
<stop stop-color="#882CC0"/>
<stop offset="1" stop-color="#DBA0FF"/>
</linearGradient>
<linearGradient id="paint9_linear" x1="392.5" y1="403.628" x2="503.878" y2="373.906" gradientUnits="userSpaceOnUse">
<stop stop-color="#1D213E"/>
<stop offset="1" stop-color="#1D213E" stop-opacity="0"/>
</linearGradient>
<clipPath id="clip0">
<rect width="681" height="554" fill="white"/>
</clipPath>
</defs>
</svg>
