<svg width="912" height="522" viewBox="0 0 912 522" fill="none" xmlns="http://www.w3.org/2000/svg">
<g clip-path="url(#clip0)">
<path d="M-25.5434 29L-50.6767 1.90735e-06L-25.5434 -29L25.5434 -29L50.6767 0L25.5434 29H-25.5434Z" stroke="black" stroke-width="2"/>
<path d="M886.457 29L861.323 1.90735e-06L886.457 -29L937.543 -29L962.677 0L937.543 29H886.457Z" stroke="black" stroke-width="2"/>
<path d="M126.457 29L101.323 1.90735e-06L126.457 -29L177.543 -29L202.677 0L177.543 29H126.457Z" stroke="black" stroke-width="2"/>
<path d="M278.457 29L253.323 1.90735e-06L278.457 -29L329.543 -29L354.677 0L329.543 29H278.457Z" stroke="black" stroke-width="2"/>
<path d="M430.457 29L405.323 1.90735e-06L430.457 -29L481.543 -29L506.677 0L481.543 29H430.457Z" stroke="black" stroke-width="2"/>
<path d="M582.457 29L557.323 1.90735e-06L582.457 -29L633.543 -29L658.677 0L633.543 29H582.457Z" stroke="black" stroke-width="2"/>
<path d="M734.457 29L709.323 1.90735e-06L734.457 -29L785.543 -29L810.677 0L785.543 29H734.457Z" stroke="black" stroke-width="2"/>
<path d="M50.4566 58L25.3233 29L50.4566 1.54972e-06L101.543 0L126.677 29L101.543 58H50.4566Z" stroke="black" stroke-width="2"/>
<path d="M202.457 58L177.323 29L202.457 1.54972e-06L253.543 0L278.677 29L253.543 58H202.457Z" stroke="black" stroke-width="2"/>
<path d="M354.457 58L329.323 29L354.457 1.54972e-06L405.543 0L430.677 29L405.543 58H354.457Z" stroke="black" stroke-width="2"/>
<path d="M506.457 58L481.323 29L506.457 1.54972e-06L557.543 0L582.677 29L557.543 58H506.457Z" stroke="black" stroke-width="2"/>
<path d="M658.457 58L633.323 29L658.457 1.54972e-06L709.543 0L734.677 29L709.543 58H658.457Z" stroke="black" stroke-width="2"/>
<path d="M810.457 58L785.323 29L810.457 1.54972e-06L861.543 0L886.677 29L861.543 58H810.457Z" stroke="black" stroke-width="2"/>
<path d="M-25.5434 87L-50.6767 58L-25.5434 29L25.5434 29L50.6767 58L25.5434 87H-25.5434Z" stroke="black" stroke-width="2"/>
<path d="M886.457 87L861.323 58L886.457 29L937.543 29L962.677 58L937.543 87H886.457Z" stroke="black" stroke-width="2"/>
<path d="M126.457 87L101.323 58L126.457 29L177.543 29L202.677 58L177.543 87H126.457Z" stroke="black" stroke-width="2"/>
<path d="M278.457 87L253.323 58L278.457 29L329.543 29L354.677 58L329.543 87H278.457Z" stroke="black" stroke-width="2"/>
<path d="M430.457 87L405.323 58L430.457 29L481.543 29L506.677 58L481.543 87H430.457Z" stroke="black" stroke-width="2"/>
<path d="M582.457 87L557.323 58L582.457 29L633.543 29L658.677 58L633.543 87H582.457Z" stroke="black" stroke-width="2"/>
<path d="M734.457 87L709.323 58L734.457 29L785.543 29L810.677 58L785.543 87H734.457Z" stroke="black" stroke-width="2"/>
<path d="M50.4566 116L25.3233 87L50.4566 58L101.543 58L126.677 87L101.543 116H50.4566Z" stroke="black" stroke-width="2"/>
<path d="M202.457 116L177.323 87L202.457 58L253.543 58L278.677 87L253.543 116H202.457Z" stroke="black" stroke-width="2"/>
<path d="M354.457 116L329.323 87L354.457 58L405.543 58L430.677 87L405.543 116H354.457Z" stroke="black" stroke-width="2"/>
<path d="M506.457 116L481.323 87L506.457 58L557.543 58L582.677 87L557.543 116H506.457Z" stroke="black" stroke-width="2"/>
<path d="M658.457 116L633.323 87L658.457 58L709.543 58L734.677 87L709.543 116H658.457Z" stroke="black" stroke-width="2"/>
<path d="M810.457 116L785.323 87L810.457 58L861.543 58L886.677 87L861.543 116H810.457Z" stroke="black" stroke-width="2"/>
<path d="M-25.5434 145L-50.6767 116L-25.5434 87L25.5434 87L50.6767 116L25.5434 145H-25.5434Z" stroke="black" stroke-width="2"/>
<path d="M886.457 145L861.323 116L886.457 87L937.543 87L962.677 116L937.543 145H886.457Z" stroke="black" stroke-width="2"/>
<path d="M126.457 145L101.323 116L126.457 87L177.543 87L202.677 116L177.543 145H126.457Z" stroke="black" stroke-width="2"/>
<path d="M278.457 145L253.323 116L278.457 87L329.543 87L354.677 116L329.543 145H278.457Z" stroke="black" stroke-width="2"/>
<path d="M430.457 145L405.323 116L430.457 87L481.543 87L506.677 116L481.543 145H430.457Z" stroke="black" stroke-width="2"/>
<path d="M582.457 145L557.323 116L582.457 87L633.543 87L658.677 116L633.543 145H582.457Z" stroke="black" stroke-width="2"/>
<path d="M734.457 145L709.323 116L734.457 87L785.543 87L810.677 116L785.543 145H734.457Z" stroke="black" stroke-width="2"/>
<path d="M50.4566 174L25.3233 145L50.4566 116L101.543 116L126.677 145L101.543 174H50.4566Z" stroke="black" stroke-width="2"/>
<path d="M202.457 174L177.323 145L202.457 116L253.543 116L278.677 145L253.543 174H202.457Z" stroke="black" stroke-width="2"/>
<path d="M354.457 174L329.323 145L354.457 116L405.543 116L430.677 145L405.543 174H354.457Z" stroke="black" stroke-width="2"/>
<path d="M506.457 174L481.323 145L506.457 116L557.543 116L582.677 145L557.543 174H506.457Z" stroke="black" stroke-width="2"/>
<path d="M658.457 174L633.323 145L658.457 116L709.543 116L734.677 145L709.543 174H658.457Z" stroke="black" stroke-width="2"/>
<path d="M810.457 174L785.323 145L810.457 116L861.543 116L886.677 145L861.543 174H810.457Z" stroke="black" stroke-width="2"/>
<path d="M-25.5434 203L-50.6767 174L-25.5434 145L25.5434 145L50.6767 174L25.5434 203H-25.5434Z" stroke="black" stroke-width="2"/>
<path d="M886.457 203L861.323 174L886.457 145L937.543 145L962.677 174L937.543 203H886.457Z" stroke="black" stroke-width="2"/>
<path d="M126.457 203L101.323 174L126.457 145L177.543 145L202.677 174L177.543 203H126.457Z" stroke="black" stroke-width="2"/>
<path d="M278.457 203L253.323 174L278.457 145L329.543 145L354.677 174L329.543 203H278.457Z" stroke="black" stroke-width="2"/>
<path d="M430.457 203L405.323 174L430.457 145L481.543 145L506.677 174L481.543 203H430.457Z" stroke="black" stroke-width="2"/>
<path d="M582.457 203L557.323 174L582.457 145L633.543 145L658.677 174L633.543 203H582.457Z" stroke="black" stroke-width="2"/>
<path d="M734.457 203L709.323 174L734.457 145L785.543 145L810.677 174L785.543 203H734.457Z" stroke="black" stroke-width="2"/>
<path d="M50.4566 232L25.3233 203L50.4566 174L101.543 174L126.677 203L101.543 232H50.4566Z" stroke="black" stroke-width="2"/>
<path d="M202.457 232L177.323 203L202.457 174L253.543 174L278.677 203L253.543 232H202.457Z" stroke="black" stroke-width="2"/>
<path d="M354.457 232L329.323 203L354.457 174L405.543 174L430.677 203L405.543 232H354.457Z" stroke="black" stroke-width="2"/>
<path d="M506.457 232L481.323 203L506.457 174L557.543 174L582.677 203L557.543 232H506.457Z" stroke="black" stroke-width="2"/>
<path d="M658.457 232L633.323 203L658.457 174L709.543 174L734.677 203L709.543 232H658.457Z" stroke="black" stroke-width="2"/>
<path d="M810.457 232L785.323 203L810.457 174L861.543 174L886.677 203L861.543 232H810.457Z" stroke="black" stroke-width="2"/>
<path d="M-25.5434 261L-50.6767 232L-25.5434 203L25.5434 203L50.6767 232L25.5434 261H-25.5434Z" stroke="black" stroke-width="2"/>
<path d="M886.457 261L861.323 232L886.457 203L937.543 203L962.677 232L937.543 261H886.457Z" stroke="black" stroke-width="2"/>
<path d="M126.457 261L101.323 232L126.457 203L177.543 203L202.677 232L177.543 261H126.457Z" stroke="black" stroke-width="2"/>
<path d="M278.457 261L253.323 232L278.457 203L329.543 203L354.677 232L329.543 261H278.457Z" stroke="black" stroke-width="2"/>
<path d="M430.457 261L405.323 232L430.457 203L481.543 203L506.677 232L481.543 261H430.457Z" stroke="black" stroke-width="2"/>
<path d="M582.457 261L557.323 232L582.457 203L633.543 203L658.677 232L633.543 261H582.457Z" stroke="black" stroke-width="2"/>
<path d="M734.457 261L709.323 232L734.457 203L785.543 203L810.677 232L785.543 261H734.457Z" stroke="black" stroke-width="2"/>
<path d="M50.4566 290L25.3233 261L50.4566 232L101.543 232L126.677 261L101.543 290H50.4566Z" stroke="black" stroke-width="2"/>
<path d="M202.457 290L177.323 261L202.457 232L253.543 232L278.677 261L253.543 290H202.457Z" stroke="black" stroke-width="2"/>
<path d="M354.457 290L329.323 261L354.457 232L405.543 232L430.677 261L405.543 290H354.457Z" stroke="black" stroke-width="2"/>
<path d="M506.457 290L481.323 261L506.457 232L557.543 232L582.677 261L557.543 290H506.457Z" stroke="black" stroke-width="2"/>
<path d="M658.457 290L633.323 261L658.457 232L709.543 232L734.677 261L709.543 290H658.457Z" stroke="black" stroke-width="2"/>
<path d="M810.457 290L785.323 261L810.457 232L861.543 232L886.677 261L861.543 290H810.457Z" stroke="black" stroke-width="2"/>
<path d="M-25.5434 319L-50.6767 290L-25.5434 261L25.5434 261L50.6767 290L25.5434 319H-25.5434Z" stroke="black" stroke-width="2"/>
<path d="M886.457 319L861.323 290L886.457 261L937.543 261L962.677 290L937.543 319H886.457Z" stroke="black" stroke-width="2"/>
<path d="M126.457 319L101.323 290L126.457 261L177.543 261L202.677 290L177.543 319H126.457Z" stroke="black" stroke-width="2"/>
<path d="M278.457 319L253.323 290L278.457 261L329.543 261L354.677 290L329.543 319H278.457Z" stroke="black" stroke-width="2"/>
<path d="M430.457 319L405.323 290L430.457 261L481.543 261L506.677 290L481.543 319H430.457Z" stroke="black" stroke-width="2"/>
<path d="M582.457 319L557.323 290L582.457 261L633.543 261L658.677 290L633.543 319H582.457Z" stroke="black" stroke-width="2"/>
<path d="M734.457 319L709.323 290L734.457 261L785.543 261L810.677 290L785.543 319H734.457Z" stroke="black" stroke-width="2"/>
<path d="M50.4566 348L25.3233 319L50.4566 290L101.543 290L126.677 319L101.543 348H50.4566Z" stroke="black" stroke-width="2"/>
<path d="M202.457 348L177.323 319L202.457 290L253.543 290L278.677 319L253.543 348H202.457Z" stroke="black" stroke-width="2"/>
<path d="M354.457 348L329.323 319L354.457 290L405.543 290L430.677 319L405.543 348H354.457Z" stroke="black" stroke-width="2"/>
<path d="M506.457 348L481.323 319L506.457 290L557.543 290L582.677 319L557.543 348H506.457Z" stroke="black" stroke-width="2"/>
<path d="M658.457 348L633.323 319L658.457 290L709.543 290L734.677 319L709.543 348H658.457Z" stroke="black" stroke-width="2"/>
<path d="M810.457 348L785.323 319L810.457 290L861.543 290L886.677 319L861.543 348H810.457Z" stroke="black" stroke-width="2"/>
<path d="M-25.5434 377L-50.6767 348L-25.5434 319L25.5434 319L50.6767 348L25.5434 377H-25.5434Z" stroke="black" stroke-width="2"/>
<path d="M886.457 377L861.323 348L886.457 319L937.543 319L962.677 348L937.543 377H886.457Z" stroke="black" stroke-width="2"/>
<path d="M126.457 377L101.323 348L126.457 319L177.543 319L202.677 348L177.543 377H126.457Z" stroke="black" stroke-width="2"/>
<path d="M278.457 377L253.323 348L278.457 319L329.543 319L354.677 348L329.543 377H278.457Z" stroke="black" stroke-width="2"/>
<path d="M430.457 377L405.323 348L430.457 319L481.543 319L506.677 348L481.543 377H430.457Z" stroke="black" stroke-width="2"/>
<path d="M582.457 377L557.323 348L582.457 319L633.543 319L658.677 348L633.543 377H582.457Z" stroke="black" stroke-width="2"/>
<path d="M734.457 377L709.323 348L734.457 319L785.543 319L810.677 348L785.543 377H734.457Z" stroke="black" stroke-width="2"/>
<path d="M50.4566 406L25.3233 377L50.4566 348L101.543 348L126.677 377L101.543 406H50.4566Z" stroke="black" stroke-width="2"/>
<path d="M202.457 406L177.323 377L202.457 348L253.543 348L278.677 377L253.543 406H202.457Z" stroke="black" stroke-width="2"/>
<path d="M354.457 406L329.323 377L354.457 348L405.543 348L430.677 377L405.543 406H354.457Z" stroke="black" stroke-width="2"/>
<path d="M506.457 406L481.323 377L506.457 348L557.543 348L582.677 377L557.543 406H506.457Z" stroke="black" stroke-width="2"/>
<path d="M658.457 406L633.323 377L658.457 348L709.543 348L734.677 377L709.543 406H658.457Z" stroke="black" stroke-width="2"/>
<path d="M810.457 406L785.323 377L810.457 348L861.543 348L886.677 377L861.543 406H810.457Z" stroke="black" stroke-width="2"/>
<path d="M-25.5434 435L-50.6767 406L-25.5434 377L25.5434 377L50.6767 406L25.5434 435H-25.5434Z" stroke="black" stroke-width="2"/>
<path d="M886.457 435L861.323 406L886.457 377L937.543 377L962.677 406L937.543 435H886.457Z" stroke="black" stroke-width="2"/>
<path d="M126.457 435L101.323 406L126.457 377L177.543 377L202.677 406L177.543 435H126.457Z" stroke="black" stroke-width="2"/>
<path d="M278.457 435L253.323 406L278.457 377L329.543 377L354.677 406L329.543 435H278.457Z" stroke="black" stroke-width="2"/>
<path d="M430.457 435L405.323 406L430.457 377L481.543 377L506.677 406L481.543 435H430.457Z" stroke="black" stroke-width="2"/>
<path d="M582.457 435L557.323 406L582.457 377L633.543 377L658.677 406L633.543 435H582.457Z" stroke="black" stroke-width="2"/>
<path d="M734.457 435L709.323 406L734.457 377L785.543 377L810.677 406L785.543 435H734.457Z" stroke="black" stroke-width="2"/>
<path d="M50.4566 464L25.3233 435L50.4566 406L101.543 406L126.677 435L101.543 464H50.4566Z" stroke="black" stroke-width="2"/>
<path d="M202.457 464L177.323 435L202.457 406L253.543 406L278.677 435L253.543 464H202.457Z" stroke="black" stroke-width="2"/>
<path d="M354.457 464L329.323 435L354.457 406L405.543 406L430.677 435L405.543 464H354.457Z" stroke="black" stroke-width="2"/>
<path d="M506.457 464L481.323 435L506.457 406L557.543 406L582.677 435L557.543 464H506.457Z" stroke="black" stroke-width="2"/>
<path d="M658.457 464L633.323 435L658.457 406L709.543 406L734.677 435L709.543 464H658.457Z" stroke="black" stroke-width="2"/>
<path d="M810.457 464L785.323 435L810.457 406L861.543 406L886.677 435L861.543 464H810.457Z" stroke="black" stroke-width="2"/>
<path d="M-25.5434 493L-50.6767 464L-25.5434 435L25.5434 435L50.6767 464L25.5434 493H-25.5434Z" stroke="black" stroke-width="2"/>
<path d="M886.457 493L861.323 464L886.457 435L937.543 435L962.677 464L937.543 493H886.457Z" stroke="black" stroke-width="2"/>
<path d="M126.457 493L101.323 464L126.457 435L177.543 435L202.677 464L177.543 493H126.457Z" stroke="black" stroke-width="2"/>
<path d="M278.457 493L253.323 464L278.457 435L329.543 435L354.677 464L329.543 493H278.457Z" stroke="black" stroke-width="2"/>
<path d="M430.457 493L405.323 464L430.457 435L481.543 435L506.677 464L481.543 493H430.457Z" stroke="black" stroke-width="2"/>
<path d="M582.457 493L557.323 464L582.457 435L633.543 435L658.677 464L633.543 493H582.457Z" stroke="black" stroke-width="2"/>
<path d="M734.457 493L709.323 464L734.457 435L785.543 435L810.677 464L785.543 493H734.457Z" stroke="black" stroke-width="2"/>
<path d="M50.4566 522L25.3233 493L50.4566 464L101.543 464L126.677 493L101.543 522H50.4566Z" stroke="black" stroke-width="2"/>
<path d="M202.457 522L177.323 493L202.457 464L253.543 464L278.677 493L253.543 522H202.457Z" stroke="black" stroke-width="2"/>
<path d="M354.457 522L329.323 493L354.457 464L405.543 464L430.677 493L405.543 522H354.457Z" stroke="black" stroke-width="2"/>
<path d="M506.457 522L481.323 493L506.457 464L557.543 464L582.677 493L557.543 522H506.457Z" stroke="black" stroke-width="2"/>
<path d="M658.457 522L633.323 493L658.457 464L709.543 464L734.677 493L709.543 522H658.457Z" stroke="black" stroke-width="2"/>
<path d="M810.457 522L785.323 493L810.457 464L861.543 464L886.677 493L861.543 522H810.457Z" stroke="black" stroke-width="2"/>
<path d="M-25.5434 551L-50.6767 522L-25.5434 493L25.5434 493L50.6767 522L25.5434 551H-25.5434Z" stroke="black" stroke-width="2"/>
<path d="M886.457 551L861.323 522L886.457 493L937.543 493L962.677 522L937.543 551H886.457Z" stroke="black" stroke-width="2"/>
<path d="M126.457 551L101.323 522L126.457 493L177.543 493L202.677 522L177.543 551H126.457Z" stroke="black" stroke-width="2"/>
<path d="M278.457 551L253.323 522L278.457 493L329.543 493L354.677 522L329.543 551H278.457Z" stroke="black" stroke-width="2"/>
<path d="M430.457 551L405.323 522L430.457 493L481.543 493L506.677 522L481.543 551H430.457Z" stroke="black" stroke-width="2"/>
<path d="M582.457 551L557.323 522L582.457 493L633.543 493L658.677 522L633.543 551H582.457Z" stroke="black" stroke-width="2"/>
<path d="M734.457 551L709.323 522L734.457 493L785.543 493L810.677 522L785.543 551H734.457Z" stroke="black" stroke-width="2"/>
</g>
<defs>
<clipPath id="clip0">
<rect width="912" height="522" fill="white"/>
</clipPath>
</defs>
</svg>
