<svg fill="none" height="64" viewBox="0 0 64 64" width="64" xmlns="http://www.w3.org/2000/svg"><g fill="#dba0ff"><path clip-rule="evenodd" d="m32 62c16.5685 0 30-13.4315 30-30s-13.4315-30-30-30-30 13.4315-30 30 13.4315 30 30 30zm0 2c17.6731 0 32-14.3269 32-32s-14.3269-32-32-32-32 14.3269-32 32 14.3269 32 32 32z" fill-rule="evenodd"/><path d="m30.8399 37.3954h1.836l.36-3.888c4.104-.576 7.488-2.808 7.488-7.308v-.072c0-4.104-3.204-7.128-8.064-7.128-3.852 0-6.408 1.692-8.46 4.176l1.836 1.764c1.836-2.124 3.888-3.384 6.552-3.384 3.24 0 5.256 2.088 5.256 4.68v.072c0 3.024-2.484 4.968-7.164 5.076l-.18.18zm-.756 7.128h3.312v-3.78h-3.312z"/></g></svg>