<svg width="48" height="42" viewBox="0 0 48 42" fill="none" xmlns="http://www.w3.org/2000/svg">
	<path d="M48 21L36 42H12L0 21L12 0L36 1.05994e-06L48 21Z" fill="#3147F2" />
	<path d="M38.7071 21.7071C39.0976 21.3166 39.0976 20.6834 38.7071 20.2929L32.3431 13.9289C31.9526 13.5384 31.3195 13.5384 30.9289 13.9289C30.5384 14.3195 30.5384 14.9526 30.9289 15.3431L36.5858 21L30.9289 26.6569C30.5384 27.0474 30.5384 27.6805 30.9289 28.0711C31.3195 28.4616 31.9526 28.4616 32.3431 28.0711L38.7071 21.7071ZM10 20C9.44772 20 9 20.4477 9 21C9 21.5523 9.44772 22 10 22V20ZM38 20H10V22H38V20Z" fill="white" />
</svg>
