<svg width="32" height="32" viewBox="0 0 32 32" fill="none" xmlns="http://www.w3.org/2000/svg">
	<path d="M16 32C24.8366 32 32 24.8366 32 16C32 7.16344 24.8366 0 16 0C7.16344 0 0 7.16344 0 16C0 24.8366 7.16344 32 16 32Z" fill="#1DA1F2" />
	<path d="M13.0718 24.4402C20.1678 24.4402 24.0478 18.5602 24.0478 13.4642C24.0478 13.2962 24.0478 13.1282 24.0398 12.9682C24.7918 12.4242 25.4478 11.7442 25.9678 10.9682C25.2798 11.2722 24.5358 11.4802 23.7518 11.5762C24.5518 11.0962 25.1598 10.3442 25.4478 9.44016C24.7038 9.88016 23.8798 10.2002 22.9998 10.3762C22.2958 9.62416 21.2958 9.16016 20.1838 9.16016C18.0558 9.16016 16.3278 10.8882 16.3278 13.0162C16.3278 13.3202 16.3598 13.6162 16.4318 13.8962C13.2238 13.7362 10.3838 12.2002 8.47978 9.86416C8.15178 10.4322 7.95978 11.0962 7.95978 11.8002C7.95978 13.1362 8.63978 14.3202 9.67978 15.0082C9.04778 14.9922 8.45578 14.8162 7.93578 14.5282C7.93578 14.5442 7.93578 14.5602 7.93578 14.5762C7.93578 16.4482 9.26378 18.0002 11.0318 18.3602C10.7118 18.4482 10.3678 18.4962 10.0158 18.4962C9.76778 18.4962 9.52778 18.4722 9.28778 18.4242C9.77578 19.9602 11.1998 21.0722 12.8878 21.1042C11.5678 22.1362 9.90378 22.7522 8.09578 22.7522C7.78378 22.7522 7.47978 22.7362 7.17578 22.6962C8.86378 23.8002 10.8958 24.4402 13.0718 24.4402Z" fill="white" />
</svg>
