<svg width="79" height="107" fill="none" xmlns="http://www.w3.org/2000/svg"><path d="M39.424 83.01L5.972 64.73 39.58 47.175l33.363 17.629L39.424 83.01zm.008-78.232l34.893 19.54v17.515c-7.758-2.36-13.476-9.293-13.476-17.299v-.212h-2.45v1.164c-.409 9.644-8.78 17.18-18.99 17.217-10.21-.037-18.173-7.573-18.99-17.217v-1.164h-2.041v.212c0 8.063-5.718 15.038-13.885 17.35V24.32L39.432 4.778zm21.417 40.325h13.54l-.024 18.134-13.516-7.179V45.103zm-2.45 0v9.743L40.004 45.12c-.056-.03-.015-.018-.073-.018h18.468zm-19.438.016L20.42 54.702v-9.599l18.542.016zm-34.468-.016h13.885V55.9L4.493 63.033v-17.93zm15.926-11.652c2.45 4.114 5.804 7.34 10.133 9.3H20.419v-9.3zm-2.041 9.3H8.134c4.47-1.96 8.201-5.292 10.244-9.45v9.45zm42.47-9.45c2.042 4.158 5.775 7.49 10.243 9.45H60.85V33.3zm-2.45 9.45h-9.723c4.328-1.96 7.681-5.186 9.724-9.3v9.3zm20.6-19.703a2.2 2.2 0 0 0-1.143-1.913L40.694.302a2.394 2.394 0 0 0-2.326 0L1.175 21.138C.467 21.535 0 22.263 0 23.05v42.259c0 .796.477 1.53 1.197 1.923L38.265 87.48a2.408 2.408 0 0 0 2.287.002l37.277-20.246A2.201 2.201 0 0 0 79 65.308l-.002-42.26z" fill="#fff"/><path d="M34.54 63.814l-1.002-.962 2.028-1.949h1.208v7.459h1.296v1.295H34v-1.295h1.298V63.37l.064-.407-.052-.025-.308.432-.462.444z" fill="#fff"/><path fill-rule="evenodd" clip-rule="evenodd" d="M33.83 69.82h4.41V68.2h-1.296V60.74h-1.448l-2.199 2.112 1.243 1.193.588-.565v4.718H33.83v1.622zm.34-.326v-.969h1.298v-5.143l.08-.511-.294-.144-.384.538-.33.318-.761-.73 1.858-1.786h.966v7.458H37.9v.969h-3.73z" fill="#fff"/><path d="M44.44 65.034l.693-.148v-2.059l-.641-.629h-2.248l-.642.63v1.577l.642.63h2.197zm2.17 3.193l-1.477 1.43H41.68l-1.554-.505.424-1.233 1.36.443h2.582l.641-.628v-1.64l-.86.235h-2.67l-1.477-1.431v-2.563l1.476-1.431h3.531l1.478 1.43v5.893z" fill="#fff"/><path fill-rule="evenodd" clip-rule="evenodd" d="M41.652 69.82h3.552l1.577-1.526v-6.027l-1.577-1.527h-3.673l-1.575 1.527v2.698l1.575 1.527h2.766l.666-.182v1.357l-.543.532h-2.482l-1.496-.488-.53 1.543 1.74.567zm.056-.326l-1.368-.445.317-.923 1.225.4h2.681l.74-.725v-1.923l-1.054.287h-2.576l-1.377-1.335v-2.428l1.377-1.335h3.39l1.377 1.335v5.757l-1.378 1.335h-3.354zm.465-4.296h2.286l.844-.18V62.76l-.74-.725h-2.39l-.74.725v1.712l.74.726zm.143-.327l-.544-.533v-1.444l.544-.533h2.104l.543.533v1.861l-.541.116h-2.106z" fill="#fff"/><path d="M13.494 96.27c-1.013 0-1.818-.503-1.818-1.536v-.156h1.28c0 .313.15.66.524.66.265 0 .49-.203.49-.464 0-.314-.273-.419-.537-.53-.15-.065-.3-.123-.45-.182-.653-.262-1.23-.628-1.23-1.385 0-.902.904-1.425 1.76-1.425.492 0 1.042.176 1.362.549.259.307.32.575.334.953h-1.272c-.041-.267-.137-.47-.463-.47-.225 0-.443.151-.443.38 0 .072.007.144.048.203.121.195.783.443.993.535.667.294 1.178.627 1.178 1.385 0 1.013-.763 1.483-1.756 1.483zm4.444-3.424h-.02l-.517 1.653h1.055l-.518-1.653zm1.103 3.333l-.245-.699h-1.749l-.264.699H15.4l2.02-4.835h1.014l2.001 4.835h-1.395zm4.977 0l-1.92-2.941-.013.007.035 2.934h-1.233v-4.835h1.11l1.946 3.038.013-.013-.054-3.025h1.232v4.835h-1.116zm5.237-3.75v.823h1.463v1.084h-1.463v1.843h-1.232v-4.835h2.749v1.084h-1.517zm3.846 0h-.47v1.345h.456c.483 0 .844-.196.844-.692 0-.477-.388-.654-.83-.654zm.708 3.75l-1.163-1.562h-.015v1.562H31.4v-4.835h1.592c.53 0 1.116.012 1.551.347.416.319.62.816.62 1.32 0 .743-.456 1.397-1.252 1.52l1.367 1.648h-1.47zm4.112-3.333h-.02l-.518 1.653h1.054l-.516-1.653zm1.102 3.333l-.244-.699h-1.75l-.265.699h-1.38l2.02-4.835h1.014l2 4.835h-1.395zm4.977 0l-1.919-2.941-.013.007.034 2.934h-1.233v-4.835h1.11l1.946 3.038.014-.013-.055-3.025h1.232v4.835H44zm4.418.09c-1.463 0-2.653-1.097-2.653-2.514 0-1.418 1.178-2.503 2.64-2.503.912 0 1.715.405 2.218 1.137.164.236.293.51.34.791h-1.347a1.297 1.297 0 0 0-1.217-.843c-.817 0-1.347.667-1.347 1.411 0 .745.53 1.437 1.353 1.437.565 0 .987-.34 1.21-.816h1.348c-.293 1.143-1.326 1.9-2.545 1.9zm3.147-4.925h1.286v4.834h-1.286v-4.834zm3.662 4.926c-1.013 0-1.817-.503-1.817-1.536v-.156h1.28c0 .313.15.66.524.66.265 0 .49-.203.49-.464 0-.314-.273-.419-.538-.53-.15-.065-.3-.123-.45-.182-.652-.262-1.23-.628-1.23-1.385 0-.902.905-1.425 1.762-1.425.49 0 1.04.176 1.36.549.26.307.32.575.334.953H55.67c-.041-.267-.137-.47-.463-.47-.225 0-.443.151-.443.38a.34.34 0 0 0 .049.203c.121.195.782.443.993.535.666.294 1.177.627 1.177 1.385 0 1.013-.763 1.483-1.756 1.483zm4.751 0c-1.463 0-2.653-1.098-2.653-2.515 0-1.418 1.177-2.503 2.64-2.503.912 0 1.714.405 2.218 1.137.163.236.293.51.34.791h-1.348a1.297 1.297 0 0 0-1.216-.843c-.817 0-1.348.667-1.348 1.411 0 .745.53 1.437 1.354 1.437.565 0 .987-.34 1.21-.816h1.348c-.293 1.143-1.326 1.9-2.545 1.9zm5.59-3.933c-.824 0-1.374.653-1.374 1.412 0 .77.55 1.436 1.388 1.436.809 0 1.353-.68 1.353-1.417 0-.752-.544-1.431-1.367-1.431zm-.014 3.932c-1.422 0-2.647-1.057-2.647-2.45 0-.358.061-.698.197-1.031.075-.19.198-.379.327-.542.518-.654 1.273-.994 2.13-.994 1.47 0 2.66 1.085 2.66 2.509 0 1.43-1.19 2.508-2.667 2.508zm-56.809 7.748h-.647v.883h.64c.32 0 .605-.105.605-.465 0-.346-.298-.418-.598-.418zm-.15-1.784h-.497v.752h.49c.28 0 .51-.078.51-.385s-.237-.367-.503-.367zm1.517 3.333c-.517.424-.993.418-1.646.418h-1.6v-4.835h1.552c.605 0 1.177.007 1.613.47.211.223.299.497.299.797 0 .412-.211.771-.585.974.55.183.83.576.83 1.124 0 .386-.15.797-.463 1.052zm1.126.418v-4.835h1.285v3.751h1.49v1.084h-2.775zm5.656-3.842c-.824 0-1.374.653-1.374 1.412 0 .77.55 1.436 1.389 1.436.809 0 1.353-.679 1.353-1.417 0-.751-.544-1.431-1.368-1.431zm-.014 3.933c-1.422 0-2.646-1.058-2.646-2.45 0-.359.061-.699.196-1.032.075-.19.199-.378.327-.542.518-.654 1.272-.994 2.13-.994 1.47 0 2.66 1.085 2.66 2.509 0 1.431-1.19 2.509-2.667 2.509zm5.746 0c-1.463 0-2.654-1.097-2.654-2.515 0-1.418 1.178-2.503 2.64-2.503.913 0 1.715.405 2.219 1.138.163.235.293.509.34.79h-1.348a1.298 1.298 0 0 0-1.217-.843c-.817 0-1.347.667-1.347 1.411 0 .745.53 1.438 1.353 1.438.566 0 .988-.34 1.211-.817h1.348c-.293 1.144-1.326 1.901-2.545 1.901zm5.957-.091l-1.375-2.091h-.013v2.091h-1.286v-4.835h1.286v2.175h.013l1.423-2.175h1.348l-1.668 2.411 1.776 2.424h-1.504zm4.385.091c-1.463 0-2.654-1.097-2.654-2.515 0-1.418 1.177-2.503 2.64-2.503.913 0 1.715.405 2.219 1.138.162.235.293.509.34.79h-1.348c-.197-.497-.652-.843-1.218-.843-.816 0-1.347.667-1.347 1.411 0 .745.531 1.438 1.353 1.438.566 0 .988-.34 1.212-.817h1.347c-.292 1.144-1.326 1.901-2.544 1.901zm6.079-.091v-1.934H37.4v1.934h-1.286v-4.835H37.4v1.817h1.647v-1.817h1.287v4.835h-1.287zm4.276-3.332h-.02l-.518 1.653h1.055l-.517-1.653zm1.102 3.332l-.244-.699h-1.75l-.264.699h-1.382l2.022-4.835h1.013l2 4.835h-1.395zm1.848-4.835h1.286v4.835h-1.286v-4.835zm5.26 4.835l-1.92-2.941-.013.008.035 2.933h-1.232v-4.835h1.109l1.946 3.038.014-.013-.055-3.025h1.232v4.835h-1.116zm8.775 0h-1.13l-.755-3.13h-.013l-.756 3.13h-1.163l-1.3-4.835h1.306l.674 3.143h.013l.742-3.143h.987l.728 3.156h.013l.688-3.156h1.3l-1.334 4.835zm1.84 0v-4.835h2.797v1.084H63.38v.752h1.517v1.085H63.38v.83h1.565v1.084h-2.797zm3.526 0v-4.835h2.797v1.084h-1.565v.752h1.517v1.085h-1.517v.83h1.565v1.084h-2.797zm6.337 0l-1.374-2.091h-.013v2.091h-1.286v-4.835h1.286v2.175h.013l1.423-2.175h1.347l-1.667 2.411 1.776 2.424h-1.505z" fill="#fff"/></svg>