<svg width="58" height="58" fill="none" xmlns="http://www.w3.org/2000/svg"><path d="M50.75 17.136a4.618 4.618 0 0 1 4.614 4.614 4.618 4.618 0 0 1-4.614 4.614h-4.614V21.75a4.618 4.618 0 0 1 4.614-4.614zM31.636 4.614A4.618 4.618 0 0 1 36.25 0a4.618 4.618 0 0 1 4.614 4.614v21.75h-9.228V4.614zm-14.5 2.636a4.618 4.618 0 0 1 4.614-4.614 4.618 4.618 0 0 1 4.614 4.614v4.614H21.75a4.618 4.618 0 0 1-4.614-4.614zM4.614 17.136h21.75v9.228H4.614A4.618 4.618 0 0 1 0 21.75a4.618 4.618 0 0 1 4.614-4.614zM7.25 40.864a4.618 4.618 0 0 1-4.614-4.614 4.618 4.618 0 0 1 4.614-4.614h4.614v4.614a4.618 4.618 0 0 1-4.614 4.614zm19.114 12.522A4.618 4.618 0 0 1 21.75 58a4.618 4.618 0 0 1-4.614-4.614v-21.75h9.228v21.75zm14.5-2.636a4.618 4.618 0 0 1-4.614 4.614 4.618 4.618 0 0 1-4.614-4.614v-4.614h4.614a4.618 4.618 0 0 1 4.614 4.614zm12.522-9.886h-21.75v-9.228h21.75A4.618 4.618 0 0 1 58 36.25a4.618 4.618 0 0 1-4.614 4.614z" fill="#DBA0FF"/></svg>