<svg width="168" height="168" viewBox="0 0 168 168" fill="none" xmlns="http://www.w3.org/2000/svg">
<path d="M105.711 46.3949L127.423 84L105.711 121.605L62.2887 121.605L40.5774 84L62.2887 46.3949L105.711 46.3949Z" stroke="#882CC0"/>
<path opacity="0.75" d="M115.711 29.0744L147.423 84L115.711 138.926L52.2887 138.926L20.5774 84L52.2887 29.0744L115.711 29.0744Z" stroke="#882CC0"/>
<path opacity="0.5" d="M125.711 11.7539L167.423 84L125.711 156.246L42.2887 156.246L0.577343 84L42.2887 11.7539L125.711 11.7539Z" stroke="#882CC0"/>
<g filter="url(#filter0_d)">
<path d="M81.4511 60.171C81.7656 59.9895 82.1669 60.0958 82.3475 60.4086L82.4253 60.5434C82.6059 60.8561 83.0073 60.9625 83.3218 60.7809L83.4467 60.7088C83.7612 60.5272 83.8698 60.1265 83.6892 59.8137L83.6113 59.6789C83.4308 59.3661 83.5393 58.9654 83.8539 58.7838L99.4442 49.7827C100.073 49.4196 100.876 49.6323 101.237 50.2578L115.296 74.6086C115.657 75.2341 115.44 76.0356 114.811 76.3988L99.2206 85.3998C98.9061 85.5814 98.5048 85.4751 98.3242 85.1623L98.2464 85.0275C98.0658 84.7147 97.6645 84.6084 97.35 84.79L97.225 84.8621C96.9105 85.0437 96.802 85.4444 96.9825 85.7572L97.0604 85.892C97.2409 86.2048 97.1324 86.6055 96.8179 86.7871L55.8719 110.427C55.2429 110.79 54.4402 110.578 54.0791 109.952L50.1251 103.104C49.9832 102.858 50.0199 102.55 50.1942 102.325C51.6474 100.443 51.9134 97.8099 50.6605 95.6398C49.4076 93.4698 46.994 92.3833 44.6382 92.7012C44.3556 92.7394 44.0708 92.6173 43.9289 92.3716L40.0201 85.6013C39.659 84.9758 39.8761 84.1744 40.5051 83.8112L81.4511 60.171Z" fill="url(#paint0_linear)"/>
<path d="M83.4842 62.378L84.9477 64.9129L86.2115 64.1832L84.748 61.6484L83.4842 62.378Z" fill="#8C91B1" fill-opacity="0.32"/>
<path d="M85.6794 66.1803L87.1429 68.7152L88.4068 67.9855L86.9433 65.4507L85.6794 66.1803Z" fill="#8C91B1" fill-opacity="0.32"/>
<path d="M87.8747 69.9826L89.3382 72.5175L90.602 71.7878L89.1385 69.2529L87.8747 69.9826Z" fill="#8C91B1" fill-opacity="0.32"/>
<path d="M90.0699 73.7849L91.5334 76.3198L92.7973 75.5901L91.3338 73.0552L90.0699 73.7849Z" fill="#8C91B1" fill-opacity="0.32"/>
<path d="M92.2652 77.5872L93.7287 80.1221L94.9925 79.3924L93.529 76.8575L92.2652 77.5872Z" fill="#8C91B1" fill-opacity="0.32"/>
<path d="M94.4604 81.3895L95.9239 83.9244L97.1878 83.1947L95.7243 80.6598L94.4604 81.3895Z" fill="#8C91B1" fill-opacity="0.32"/>
<path d="M48.9147 82.4013L44.0963 85.1832L44.9099 86.5923L49.7282 83.8104L48.9147 82.4013Z" fill="#8C91B1" fill-opacity="0.32"/>
<path d="M87.8566 59.9183L96.1505 55.1298L96.964 56.5389L88.6701 61.3273L87.8566 59.9183Z" fill="#8C91B1" fill-opacity="0.32"/>
<path d="M94.3924 60.1111L89.574 62.893L90.3876 64.3021L95.2059 61.5202L94.3924 60.1111Z" fill="#8C91B1" fill-opacity="0.32"/>
<path d="M104.29 77.255L99.472 80.0369L100.286 81.4459L105.104 78.6641L104.29 77.255Z" fill="#8C91B1" fill-opacity="0.32"/>
<path d="M111.005 73.3786L108.635 74.7467L109.448 76.1558L111.818 74.7877L111.005 73.3786Z" fill="#8C91B1" fill-opacity="0.32"/>
<path d="M55.7118 105.302L66.2174 99.2364L67.031 100.645L56.5254 106.711L55.7118 105.302Z" fill="#8C91B1" fill-opacity="0.32"/>
<path fill-rule="evenodd" clip-rule="evenodd" d="M102.111 65.987L99.8248 64.679L97.5284 66.0048L97.5181 68.6387L99.8042 69.9467L102.101 68.6208L102.111 65.987ZM102.645 68.9326L102.658 65.6711L99.8272 64.0514L96.9836 65.6931L96.9709 68.9546L99.8018 70.5743L102.645 68.9326Z" fill="url(#paint1_linear)"/>
<path d="M54.5273 87.1973L72.9319 76.5714L74.1974 78.7633L55.7928 89.3892L54.5273 87.1973Z" fill="#8C91B1" fill-opacity="0.32"/>
<path d="M56.9679 91.4245L69.9222 83.9453L70.7357 85.3544L57.7815 92.8335L56.9679 91.4245Z" fill="#8C91B1" fill-opacity="0.32"/>
<path d="M75.8603 85.1095L58.9566 94.8689L59.7701 96.278L76.6739 86.5186L75.8603 85.1095Z" fill="#8C91B1" fill-opacity="0.32"/>
</g>
<g filter="url(#filter1_d)">
<path d="M99.6576 75.7375C100.008 75.6435 100.368 75.8501 100.462 76.1989L100.502 76.3493C100.596 76.6981 100.956 76.9047 101.307 76.8107L101.446 76.7734C101.797 76.6794 102.005 76.3204 101.912 75.9716L101.872 75.8212C101.778 75.4724 101.987 75.1134 102.337 75.0194L119.725 70.3603C120.427 70.1723 121.147 70.5855 121.334 71.2831L128.611 98.442C128.798 99.1396 128.381 99.8576 127.68 100.046L110.292 104.705C109.941 104.799 109.581 104.592 109.487 104.243L109.447 104.093C109.353 103.744 108.993 103.537 108.643 103.631L108.503 103.669C108.152 103.763 107.944 104.122 108.037 104.471L108.078 104.621C108.171 104.97 107.962 105.329 107.612 105.423L61.9441 117.659C61.2426 117.847 60.5223 117.434 60.3354 116.736L58.2887 109.098C58.2153 108.824 58.3303 108.536 58.5571 108.364C60.4477 106.923 61.3861 104.448 60.7376 102.028C60.0891 99.6072 58.0389 97.9332 55.6812 97.6306C55.3984 97.5943 55.1549 97.4027 55.0815 97.1286L53.0582 89.5777C52.8713 88.88 53.2884 88.1621 53.99 87.9741L99.6576 75.7375Z" fill="white"/>
<path d="M101.05 78.3945L101.807 81.2217L103.217 80.844L102.459 78.0168L101.05 78.3945Z" fill="#8C91B1" fill-opacity="0.32"/>
<path d="M102.186 82.6353L102.944 85.4624L104.353 85.0847L103.596 82.2576L102.186 82.6353Z" fill="#8C91B1" fill-opacity="0.32"/>
<path d="M103.322 86.876L104.08 89.7032L105.49 89.3255L104.732 86.4983L103.322 86.876Z" fill="#8C91B1" fill-opacity="0.32"/>
<path d="M104.459 91.1168L105.216 93.9439L106.626 93.5662L105.868 90.7391L104.459 91.1168Z" fill="#8C91B1" fill-opacity="0.32"/>
<path d="M105.595 95.3575L106.353 98.1847L107.762 97.807L107.005 94.9798L105.595 95.3575Z" fill="#8C91B1" fill-opacity="0.32"/>
<path d="M106.731 99.5982L107.489 102.425L108.898 102.048L108.141 99.2206L106.731 99.5982Z" fill="#8C91B1" fill-opacity="0.32"/>
<path d="M62.4773 88.7879L57.1033 90.2279L57.5245 91.7994L62.8984 90.3595L62.4773 88.7879Z" fill="#8C91B1" fill-opacity="0.32"/>
<path d="M105.91 77.1502L115.16 74.6716L115.581 76.2432L106.331 78.7218L105.91 77.1502Z" fill="#8C91B1" fill-opacity="0.32"/>
<path d="M112.173 79.028L106.799 80.468L107.22 82.0396L112.594 80.5996L112.173 79.028Z" fill="#8C91B1" fill-opacity="0.32"/>
<path d="M117.296 98.1488L111.922 99.5888L112.343 101.16L117.717 99.7204L117.296 98.1488Z" fill="#8C91B1" fill-opacity="0.32"/>
<path d="M124.784 96.1423L122.141 96.8505L122.563 98.4221L125.206 97.7139L124.784 96.1423Z" fill="#8C91B1" fill-opacity="0.32"/>
<path d="M63.1157 112.666L74.8328 109.527L75.2539 111.098L63.5368 114.238L63.1157 112.666Z" fill="#8C91B1" fill-opacity="0.32"/>
<path fill-rule="evenodd" clip-rule="evenodd" d="M118.108 86.702L116.239 84.8469L113.678 85.5332L112.986 88.0745L114.856 89.9296L117.417 89.2433L118.108 86.702ZM117.862 89.6854L118.719 86.5384L116.403 84.2413L113.232 85.0911L112.376 88.2381L114.691 90.5352L117.862 89.6854Z" fill="url(#paint2_linear)"/>
<path d="M66.6582 94.873L87.1851 89.3729L87.8401 91.8176L67.3132 97.3177L66.6582 94.873Z" fill="#8C91B1" fill-opacity="0.32"/>
<path d="M67.9215 99.5877L82.3696 95.7163L82.7907 97.2879L68.3426 101.159L67.9215 99.5877Z" fill="#8C91B1" fill-opacity="0.32"/>
<path d="M87.8038 98.3777L68.9509 103.429L69.372 105.001L88.2249 99.9493L87.8038 98.3777Z" fill="#8C91B1" fill-opacity="0.32"/>
</g>
<defs>
<filter id="filter0_d" x="19.3662" y="37.125" width="116.584" height="101.96" filterUnits="userSpaceOnUse" color-interpolation-filters="sRGB">
<feFlood flood-opacity="0" result="BackgroundImageFix"/>
<feColorMatrix in="SourceAlpha" type="matrix" values="0 0 0 0 0 0 0 0 0 0 0 0 0 0 0 0 0 0 127 0"/>
<feOffset dy="8"/>
<feGaussianBlur stdDeviation="10"/>
<feColorMatrix type="matrix" values="0 0 0 0 0.0862745 0 0 0 0 0.0980392 0 0 0 0 0.192157 0 0 0 0.09 0"/>
<feBlend mode="normal" in2="BackgroundImageFix" result="effect1_dropShadow"/>
<feBlend mode="normal" in="SourceGraphic" in2="effect1_dropShadow" result="shape"/>
</filter>
<filter id="filter1_d" x="32.7197" y="58.0195" width="116.23" height="87.9797" filterUnits="userSpaceOnUse" color-interpolation-filters="sRGB">
<feFlood flood-opacity="0" result="BackgroundImageFix"/>
<feColorMatrix in="SourceAlpha" type="matrix" values="0 0 0 0 0 0 0 0 0 0 0 0 0 0 0 0 0 0 127 0"/>
<feOffset dy="8"/>
<feGaussianBlur stdDeviation="10"/>
<feColorMatrix type="matrix" values="0 0 0 0 0.0862745 0 0 0 0 0.0980392 0 0 0 0 0.192157 0 0 0 0.09 0"/>
<feBlend mode="normal" in2="BackgroundImageFix" result="effect1_dropShadow"/>
<feBlend mode="normal" in="SourceGraphic" in2="effect1_dropShadow" result="shape"/>
</filter>
<linearGradient id="paint0_linear" x1="69.9746" y1="66.797" x2="85.3414" y2="93.413" gradientUnits="userSpaceOnUse">
<stop stop-color="#EFF0F5"/>
<stop offset="1" stop-color="#F8F9FC"/>
</linearGradient>
<linearGradient id="paint1_linear" x1="101.598" y1="63.9247" x2="98.966" y2="70.6286" gradientUnits="userSpaceOnUse">
<stop stop-color="#E4B9FF"/>
<stop offset="1" stop-color="#A45BD0"/>
</linearGradient>
<linearGradient id="paint2_linear" x1="118.146" y1="84.5772" x2="113.869" y2="90.3713" gradientUnits="userSpaceOnUse">
<stop stop-color="#E4B9FF"/>
<stop offset="1" stop-color="#A45BD0"/>
</linearGradient>
</defs>
</svg>
