<svg width="343" height="222" fill="none" xmlns="http://www.w3.org/2000/svg"><g filter="url(#filter0_d)"><path d="M211.806 48a2 2 0 0 1 2 2v.476a2 2 0 0 0 2 2h.439a2 2 0 0 0 2-2V50a2 2 0 0 1 2-2H275a4 4 0 0 1 4 4v86a4 4 0 0 1-4 4h-54.755a2 2 0 0 1-2-2v-.476a2 2 0 0 0-2-2h-.439a2 2 0 0 0-2 2V140a2 2 0 0 1-2 2H68a4 4 0 0 1-4-4v-24.187c0-.868.564-1.627 1.367-1.958 6.689-2.76 11.394-9.329 11.394-16.993 0-7.664-4.705-14.233-11.394-16.994-.803-.33-1.367-1.09-1.367-1.958V52a4 4 0 0 1 4-4h143.806z" fill="#fff"/><path d="M213.806 56.952v8.953h4.439v-8.953h-4.439zm0 13.429v8.952h4.439v-8.952h-4.439zm0 13.428v8.953h4.439v-8.953h-4.439zm0 13.43v8.951h4.439v-8.952h-4.439zm0 13.428v8.952h4.439v-8.952h-4.439zm0 13.428v8.953h4.439v-8.953h-4.439zM92.296 57.124H75.375V62.1h16.923v-4.977zm136.768 0h29.129V62.1h-29.129v-4.977zm16.923 10.505h-16.923v4.977h16.923v-4.977zm0 60.548h-16.923v4.976h16.923v-4.976zm23.581 0h-8.323v4.976h8.323v-4.976zm-194.194 0h36.897v4.976H75.374v-4.976z" fill="#8C91B1" fill-opacity=".32"/><path fill-rule="evenodd" clip-rule="evenodd" d="M257.381 95l-4.033-6.96h-8.065L241.251 95l4.032 6.961h8.065l4.033-6.96zm-3.072 8.62l4.994-8.62-4.994-8.62h-9.987L239.329 95l4.993 8.62h9.987z" fill="url(#paint0_linear)"/><path d="M99.787 78.412h64.639v7.741H99.787v-7.741zm0 14.93h45.497v4.975H99.787v-4.976zm59.368 12.164H99.787v4.976h59.368v-4.976z" fill="#8C91B1" fill-opacity=".32"/></g><defs><filter id="filter0_d" x="0" y="0" width="343" height="222" filterUnits="userSpaceOnUse" color-interpolation-filters="sRGB"><feFlood flood-opacity="0" result="BackgroundImageFix"/><feColorMatrix in="SourceAlpha" values="0 0 0 0 0 0 0 0 0 0 0 0 0 0 0 0 0 0 127 0"/><feOffset dy="16"/><feGaussianBlur stdDeviation="32"/><feColorMatrix values="0 0 0 0 0.0862745 0 0 0 0 0.0980392 0 0 0 0 0.192157 0 0 0 0.09 0"/><feBlend in2="BackgroundImageFix" result="effect1_dropShadow"/><feBlend in="SourceGraphic" in2="effect1_dropShadow" result="shape"/></filter><linearGradient id="paint0_linear" x1="259.165" y1="88.753" x2="241.964" y2="102.392" gradientUnits="userSpaceOnUse"><stop stop-color="#E4B9FF"/><stop offset="1" stop-color="#A45BD0"/></linearGradient></defs></svg>