<svg width="640" height="272" viewBox="0 0 640 272" fill="none" xmlns="http://www.w3.org/2000/svg">
<path d="M402.71 -7.25769L485.42 136L402.71 279.258L237.29 279.257L154.58 136L237.29 -7.25769L402.71 -7.25769Z" stroke="#882CC0" stroke-width="3.80952"/>
<path opacity="0.75" d="M440.805 -73.2396L561.61 136.001L440.805 345.241L199.195 345.241L78.3899 136.001L199.195 -73.2396L440.805 -73.2396Z" stroke="#882CC0" stroke-width="3.80952"/>
<path opacity="0.5" d="M478.9 -139.223L637.801 136L478.9 411.223L161.1 411.223L2.19945 136L161.1 -139.223L478.9 -139.223Z" stroke="#882CC0" stroke-width="3.80952"/>
<g filter="url(#filter0_d)">
<path d="M310.289 45.2244C311.487 44.5327 313.016 44.9378 313.704 46.1292L314.001 46.6429C314.689 47.8343 316.217 48.2395 317.416 47.5477L317.891 47.273C319.09 46.5812 319.503 45.0546 318.815 43.8632L318.519 43.3495C317.831 42.1581 318.244 40.6314 319.443 39.9397L378.834 5.64989C381.23 4.26643 384.288 5.07666 385.664 7.45958L439.222 100.225C440.598 102.608 439.771 105.661 437.374 107.044L377.983 141.334C376.785 142.026 375.256 141.621 374.568 140.429L374.271 139.916C373.583 138.724 372.054 138.319 370.856 139.011L370.38 139.286C369.182 139.977 368.769 141.504 369.457 142.695L369.753 143.209C370.441 144.4 370.027 145.927 368.829 146.619L212.845 236.677C210.448 238.06 207.391 237.25 206.015 234.867L190.952 208.777C190.412 207.841 190.551 206.669 191.215 205.809C196.751 198.643 197.765 188.61 192.992 180.344C188.219 172.077 179.024 167.938 170.049 169.149C168.973 169.294 167.888 168.829 167.347 167.893L152.457 142.102C151.081 139.719 151.908 136.666 154.305 135.282L310.289 45.2244Z" fill="url(#paint0_linear)"/>
<path d="M318.034 53.632L323.61 63.2886L328.424 60.5088L322.849 50.8522L318.034 53.632Z" fill="#8C91B1" fill-opacity="0.32"/>
<path d="M326.397 68.1169L331.972 77.7735L336.787 74.9938L331.212 65.3372L326.397 68.1169Z" fill="#8C91B1" fill-opacity="0.32"/>
<path d="M334.76 82.6018L340.335 92.2584L345.15 89.4787L339.575 79.8221L334.76 82.6018Z" fill="#8C91B1" fill-opacity="0.32"/>
<path d="M343.123 97.0867L348.698 106.743L353.513 103.964L347.938 94.307L343.123 97.0867Z" fill="#8C91B1" fill-opacity="0.32"/>
<path d="M351.486 111.572L357.061 121.228L361.876 118.449L356.3 108.792L351.486 111.572Z" fill="#8C91B1" fill-opacity="0.32"/>
<path d="M359.849 126.057L365.424 135.713L370.239 132.933L364.663 123.277L359.849 126.057Z" fill="#8C91B1" fill-opacity="0.32"/>
<path d="M186.341 129.911L167.985 140.509L171.085 145.877L189.44 135.279L186.341 129.911Z" fill="#8C91B1" fill-opacity="0.32"/>
<path d="M334.691 44.2613L366.287 26.0195L369.386 31.3874L337.79 49.6292L334.691 44.2613Z" fill="#8C91B1" fill-opacity="0.32"/>
<path d="M359.589 44.996L341.234 55.5936L344.333 60.9615L362.689 50.3639L359.589 44.996Z" fill="#8C91B1" fill-opacity="0.32"/>
<path d="M397.296 110.306L378.941 120.904L382.04 126.272L400.395 115.674L397.296 110.306Z" fill="#8C91B1" fill-opacity="0.32"/>
<path d="M422.874 95.5387L413.846 100.751L416.946 106.119L425.973 100.907L422.874 95.5387Z" fill="#8C91B1" fill-opacity="0.32"/>
<path d="M212.235 217.151L252.256 194.045L255.355 199.413L215.334 222.519L212.235 217.151Z" fill="#8C91B1" fill-opacity="0.32"/>
<path fill-rule="evenodd" clip-rule="evenodd" d="M388.993 67.382L380.284 62.3992L371.536 67.4499L371.497 77.4835L380.206 82.4663L388.954 77.4156L388.993 67.382ZM391.029 78.6031L391.078 66.1784L380.294 60.008L369.461 66.2624L369.412 78.6871L380.197 84.8575L391.029 78.6031Z" fill="url(#paint1_linear)"/>
<path d="M207.723 148.182L277.835 107.702L282.656 116.052L212.544 156.532L207.723 148.182Z" fill="#8C91B1" fill-opacity="0.32"/>
<path d="M217.02 164.285L266.37 135.793L269.469 141.161L220.119 169.653L217.02 164.285Z" fill="#8C91B1" fill-opacity="0.32"/>
<path d="M288.991 140.228L224.596 177.407L227.695 182.775L292.09 145.596L288.991 140.228Z" fill="#8C91B1" fill-opacity="0.32"/>
</g>
<g filter="url(#filter1_d)">
<path d="M379.647 104.525C380.983 104.167 382.355 104.954 382.711 106.283L382.865 106.856C383.221 108.185 384.592 108.972 385.929 108.614L386.46 108.472C387.796 108.113 388.59 106.746 388.234 105.417L388.081 104.844C387.725 103.515 388.519 102.148 389.856 101.79L456.096 84.0408C458.769 83.3246 461.512 84.8986 462.224 87.5563L489.947 191.019C490.659 193.676 489.07 196.411 486.397 197.127L420.157 214.876C418.821 215.234 417.449 214.447 417.093 213.119L416.939 212.546C416.583 211.217 415.211 210.43 413.875 210.788L413.344 210.93C412.008 211.288 411.213 212.656 411.57 213.985L411.723 214.557C412.079 215.886 411.285 217.254 409.948 217.612L235.976 264.227C233.304 264.944 230.56 263.37 229.848 260.712L222.051 231.614C221.771 230.57 222.21 229.474 223.074 228.815C230.276 223.326 233.851 213.898 231.38 204.678C228.91 195.458 221.1 189.08 212.118 187.927C211.04 187.789 210.113 187.059 209.833 186.015L202.125 157.25C201.413 154.592 203.002 151.857 205.675 151.141L379.647 104.525Z" fill="white"/>
<path d="M384.951 114.648L387.837 125.418L393.207 123.979L390.321 113.209L384.951 114.648Z" fill="#8C91B1" fill-opacity="0.32"/>
<path d="M389.28 130.803L392.165 141.573L397.535 140.134L394.649 129.364L389.28 130.803Z" fill="#8C91B1" fill-opacity="0.32"/>
<path d="M393.608 146.958L396.494 157.729L401.864 156.29L398.978 145.52L393.608 146.958Z" fill="#8C91B1" fill-opacity="0.32"/>
<path d="M397.937 163.114L400.823 173.884L406.193 172.445L403.307 161.675L397.937 163.114Z" fill="#8C91B1" fill-opacity="0.32"/>
<path d="M402.266 179.269L405.152 190.039L410.522 188.6L407.636 177.83L402.266 179.269Z" fill="#8C91B1" fill-opacity="0.32"/>
<path d="M406.595 195.424L409.481 206.194L414.85 204.755L411.965 193.985L406.595 195.424Z" fill="#8C91B1" fill-opacity="0.32"/>
<path d="M238.008 154.242L217.536 159.727L219.14 165.714L239.612 160.229L238.008 154.242Z" fill="#8C91B1" fill-opacity="0.32"/>
<path d="M403.465 109.908L438.704 100.465L440.308 106.452L405.069 115.895L403.465 109.908Z" fill="#8C91B1" fill-opacity="0.32"/>
<path d="M427.324 117.061L406.851 122.547L408.456 128.534L428.928 123.048L427.324 117.061Z" fill="#8C91B1" fill-opacity="0.32"/>
<path d="M446.841 189.902L426.369 195.388L427.973 201.375L448.446 195.889L446.841 189.902Z" fill="#8C91B1" fill-opacity="0.32"/>
<path d="M475.368 182.259L465.3 184.956L466.904 190.943L476.973 188.246L475.368 182.259Z" fill="#8C91B1" fill-opacity="0.32"/>
<path d="M240.44 245.208L285.076 233.247L286.681 239.234L242.044 251.195L240.44 245.208Z" fill="#8C91B1" fill-opacity="0.32"/>
<path fill-rule="evenodd" clip-rule="evenodd" d="M449.935 146.295L442.813 139.229L433.056 141.843L430.421 151.524L437.543 158.591L447.3 155.977L449.935 146.295ZM448.998 157.661L452.26 145.672L443.44 136.921L431.358 140.159L428.096 152.147L436.915 160.898L448.998 157.661Z" fill="url(#paint2_linear)"/>
<path d="M253.935 177.424L332.132 156.471L334.628 165.784L256.43 186.737L253.935 177.424Z" fill="#8C91B1" fill-opacity="0.32"/>
<path d="M258.747 195.384L313.787 180.636L315.392 186.623L260.351 201.371L258.747 195.384Z" fill="#8C91B1" fill-opacity="0.32"/>
<path d="M334.489 190.775L262.668 210.019L264.273 216.006L336.094 196.762L334.489 190.775Z" fill="#8C91B1" fill-opacity="0.32"/>
</g>
<defs>
<filter id="filter0_d" x="129.966" y="-8.85547" width="331.747" height="276.037" filterUnits="userSpaceOnUse" color-interpolation-filters="sRGB">
<feFlood flood-opacity="0" result="BackgroundImageFix"/>
<feColorMatrix in="SourceAlpha" type="matrix" values="0 0 0 0 0 0 0 0 0 0 0 0 0 0 0 0 0 0 127 0"/>
<feOffset dy="8"/>
<feGaussianBlur stdDeviation="10"/>
<feColorMatrix type="matrix" values="0 0 0 0 0.0862745 0 0 0 0 0.0980392 0 0 0 0 0.192157 0 0 0 0.09 0"/>
<feBlend mode="normal" in2="BackgroundImageFix" result="effect1_dropShadow"/>
<feBlend mode="normal" in="SourceGraphic" in2="effect1_dropShadow" result="shape"/>
</filter>
<filter id="filter1_d" x="180.836" y="70.7441" width="330.401" height="222.78" filterUnits="userSpaceOnUse" color-interpolation-filters="sRGB">
<feFlood flood-opacity="0" result="BackgroundImageFix"/>
<feColorMatrix in="SourceAlpha" type="matrix" values="0 0 0 0 0 0 0 0 0 0 0 0 0 0 0 0 0 0 127 0"/>
<feOffset dy="8"/>
<feGaussianBlur stdDeviation="10"/>
<feColorMatrix type="matrix" values="0 0 0 0 0.0862745 0 0 0 0 0.0980392 0 0 0 0 0.192157 0 0 0 0.09 0"/>
<feBlend mode="normal" in2="BackgroundImageFix" result="effect1_dropShadow"/>
<feBlend mode="normal" in="SourceGraphic" in2="effect1_dropShadow" result="shape"/>
</filter>
<linearGradient id="paint0_linear" x1="266.569" y1="70.466" x2="325.109" y2="171.86" gradientUnits="userSpaceOnUse">
<stop stop-color="#EFF0F5"/>
<stop offset="1" stop-color="#F8F9FC"/>
</linearGradient>
<linearGradient id="paint1_linear" x1="387.038" y1="59.5255" x2="377.013" y2="85.0641" gradientUnits="userSpaceOnUse">
<stop stop-color="#E4B9FF"/>
<stop offset="1" stop-color="#A45BD0"/>
</linearGradient>
<linearGradient id="paint2_linear" x1="450.08" y1="138.201" x2="433.787" y2="160.274" gradientUnits="userSpaceOnUse">
<stop stop-color="#E4B9FF"/>
<stop offset="1" stop-color="#A45BD0"/>
</linearGradient>
</defs>
</svg>
